<svg xmlns="http://www.w3.org/2000/svg" xmlns:xlink="http://www.w3.org/1999/xlink" x="0px" y="0px" width="48px" height="48px" viewBox="0 0 48 48"><g transform="translate(0, 0)"><path fill="#72C472" d="M10.82812,26H35c0.55228,0,1-0.44772,1-1v-2c0-0.55228-0.44772-1-1-1H10.82812l6.58594-6.58594
	l-2.82812-2.82812l-10,10c-0.78097,0.78097-0.78097,2.04716,0,2.82812l10,10l2.82812-2.82812L10.82812,26z"></path>
<path fill="#B3B3B3" d="M42,1H18c-0.55273,0-1,0.44727-1,1s0.44727,1,1,1h23v42H18c-0.55273,0-1,0.44727-1,1s0.44727,1,1,1h24
	c0.55273,0,1-0.44727,1-1V2C43,1.44727,42.55273,1,42,1z"></path></g></svg>