<svg xmlns="http://www.w3.org/2000/svg" xmlns:xlink="http://www.w3.org/1999/xlink" x="0px" y="0px" width="48px" height="48px" viewBox="0 0 48 48"><g transform="translate(0, 0)"><path d="M38,3H4A2,2,0,0,0,2,5V44a2,2,0,0,0,2,2H38a2,2,0,0,0,2-2V5A2,2,0,0,0,38,3Z" fill="#a67c52"></path>
  <path d="M34,41H8a1,1,0,0,1-1-1V9A1,1,0,0,1,8,8H34a1,1,0,0,1,1,1V40A1,1,0,0,1,34,41Z" fill="#e6e6e6"></path>
  <path d="M28,24H14a1,1,0,0,1,0-2H28a1,1,0,0,1,0,2Z" fill="#b3b3b3"></path>
  <path d="M28,18H14a1,1,0,0,1,0-2H28a1,1,0,0,1,0,2Z" fill="#b3b3b3"></path>
  <path d="M24,30H14a1,1,0,0,1,0-2H24a1,1,0,0,1,0,2Z" fill="#b3b3b3"></path>
  <path d="M19,36H14a1,1,0,0,1,0-2h5a1,1,0,0,1,0,2Z" fill="#b3b3b3"></path>
  <path d="M25,5a4,4,0,0,0-8,0H14a1,1,0,0,0-1,1v4a1,1,0,0,0,1,1H28a1,1,0,0,0,1-1V6a1,1,0,0,0-1-1Z" fill="#efd358"></path>
  <circle cx="21" cy="5" r="1" fill="#b29930"></circle>
  <path d="M37,46.134l2.168.676a4,4,0,0,0,4.973-2.326l2.5-7c1.75-4.911-3.1-9.647-8.418-8.225L37,29.582l-1.218-.326c-5.321-1.422-10.168,3.314-8.418,8.225l2.5,7a4,4,0,0,0,4.973,2.326Z" fill="#e86c60"></path>
  <path d="M43,21h0a0,0,0,0,1,0,0v1a5,5,0,0,1-5,5h0a0,0,0,0,1,0,0V26A5,5,0,0,1,43,21Z" fill="#72c472"></path></g></svg>