<svg xmlns="http://www.w3.org/2000/svg" viewBox="0 0 800 789.4"><defs><style>.cls-1,.cls-10,.cls-11{fill:none;}.cls-1{stroke:#9c82a7;stroke-linecap:round;stroke-linejoin:round;stroke-width:1.42px;}.cls-2{fill:#d3d6dd;}.cls-3{fill:#fff;}.cls-4,.cls-6{fill:#e9edf6;}.cls-12,.cls-5{fill:#e8ecf5;}.cls-5,.cls-6{opacity:0.5;}.cls-7{fill:#6b7aa0;}.cls-8{fill:#fe7c6f;}.cls-9{fill:#352b44;}.cls-10,.cls-11{stroke:#7c8193;stroke-miterlimit:10;}.cls-10{stroke-width:2.42px;}.cls-11{stroke-width:8px;}.cls-13{fill:#d55845;}.cls-14{fill:#fbda85;}.cls-15{fill:#788e9b;}.cls-16{fill:#dce0e1;}.cls-17{fill:#304855;}.cls-18{fill:#425b6c;}.cls-19{fill:#fdc87d;}.cls-20{fill:#fecb6f;}</style></defs><title>Asset 7</title><g id="Layer_2" data-name="Layer 2"><g id="Layer_1-2" data-name="Layer 1"><line class="cls-1" x1="165.29" y1="48.37" x2="239.38" y2="48.37"/><line class="cls-1" x1="184.44" y1="48.75" x2="184.44" y2="76.42"/><line class="cls-1" x1="184.44" y1="106.98" x2="184.44" y2="134.64"/><line class="cls-1" x1="231.06" y1="48.75" x2="231.06" y2="76.42"/><line class="cls-1" x1="231.06" y1="106.98" x2="231.06" y2="134.64"/><line class="cls-1" x1="209.2" y1="76.61" x2="209.2" y2="106.59"/><line class="cls-1" x1="162.59" y1="76.61" x2="162.59" y2="106.59"/><line class="cls-1" x1="255.05" y1="76.61" x2="255.05" y2="106.59"/><line class="cls-1" x1="141.7" y1="76.42" x2="269.17" y2="76.42"/><line class="cls-1" x1="165.29" y1="76.42" x2="239.38" y2="76.42"/><line class="cls-1" x1="245.57" y1="134.64" x2="161.04" y2="134.64"/><line class="cls-1" x1="269.17" y1="106.59" x2="141.7" y2="106.59"/><rect class="cls-2" x="221.84" y="137.75" width="120" height="86"/><rect class="cls-3" x="231.84" y="147.75" width="100" height="66"/><rect class="cls-3" x="231.84" y="147.75" width="100" height="66"/><polygon class="cls-4" points="256.42 213.75 331.84 213.75 331.84 196.34 302.84 167.34 256.42 213.75"/><polygon class="cls-2" points="256.42 213.75 309.25 213.75 285.79 184.38 256.42 213.75"/><polygon class="cls-4" points="259.5 164 231.84 191.67 231.84 213.75 309.25 213.75 259.5 164"/><circle class="cls-4" cx="281.42" cy="159.42" r="7"/><path class="cls-2" d="M283.49,152.73a7,7,0,0,1-6.14,12.38,7,7,0,1,0,6.14-12.38Z"/><rect class="cls-2" x="81.84" y="243.75" width="120" height="86"/><rect class="cls-3" x="91.84" y="253.75" width="100" height="66"/><rect class="cls-3" x="91.84" y="253.75" width="100" height="66"/><polygon class="cls-4" points="116.42 319.75 191.84 319.75 191.84 302.34 162.84 273.34 116.42 319.75"/><polygon class="cls-2" points="116.42 319.75 169.25 319.75 145.79 290.38 116.42 319.75"/><polygon class="cls-4" points="119.5 270 91.84 297.67 91.84 319.75 169.25 319.75 119.5 270"/><circle class="cls-4" cx="141.42" cy="265.42" r="7"/><path class="cls-2" d="M143.49,258.73a7,7,0,0,1-6.14,12.38,7,7,0,1,0,6.14-12.38Z"/><rect class="cls-2" x="221.84" y="243.75" width="100" height="126"/><rect class="cls-3" x="231.84" y="253.75" width="80" height="106"/><rect class="cls-3" x="231.84" y="253.75" width="80" height="106"/><polygon class="cls-4" points="293.21 297.55 246.8 359.75 311.84 359.75 311.84 322.51 293.21 297.55"/><polygon class="cls-2" points="246.8 359.75 299.63 359.75 276.17 320.4 246.8 359.75"/><polygon class="cls-4" points="249.88 293.09 231.84 317.26 231.84 359.75 299.63 359.75 249.88 293.09"/><circle class="cls-4" cx="273.94" cy="280.46" r="9.46"/><path class="cls-2" d="M276.74,271.42a9.46,9.46,0,0,1-8.29,16.72,9.45,9.45,0,1,0,8.29-16.72Z"/><rect class="cls-2" x="101.84" y="97.75" width="100" height="126"/><rect class="cls-3" x="111.84" y="107.75" width="80" height="106"/><rect class="cls-3" x="111.84" y="107.75" width="80" height="106"/><polygon class="cls-4" points="173.21 151.55 126.8 213.75 191.84 213.75 191.84 176.51 173.21 151.55"/><polygon class="cls-2" points="126.8 213.75 179.63 213.75 156.16 174.4 126.8 213.75"/><polygon class="cls-4" points="129.88 147.09 111.84 171.26 111.84 213.75 179.63 213.75 129.88 147.09"/><circle class="cls-4" cx="153.94" cy="134.46" r="9.46"/><path class="cls-2" d="M156.74,125.42a9.46,9.46,0,0,1-8.29,16.72,9.45,9.45,0,1,0,8.29-16.72Z"/><ellipse class="cls-5" cx="400" cy="738.68" rx="400" ry="50.72"/><line class="cls-1" x1="151.84" y1="616.01" x2="225.92" y2="616.01"/><line class="cls-1" x1="170.99" y1="616.4" x2="170.99" y2="644.06"/><line class="cls-1" x1="170.99" y1="674.62" x2="170.99" y2="702.28"/><line class="cls-1" x1="217.6" y1="616.4" x2="217.6" y2="644.06"/><line class="cls-1" x1="217.6" y1="674.62" x2="217.6" y2="702.28"/><line class="cls-1" x1="195.75" y1="644.25" x2="195.75" y2="674.23"/><line class="cls-1" x1="149.13" y1="644.25" x2="149.13" y2="674.23"/><line class="cls-1" x1="241.59" y1="644.25" x2="241.59" y2="674.23"/><line class="cls-1" x1="128.24" y1="644.06" x2="255.71" y2="644.06"/><line class="cls-1" x1="151.84" y1="644.06" x2="225.92" y2="644.06"/><line class="cls-1" x1="232.11" y1="702.28" x2="147.58" y2="702.28"/><line class="cls-1" x1="255.71" y1="674.23" x2="128.24" y2="674.23"/><line class="cls-1" x1="541.92" y1="236.48" x2="616" y2="236.48"/><line class="cls-1" x1="561.07" y1="236.87" x2="561.07" y2="264.53"/><line class="cls-1" x1="561.07" y1="295.09" x2="561.07" y2="322.75"/><line class="cls-1" x1="607.68" y1="236.87" x2="607.68" y2="264.53"/><line class="cls-1" x1="607.68" y1="295.09" x2="607.68" y2="322.75"/><line class="cls-1" x1="585.83" y1="264.72" x2="585.83" y2="294.7"/><line class="cls-1" x1="539.21" y1="264.72" x2="539.21" y2="294.7"/><line class="cls-1" x1="631.67" y1="264.72" x2="631.67" y2="294.7"/><line class="cls-1" x1="518.32" y1="264.53" x2="645.79" y2="264.53"/><line class="cls-1" x1="541.92" y1="264.53" x2="616" y2="264.53"/><line class="cls-1" x1="622.19" y1="322.75" x2="537.66" y2="322.75"/><line class="cls-1" x1="645.79" y1="294.7" x2="518.32" y2="294.7"/><circle class="cls-6" cx="605.53" cy="57.69" r="54.42"/><circle class="cls-2" cx="610.97" cy="54.42" r="54.42"/><circle class="cls-3" cx="610.97" cy="54.42" r="46.26"/><path class="cls-4" d="M611,8.16a46.68,46.68,0,0,0-5.44.33,46.25,46.25,0,0,1,0,91.85A46.25,46.25,0,1,0,611,8.16Z"/><rect class="cls-7" x="605.53" y="50.61" width="37.76" height="7.62" rx="2.91" ry="2.91"/><rect class="cls-7" x="589.37" y="66.77" width="43.2" height="7.62" rx="2.91" ry="2.91" transform="translate(681.55 -540.39) rotate(90)"/><rect class="cls-8" x="577.95" y="41.19" width="43.2" height="4.35" rx="1.66" ry="1.66" transform="translate(206.27 -411.24) rotate(45)"/><circle class="cls-9" cx="610.97" cy="54.42" r="8.16"/><line class="cls-10" x1="699.03" y1="405.4" x2="699.03" y2="706.55"/><line class="cls-10" x1="699.03" y1="405.4" x2="699.03" y2="706.55"/><polyline class="cls-10" points="685.45 419.99 689.98 456.93 643.75 743.78"/><line class="cls-10" x1="699.03" y1="419.99" x2="699.03" y2="721.13"/><polyline class="cls-10" points="712.62 419.99 708.09 456.93 754.32 743.78"/><line class="cls-11" x1="649.77" y1="706.41" x2="653.42" y2="683.76"/><line class="cls-11" x1="699.03" y1="661.12" x2="699.03" y2="683.76"/><line class="cls-11" x1="744.65" y1="683.76" x2="748.29" y2="706.41"/><path class="cls-12" d="M767.32,426.56H636.64a3.22,3.22,0,0,1-3.19-3.69l10.39-71.54a3.22,3.22,0,0,1,3.19-2.76h109.9a3.22,3.22,0,0,1,3.19,2.76l10.39,71.54A3.22,3.22,0,0,1,767.32,426.56Z"/><path class="cls-2" d="M770.5,422.88l-10.39-71.54a3.22,3.22,0,0,0-3.19-2.76H744.78l6.55,45.14a21.68,21.68,0,0,1-21.45,24.79H634.09l-.63,4.37a3.22,3.22,0,0,0,3.19,3.69H767.32A3.22,3.22,0,0,0,770.5,422.88Z"/><polygon class="cls-13" points="402.51 311.82 407.3 307.03 407.51 311.4 402.51 311.82"/><polygon class="cls-14" points="275.87 419.69 276.97 290.99 308.16 183.85 359.31 200.84 313.7 302.73 294.86 419.69 275.87 419.69"/><path class="cls-14" d="M294.86,419.69l3.31,43.64a4.56,4.56,0,0,1-5.32,4.84l-6.45-1.1a9.34,9.34,0,0,1-6.87-5.2l-7-14.71a9.34,9.34,0,0,1-.75-5.74l4.09-21.74Z"/><polygon class="cls-15" points="281.53 254.01 310.07 165.36 371.31 143.76 361.33 195.46 330.4 274.85 281.53 254.01"/><polygon class="cls-16" points="332.45 269.58 334.5 264.32 285 243.22 283.27 248.62 332.45 269.58"/><path class="cls-17" d="M332.42,705.55h31.71v22.71a6.83,6.83,0,0,1-6.83,6.83H328.1a6.83,6.83,0,0,1-6.83-6.83v-2.31a6.83,6.83,0,0,1,2.52-5.3l4.29-3.48a6.83,6.83,0,0,0,2.31-3.62Z"/><path class="cls-17" d="M471.29,705.55H439.59v22.71a6.83,6.83,0,0,0,6.83,6.83h29.21a6.83,6.83,0,0,0,6.83-6.83v-2.31a6.83,6.83,0,0,0-2.52-5.3l-4.29-3.48a6.83,6.83,0,0,1-2.31-3.62Z"/><polygon class="cls-16" points="468.23 376.07 468.22 375.59 336.8 375.59 336.79 376.07 330.62 566.71 331.36 706.21 366.1 706.21 378.66 566.71 402.35 458.42 402.51 458.21 402.68 458.42 426.36 566.71 438.92 706.21 473.65 706.21 474.4 566.71 468.23 376.07"/><polygon class="cls-18" points="468.84 394.89 468.23 376.07 468.22 375.59 336.8 375.59 336.79 376.07 336.18 394.89 468.84 394.89"/><polygon class="cls-14" points="529.15 419.69 528.05 290.99 496.86 183.85 445.71 200.84 491.32 302.73 510.16 419.69 529.15 419.69"/><path class="cls-14" d="M510.16,419.69l-3.31,43.64a4.56,4.56,0,0,0,5.32,4.84l6.45-1.1a9.34,9.34,0,0,0,6.87-5.2l7-14.71a9.34,9.34,0,0,0,.75-5.74l-4.09-21.74Z"/><polygon class="cls-15" points="359.35 147.97 376.7 141.94 426.9 141.94 433.64 143.76 498.54 201.56 468.56 266.24 468.04 375.59 404.05 375.59 401.06 375.59 337.07 375.59 336.54 266.24 306.56 201.56 359.35 147.97"/><path class="cls-14" d="M425.55,141.08V106.24h-48v34.84a24,24,0,0,0,24,24h0A24,24,0,0,0,425.55,141.08Z"/><path class="cls-14" d="M373.94,104.47,368.4,100a17.24,17.24,0,0,1-6.46-13.45V79.81a4.5,4.5,0,0,1,4.5-4.5h7.49Z"/><path class="cls-14" d="M430.9,104.47l5.54-4.44a17.24,17.24,0,0,0,6.46-13.45V79.81a4.5,4.5,0,0,0-4.5-4.5H430.9Z"/><rect class="cls-14" x="377.57" y="98" width="47.98" height="40.4"/><path class="cls-19" d="M377.57,123.45a49.07,49.07,0,0,0,9,8.59h0a18.32,18.32,0,0,0,10.91,3.6h9.15a18.32,18.32,0,0,0,10.65-3.41h0a49.81,49.81,0,0,0,8.32-7.49V98h-48Z"/><path class="cls-14" d="M386.52,127.55h0a18.32,18.32,0,0,0,10.91,3.6h9.15a18.32,18.32,0,0,0,10.65-3.41h0a49.85,49.85,0,0,0,20.87-40.56V52.8H366.65V88.09A49.11,49.11,0,0,0,386.52,127.55Z"/><path class="cls-18" d="M370.26,75.68l.89-6.09a33.09,33.09,0,0,1,1.53-6.22h0A15.51,15.51,0,0,1,392,53.75h0a31.58,31.58,0,0,0,19.68-.14h0a17.49,17.49,0,0,1,20.78,7.94h0a10.74,10.74,0,0,1,1.31,3.91l1.32,10a46.32,46.32,0,0,1,.4,6h0a2.83,2.83,0,0,0,2.83,2.83h0l1.87-25a29.1,29.1,0,0,0-23-30.64l-.59-.12a74.37,74.37,0,0,0-15.43-1.62h0a85.2,85.2,0,0,0-16.71,1.65l-20,4L380.85,36l-14.24.42,7.78,5.71L366,42l4.08,3.14-1.89,2.91a21.73,21.73,0,0,0-3.4,13.78l2,22.48h0a3,3,0,0,0,3-3h0A39.07,39.07,0,0,1,370.26,75.68Z"/><polygon class="cls-15" points="523.49 254.01 494.95 165.36 433.71 143.76 443.69 195.46 474.62 274.85 523.49 254.01"/><polygon class="cls-16" points="472.57 269.58 521.76 248.63 520.02 243.24 470.52 264.32 472.57 269.58"/><polygon class="cls-20" points="455.94 264.56 447.88 238.2 441.18 242.76 432.12 229.44 438.62 253.36 445.3 248.81 455.94 264.56"/><polygon class="cls-20" points="427.97 262.92 430.39 246.93 425.7 247.64 424.29 238.29 421.65 252.6 426.34 251.89 427.97 262.92"/><polygon class="cls-20" points="441.67 179.98 423.43 198.38 430.18 201.9 423.18 215.32 440.1 199.31 433.36 195.79 441.67 179.98"/><polygon class="cls-20" points="452.75 203.87 438.43 208.98 441.11 212.55 434 217.88 447.01 213.7 444.34 210.13 452.75 203.87"/></g></g></svg>