<?xml version="1.0" encoding="utf-8"?>
<!-- Generator: Adobe Illustrator 20.1.0, SVG Export Plug-In . SVG Version: 6.00 Build 0)  -->
<svg version="1.1" id="Layer_1" xmlns="http://www.w3.org/2000/svg" xmlns:xlink="http://www.w3.org/1999/xlink" x="0px" y="0px"
	 viewBox="0 0 580 680" style="enable-background:new 0 0 580 680;" xml:space="preserve">
<style type="text/css">
	.st0{fill:#DCE0E1;}
	.st1{opacity:0.5;fill:#DCE0E1;enable-background:new    ;}
	.st2{fill:none;stroke:#BFC1C1;stroke-width:2;stroke-linecap:round;stroke-linejoin:round;stroke-miterlimit:10;}
	.st3{display:none;}
	.st4{display:inline;opacity:0.3;fill:#2E4C59;enable-background:new    ;}
	.st5{display:inline;}
	.st6{fill:#425B6C;}
	.st7{fill:#F0F3F5;}
	.st8{fill:#34A0CA;}
	.st9{display:inline;fill:#FBDA85;}
</style>
<g id="Layer_2">
	<ellipse class="st0" cx="302.3" cy="604.6" rx="174.8" ry="20.5"/>
	<path class="st1" d="M413.2,59c14.2,8.1,20.8,20.8,20.8,20.8c4.6,8.7,6.8,20,4,36.5c-8.4,50.5-48.9,63.4-46.5,101
		c0.3,5.2,1.3,20,11.7,28.7c16.8,14.1,40.2-2.2,57.1,8.6c19.5,12.4,15.5,51.2,14.5,60.7c-9.7,92.9-131.3,205.6-250.6,200.5
		c-16.4-0.7-70.2-3-86.5-36.4c-12-24.7,2.9-55,3.9-57c18.7-37,57.3-34.1,67.3-68.3c3.1-10.7,4.6-29.1-4.9-37.3
		c-14.1-12.1-39.5,8.6-60.2-4.2c-13-8.1-16.3-24.6-17.4-30.7c-9-46.1,49.3-96.4,92.2-132.6C295.1,84.6,380.9,40.7,413.2,59z"/>
	<g>
		<line class="st2" x1="132.6" y1="490.5" x2="183.9" y2="490.5"/>
		<line class="st2" x1="145.9" y1="490.8" x2="145.9" y2="509.9"/>
		<line class="st2" x1="145.9" y1="531.1" x2="145.9" y2="550.3"/>
		<line class="st2" x1="178.2" y1="490.8" x2="178.2" y2="509.9"/>
		<line class="st2" x1="178.2" y1="531.1" x2="178.2" y2="550.3"/>
		<line class="st2" x1="163" y1="510.1" x2="163" y2="530.8"/>
		<line class="st2" x1="130.7" y1="510.1" x2="130.7" y2="530.8"/>
		<line class="st2" x1="194.8" y1="510.1" x2="194.8" y2="530.8"/>
		<line class="st2" x1="116.3" y1="509.9" x2="204.6" y2="509.9"/>
		<line class="st2" x1="132.6" y1="509.9" x2="183.9" y2="509.9"/>
		<line class="st2" x1="188.2" y1="550.3" x2="129.7" y2="550.3"/>
		<line class="st2" x1="204.6" y1="530.8" x2="116.3" y2="530.8"/>
	</g>
	<g>
		<line class="st2" x1="402.8" y1="234.6" x2="454.1" y2="234.6"/>
		<line class="st2" x1="416" y1="234.8" x2="416" y2="254"/>
		<line class="st2" x1="416" y1="275.2" x2="416" y2="294.3"/>
		<line class="st2" x1="448.3" y1="234.8" x2="448.3" y2="254"/>
		<line class="st2" x1="448.3" y1="275.2" x2="448.3" y2="294.3"/>
		<line class="st2" x1="433.2" y1="254.1" x2="433.2" y2="274.9"/>
		<line class="st2" x1="400.9" y1="254.1" x2="400.9" y2="274.9"/>
		<line class="st2" x1="464.9" y1="254.1" x2="464.9" y2="274.9"/>
		<line class="st2" x1="386.4" y1="254" x2="474.7" y2="254"/>
		<line class="st2" x1="402.8" y1="254" x2="454.1" y2="254"/>
		<line class="st2" x1="458.4" y1="294.3" x2="399.8" y2="294.3"/>
		<line class="st2" x1="474.7" y1="274.9" x2="386.4" y2="274.9"/>
	</g>
	<g class="st3">
		<path class="st4" d="M210.4,131.3h-63.3c-1.5,0-2.8,1.2-2.8,2.8v50.3c0,1.5,1.2,2.8,2.8,2.8h63.3c1.5,0,2.8-1.2,2.8-2.8v-50.3
			C213.2,132.5,211.9,131.3,210.4,131.3z"/>
		<g class="st5">
			<path class="st6" d="M209.2,183.7h-60.8c-2.2,0-4-1.8-4-4v-47.8c0-2.2,1.8-4,4-4h60.8c2.2,0,4,1.8,4,4v47.8
				C213.2,181.9,211.4,183.7,209.2,183.7z"/>
			<rect x="147" y="130.5" class="st7" width="63.5" height="50.5"/>
			<rect x="150.8" y="134.3" class="st8" width="56.2" height="3.5"/>
			<rect x="187.4" y="142.1" class="st0" width="19.5" height="1.8"/>
			<rect x="187.4" y="146.4" class="st0" width="15.4" height="1.8"/>
			<rect x="187.4" y="150.6" class="st0" width="19.5" height="1.8"/>
			<rect x="187.4" y="154.8" class="st0" width="15.4" height="1.8"/>
			<rect x="187.4" y="159" class="st0" width="19.5" height="1.8"/>
			<rect x="187.4" y="163.2" class="st0" width="15.4" height="1.8"/>
			<g>
				<rect x="180.5" y="142.1" class="st0" width="4.4" height="1.8"/>
				<rect x="180.5" y="146.4" class="st0" width="4.4" height="1.8"/>
				<rect x="180.5" y="150.6" class="st0" width="4.4" height="1.8"/>
				<rect x="180.5" y="154.8" class="st0" width="4.4" height="1.8"/>
				<rect x="180.5" y="159" class="st0" width="4.4" height="1.8"/>
				<rect x="180.5" y="163.2" class="st0" width="4.4" height="1.8"/>
			</g>
			<rect x="195.2" y="173.4" class="st8" width="11.8" height="2.5"/>
		</g>
		<path class="st9" d="M163.2,148.8h2.9h0.7c2.7,0,3.5,3.3,3.5,3.3l2.4,8c0.6,2.4-2.3,3-2.6,0.7l-1.5-4v2.8l1.7,14.2
			c0.3,2.5-3.4,2.9-3.7,0.4l-1.5-8.8c-0.1-0.5-0.6-0.5-0.7,0l-1.5,8.9c-0.3,2.5-4,2-3.7-0.4l1.6-14.2v-2.9l-1.6,4
			c-0.3,2.3-3.2,1.7-2.6-0.7l2.4-8c0,0,0.8-3.3,3.5-3.3H163.2z M164.7,141.4c1.6,0,3,1.3,3,3s-1.3,3-3,3c-1.6,0-3-1.3-3-3
			S163,141.4,164.7,141.4z"/>
	</g>
</g>
</svg>
