<svg xmlns="http://www.w3.org/2000/svg" viewBox="0 0 960 948.79"><defs><style>.cls-1{fill:#fff;}.cls-12,.cls-2,.cls-5{fill:none;}.cls-2{stroke:#9c82a7;stroke-width:1.42px;}.cls-12,.cls-2{stroke-linecap:round;stroke-linejoin:round;}.cls-3{fill:#e8ecf5;}.cls-15,.cls-3,.cls-39{opacity:0.5;}.cls-4{fill:#65b3b3;stroke-width:5.26px;}.cls-4,.cls-5{stroke:#d0cfd4;stroke-miterlimit:10;}.cls-5{stroke-width:1.65px;}.cls-6{fill:#dadfe8;}.cls-7{fill:#d3d6dd;}.cls-15,.cls-8{fill:#e9edf6;}.cls-9{fill:#c9cbd1;}.cls-10{fill:#494059;}.cls-11{fill:#d0cfd4;}.cls-12{stroke:#7c8193;stroke-width:8px;}.cls-13{fill:#a8becb;}.cls-14{fill:#99b3c1;}.cls-16{fill:#6b7aa0;}.cls-17{fill:#fe7c6f;}.cls-18{fill:#352b44;}.cls-19{fill:#dee4f0;}.cls-20{fill:#2c3e66;}.cls-21{fill:#2e8fd8;}.cls-22{fill:#fecb6f;}.cls-23{fill:#65b88c;}.cls-24{fill:#304855;}.cls-25{fill:#263a42;}.cls-26{fill:#59caaf;}.cls-27{fill:#ff7b7c;}.cls-28{fill:#e86d74;}.cls-29{fill:#fbda85;}.cls-30{fill:#fdc87d;}.cls-31{fill:#51b1a9;}.cls-32{fill:#facabc;}.cls-33{fill:#f4ba5d;}.cls-34{fill:#f0f0f0;}.cls-35{fill:#2a4049;}.cls-36{fill:#21323a;}.cls-37{fill:#dde3ef;}.cls-38{fill:#f2beb1;}.cls-39{fill:#e0e0e0;}</style></defs><title>Asset 1</title><g id="Layer_2" data-name="Layer 2"><g id="Layer_1-2" data-name="Layer 1"><rect class="cls-1" width="960" height="948.79"/><line class="cls-2" x1="750.99" y1="619.62" x2="825.08" y2="619.62"/><line class="cls-2" x1="770.14" y1="620" x2="770.14" y2="647.66"/><line class="cls-2" x1="770.14" y1="678.23" x2="770.14" y2="705.89"/><line class="cls-2" x1="816.76" y1="620" x2="816.76" y2="647.66"/><line class="cls-2" x1="816.76" y1="678.23" x2="816.76" y2="705.89"/><line class="cls-2" x1="794.9" y1="647.86" x2="794.9" y2="677.84"/><line class="cls-2" x1="748.29" y1="647.86" x2="748.29" y2="677.84"/><line class="cls-2" x1="840.75" y1="647.86" x2="840.75" y2="677.84"/><line class="cls-2" x1="727.4" y1="647.66" x2="854.87" y2="647.66"/><line class="cls-2" x1="750.99" y1="647.66" x2="825.08" y2="647.66"/><line class="cls-2" x1="831.27" y1="705.89" x2="746.74" y2="705.89"/><line class="cls-2" x1="854.87" y1="677.84" x2="727.4" y2="677.84"/><ellipse class="cls-3" cx="480" cy="854.9" rx="400" ry="50.72"/><path class="cls-3" d="M640,109.27a82.69,82.69,0,0,1,30.07,30c6.58,12.64,9.77,28.93,5.84,52.73-12.1,73.1-70.72,91.67-67.22,146.14.49,7.57,1.91,28.86,17,41.52,24.34,20.46,58.09-3.2,82.6,12.46,28.17,18,22.35,74,20.92,87.75-14,134.31-189.88,297.39-362.46,290-23.7-1-101.57-4.37-125.08-52.59-17.39-35.66,4.23-79.57,5.69-82.44,27.11-53.52,82.93-49.39,97.37-98.79,4.54-15.54,6.67-42.12-7.11-54-20.32-17.55-57.2,12.47-87.06-6-18.8-11.65-23.51-35.61-25.23-44.42-13-66.68,71.31-139.48,133.32-191.86C469.23,146.24,593.29,82.67,640,109.27Z"/><line class="cls-2" x1="231.84" y1="732.23" x2="305.92" y2="732.23"/><line class="cls-2" x1="250.99" y1="732.61" x2="250.99" y2="760.27"/><line class="cls-2" x1="250.99" y1="790.84" x2="250.99" y2="818.5"/><line class="cls-2" x1="297.6" y1="732.61" x2="297.6" y2="760.27"/><line class="cls-2" x1="297.6" y1="790.84" x2="297.6" y2="818.5"/><line class="cls-2" x1="275.75" y1="760.47" x2="275.75" y2="790.45"/><line class="cls-2" x1="229.13" y1="760.47" x2="229.13" y2="790.45"/><line class="cls-2" x1="321.59" y1="760.47" x2="321.59" y2="790.45"/><line class="cls-2" x1="208.24" y1="760.27" x2="335.71" y2="760.27"/><line class="cls-2" x1="231.84" y1="760.27" x2="305.92" y2="760.27"/><line class="cls-2" x1="312.11" y1="818.5" x2="227.58" y2="818.5"/><line class="cls-2" x1="335.71" y1="790.45" x2="208.24" y2="790.45"/><line class="cls-4" x1="333.89" y1="761.91" x2="333.89" y2="393.79"/><path class="cls-5" d="M234.07,403.18a10.53,10.53,0,1,0,21.05,0h78.77"/><rect class="cls-6" x="215.66" y="751.12" width="518.67" height="29.17"/><rect class="cls-7" x="219.51" y="751.12" width="30.7" height="29.17"/><polygon class="cls-8" points="703.78 730.07 721.32 705.5 238.09 705.5 255.64 730.07 240.22 751.12 719.2 751.12 703.78 730.07"/><polygon class="cls-6" points="703.78 730.07 721.32 705.5 238.09 705.5 255.64 730.07 703.78 730.07"/><rect class="cls-7" x="167.7" y="683.28" width="624.6" height="28.07"/><rect class="cls-9" x="167.7" y="683.28" width="28.77" height="28.07"/><rect class="cls-8" x="209.51" y="743.52" width="30.7" height="36.77"/><rect class="cls-7" x="709.2" y="751.12" width="25.13" height="29.17"/><rect class="cls-8" x="719.2" y="743.52" width="30.7" height="36.77" transform="translate(1469.1 1523.81) rotate(180)"/><circle class="cls-7" cx="224.87" cy="780.29" r="11.4"/><circle class="cls-7" cx="734.33" cy="779.19" r="11.4"/><circle class="cls-10" cx="768.32" cy="814.28" r="22.81"/><circle class="cls-11" cx="768.32" cy="814.28" r="11.4"/><line class="cls-12" x1="768.32" y1="814.28" x2="734.33" y2="780.29"/><circle class="cls-10" cx="191.09" cy="814.28" r="22.81"/><circle class="cls-11" cx="191.09" cy="814.28" r="11.4"/><line class="cls-12" x1="191.09" y1="814.28" x2="225.09" y2="780.29"/><rect class="cls-1" x="176.47" y="672.75" width="607.06" height="28.07"/><rect class="cls-1" x="176.47" y="672.75" width="607.06" height="28.07"/><rect class="cls-8" x="166.47" y="672.75" width="30" height="28.07"/><rect class="cls-9" x="764.76" y="683.28" width="28.77" height="28.07"/><rect class="cls-8" x="764.76" y="672.75" width="18.77" height="28.07"/><path class="cls-13" d="M176.47,641.17H766a17.54,17.54,0,0,1,17.54,17.54v21.05a0,0,0,0,1,0,0H176.47a0,0,0,0,1,0,0v-38.6A0,0,0,0,1,176.47,641.17Z"/><path class="cls-14" d="M196.47,659.77v-18.6h-20v38.6H783.53v-10H206.47A10,10,0,0,1,196.47,659.77Z"/><path class="cls-14" d="M763.53,659.77v-18.6h4a16,16,0,0,1,16,16v22.6H176.47v-10H753.53A10,10,0,0,0,763.53,659.77Z"/><path class="cls-13" d="M208.05,604.33h64.33A31.58,31.58,0,0,1,304,635.91v5.26a0,0,0,0,1,0,0H176.47a0,0,0,0,1,0,0v-5.26A31.58,31.58,0,0,1,208.05,604.33Z"/><path class="cls-14" d="M204.85,604.49a31.46,31.46,0,0,0-8.38,21.42h0a5.26,5.26,0,0,0,5.26,5.26H303.61a31.83,31.83,0,0,1,.35,4.74v5.26H176.47v-5.26A31.58,31.58,0,0,1,204.85,604.49Z"/><rect class="cls-13" x="155.42" y="519.24" width="21.05" height="217.56" rx="5.26" ry="5.26"/><path class="cls-14" d="M171.21,716.79H160.68a5.26,5.26,0,0,1-5.26-5.26v20a5.26,5.26,0,0,0,5.26,5.26h10.53a5.26,5.26,0,0,0,5.26-5.26v-20A5.26,5.26,0,0,1,171.21,716.79Z"/><rect class="cls-13" x="783.53" y="589.42" width="21.05" height="147.38" rx="5.26" ry="5.26"/><path class="cls-14" d="M799.32,716.79H788.79a5.26,5.26,0,0,1-5.26-5.26v20a5.26,5.26,0,0,0,5.26,5.26h10.53a5.26,5.26,0,0,0,5.26-5.26v-20A5.26,5.26,0,0,1,799.32,716.79Z"/><polygon class="cls-6" points="384.26 705.5 361.18 705.5 354.27 751.12 377.35 751.12 384.26 705.5"/><polygon class="cls-6" points="562.53 741.56 562.53 739.87 562.57 735.19 558.6 735.19 559.49 711.14 559.39 705.5 494.33 705.5 495.78 712.13 497.85 735.19 494.52 735.19 495.52 751.12 562.48 751.12 562.5 748.53 562.53 741.56"/><polygon class="cls-6" points="598.82 705.5 575.74 705.5 582.65 751.12 605.73 751.12 598.82 705.5"/><polygon class="cls-6" points="464.36 712.13 465.81 705.5 400.75 705.5 400.65 711.13 402.12 751.12 460.85 751.12 464.36 712.13"/><polygon class="cls-7" points="380.54 730.07 384.26 705.5 361.18 705.5 357.46 730.07 380.54 730.07"/><polygon class="cls-7" points="559.49 711.14 559.39 705.5 494.33 705.5 495.78 712.13 497.39 730.07 558.79 730.07 559.49 711.14"/><polygon class="cls-7" points="598.82 705.5 575.74 705.5 579.46 730.07 602.54 730.07 598.82 705.5"/><polygon class="cls-7" points="464.36 712.13 465.81 705.5 400.75 705.5 400.65 711.13 401.35 730.07 462.75 730.07 464.36 712.13"/><line class="cls-2" x1="621.92" y1="352.7" x2="696" y2="352.7"/><line class="cls-2" x1="641.07" y1="353.09" x2="641.07" y2="380.75"/><line class="cls-2" x1="641.07" y1="411.31" x2="641.07" y2="438.97"/><line class="cls-2" x1="687.68" y1="353.09" x2="687.68" y2="380.75"/><line class="cls-2" x1="687.68" y1="411.31" x2="687.68" y2="438.97"/><line class="cls-2" x1="665.83" y1="380.94" x2="665.83" y2="410.92"/><line class="cls-2" x1="619.21" y1="380.94" x2="619.21" y2="410.92"/><line class="cls-2" x1="711.67" y1="380.94" x2="711.67" y2="410.92"/><line class="cls-2" x1="598.32" y1="380.75" x2="725.79" y2="380.75"/><line class="cls-2" x1="621.92" y1="380.75" x2="696" y2="380.75"/><line class="cls-2" x1="702.19" y1="438.97" x2="617.66" y2="438.97"/><line class="cls-2" x1="725.79" y1="410.92" x2="598.32" y2="410.92"/><line class="cls-2" x1="245.29" y1="164.59" x2="319.38" y2="164.59"/><line class="cls-2" x1="264.44" y1="164.97" x2="264.44" y2="192.63"/><line class="cls-2" x1="264.44" y1="223.19" x2="264.44" y2="250.85"/><line class="cls-2" x1="311.06" y1="164.97" x2="311.06" y2="192.63"/><line class="cls-2" x1="311.06" y1="223.19" x2="311.06" y2="250.85"/><line class="cls-2" x1="289.2" y1="192.83" x2="289.2" y2="222.81"/><line class="cls-2" x1="242.59" y1="192.83" x2="242.59" y2="222.81"/><line class="cls-2" x1="335.05" y1="192.83" x2="335.05" y2="222.81"/><line class="cls-2" x1="221.7" y1="192.63" x2="349.17" y2="192.63"/><line class="cls-2" x1="245.29" y1="192.63" x2="319.38" y2="192.63"/><line class="cls-2" x1="325.57" y1="250.85" x2="241.04" y2="250.85"/><line class="cls-2" x1="349.17" y1="222.81" x2="221.7" y2="222.81"/><circle class="cls-15" cx="295.53" cy="173.9" r="54.42"/><circle class="cls-7" cx="300.97" cy="170.64" r="54.42"/><circle class="cls-1" cx="300.97" cy="170.64" r="46.26"/><path class="cls-8" d="M301,124.38a46.68,46.68,0,0,0-5.44.33,46.25,46.25,0,0,1,0,91.85A46.25,46.25,0,1,0,301,124.38Z"/><rect class="cls-16" x="295.53" y="166.83" width="37.76" height="7.62" rx="2.91" ry="2.91"/><rect class="cls-16" x="279.37" y="150.67" width="43.2" height="7.62" rx="2.91" ry="2.91" transform="translate(146.49 455.45) rotate(-90)"/><rect class="cls-17" x="267.95" y="179.51" width="43.2" height="4.35" rx="1.66" ry="1.66" transform="translate(-43.67 257.96) rotate(-45)"/><circle class="cls-18" cx="300.97" cy="170.64" r="8.16"/><polygon class="cls-11" points="559.49 711.14 559.01 683.28 489.47 683.28 495.61 711.35 559.48 711.35 559.49 711.14"/><polygon class="cls-11" points="470.67 683.28 401.12 683.28 400.65 711.13 400.66 711.35 464.53 711.35 470.67 683.28"/><polygon class="cls-11" points="595.45 683.28 572.38 683.28 576.63 711.35 599.71 711.35 595.45 683.28"/><polygon class="cls-14" points="558.3 641.17 480.26 641.17 488.7 679.77 558.95 679.77 558.3 641.17"/><polygon class="cls-14" points="589.08 641.17 566 641.17 571.85 679.77 594.92 679.77 589.08 641.17"/><polygon class="cls-14" points="479.88 641.17 401.84 641.17 401.18 679.77 471.44 679.77 479.88 641.17"/><polygon class="cls-14" points="388.15 679.77 394 641.17 370.92 641.17 365.08 679.77 388.15 679.77"/><polygon class="cls-8" points="384.96 700.83 388.15 679.77 365.08 679.77 361.89 700.83 384.96 700.83"/><polygon class="cls-8" points="488.7 679.77 493.3 700.83 559.31 700.83 558.95 679.77 488.7 679.77"/><polygon class="cls-9" points="384.96 700.83 361.89 700.83 360.29 711.35 383.37 711.35 384.96 700.83"/><polygon class="cls-8" points="401.18 679.77 400.83 700.83 466.83 700.83 471.44 679.77 401.18 679.77"/><polygon class="cls-8" points="571.85 679.77 575.03 700.83 598.11 700.83 594.92 679.77 571.85 679.77"/><polygon class="cls-7" points="495.52 751.12 497.35 780.29 562.16 780.29 562.48 751.12 495.52 751.12"/><polygon class="cls-7" points="372.93 780.29 377.35 751.12 354.27 751.12 349.85 780.29 372.93 780.29"/><polygon class="cls-7" points="605.73 751.12 582.65 751.12 587.07 780.29 610.15 780.29 605.73 751.12"/><polygon class="cls-7" points="460.85 751.12 402.12 751.12 403.19 780.29 458.22 780.29 460.85 751.12"/><rect class="cls-19" x="676.81" y="139.7" width="100" height="81.12" rx="4" ry="4"/><rect class="cls-20" x="676.81" y="134.7" width="100" height="81.12" rx="4" ry="4"/><rect class="cls-1" x="680.63" y="138.52" width="92.35" height="73.47"/><path class="cls-17" d="M691.59,204.7h-.1c-1.88-.09-2.88-2.67-3.6-5.17a27.72,27.72,0,0,1-1-9.63c.31-4.22.59-8.21,2.91-12.85,2.43-4.87,7.81-11.5,11.61-10.24a4.64,4.64,0,0,1,2.58,2.48,7.32,7.32,0,0,1,.33,2.5c0,.74,0,1.49,0,2.23a1,1,0,1,1-2-.08c0-.69,0-1.38,0-2.08a6.41,6.41,0,0,0-.19-1.81,2.59,2.59,0,0,0-1.33-1.31c-1.93-.64-6.54,4-9.14,9.21-2.14,4.28-2.41,8.07-2.7,12.08a25.66,25.66,0,0,0,.94,8.91c.89,3.07,1.53,3.6,1.71,3.69.11-.08.31-.27.5-.44s.6-.56,1.05-.94a24,24,0,0,1,3.53-2.38c.68-.41,1.25-.7,1.85-1,.76-.4,1.63-.85,3-1.66.79-.47,1.28-.79,1.45-1.27a2.55,2.55,0,0,0-.07-1.35l0-.16c0-.06-.29-1.61-.57-4.41a15.17,15.17,0,0,1,0-2.15c0-.57.06-1.21.07-1.93a1,1,0,0,1,2,0c0,.76,0,1.42-.08,2a14.21,14.21,0,0,0,0,1.84c.27,2.7.54,4.22.55,4.24l0,.15a4.33,4.33,0,0,1,0,2.38,4.57,4.57,0,0,1-2.34,2.38c-1.4.83-2.29,1.3-3.07,1.71-.6.32-1.12.59-1.76,1a22.12,22.12,0,0,0-3.26,2.19c-.41.34-.72.63-1,.86A2.67,2.67,0,0,1,691.59,204.7Z"/><path class="cls-17" d="M721.55,204.7a2.67,2.67,0,0,1-1.85-1c-.25-.23-.56-.52-1-.86a22.16,22.16,0,0,0-3.26-2.19c-.64-.38-1.16-.65-1.76-1-.78-.41-1.67-.88-3.07-1.71a4.57,4.57,0,0,1-2.34-2.38,4.33,4.33,0,0,1,0-2.38l0-.16s.28-1.54.55-4.23a14.25,14.25,0,0,0,0-1.85c0-.59-.06-1.25-.08-2a1,1,0,0,1,2,0c0,.72,0,1.36.07,1.93a15.2,15.2,0,0,1,0,2.15c-.27,2.79-.56,4.34-.57,4.41l0,.16a2.55,2.55,0,0,0-.07,1.35c.16.49.65.81,1.45,1.27,1.35.8,2.22,1.26,3,1.66.6.32,1.17.61,1.85,1a24,24,0,0,1,3.53,2.38c.45.38.79.69,1.05.94s.39.36.5.44c.17-.08.81-.6,1.71-3.69a25.65,25.65,0,0,0,.94-8.91c-.29-4-.56-7.81-2.7-12.08-2.6-5.2-7.21-9.85-9.14-9.21a2.59,2.59,0,0,0-1.33,1.31,6.42,6.42,0,0,0-.19,1.81c0,.69,0,1.39,0,2.08a1,1,0,1,1-2,.08c0-.74,0-1.49,0-2.23a7.33,7.33,0,0,1,.33-2.5,4.64,4.64,0,0,1,2.58-2.48c3.8-1.26,9.18,5.36,11.61,10.24,2.32,4.64,2.61,8.63,2.91,12.85a27.7,27.7,0,0,1-1,9.63c-.73,2.5-1.73,5.08-3.6,5.17Z"/><path class="cls-17" d="M699.49,189.82a1,1,0,0,1-1-.81,6,6,0,0,1,0-2.59,5.19,5.19,0,0,1,.47-1.26c.09-.19.19-.39.29-.65a4.32,4.32,0,0,0,.52-2.26c-.09-.23-.46-.38-1.34-.69-.52-.19-1.17-.42-1.92-.77a16.54,16.54,0,0,1-3.62-2.3,1,1,0,0,1,1.31-1.57,14.49,14.49,0,0,0,3.17,2c.66.31,1.24.51,1.75.7,1.14.41,2.13.76,2.56,1.89s-.06,2.56-.53,3.74c-.14.34-.26.6-.36.8a3.22,3.22,0,0,0-.31.81,4,4,0,0,0,0,1.72,1,1,0,0,1-.79,1.21Z"/><path class="cls-17" d="M692.45,187.66a1,1,0,0,1-.79-1.67,8.57,8.57,0,0,1,3.34-2.55,9.86,9.86,0,0,1,1.56-.47,7,7,0,0,0,1.79-.62,7.13,7.13,0,0,0,1.68-1.21,1,1,0,0,1,1.42,1.47,9.17,9.17,0,0,1-2.17,1.56A9,9,0,0,1,697,185a8.09,8.09,0,0,0-1.26.38,6.56,6.56,0,0,0-2.54,2A1,1,0,0,1,692.45,187.66Z"/><path class="cls-17" d="M713.37,189.82l-.21,0a1,1,0,0,1-.79-1.21,4,4,0,0,0,0-1.72,3.22,3.22,0,0,0-.31-.81c-.1-.21-.23-.46-.36-.8-.47-1.18-1-2.52-.53-3.74s1.42-1.48,2.56-1.89c.51-.18,1.09-.39,1.75-.7a14.49,14.49,0,0,0,3.17-2,1,1,0,0,1,1.31,1.57,16.53,16.53,0,0,1-3.62,2.3c-.75.35-1.4.58-1.92.77-.88.32-1.25.47-1.34.69a4.31,4.31,0,0,0,.52,2.26c.11.27.2.46.3.65a5.2,5.2,0,0,1,.47,1.26,6,6,0,0,1,0,2.59A1,1,0,0,1,713.37,189.82Z"/><path class="cls-17" d="M720.42,187.66a1,1,0,0,1-.79-.37,6.56,6.56,0,0,0-2.54-2,8.09,8.09,0,0,0-1.26-.38,9,9,0,0,1-2.25-.79,9.17,9.17,0,0,1-2.17-1.56,1,1,0,0,1,1.42-1.47,7.13,7.13,0,0,0,1.68,1.21,7,7,0,0,0,1.79.62,9.87,9.87,0,0,1,1.56.47A8.57,8.57,0,0,1,721.2,186a1,1,0,0,1-.79,1.67Z"/><path class="cls-17" d="M713.16,180.51h0a2,2,0,0,1-1.59-.53l-3.85-3.58V155.71a1.27,1.27,0,0,0-1.27-1.27h0a1.27,1.27,0,0,0-1.28,1.27V176.4l-3.51,3.54a2.25,2.25,0,0,1-1.81.66l-1.41-.13,1.83.49c-.25.23.26.46.24.77s-.55.76-.3,1c.09.09.34-.45.44-.38s-.76,3.38-.54,3.38,1.89-2.93,1.89-2.93l4.46-4.14,4.05,3.76a4.39,4.39,0,0,1,.7.84l1.08,1.68a10.47,10.47,0,0,1-.23-2.57c.05-.24.71.2.71.2a1.67,1.67,0,0,1-.51-.77,1.5,1.5,0,0,1,.3-.73C712.58,181,713.16,180.51,713.16,180.51Z"/><rect class="cls-21" x="686.15" y="143.98" width="81.63" height="5.1"/><rect class="cls-7" x="735.39" y="155.46" width="32.4" height="2.55"/><rect class="cls-7" x="735.39" y="161.58" width="32.4" height="2.55"/><rect class="cls-7" x="735.39" y="167.7" width="32.4" height="2.55"/><rect class="cls-7" x="735.39" y="173.82" width="32.4" height="2.55"/><rect class="cls-7" x="735.39" y="179.95" width="32.4" height="2.55"/><rect class="cls-7" x="735.39" y="186.07" width="32.4" height="2.55"/><rect class="cls-21" x="750.69" y="200.86" width="17.09" height="3.57"/><rect class="cls-22" x="577.3" y="493.94" width="8.76" height="362.84" transform="translate(-94.61 94.76) rotate(-8.62)"/><path class="cls-23" d="M413.53,849.88h30.1v21.56a6.48,6.48,0,0,1-6.48,6.48H409.42a6.48,6.48,0,0,1-6.48-6.48v-2.19a6.48,6.48,0,0,1,2.4-5l4.07-3.3a6.48,6.48,0,0,0,2.2-3.44Z"/><path class="cls-24" d="M545.37,849.88h-30.1v21.56a6.48,6.48,0,0,0,6.48,6.48h27.73a6.48,6.48,0,0,0,6.48-6.48v-2.19a6.48,6.48,0,0,0-2.4-5l-4.07-3.3a6.48,6.48,0,0,1-2.2-3.44Z"/><polygon class="cls-24" points="549.41 537.08 549.39 536.62 410.74 536.62 410.73 537.08 407.65 718.07 412.52 850.51 445.5 850.51 457.43 718.07 479.91 615.26 480.07 615.06 480.23 615.26 502.71 718.07 514.63 850.51 547.61 850.51 552.48 718.07 549.41 537.08"/><polygon class="cls-25" points="549.99 554.94 549.41 537.08 549.39 536.62 410.74 536.62 410.73 537.08 410.15 554.94 549.99 554.94"/><polygon class="cls-26" points="439.1 320.52 455.57 314.8 503.23 314.8 509.62 316.52 571.24 371.4 542.78 432.81 549.22 536.62 481.53 536.62 478.69 536.62 411 536.62 417.44 432.81 388.98 371.4 439.1 320.52"/><polygon class="cls-27" points="439.1 320.52 455.57 314.8 503.23 314.8 509.62 316.52 571.24 371.4 542.78 432.81 549.22 536.62 481.53 536.62 478.69 536.62 411 536.62 417.44 432.81 388.98 371.4 439.1 320.52"/><polygon class="cls-28" points="538.11 536.62 549.22 536.62 542.78 432.81 538.11 536.62"/><path class="cls-29" d="M501.94,314V280.91H456.39V314a22.78,22.78,0,0,0,22.78,22.78h0A22.78,22.78,0,0,0,501.94,314Z"/><rect class="cls-29" x="456.39" y="273.08" width="45.55" height="38.35"/><path class="cls-30" d="M456.39,297.24a46.59,46.59,0,0,0,8.5,8.16h0a17.4,17.4,0,0,0,10.35,3.42h8.69A17.4,17.4,0,0,0,494,305.58h0a47.3,47.3,0,0,0,7.9-7.11V273.08H456.39Z"/><path class="cls-31" d="M501.94,314.16h0a22.77,22.77,0,0,1-22.77,22.6h0a22.77,22.77,0,0,1-22.76-22.29h0l-4.88,1.76a27.75,27.75,0,0,0,55.35-.41Z"/><path class="cls-31" d="M501.94,314.16h0a22.77,22.77,0,0,1-22.77,22.6h0a22.77,22.77,0,0,1-22.76-22.29h0l-4.88,1.76a27.75,27.75,0,0,0,55.35-.41Z"/><path class="cls-32" d="M372.26,565.32,391.48,602a2.78,2.78,0,0,0,4.46.59l.59-.62a6.94,6.94,0,0,0,1.22-7.79l-15.88-34.42Z"/><rect class="cls-22" x="196.9" y="670.98" width="362.84" height="8.76" transform="matrix(0.15, -0.99, 0.99, 0.15, -346.1, 948.23)"/><rect class="cls-22" x="201.37" y="641.83" width="362.84" height="8.76" transform="translate(-313.48 927.87) rotate(-81.38)"/><path class="cls-33" d="M390.74,600.84l.1-10-.62-8.16-.8-9.87-8,53.41a8.85,8.85,0,0,0,4.29,2l2.64.46a4.28,4.28,0,0,0,1.56,0l2.46-16.26Z"/><path class="cls-16" d="M346,853.6h9.87a1.39,1.39,0,0,1,1.39,1.39v20.15a2.78,2.78,0,0,1-2.78,2.78H343.05a2.78,2.78,0,0,1-2.71-3.36l4.29-19.86A1.39,1.39,0,0,1,346,853.6Z"/><path class="cls-32" d="M363.42,456.57l8.1,122.51h0l-3.88,20.64a8.87,8.87,0,0,0,.71,5.45l6.65,14a8.87,8.87,0,0,0,6.52,4.93l2.64.46a4.33,4.33,0,0,0,5-4.6l-.72-9.55-1.9-13.7.1-10-.62-8.16,9.45-110.78Z"/><path class="cls-32" d="M587.73,565.32,568.51,602a2.78,2.78,0,0,1-4.46.59l-.59-.62a6.94,6.94,0,0,1-1.22-7.79l15.88-34.42Z"/><rect class="cls-22" x="572.83" y="464.79" width="8.76" height="362.84" transform="translate(-90.29 93.76) rotate(-8.62)"/><path class="cls-33" d="M569.07,600.84l-.1-10,.62-8.16.8-9.87,8,53.41a8.85,8.85,0,0,1-4.29,2l-2.64.46a4.28,4.28,0,0,1-1.56,0l-2.46-16.26Z"/><path class="cls-16" d="M614,853.6h-9.87a1.39,1.39,0,0,0-1.39,1.39v20.15a2.78,2.78,0,0,0,2.78,2.78h11.42a2.78,2.78,0,0,0,2.71-3.36l-4.29-19.86A1.39,1.39,0,0,0,614,853.6Z"/><path class="cls-34" d="M479.8,342.79h0a32.45,32.45,0,0,1-32.45-32.45V274.73h64.9v35.61A32.45,32.45,0,0,1,479.8,342.79Z"/><circle class="cls-34" cx="455.45" cy="307.44" r="1.39"/><path class="cls-35" d="M479.91,615.26l.16-.2h0a14.25,14.25,0,0,0-13.67,11.2l-20.08,91.8L434.39,850.51H445.5l11.93-132.44,17.08-78.12Z"/><polygon class="cls-35" points="549.41 537.08 549.39 536.62 538.29 536.62 538.3 537.08 541.37 718.07 536.5 850.51 547.61 850.51 552.48 718.07 549.41 537.08"/><polygon class="cls-36" points="549.41 537.08 549.4 536.85 549.39 536.62 538.29 536.62 538.3 537.08 538.6 554.94 549.71 554.94 549.41 537.08"/><path class="cls-8" d="M574,866.41a6.25,6.25,0,0,0-4.09-5.63l-11-4.28a5.55,5.55,0,0,1-2.53-3.22h0a42.84,42.84,0,0,1-1.78-12.62l.86-91.47H502l6.35,101.32v20.93a6.48,6.48,0,0,0,6.48,6.48h53.65a5.55,5.55,0,0,0,5.55-5.55v-6Z"/><path class="cls-37" d="M574,866.41a6.25,6.25,0,0,0-4.09-5.63l-11-4.28a5.56,5.56,0,0,1-2.53-3.22,42.84,42.84,0,0,1-1.78-12.62l.86-91.47H544.4l-.86,91.47a42.84,42.84,0,0,0,1.78,12.62,5.55,5.55,0,0,0,2.53,3.22l11,4.28a6.25,6.25,0,0,1,4.09,5.63v6a5.55,5.55,0,0,1-5.55,5.55h11.11a5.55,5.55,0,0,0,5.55-5.55v-6Z"/><polygon class="cls-37" points="501.98 749.19 502.76 761.73 555.5 749.19 501.98 749.19"/><polygon class="cls-37" points="555.5 755.46 503.44 772.52 503.92 780.14 555.27 773.73 555.5 755.46"/><polygon class="cls-37" points="555.21 780.21 504.43 788.36 505.9 811.86 555.09 793.52 555.21 780.21"/><polygon class="cls-37" points="554.98 805.01 506.16 816.01 506.67 824.05 554.84 820.03 554.98 805.01"/><polygon class="cls-37" points="554.73 830.99 507.04 829.97 508.24 849.14 554.64 840.3 554.73 830.99"/><path class="cls-37" d="M557.71,855.48a5.53,5.53,0,0,1-1.29-2.2,42.84,42.84,0,0,1-1.4-6.62l0-.07L508.32,857v12.31l49.4-13.78Z"/><polygon class="cls-37" points="560.95 857.28 514.81 877.92 543.62 877.92 563.7 858.35 560.95 857.28"/><path class="cls-37" d="M569.92,860.78l-2.6-1h0l-12.59,18.16h3.87l14.55-14.43A6.58,6.58,0,0,0,569.92,860.78Z"/><path class="cls-7" d="M554.65,840.13l.09-9.13-11.11-.24-.09,9.91c0,.58,0,1.16,0,1.74l11.06-2.11Z"/><path class="cls-7" d="M561,857.28l-5.17,2.31,3,1.18a6.73,6.73,0,0,1,1.53.85l3.36-3.27Z"/><polygon class="cls-7" points="555.09 793.52 555.21 780.21 544.09 781.99 543.94 797.68 555.09 793.52"/><path class="cls-7" d="M562.66,873.89l10.49-10.41h0a6.45,6.45,0,0,0-.6-.82l-.06-.06a6.58,6.58,0,0,0-.65-.64l-.13-.12a6.5,6.5,0,0,0-.68-.48l-.19-.13a6.54,6.54,0,0,0-.93-.45h0l-.9-.35-1.7-.66h0l-4.44,6.4c0,.08,0,.16,0,.24v6A5.5,5.5,0,0,1,562.66,873.89Z"/><polygon class="cls-7" points="544.15 775.12 555.27 773.73 555.27 773.73 555.45 755.48 544.3 759.13 544.15 775.12"/><path class="cls-7" d="M557.35,877.92h1.25l.23-.23A5.48,5.48,0,0,1,557.35,877.92Z"/><polygon class="cls-7" points="555.5 749.19 544.4 749.19 544.37 751.84 555.5 749.19"/><polygon class="cls-7" points="554.84 820.03 554.93 810.09 554.98 805.01 543.84 807.52 543.72 820.96 554.84 820.03"/><path class="cls-7" d="M557.71,855.48a5.53,5.53,0,0,1-.73-1l-.06-.09a5.52,5.52,0,0,1-.5-1.15h0v0c-.32-1.08-.59-2.16-.82-3.26v-.06c-.23-1.09-.41-2.18-.56-3.28l0-.07L544.29,849a42.83,42.83,0,0,0,1,4.3,5.55,5.55,0,0,0,2.53,3.22l2.68,1,7.21-2Z"/><path class="cls-32" d="M588.47,579.07h0l8.1-122.51-32.09,11.15,9.45,110.78-.62,8.16.1,10-1.9,13.7-.72,9.55a4.33,4.33,0,0,0,5,4.6l2.64-.46a8.87,8.87,0,0,0,6.52-4.93l6.65-14a8.87,8.87,0,0,0,.71-5.45Z"/><path class="cls-38" d="M588.47,579.07h0l8.1-122.51L569.66,354.85l-5.11,1.7,26.46,100-8.1,122.51h0l3.88,20.64a8.87,8.87,0,0,1-.71,5.45l-6.65,14A8.87,8.87,0,0,1,573,624a4.29,4.29,0,0,0,2.81.48l2.64-.46a8.87,8.87,0,0,0,6.52-4.93l6.65-14a8.87,8.87,0,0,0,.71-5.45Z"/><polygon class="cls-27" points="567.82 337.03 600.28 454.72 591.83 577.75 569.32 576.36 561.53 467.85 519.15 365.61 509.68 316.52 567.82 337.03"/><path class="cls-28" d="M567.82,337l-58.14-20.51V322l39.79,17a19.44,19.44,0,0,1,11.12,12.72l26.28,95.26a81.45,81.45,0,0,1,2.74,27.24l-7.08,103,9.3.57,8.45-123Z"/><path class="cls-18" d="M545.48,398.54l-9.49.79a5.55,5.55,0,0,0-5,6.54l11.48,62.58a2.78,2.78,0,0,0,3.28,2.22l9.57-1.94a2.78,2.78,0,0,0,2.21-3l-6.06-62.2A5.55,5.55,0,0,0,545.48,398.54Z"/><polygon class="cls-27" points="392.17 337.03 359.7 454.72 368.15 577.75 390.67 576.36 398.45 467.85 440.84 365.61 450.31 316.52 392.17 337.03"/><path class="cls-18" d="M414.52,398.54l9.49.79a5.55,5.55,0,0,1,5,6.54l-11.48,62.58a2.78,2.78,0,0,1-3.28,2.22l-9.57-1.94a2.78,2.78,0,0,1-2.21-3l6.06-62.2A5.55,5.55,0,0,1,414.52,398.54Z"/><path class="cls-1" d="M479.8,342.79h0a32.45,32.45,0,0,1-32.45-32.45V274.73h64.9v35.61A32.45,32.45,0,0,1,479.8,342.79Z"/><path class="cls-32" d="M452.94,279.22,447.69,275a16.37,16.37,0,0,1-6.13-12.77v-6.42a4.27,4.27,0,0,1,4.27-4.27h7.12Z"/><path class="cls-32" d="M507,279.22l5.26-4.21a16.37,16.37,0,0,0,6.13-12.77v-6.42a4.27,4.27,0,0,0-4.27-4.27H507Z"/><path class="cls-39" d="M447.35,278.88a46.62,46.62,0,0,0,17.54,26.42,17.4,17.4,0,0,0,10.35,3.42h8.69A17.4,17.4,0,0,0,494,305.47a47.31,47.31,0,0,0,18.21-26.35v-7.18h-64.9Z"/><path class="cls-32" d="M464.89,301.13h0a17.4,17.4,0,0,0,10.35,3.42h8.69A17.4,17.4,0,0,0,494,301.31h0a47.32,47.32,0,0,0,19.82-38.51V230.17H446v33.5A46.62,46.62,0,0,0,464.89,301.13Z"/><path class="cls-18" d="M449.74,251.88l.83-5.68a57.94,57.94,0,0,1,1.32-6.46h0a9.79,9.79,0,0,1,9.44-7.29l34.41-.09a36.21,36.21,0,0,0,13.8-2.77h0l.91,7.64q.33,2.76.89,5.49h0a67.37,67.37,0,0,1,1.36,13.48v1.3a2.73,2.73,0,0,0,2.73,2.73h0l5.92-25.91a7.47,7.47,0,0,0-8.15-9.08h0a23.66,23.66,0,0,0-23.44-20.38H478.71A46.56,46.56,0,0,0,459,209.24l-.25.12a25.45,25.45,0,0,0-14.19,18.07l0,.21a26.16,26.16,0,0,0-.4,7.49l2.28,25.1h0a2.93,2.93,0,0,0,2.93-2.93h0A37.69,37.69,0,0,1,449.74,251.88Z"/><path class="cls-18" d="M449.28,255.05l2.22-13.4h1.28a85.85,85.85,0,0,0,34.64-7.3l2.74-1.21h0a14.56,14.56,0,0,1-6.61,7.4l-2,1.07h0a35.68,35.68,0,0,0,20.53-9.33l.67-.62h0a7.37,7.37,0,0,1-2.61,7.25l-1.69,1.36,1.34-.33a23.1,23.1,0,0,0,10.41-5.71h0l2.65,23.44s4.9-16.29,3.84-18-10.2-19.47-10.2-19.47l-27.94-1.32-26.62,6.75L446.07,237Z"/><path class="cls-8" d="M477.54,312.16a32.45,32.45,0,0,1-26-16.47v15.25a25.62,25.62,0,0,0,14.63,23.29,32.23,32.23,0,0,0,11.38,2.93Z"/><circle class="cls-1" cx="455.45" cy="315.9" r="1.39"/><circle class="cls-1" cx="455.45" cy="307.79" r="1.39"/><circle class="cls-1" cx="462.43" cy="318.8" r="1.39"/><circle class="cls-1" cx="462.43" cy="311.74" r="1.39"/><circle class="cls-1" cx="462.43" cy="325.87" r="1.39"/><circle class="cls-1" cx="470.46" cy="324.36" r="1.39"/><circle class="cls-1" cx="470.46" cy="317.29" r="1.39"/><circle class="cls-1" cx="470.46" cy="331.43" r="1.39"/><path class="cls-8" d="M482.07,312.16a32.45,32.45,0,0,0,26-16.47v15.25a25.62,25.62,0,0,1-14.63,23.29,32.23,32.23,0,0,1-11.38,2.93Z"/><circle class="cls-1" cx="504.16" cy="315.9" r="1.39"/><circle class="cls-1" cx="504.16" cy="307.79" r="1.39"/><circle class="cls-1" cx="497.17" cy="318.8" r="1.39"/><circle class="cls-1" cx="497.17" cy="311.74" r="1.39"/><circle class="cls-1" cx="497.17" cy="325.87" r="1.39"/><circle class="cls-1" cx="489.14" cy="324.36" r="1.39"/><circle class="cls-1" cx="489.14" cy="317.29" r="1.39"/><circle class="cls-1" cx="489.14" cy="331.43" r="1.39"/></g></g></svg>