<svg xmlns="http://www.w3.org/2000/svg" viewBox="0 0 960 948.79"><defs><style>.cls-1{fill:#fff;}.cls-12,.cls-2{fill:#e8ecf5;}.cls-2,.cls-6{opacity:0.5;}.cls-10,.cls-11,.cls-3{fill:none;}.cls-3{stroke:#9c82a7;stroke-linecap:round;stroke-linejoin:round;stroke-width:1.42px;}.cls-4{fill:#d3d6dd;}.cls-5,.cls-6{fill:#e9edf6;}.cls-7{fill:#6b7aa0;}.cls-8{fill:#fe7c6f;}.cls-9{fill:#352b44;}.cls-10,.cls-11{stroke:#7c8193;stroke-miterlimit:10;}.cls-10{stroke-width:2.42px;}.cls-11{stroke-width:8px;}.cls-13{fill:#d55845;}.cls-14{fill:#fbda85;}.cls-15{fill:#788e9b;}.cls-16{fill:#dce0e1;}.cls-17{fill:#304855;}.cls-18{fill:#425b6c;}.cls-19{fill:#fdc87d;}.cls-20{fill:#fecb6f;}</style></defs><title>Boy heart</title><g id="Layer_2" data-name="Layer 2"><g id="Layer_1-2" data-name="Layer 1"><rect class="cls-1" width="960" height="948.79"/><path class="cls-2" d="M640,109.27a82.69,82.69,0,0,1,30.07,30c6.58,12.64,9.77,28.93,5.84,52.73-12.1,73.1-70.72,91.67-67.22,146.14.49,7.57,1.91,28.86,17,41.52,24.34,20.46,58.09-3.2,82.6,12.46,28.17,18,22.35,74,20.92,87.75-14,134.31-189.88,297.39-362.46,290-23.7-1-101.57-4.37-125.08-52.59-17.39-35.66,4.23-79.57,5.69-82.44,27.11-53.52,82.93-49.39,97.37-98.79,4.54-15.54,6.67-42.12-7.11-54-20.32-17.55-57.2,12.47-87.06-6-18.8-11.65-23.51-35.61-25.23-44.42-13-66.68,71.31-139.48,133.32-191.86C469.23,146.24,593.29,82.67,640,109.27Z"/><line class="cls-3" x1="245.29" y1="164.59" x2="319.38" y2="164.59"/><line class="cls-3" x1="264.44" y1="164.97" x2="264.44" y2="192.63"/><line class="cls-3" x1="264.44" y1="223.19" x2="264.44" y2="250.85"/><line class="cls-3" x1="311.06" y1="164.97" x2="311.06" y2="192.63"/><line class="cls-3" x1="311.06" y1="223.19" x2="311.06" y2="250.85"/><line class="cls-3" x1="289.2" y1="192.83" x2="289.2" y2="222.81"/><line class="cls-3" x1="242.59" y1="192.83" x2="242.59" y2="222.81"/><line class="cls-3" x1="335.05" y1="192.83" x2="335.05" y2="222.81"/><line class="cls-3" x1="221.7" y1="192.63" x2="349.17" y2="192.63"/><line class="cls-3" x1="245.29" y1="192.63" x2="319.38" y2="192.63"/><line class="cls-3" x1="325.57" y1="250.85" x2="241.04" y2="250.85"/><line class="cls-3" x1="349.17" y1="222.81" x2="221.7" y2="222.81"/><rect class="cls-4" x="301.84" y="253.97" width="120" height="86"/><rect class="cls-1" x="311.84" y="263.97" width="100" height="66"/><rect class="cls-1" x="311.84" y="263.97" width="100" height="66"/><polygon class="cls-5" points="336.42 329.97 411.84 329.97 411.84 312.55 382.84 283.55 336.42 329.97"/><polygon class="cls-4" points="336.42 329.97 389.25 329.97 365.79 300.6 336.42 329.97"/><polygon class="cls-5" points="339.5 280.22 311.84 307.89 311.84 329.97 389.25 329.97 339.5 280.22"/><circle class="cls-5" cx="361.42" cy="275.64" r="7"/><path class="cls-4" d="M363.49,268.95a7,7,0,0,1-6.14,12.38,7,7,0,1,0,6.14-12.38Z"/><rect class="cls-4" x="161.84" y="359.97" width="120" height="86"/><rect class="cls-1" x="171.84" y="369.97" width="100" height="66"/><rect class="cls-1" x="171.84" y="369.97" width="100" height="66"/><polygon class="cls-5" points="196.42 435.97 271.84 435.97 271.84 418.55 242.84 389.55 196.42 435.97"/><polygon class="cls-4" points="196.42 435.97 249.25 435.97 225.79 406.6 196.42 435.97"/><polygon class="cls-5" points="199.5 386.22 171.84 413.89 171.84 435.97 249.25 435.97 199.5 386.22"/><circle class="cls-5" cx="221.42" cy="381.64" r="7"/><path class="cls-4" d="M223.49,374.95a7,7,0,0,1-6.14,12.38,7,7,0,1,0,6.14-12.38Z"/><rect class="cls-4" x="301.84" y="359.97" width="100" height="126"/><rect class="cls-1" x="311.84" y="369.97" width="80" height="106"/><rect class="cls-1" x="311.84" y="369.97" width="80" height="106"/><polygon class="cls-5" points="373.21 413.77 326.8 475.97 391.84 475.97 391.84 438.73 373.21 413.77"/><polygon class="cls-4" points="326.8 475.97 379.63 475.97 356.17 436.62 326.8 475.97"/><polygon class="cls-5" points="329.88 409.3 311.84 433.48 311.84 475.97 379.63 475.97 329.88 409.3"/><circle class="cls-5" cx="353.94" cy="396.67" r="9.46"/><path class="cls-4" d="M356.74,387.64a9.46,9.46,0,0,1-8.29,16.72,9.45,9.45,0,1,0,8.29-16.72Z"/><rect class="cls-4" x="181.84" y="213.97" width="100" height="126"/><rect class="cls-1" x="191.84" y="223.97" width="80" height="106"/><rect class="cls-1" x="191.84" y="223.97" width="80" height="106"/><polygon class="cls-5" points="253.21 267.77 206.8 329.97 271.84 329.97 271.84 292.73 253.21 267.77"/><polygon class="cls-4" points="206.8 329.97 259.63 329.97 236.16 290.62 206.8 329.97"/><polygon class="cls-5" points="209.88 263.3 191.84 287.48 191.84 329.97 259.63 329.97 209.88 263.3"/><circle class="cls-5" cx="233.94" cy="250.67" r="9.46"/><path class="cls-4" d="M236.74,241.64a9.46,9.46,0,0,1-8.29,16.72,9.45,9.45,0,1,0,8.29-16.72Z"/><ellipse class="cls-2" cx="480" cy="854.9" rx="400" ry="50.72"/><line class="cls-3" x1="231.84" y1="732.23" x2="305.92" y2="732.23"/><line class="cls-3" x1="250.99" y1="732.61" x2="250.99" y2="760.27"/><line class="cls-3" x1="250.99" y1="790.84" x2="250.99" y2="818.5"/><line class="cls-3" x1="297.6" y1="732.61" x2="297.6" y2="760.27"/><line class="cls-3" x1="297.6" y1="790.84" x2="297.6" y2="818.5"/><line class="cls-3" x1="275.75" y1="760.47" x2="275.75" y2="790.45"/><line class="cls-3" x1="229.13" y1="760.47" x2="229.13" y2="790.45"/><line class="cls-3" x1="321.59" y1="760.47" x2="321.59" y2="790.45"/><line class="cls-3" x1="208.24" y1="760.27" x2="335.71" y2="760.27"/><line class="cls-3" x1="231.84" y1="760.27" x2="305.92" y2="760.27"/><line class="cls-3" x1="312.11" y1="818.5" x2="227.58" y2="818.5"/><line class="cls-3" x1="335.71" y1="790.45" x2="208.24" y2="790.45"/><line class="cls-3" x1="621.92" y1="352.7" x2="696" y2="352.7"/><line class="cls-3" x1="641.07" y1="353.09" x2="641.07" y2="380.75"/><line class="cls-3" x1="641.07" y1="411.31" x2="641.07" y2="438.97"/><line class="cls-3" x1="687.68" y1="353.09" x2="687.68" y2="380.75"/><line class="cls-3" x1="687.68" y1="411.31" x2="687.68" y2="438.97"/><line class="cls-3" x1="665.83" y1="380.94" x2="665.83" y2="410.92"/><line class="cls-3" x1="619.21" y1="380.94" x2="619.21" y2="410.92"/><line class="cls-3" x1="711.67" y1="380.94" x2="711.67" y2="410.92"/><line class="cls-3" x1="598.32" y1="380.75" x2="725.79" y2="380.75"/><line class="cls-3" x1="621.92" y1="380.75" x2="696" y2="380.75"/><line class="cls-3" x1="702.19" y1="438.97" x2="617.66" y2="438.97"/><line class="cls-3" x1="725.79" y1="410.92" x2="598.32" y2="410.92"/><circle class="cls-6" cx="685.53" cy="173.9" r="54.42"/><circle class="cls-4" cx="690.97" cy="170.64" r="54.42"/><circle class="cls-1" cx="690.97" cy="170.64" r="46.26"/><path class="cls-5" d="M691,124.38a46.68,46.68,0,0,0-5.44.33,46.25,46.25,0,0,1,0,91.85A46.25,46.25,0,1,0,691,124.38Z"/><rect class="cls-7" x="685.53" y="166.83" width="37.76" height="7.62" rx="2.91" ry="2.91"/><rect class="cls-7" x="669.37" y="182.99" width="43.2" height="7.62" rx="2.91" ry="2.91" transform="translate(877.77 -504.18) rotate(90)"/><rect class="cls-8" x="657.95" y="157.41" width="43.2" height="4.35" rx="1.66" ry="1.66" transform="translate(311.88 -433.77) rotate(45)"/><circle class="cls-9" cx="690.97" cy="170.64" r="8.16"/><line class="cls-10" x1="779.03" y1="521.62" x2="779.03" y2="822.77"/><line class="cls-10" x1="779.03" y1="521.62" x2="779.03" y2="822.77"/><polyline class="cls-10" points="765.45 536.21 769.98 573.15 723.75 859.99"/><line class="cls-10" x1="779.03" y1="536.21" x2="779.03" y2="837.35"/><polyline class="cls-10" points="792.62 536.21 788.09 573.15 834.32 859.99"/><line class="cls-11" x1="729.77" y1="822.62" x2="733.42" y2="799.98"/><line class="cls-11" x1="779.03" y1="777.34" x2="779.03" y2="799.98"/><line class="cls-11" x1="824.65" y1="799.98" x2="828.29" y2="822.62"/><path class="cls-12" d="M847.32,542.78H716.64a3.22,3.22,0,0,1-3.19-3.69l10.39-71.54a3.22,3.22,0,0,1,3.19-2.76h109.9a3.22,3.22,0,0,1,3.19,2.76l10.39,71.54A3.22,3.22,0,0,1,847.32,542.78Z"/><path class="cls-4" d="M850.5,539.09l-10.39-71.54a3.22,3.22,0,0,0-3.19-2.76H824.78l6.55,45.14a21.68,21.68,0,0,1-21.45,24.79H714.09l-.63,4.37a3.22,3.22,0,0,0,3.19,3.68H847.32A3.22,3.22,0,0,0,850.5,539.09Z"/><polygon class="cls-13" points="482.51 428.04 487.3 423.25 487.51 427.61 482.51 428.04"/><polygon class="cls-14" points="355.87 535.91 356.97 407.2 388.16 300.06 439.31 317.06 393.7 418.94 374.86 535.91 355.87 535.91"/><path class="cls-14" d="M374.86,535.91l3.31,43.64a4.56,4.56,0,0,1-5.32,4.84l-6.45-1.1a9.34,9.34,0,0,1-6.87-5.2l-7-14.71a9.34,9.34,0,0,1-.75-5.74l4.09-21.74Z"/><polygon class="cls-15" points="361.53 370.23 390.07 281.58 451.31 259.98 441.33 311.68 410.4 391.06 361.53 370.23"/><polygon class="cls-16" points="412.45 385.8 414.5 380.53 365 359.44 363.27 364.84 412.45 385.8"/><path class="cls-17" d="M412.42,821.77h31.71v22.71a6.83,6.83,0,0,1-6.83,6.83H408.1a6.83,6.83,0,0,1-6.83-6.83v-2.31a6.83,6.83,0,0,1,2.52-5.3l4.29-3.48a6.83,6.83,0,0,0,2.31-3.62Z"/><path class="cls-17" d="M551.29,821.77H519.59v22.71a6.83,6.83,0,0,0,6.83,6.83h29.21a6.83,6.83,0,0,0,6.83-6.83v-2.31a6.83,6.83,0,0,0-2.52-5.3l-4.29-3.48a6.83,6.83,0,0,1-2.31-3.62Z"/><polygon class="cls-16" points="548.23 492.29 548.22 491.81 416.8 491.81 416.79 492.29 410.62 682.93 411.36 822.43 446.1 822.43 458.66 682.93 482.35 574.64 482.51 574.43 482.68 574.64 506.36 682.93 518.92 822.43 553.65 822.43 554.4 682.93 548.23 492.29"/><polygon class="cls-18" points="548.84 511.1 548.23 492.29 548.22 491.81 416.8 491.81 416.79 492.29 416.18 511.1 548.84 511.1"/><polygon class="cls-14" points="609.15 535.91 608.05 407.2 576.86 300.06 525.71 317.06 571.32 418.94 590.16 535.91 609.15 535.91"/><path class="cls-14" d="M590.16,535.91l-3.31,43.64a4.56,4.56,0,0,0,5.32,4.84l6.45-1.1a9.34,9.34,0,0,0,6.87-5.2l7-14.71a9.34,9.34,0,0,0,.75-5.74l-4.09-21.74Z"/><polygon class="cls-15" points="439.35 264.19 456.7 258.16 506.9 258.16 513.64 259.98 578.54 317.78 548.56 382.46 548.04 491.81 484.05 491.81 481.06 491.81 417.07 491.81 416.54 382.46 386.56 317.78 439.35 264.19"/><path class="cls-14" d="M505.55,257.3V222.46h-48V257.3a24,24,0,0,0,24,24h0A24,24,0,0,0,505.55,257.3Z"/><path class="cls-14" d="M453.94,220.69l-5.54-4.44a17.24,17.24,0,0,1-6.46-13.45V196a4.5,4.5,0,0,1,4.5-4.5h7.49Z"/><path class="cls-14" d="M510.9,220.69l5.54-4.44a17.24,17.24,0,0,0,6.46-13.45V196a4.5,4.5,0,0,0-4.5-4.5H510.9Z"/><rect class="cls-14" x="457.57" y="214.21" width="47.98" height="40.4"/><path class="cls-19" d="M457.57,239.67a49.07,49.07,0,0,0,9,8.59h0a18.32,18.32,0,0,0,10.91,3.6h9.15a18.32,18.32,0,0,0,10.65-3.41h0a49.81,49.81,0,0,0,8.32-7.49V214.21h-48Z"/><path class="cls-14" d="M466.52,243.76h0a18.32,18.32,0,0,0,10.91,3.6h9.15A18.32,18.32,0,0,0,497.23,244h0a49.85,49.85,0,0,0,20.87-40.56V169H446.65V204.3A49.11,49.11,0,0,0,466.52,243.76Z"/><path class="cls-18" d="M450.26,191.9l.89-6.09a33.09,33.09,0,0,1,1.53-6.22h0A15.51,15.51,0,0,1,472,170h0a31.58,31.58,0,0,0,19.68-.14h0a17.49,17.49,0,0,1,20.78,7.94h0a10.74,10.74,0,0,1,1.31,3.91l1.32,10a46.32,46.32,0,0,1,.4,6h0a2.83,2.83,0,0,0,2.83,2.83h0l1.87-25a29.1,29.1,0,0,0-23-30.64l-.59-.12a74.37,74.37,0,0,0-15.43-1.62h0a85.2,85.2,0,0,0-16.71,1.65l-20,4,16.34,3.35-14.24.42,7.78,5.71-8.41-.05,4.08,3.14-1.89,2.91a21.73,21.73,0,0,0-3.4,13.78l2,22.48h0a3,3,0,0,0,3-3h0A39.07,39.07,0,0,1,450.26,191.9Z"/><polygon class="cls-15" points="603.49 370.23 574.95 281.58 513.72 259.98 523.69 311.68 554.62 391.06 603.49 370.23"/><polygon class="cls-16" points="552.57 385.8 601.76 364.85 600.02 359.45 550.52 380.53 552.57 385.8"/><polygon class="cls-20" points="535.95 380.78 527.88 354.42 521.18 358.97 512.12 345.66 518.62 369.58 525.3 365.03 535.95 380.78"/><polygon class="cls-20" points="507.97 379.14 510.39 363.14 505.7 363.86 504.29 354.51 501.65 368.81 506.34 368.1 507.97 379.14"/><polygon class="cls-20" points="521.67 296.19 503.43 314.6 510.18 318.12 503.18 331.54 520.1 315.52 513.36 312.01 521.67 296.19"/><polygon class="cls-20" points="532.75 320.09 518.43 325.2 521.11 328.77 514 334.09 527.01 329.92 524.34 326.35 532.75 320.09"/></g></g></svg>