<svg xmlns="http://www.w3.org/2000/svg" viewBox="0 0 800 802.44"><defs><style>.cls-1,.cls-31{fill:#e8ecf5;}.cls-1,.cls-6{opacity:0.5;}.cls-2,.cls-29,.cls-30{fill:none;}.cls-2{stroke:#9c82a7;stroke-linecap:round;stroke-linejoin:round;stroke-width:1.42px;}.cls-3{fill:#d3d6dd;}.cls-4{fill:#fff;}.cls-5,.cls-6{fill:#e9edf6;}.cls-7{fill:#6b7aa0;}.cls-8{fill:#fe7c6f;}.cls-9{fill:#352b44;}.cls-10{fill:#2e8fd8;}.cls-11{fill:#2689c6;}.cls-12{fill:#1e7faf;}.cls-13{fill:#facabc;}.cls-14{fill:#f2beb1;}.cls-15{fill:#f2786b;}.cls-16{fill:#d55845;}.cls-17{fill:#3e5663;}.cls-18{fill:#fbda85;}.cls-19{fill:#fdc87d;}.cls-20{fill:#f0f3f5;}.cls-21{fill:#304855;}.cls-22{fill:#263a42;}.cls-23{fill:#2a4049;}.cls-24{fill:#21323a;}.cls-25{fill:#76b3ce;}.cls-26{fill:#63a3ba;}.cls-27{fill:#efefef;}.cls-28{fill:#fecb6f;}.cls-29,.cls-30{stroke:#7c8193;stroke-miterlimit:10;}.cls-29{stroke-width:2.42px;}.cls-30{stroke-width:8px;}</style></defs><title>Madical Cardiac</title><g id="Layer_2" data-name="Layer 2"><g id="Layer_1-2" data-name="Layer 1"><path class="cls-1" d="M560,6.09a82.69,82.69,0,0,1,30.07,30c6.58,12.64,9.77,28.93,5.84,52.73C583.78,162,525.15,180.54,528.66,235c.49,7.57,1.91,28.86,17,41.52C570,297,603.7,273.32,628.22,289c28.17,18,22.35,74,20.92,87.75-14,134.31-189.88,297.39-362.46,290-23.7-1-101.57-4.37-125.08-52.59-17.39-35.66,4.23-79.57,5.69-82.44,27.11-53.52,82.93-49.39,97.37-98.79,4.54-15.54,6.67-42.12-7.11-54-20.32-17.55-57.2,12.47-87.06-6-18.8-11.65-23.51-35.61-25.23-44.42-13-66.68,71.31-139.48,133.32-191.86C389.23,43.07,513.29-20.5,560,6.09Z"/><line class="cls-2" x1="165.29" y1="61.41" x2="239.38" y2="61.41"/><line class="cls-2" x1="184.44" y1="61.8" x2="184.44" y2="89.46"/><line class="cls-2" x1="184.44" y1="120.02" x2="184.44" y2="147.68"/><line class="cls-2" x1="231.06" y1="61.8" x2="231.06" y2="89.46"/><line class="cls-2" x1="231.06" y1="120.02" x2="231.06" y2="147.68"/><line class="cls-2" x1="209.2" y1="89.65" x2="209.2" y2="119.63"/><line class="cls-2" x1="162.59" y1="89.65" x2="162.59" y2="119.63"/><line class="cls-2" x1="255.05" y1="89.65" x2="255.05" y2="119.63"/><line class="cls-2" x1="141.7" y1="89.46" x2="269.17" y2="89.46"/><line class="cls-2" x1="165.29" y1="89.46" x2="239.38" y2="89.46"/><line class="cls-2" x1="245.57" y1="147.68" x2="161.04" y2="147.68"/><line class="cls-2" x1="269.17" y1="119.63" x2="141.7" y2="119.63"/><rect class="cls-3" x="221.84" y="150.79" width="120" height="86"/><rect class="cls-4" x="231.84" y="160.79" width="100" height="66"/><rect class="cls-4" x="231.84" y="160.79" width="100" height="66"/><polygon class="cls-5" points="256.42 226.79 331.84 226.79 331.84 209.38 302.84 180.38 256.42 226.79"/><polygon class="cls-3" points="256.42 226.79 309.25 226.79 285.79 197.43 256.42 226.79"/><polygon class="cls-5" points="259.5 177.04 231.84 204.71 231.84 226.79 309.25 226.79 259.5 177.04"/><circle class="cls-5" cx="281.42" cy="172.46" r="7"/><path class="cls-3" d="M283.49,165.77a7,7,0,0,1-6.14,12.38,7,7,0,1,0,6.14-12.38Z"/><rect class="cls-3" x="81.84" y="256.79" width="120" height="86"/><rect class="cls-4" x="91.84" y="266.79" width="100" height="66"/><rect class="cls-4" x="91.84" y="266.79" width="100" height="66"/><polygon class="cls-5" points="116.42 332.79 191.84 332.79 191.84 315.38 162.84 286.38 116.42 332.79"/><polygon class="cls-3" points="116.42 332.79 169.25 332.79 145.79 303.43 116.42 332.79"/><polygon class="cls-5" points="119.5 283.05 91.84 310.71 91.84 332.79 169.25 332.79 119.5 283.05"/><circle class="cls-5" cx="141.42" cy="278.46" r="7"/><path class="cls-3" d="M143.49,271.77a7,7,0,0,1-6.14,12.38,7,7,0,1,0,6.14-12.38Z"/><rect class="cls-3" x="221.84" y="256.79" width="100" height="126"/><rect class="cls-4" x="231.84" y="266.79" width="80" height="106"/><rect class="cls-4" x="231.84" y="266.79" width="80" height="106"/><polygon class="cls-5" points="293.21 310.59 246.8 372.79 311.84 372.79 311.84 335.55 293.21 310.59"/><polygon class="cls-3" points="246.8 372.79 299.63 372.79 276.17 333.44 246.8 372.79"/><polygon class="cls-5" points="249.88 306.13 231.84 330.31 231.84 372.79 299.63 372.79 249.88 306.13"/><circle class="cls-5" cx="273.94" cy="293.5" r="9.46"/><path class="cls-3" d="M276.74,284.46a9.46,9.46,0,0,1-8.29,16.72,9.45,9.45,0,1,0,8.29-16.72Z"/><rect class="cls-3" x="101.84" y="110.79" width="100" height="126"/><rect class="cls-4" x="111.84" y="120.79" width="80" height="106"/><rect class="cls-4" x="111.84" y="120.79" width="80" height="106"/><polygon class="cls-5" points="173.21 164.59 126.8 226.79 191.84 226.79 191.84 189.55 173.21 164.59"/><polygon class="cls-3" points="126.8 226.79 179.63 226.79 156.16 187.44 126.8 226.79"/><polygon class="cls-5" points="129.88 160.13 111.84 184.31 111.84 226.79 179.63 226.79 129.88 160.13"/><circle class="cls-5" cx="153.94" cy="147.5" r="9.46"/><path class="cls-3" d="M156.74,138.46a9.46,9.46,0,0,1-8.29,16.72,9.45,9.45,0,1,0,8.29-16.72Z"/><ellipse class="cls-1" cx="400" cy="751.72" rx="400" ry="50.72"/><line class="cls-2" x1="151.84" y1="629.05" x2="225.92" y2="629.05"/><line class="cls-2" x1="170.99" y1="629.44" x2="170.99" y2="657.1"/><line class="cls-2" x1="170.99" y1="687.66" x2="170.99" y2="715.32"/><line class="cls-2" x1="217.6" y1="629.44" x2="217.6" y2="657.1"/><line class="cls-2" x1="217.6" y1="687.66" x2="217.6" y2="715.32"/><line class="cls-2" x1="195.75" y1="657.29" x2="195.75" y2="687.27"/><line class="cls-2" x1="149.13" y1="657.29" x2="149.13" y2="687.27"/><line class="cls-2" x1="241.59" y1="657.29" x2="241.59" y2="687.27"/><line class="cls-2" x1="128.24" y1="657.1" x2="255.71" y2="657.1"/><line class="cls-2" x1="151.84" y1="657.1" x2="225.92" y2="657.1"/><line class="cls-2" x1="232.11" y1="715.32" x2="147.58" y2="715.32"/><line class="cls-2" x1="255.71" y1="687.27" x2="128.24" y2="687.27"/><line class="cls-2" x1="541.92" y1="249.52" x2="616" y2="249.52"/><line class="cls-2" x1="561.07" y1="249.91" x2="561.07" y2="277.57"/><line class="cls-2" x1="561.07" y1="308.13" x2="561.07" y2="335.79"/><line class="cls-2" x1="607.68" y1="249.91" x2="607.68" y2="277.57"/><line class="cls-2" x1="607.68" y1="308.13" x2="607.68" y2="335.79"/><line class="cls-2" x1="585.83" y1="277.76" x2="585.83" y2="307.75"/><line class="cls-2" x1="539.21" y1="277.76" x2="539.21" y2="307.75"/><line class="cls-2" x1="631.67" y1="277.76" x2="631.67" y2="307.75"/><line class="cls-2" x1="518.32" y1="277.57" x2="645.79" y2="277.57"/><line class="cls-2" x1="541.92" y1="277.57" x2="616" y2="277.57"/><line class="cls-2" x1="622.19" y1="335.79" x2="537.66" y2="335.79"/><line class="cls-2" x1="645.79" y1="307.75" x2="518.32" y2="307.75"/><circle class="cls-6" cx="605.53" cy="70.73" r="54.42"/><circle class="cls-3" cx="610.97" cy="67.46" r="54.42"/><circle class="cls-4" cx="610.97" cy="67.46" r="46.26"/><path class="cls-5" d="M611,21.2a46.68,46.68,0,0,0-5.44.33,46.25,46.25,0,0,1,0,91.85A46.25,46.25,0,1,0,611,21.2Z"/><rect class="cls-7" x="605.53" y="63.65" width="37.76" height="7.62" rx="2.91" ry="2.91"/><rect class="cls-7" x="589.37" y="79.81" width="43.2" height="7.62" rx="2.91" ry="2.91" transform="translate(694.59 -527.35) rotate(90)"/><rect class="cls-8" x="577.95" y="54.23" width="43.2" height="4.35" rx="1.66" ry="1.66" transform="translate(215.49 -407.42) rotate(45)"/><circle class="cls-9" cx="610.97" cy="67.46" r="8.16"/><polygon class="cls-10" points="356.95 215.91 373.46 210.17 421.24 210.17 427.65 216.9 489.43 266.92 464.9 323.12 464.65 331.16 476.09 372.01 478.54 402 467.63 432.56 399.49 432.56 396.64 432.56 327.48 432.56 316.66 402 319.82 372.01 330.65 331.17 330.21 323.39 306.7 266.92 356.95 215.91"/><path class="cls-11" d="M464.65,331.16l.25-8,.78-1.78-1.86.34a10,10,0,0,0-8.16,9.49h0L467.09,372l2.45,30-10.91,30.56h9L478.54,402l-2.45-30Z"/><polygon class="cls-11" points="330.65 335.17 320.25 374.4 397.55 328.42 386.86 310.13 330.43 331.32 330.65 335.17"/><polygon class="cls-12" points="379.76 241.59 385.91 238.16 390.92 244.2 396.27 244.35 403.57 244.18 408.03 238.77 413.32 241.59 407.03 234.77 386.91 234.16 379.76 241.59"/><polygon class="cls-11" points="340.91 291.07 351.88 259.98 306.7 266.92 330.21 323.39 330.65 331.17 340.91 291.07"/><polygon class="cls-10" points="304.54 232.47 273.9 343.54 310.84 363.63 353.33 261.12 373.79 209.85 304.54 232.47"/><path class="cls-11" d="M389.73,308.78l6.36-16.49,11.19-6.73s7.36.11,7.71-.1,11.52-4.72,11.52-4.72L437.69,286l1.78,12.87a6,6,0,0,1-2.68,5.86l-8,5.2a6,6,0,0,0-.62.46l-14.77,12.54a6,6,0,0,1-3.56,1.42l-10.61.57Z"/><path class="cls-13" d="M526,495.24l-3.89-20.69L518.31,352l-27-102-45.9,16.18,40.71,97L504,474.55l-3.15,41.54a4.34,4.34,0,0,0,5.06,4.61l6.14-1a8.9,8.9,0,0,0,6.54-4.95l6.66-14A8.89,8.89,0,0,0,526,495.24Z"/><path class="cls-14" d="M526,495.24l-3.89-20.69L518.31,352l-27-102L485.84,252l26.47,100,3.75,122.51L520,495.24a8.9,8.9,0,0,1-.71,5.47l-6.66,14a8.89,8.89,0,0,1-6.54,4.95l-3,.52a4.31,4.31,0,0,0,2.91.53l6.14-1a8.89,8.89,0,0,0,6.54-4.95l6.66-14A8.9,8.9,0,0,0,526,495.24Z"/><polygon class="cls-10" points="489.51 232.47 522.06 350.46 523.33 472.41 502.15 472.41 483.21 363.63 440.72 261.12 418.45 209.53 489.51 232.47"/><path class="cls-11" d="M522.06,350.46l-32.55-118-71.06-22.93,1.13,7.63,24.94,8a75,75,0,0,1,49,50.61l21.5,74.64,1.27,121.95h7Z"/><path class="cls-15" d="M330.81,746.64H361v21.61a6.5,6.5,0,0,1-6.5,6.5H326.7a6.5,6.5,0,0,1-6.5-6.5v-2.2a6.5,6.5,0,0,1,2.4-5l4.08-3.31a6.5,6.5,0,0,0,2.2-3.44Z"/><path class="cls-16" d="M352,746.64v21.61a6.5,6.5,0,0,1-6.5,6.5h9a6.5,6.5,0,0,0,6.5-6.5V746.64Z"/><path class="cls-15" d="M463,746.64H432.81v21.61a6.5,6.5,0,0,0,6.5,6.5h27.8a6.5,6.5,0,0,0,6.5-6.5v-2.2a6.5,6.5,0,0,0-2.4-5l-4.08-3.31a6.5,6.5,0,0,1-2.2-3.44Z"/><path class="cls-16" d="M471.21,761l-4.08-3.31a6.5,6.5,0,0,1-2.2-3.44L463,746.64h-8l1.93,7.61a6.5,6.5,0,0,0,2.2,3.44l4.08,3.31a6.5,6.5,0,0,1,2.4,5v2.2a6.5,6.5,0,0,1-6.5,6.5h8a6.5,6.5,0,0,0,6.5-6.5v-2.2A6.5,6.5,0,0,0,471.21,761Z"/><polygon class="cls-17" points="468.16 450.94 467.56 432.57 327.48 432.57 326.89 450.94 468.16 450.94"/><path class="cls-18" d="M419.45,209.36V176.2H373.78v33.16a22.84,22.84,0,0,0,22.84,22.84h0A22.84,22.84,0,0,0,419.45,209.36Z"/><path class="cls-13" d="M419.45,209.36V176.2H373.78v33.16a22.84,22.84,0,0,0,22.84,22.84h0A22.84,22.84,0,0,0,419.45,209.36Z"/><rect class="cls-13" x="373.78" y="168.35" width="45.67" height="38.45"/><path class="cls-19" d="M373.78,192.58a46.71,46.71,0,0,0,8.53,8.18h0a17.44,17.44,0,0,0,10.38,3.43h8.71a17.44,17.44,0,0,0,10.14-3.25h0a47.42,47.42,0,0,0,7.92-7.13V168.35H373.78Z"/><polygon class="cls-15" points="403.05 233.05 391.46 233.05 382.92 408.16 397.26 419.65 411.6 408.16 403.05 233.05"/><polygon class="cls-15" points="403.05 233.05 391.46 233.05 382.92 408.16 397.26 419.65 411.6 408.16 403.05 233.05"/><polygon class="cls-16" points="390.92 244.2 397.29 250.46 403.6 244.15 403.09 232.95 391.5 232.95 390.92 244.2"/><polygon class="cls-15" points="399.47 223.77 395.05 223.77 385.77 233.05 397.26 244.54 408.75 233.05 399.47 223.77"/><polygon class="cls-11" points="419.48 203.92 396.89 223.78 413.32 241.59 431.81 213.51 419.48 203.92"/><polygon class="cls-20" points="387.57 312.85 406.04 294.37 405.49 283.08 388.18 300.4 387.57 312.85"/><polygon class="cls-4" points="384.88 368.05 408.49 344.44 407.94 333.15 385.49 355.6 384.88 368.05"/><polygon class="cls-4" points="386.19 341.18 407.3 320.07 406.75 308.78 386.8 328.73 386.19 341.18"/><polygon class="cls-4" points="386.19 341.18 407.3 320.07 406.75 308.78 386.8 328.73 386.19 341.18"/><polygon class="cls-11" points="373.6 203.92 363.33 213.51 379.77 241.59 396.89 223.78 373.6 203.92"/><path class="cls-13" d="M382.31,196.48h0a17.44,17.44,0,0,0,10.38,3.43h8.71a17.44,17.44,0,0,0,10.14-3.25h0A47.45,47.45,0,0,0,431.4,158V125.33h-68v33.59A46.74,46.74,0,0,0,382.31,196.48Z"/><path class="cls-13" d="M370.33,174.51l-5.27-4.22a16.41,16.41,0,0,1-6.14-12.8V151a4.28,4.28,0,0,1,4.28-4.28h7.13Z"/><path class="cls-13" d="M424.54,174.51l5.27-4.22a16.41,16.41,0,0,0,6.14-12.8V151a4.28,4.28,0,0,0-4.28-4.28h-7.13Z"/><path class="cls-9" d="M428.95,147.85l-.81-5.58a56.88,56.88,0,0,0-1.29-6.34h0a9.61,9.61,0,0,0-9.27-7.15l-33.79-.09A35.55,35.55,0,0,1,370.24,126h0l-.9,7.5q-.32,2.71-.87,5.39h0a66.15,66.15,0,0,0-1.34,13.24v1.27a2.68,2.68,0,0,1-2.68,2.68h0l-5.81-25.44a7.33,7.33,0,0,1,8-8.92h0a23.23,23.23,0,0,1,23-20H400.5A45.71,45.71,0,0,1,419.84,106l.25.12A25,25,0,0,1,434,123.85l0,.21a25.68,25.68,0,0,1,.39,7.35l-2.24,24.65h0a2.88,2.88,0,0,1-2.88-2.88h0A37,37,0,0,0,428.95,147.85Z"/><path class="cls-9" d="M428.72,128.94v30.83a23.41,23.41,0,0,1-5.43,15l-1,1.19a16.73,16.73,0,0,0-2.94,5.19l-1.59,4.53a3.24,3.24,0,0,1-6.24-.51,8.32,8.32,0,0,0-8.19-6.89H392.45a8.32,8.32,0,0,0-8.19,6.89,3.24,3.24,0,0,1-3.19,2.68h-1.25a3.24,3.24,0,0,1-3.19-2.68l-.54-3.09a16.72,16.72,0,0,0-2.92-6.92l-1.77-2.44A23.4,23.4,0,0,1,367,159V137.75h-3.45v37a16.72,16.72,0,0,0,3.37,10.07l11.63,15.43a17.22,17.22,0,0,0,13.75,6.86h11.15a17.23,17.23,0,0,0,13.75-6.86l11.63-15.43a16.72,16.72,0,0,0,3.37-10.07V128.94Zm-23.84,67.6H390.81a3.34,3.34,0,0,1-3.34-3.34V191a6.69,6.69,0,0,1,6.69-6.69h7.38a6.69,6.69,0,0,1,6.69,6.69v2.23A3.34,3.34,0,0,1,404.88,196.54Z"/><polygon class="cls-21" points="467.58 433.02 467.57 432.56 327.48 432.56 319.1 614.48 329.81 747.26 362.87 747.26 374.83 614.48 397.37 511.41 397.52 511.21 397.68 511.41 420.22 614.48 432.18 747.26 465.24 747.26 475.95 614.48 467.58 433.02"/><polygon class="cls-22" points="468.41 450.93 467.57 432.56 327.48 432.56 326.64 450.93 468.41 450.93"/><path class="cls-23" d="M397.37,511.41l.16-.2h0a11.63,11.63,0,0,0-11.11,9.14l-20.58,94.13-12,132.78h9l12-132.78L393,531.27Z"/><polygon class="cls-23" points="467.58 433.02 467.57 432.56 458.57 432.56 458.58 433.02 466.94 614.48 456.24 747.26 465.24 747.26 475.94 614.48 467.58 433.02"/><polygon class="cls-24" points="467.57 432.56 458.57 432.56 459.41 450.93 468.41 450.93 467.57 432.56"/><polygon class="cls-25" points="329.16 739.27 329.81 747.26 362.87 747.26 363.59 739.27 329.16 739.27"/><polygon class="cls-26" points="354.59 739.27 353.87 747.26 362.87 747.26 363.59 739.27 354.59 739.27"/><polygon class="cls-25" points="431.46 739.27 432.18 747.26 465.24 747.26 465.89 739.27 431.46 739.27"/><polygon class="cls-26" points="456.89 739.27 456.24 747.26 465.24 747.26 465.89 739.27 456.89 739.27"/><path class="cls-11" d="M388.73,294.78l5.53-14.35a6,6,0,0,1,2.86-3.18l7.89-4a6,6,0,0,1,2.66-.66l5.16-.07A6,6,0,0,0,415,272l7.7-3.15a6,6,0,0,1,5.33.39l6.92,4.1a6,6,0,0,1,2.92,4.72L439,292.62l-11.54,5.48-16.6,12.1-12.63.68Z"/><polygon class="cls-11" points="399.21 308.89 389.73 292.78 329.35 315.97 330.21 320.39 330.65 328.17 323.78 354.07 399.21 308.89"/><path class="cls-16" d="M407,310.41l-1.82-37.28-1.21.62h0l-6.82,3.5a6,6,0,0,0-2.86,3.18l-4.8,12.45-1.08.41L387.27,316l10.33-6.19.61,1,7.57-.41h0Z"/><polygon class="cls-11" points="329.35 315.97 273.9 343.54 311.92 362.22 329.75 318.01 333.67 314.62 329.35 315.97"/><polygon class="cls-16" points="394 321.54 387.59 311.77 386.8 328.73 394 321.54"/><polygon class="cls-27" points="407.02 312.94 398.06 317.38 386.8 328.73 386.44 335.04 397.3 328.58 396.2 326.7 398.96 325.04 402.51 324.86 407.3 320.07 407.02 312.94"/><path class="cls-13" d="M439.59,295.08,438,280.76a5,5,0,0,0-2.85-4l-6.65-3.11a5,5,0,0,0-4-.1L416,277a6,6,0,0,1-2.2.45l-4.95.06a6,6,0,0,0-3,.86l-8,4.83a6,6,0,0,0-2.5,3l-5.62,14.57L276.9,343.54,294,379.94l105.26-63.06,10.86-.59a6,6,0,0,0,3.21-1.14l15.17-11.05,8.32-4A5,5,0,0,0,439.59,295.08Z"/><path class="cls-14" d="M439.38,293.14a5,5,0,0,1-2.61,3l-8.32,4-15.17,11.05a6,6,0,0,1-3.21,1.14l-10.86.59L294,375.94l-15.46-33-1.59.6L294,379.94l105.26-63.06,10.86-.59a6,6,0,0,0,3.21-1.14l15.17-11.05,8.32-4a5,5,0,0,0,2.82-5.07Z"/><polygon class="cls-10" points="397.55 319.42 292.09 382.15 273.9 343.54 386.86 301.13 397.55 319.42"/><polygon class="cls-11" points="499.88 459.35 502.15 472.41 523.33 472.41 523.2 459.35 499.88 459.35"/><polygon class="cls-11" points="386.55 325.97 397.55 319.42 386.86 301.13 374.42 305.81 386.55 325.97"/><polygon class="cls-28" points="450.32 346.44 442.25 320.08 435.56 324.63 426.5 311.32 433 335.24 439.68 330.69 450.32 346.44"/><polygon class="cls-28" points="422.35 344.8 424.77 328.81 420.07 329.51 418.66 320.17 416.02 334.47 420.71 333.76 422.35 344.8"/><polygon class="cls-28" points="436.05 231.85 417.81 250.26 424.55 253.78 417.56 267.2 434.47 251.18 427.73 247.67 436.05 231.85"/><polygon class="cls-28" points="447.13 255.75 432.81 260.86 435.48 264.43 428.37 269.75 441.39 265.57 438.71 262.01 447.13 255.75"/><line class="cls-29" x1="699.03" y1="418.45" x2="699.03" y2="719.59"/><line class="cls-29" x1="699.03" y1="418.45" x2="699.03" y2="719.59"/><polyline class="cls-29" points="685.45 433.03 689.98 469.97 643.75 756.82"/><line class="cls-29" x1="699.03" y1="433.03" x2="699.03" y2="734.18"/><polyline class="cls-29" points="712.62 433.03 708.09 469.97 754.32 756.82"/><line class="cls-30" x1="649.77" y1="719.45" x2="653.42" y2="696.81"/><line class="cls-30" x1="699.03" y1="674.16" x2="699.03" y2="696.81"/><line class="cls-30" x1="744.65" y1="696.81" x2="748.29" y2="719.45"/><path class="cls-31" d="M767.32,439.6H636.64a3.22,3.22,0,0,1-3.19-3.69l10.39-71.54a3.22,3.22,0,0,1,3.19-2.76h109.9a3.22,3.22,0,0,1,3.19,2.76l10.39,71.54A3.22,3.22,0,0,1,767.32,439.6Z"/><path class="cls-3" d="M770.5,435.92l-10.39-71.54a3.22,3.22,0,0,0-3.19-2.76H744.78l6.55,45.14a21.68,21.68,0,0,1-21.45,24.79H634.09l-.63,4.37a3.22,3.22,0,0,0,3.19,3.69H767.32A3.22,3.22,0,0,0,770.5,435.92Z"/><polygon class="cls-16" points="395 320.96 399.79 316.17 400 320.54 395 320.96"/></g></g></svg>