<svg xmlns="http://www.w3.org/2000/svg" viewBox="0 0 842.65 824.11"><defs><style>.cls-1{isolation:isolate;}.cls-2,.cls-9{fill:#e8ecf5;}.cls-2,.cls-39{opacity:0.5;}.cls-3,.cls-37{fill:none;stroke-linecap:round;stroke-linejoin:round;}.cls-3{stroke:#9c82a7;stroke-width:1.42px;}.cls-4{fill:#dadfe8;}.cls-5{fill:#c1c0c9;}.cls-6{fill:#e86d74;}.cls-39,.cls-7{fill:#ff7b7c;}.cls-8{fill:#d8646f;}.cls-10,.cls-21{fill:#fff;}.cls-11{fill:#d3d6dd;}.cls-12{fill:#c9cbd1;}.cls-13{fill:#888ea0;}.cls-14{fill:#63b88e;}.cls-15{fill:#59ad81;}.cls-16{mix-blend-mode:color-burn;}.cls-17{fill:#e9edf6;}.cls-18{fill:#d0cfd4;}.cls-19{fill:#7c8193;}.cls-20{fill:#fecb6f;}.cls-21{opacity:0.25;}.cls-22{fill:#f4ba5d;}.cls-23{fill:#fce170;}.cls-24{fill:#2e8fd8;}.cls-25{fill:#1e83c1;}.cls-26{fill:#352b44;}.cls-27{fill:#dce1ea;}.cls-28{fill:#2689c6;}.cls-29{fill:#6d7384;}.cls-30{fill:#6b7aa0;}.cls-31{fill:#494059;}.cls-32{fill:#4aa372;}.cls-33{fill:#facabc;}.cls-34{fill:#f2beb1;}.cls-35{fill:#efefef;}.cls-36{fill:#b8c8d3;}.cls-37{stroke:#59caaf;stroke-width:4.08px;}.cls-38{fill:#a8becb;}</style></defs><title>Medical diabetes</title><g class="cls-1"><g id="Layer_2" data-name="Layer 2"><g id="Layer_1-2" data-name="Layer 1"><ellipse class="cls-2" cx="337.09" cy="794.21" rx="337.09" ry="23.45"/><ellipse class="cls-2" cx="762.65" cy="793.49" rx="80" ry="12"/><path class="cls-2" d="M547.06,16.56a82.69,82.69,0,0,1,30.07,30c6.58,12.64,9.77,28.93,5.84,52.73-12.1,73.1-70.72,91.67-67.22,146.14.49,7.57,1.91,28.86,17,41.52,24.34,20.46,58.09-3.2,82.6,12.46,28.17,18,22.35,74,20.92,87.75-14,134.31-189.88,297.39-362.46,290-23.7-1-101.57-4.37-125.08-52.59-17.39-35.66,4.23-79.57,5.69-82.44,27.11-53.52,82.93-49.39,97.37-98.79,4.54-15.54,6.67-42.12-7.11-54-20.32-17.55-57.2,12.47-87.06-6-18.8-11.65-23.51-35.61-25.23-44.42-13-66.68,71.31-139.48,133.32-191.86C376.31,53.54,500.38-10,547.06,16.56Z"/><line class="cls-3" x1="584.85" y1="356.43" x2="658.93" y2="356.43"/><line class="cls-3" x1="603.99" y1="356.82" x2="603.99" y2="384.48"/><line class="cls-3" x1="603.99" y1="415.04" x2="603.99" y2="442.7"/><line class="cls-3" x1="650.61" y1="356.82" x2="650.61" y2="384.48"/><line class="cls-3" x1="650.61" y1="415.04" x2="650.61" y2="442.7"/><line class="cls-3" x1="628.75" y1="384.67" x2="628.75" y2="414.65"/><line class="cls-3" x1="582.14" y1="384.67" x2="582.14" y2="414.65"/><line class="cls-3" x1="674.6" y1="384.67" x2="674.6" y2="414.65"/><line class="cls-3" x1="561.25" y1="384.48" x2="688.72" y2="384.48"/><line class="cls-3" x1="584.85" y1="384.48" x2="658.93" y2="384.48"/><line class="cls-3" x1="665.12" y1="442.7" x2="580.59" y2="442.7"/><line class="cls-3" x1="688.72" y1="414.65" x2="561.25" y2="414.65"/><line class="cls-3" x1="37.38" y1="386.66" x2="111.47" y2="386.66"/><line class="cls-3" x1="56.53" y1="387.04" x2="56.53" y2="414.7"/><line class="cls-3" x1="56.53" y1="445.27" x2="56.53" y2="472.93"/><line class="cls-3" x1="103.15" y1="387.04" x2="103.15" y2="414.7"/><line class="cls-3" x1="103.15" y1="445.27" x2="103.15" y2="472.93"/><line class="cls-3" x1="81.29" y1="414.9" x2="81.29" y2="444.88"/><line class="cls-3" x1="34.68" y1="414.9" x2="34.68" y2="444.88"/><line class="cls-3" x1="127.13" y1="414.9" x2="127.13" y2="444.88"/><line class="cls-3" x1="13.79" y1="414.7" x2="141.25" y2="414.7"/><line class="cls-3" x1="37.38" y1="414.7" x2="111.47" y2="414.7"/><line class="cls-3" x1="117.66" y1="472.93" x2="33.13" y2="472.93"/><line class="cls-3" x1="141.25" y1="444.88" x2="13.79" y2="444.88"/><polygon class="cls-4" points="84.08 793.42 59.71 793.42 119.36 721.85 167.59 721.85 84.08 793.42"/><polygon class="cls-4" points="602.03 793.42 626.4 793.42 566.75 721.85 518.52 721.85 602.03 793.42"/><polygon class="cls-5" points="566.75 721.85 518.52 721.85 538.35 738.84 580.91 738.84 566.75 721.85"/><polygon class="cls-5" points="105.19 738.84 147.76 738.84 167.59 721.85 119.36 721.85 105.19 738.84"/><path class="cls-6" d="M59.71,674.26H626.4a0,0,0,0,1,0,0v46.93a7.65,7.65,0,0,1-7.65,7.65H67.36a7.65,7.65,0,0,1-7.65-7.65V674.26A0,0,0,0,1,59.71,674.26Z"/><path class="cls-7" d="M619.64,661.75H55.34L31.48,572.07,49.86,457.39a40.56,40.56,0,0,1,40-34.14H585.06a40.56,40.56,0,0,1,40,34.14L643.5,572.07Z"/><path class="cls-8" d="M606.4,674.26H59.71v30.95H596.4a10,10,0,0,1,10,10v6a7.65,7.65,0,0,1-7.65,7.65h20a7.65,7.65,0,0,0,7.65-7.65V674.26Z"/><path class="cls-6" d="M593.4,624.6H80.78L66,542.32a14.32,14.32,0,0,0-14.09-11.78H14.32A14.32,14.32,0,0,0,.23,547.38l23.57,131a14.32,14.32,0,0,0,14.09,11.78H636.29a14.32,14.32,0,0,0,14.09-11.78l23.57-131a14.32,14.32,0,0,0-14.09-16.85H622.29a14.32,14.32,0,0,0-14.09,11.78Z"/><polygon class="cls-8" points="259.84 728.84 330.98 728.84 324.66 674.26 243.67 674.26 259.84 728.84"/><polygon class="cls-8" points="534.93 674.26 453.83 674.26 447.51 728.84 518.88 728.84 534.93 674.26"/><line class="cls-3" x1="152.38" y1="71.88" x2="226.47" y2="71.88"/><line class="cls-3" x1="171.53" y1="72.27" x2="171.53" y2="99.93"/><line class="cls-3" x1="171.53" y1="130.49" x2="171.53" y2="158.15"/><line class="cls-3" x1="218.15" y1="72.27" x2="218.15" y2="99.93"/><line class="cls-3" x1="218.15" y1="130.49" x2="218.15" y2="158.15"/><line class="cls-3" x1="196.29" y1="100.12" x2="196.29" y2="130.1"/><line class="cls-3" x1="149.68" y1="100.12" x2="149.68" y2="130.1"/><line class="cls-3" x1="242.13" y1="100.12" x2="242.13" y2="130.1"/><line class="cls-3" x1="128.79" y1="99.93" x2="256.26" y2="99.93"/><line class="cls-3" x1="152.38" y1="99.93" x2="226.47" y2="99.93"/><line class="cls-3" x1="232.66" y1="158.15" x2="148.13" y2="158.15"/><line class="cls-3" x1="256.26" y1="130.1" x2="128.79" y2="130.1"/><path class="cls-9" d="M339.18,40.6c-23.79,44.35,26,108.72,59.3,107.48,39.05-1.45,80.08-94.09,51-126.44C427.39-2.87,360,1.7,339.18,40.6Z"/><path class="cls-9" d="M197.85,167.38c11.93,48.89,92,63.51,115.93,40.35,28.09-27.17-3.28-123.51-46.55-128.13C234.44,76.09,187.38,124.49,197.85,167.38Z"/><path class="cls-9" d="M172.31,351.86c40.11,30.39,111.44-8.79,115.39-41.87,4.64-38.8-80.5-93.73-117-70C143.07,258,137.12,325.2,172.31,351.86Z"/><path class="cls-9" d="M613.49,274.83c-11.93-48.89-92-63.51-115.93-40.35-28.09,27.17,3.28,123.51,46.55,128.13C576.9,366.11,624,317.72,613.49,274.83Z"/><path class="cls-9" d="M567.24,67.73c-55.15-17.94-118,51.67-109.81,89.17,9.61,44,123,71.64,153.8,32C634.53,158.91,615.62,83.46,567.24,67.73Z"/><path class="cls-10" d="M335.27,34.09c-23.79,44.35,26,108.72,59.3,107.48,39.05-1.45,80.08-94.09,51-126.44C423.48-9.39,356.13-4.82,335.27,34.09Z"/><path class="cls-10" d="M193.94,160.86c11.93,48.89,92,63.51,115.93,40.35C338,174,306.59,77.69,263.32,73.07,230.53,69.57,183.47,118,193.94,160.86Z"/><path class="cls-10" d="M168.39,345.34c40.11,30.39,111.44-8.79,115.39-41.87,4.64-38.8-80.5-93.73-117-70C139.16,251.44,133.2,318.68,168.39,345.34Z"/><path class="cls-10" d="M609.58,268.31c-11.93-48.89-92-63.51-115.93-40.35-28.09,27.17,3.28,123.51,46.55,128.13C573,359.59,620,311.2,609.58,268.31Z"/><path class="cls-10" d="M563.32,61.21c-55.15-17.94-118,51.67-109.81,89.17,9.61,44,123,71.64,153.8,32C630.62,152.39,611.71,76.94,563.32,61.21Z"/><rect class="cls-11" x="499.93" y="103.82" width="35.44" height="63.01" rx="1.97" ry="1.97"/><path class="cls-12" d="M535.37,164.86V105.79a2,2,0,0,0-2-2h-3v3.94h-1a3.94,3.94,0,0,0-3.94,3.94v55.13h7.88A2,2,0,0,0,535.37,164.86Z"/><circle class="cls-12" cx="510.76" cy="116.62" r="4.92"/><circle class="cls-12" cx="526.51" cy="116.62" r="4.92"/><circle class="cls-12" cx="510.76" cy="136.31" r="4.92"/><circle class="cls-12" cx="526.51" cy="136.31" r="4.92"/><circle class="cls-13" cx="510.76" cy="156" r="4.92"/><circle class="cls-13" cx="526.51" cy="156" r="4.92"/><circle class="cls-14" cx="509.78" cy="115.64" r="4.92"/><circle class="cls-14" cx="525.53" cy="115.64" r="4.92"/><circle class="cls-14" cx="509.78" cy="135.33" r="4.92"/><circle class="cls-14" cx="525.53" cy="135.33" r="4.92"/><path class="cls-15" d="M530.45,115.64a4.92,4.92,0,0,0-4.79-4.91,3.9,3.9,0,0,0-.13,1v8.86A4.92,4.92,0,0,0,530.45,115.64Z"/><path class="cls-15" d="M525.53,130.4v9.84a4.92,4.92,0,0,0,0-9.84Z"/><circle class="cls-14" cx="509.78" cy="155.02" r="4.92"/><circle class="cls-14" cx="525.53" cy="155.02" r="4.92"/><g class="cls-16"><rect class="cls-11" x="509.28" y="113.67" width="0.98" height="3.94"/></g><g class="cls-16"><rect class="cls-11" x="509.28" y="133.36" width="0.98" height="3.94"/></g><g class="cls-16"><rect class="cls-11" x="509.28" y="153.05" width="0.98" height="3.94"/></g><g class="cls-16"><rect class="cls-11" x="525.04" y="153.05" width="0.98" height="3.94"/></g><g class="cls-16"><rect class="cls-11" x="525.04" y="133.36" width="0.98" height="3.94"/></g><g class="cls-16"><rect class="cls-11" x="525.04" y="113.67" width="0.98" height="3.94"/></g><rect class="cls-6" x="534.39" y="97.92" width="39.38" height="63.01"/><rect class="cls-8" x="565.89" y="97.92" width="7.88" height="63.01"/><rect class="cls-7" x="529.47" y="107.76" width="49.22" height="63.01" rx="3.94" ry="3.94"/><path class="cls-6" d="M574.75,107.76h-7.88a3.94,3.94,0,0,1,3.94,3.94v55.13a3.94,3.94,0,0,1-3.94,3.94h7.88a3.94,3.94,0,0,0,3.94-3.94V111.7A3.94,3.94,0,0,0,574.75,107.76Z"/><path class="cls-10" d="M535.37,90h37.41A3.94,3.94,0,0,1,576.72,94v7.88a0,0,0,0,1,0,0H531.44a0,0,0,0,1,0,0V94A3.94,3.94,0,0,1,535.37,90Z"/><path class="cls-10" d="M576.72,101.85H531.44a2,2,0,0,1-2-2h0a2,2,0,0,1,2-2h45.29a2,2,0,0,1,2,2h0A2,2,0,0,1,576.72,101.85Z"/><path class="cls-17" d="M572.78,90h-7.88A3.94,3.94,0,0,1,568.85,94v3.94h7.88V94A3.94,3.94,0,0,0,572.78,90Z"/><path class="cls-17" d="M576.72,97.92h-7.88a2,2,0,0,1,0,3.94h7.88a2,2,0,0,0,0-3.94Z"/><rect class="cls-17" x="557.03" y="93.98" width="1.97" height="3.94"/><rect class="cls-17" x="560.97" y="93.98" width="1.97" height="3.94"/><rect class="cls-17" x="564.91" y="93.98" width="1.97" height="3.94"/><rect class="cls-12" x="568.85" y="93.98" width="1.97" height="3.94"/><rect class="cls-12" x="572.78" y="93.98" width="1.97" height="3.94"/><rect class="cls-17" x="533.4" y="93.98" width="1.97" height="3.94"/><rect class="cls-17" x="537.34" y="93.98" width="1.97" height="3.94"/><rect class="cls-17" x="541.28" y="93.98" width="1.97" height="3.94"/><rect class="cls-17" x="545.22" y="93.98" width="1.97" height="3.94"/><rect class="cls-17" x="553.09" y="93.98" width="1.97" height="3.94"/><rect class="cls-17" x="549.16" y="93.98" width="1.97" height="3.94"/><rect class="cls-12" x="499.93" y="141.23" width="35.44" height="7.88"/><path class="cls-6" d="M544.48,141.23h-15v7.88h13v17.72h-13a3.94,3.94,0,0,0,3.94,3.94H550a5.84,5.84,0,0,0,.36-2V147.14A5.91,5.91,0,0,0,544.48,141.23Z"/><rect class="cls-10" x="543.25" y="123.51" width="35.44" height="31.5"/><rect class="cls-17" x="570.81" y="123.51" width="7.88" height="31.5"/><rect class="cls-18" x="555.06" y="129.42" width="23.63" height="5.91"/><rect class="cls-18" x="551.12" y="139.26" width="27.57" height="1.97"/><rect class="cls-18" x="551.12" y="143.2" width="27.57" height="1.97"/><rect class="cls-18" x="551.12" y="147.14" width="27.57" height="1.97"/><rect class="cls-12" x="570.81" y="143.2" width="7.88" height="1.97"/><rect class="cls-12" x="570.81" y="147.14" width="7.88" height="1.97"/><rect class="cls-12" x="570.81" y="139.26" width="7.88" height="1.97"/><rect class="cls-12" x="570.81" y="129.42" width="7.88" height="5.91"/><path class="cls-17" d="M544.48,141.23h-1.23V155h7.14v-7.87A5.91,5.91,0,0,0,544.48,141.23Z"/><rect class="cls-13" x="495.26" y="145.17" width="51.19" height="25.6" rx="1.97" ry="1.97"/><path class="cls-19" d="M508.6,150.09h-5.91a3,3,0,0,0,0,5.91h5.91a3,3,0,0,0,0-5.91Z"/><path class="cls-7" d="M508.05,155h-5.91a3,3,0,0,1-3-3h0a3,3,0,0,1,3-3h5.91a3,3,0,0,1,3,3h0A3,3,0,0,1,508.05,155Z"/><path class="cls-10" d="M505.1,155h-3a3,3,0,0,1-3-3h0a3,3,0,0,1,3-3h3Z"/><path class="cls-19" d="M524.35,150.09h-5.91a3,3,0,1,0,0,5.91h5.91a3,3,0,1,0,0-5.91Z"/><path class="cls-7" d="M523.81,155H517.9a3,3,0,0,1-3-3h0a3,3,0,0,1,3-3h5.91a3,3,0,0,1,3,3h0A3,3,0,0,1,523.81,155Z"/><path class="cls-10" d="M520.85,155h-3a3,3,0,0,1-3-3h0a3,3,0,0,1,3-3h3Z"/><path class="cls-19" d="M540.1,150.09h-5.91a3,3,0,0,0,0,5.91h5.91a3,3,0,0,0,0-5.91Z"/><path class="cls-19" d="M508.6,161.91h-5.91a3,3,0,0,0,0,5.91h5.91a3,3,0,0,0,0-5.91Z"/><path class="cls-19" d="M524.35,161.91h-5.91a3,3,0,1,0,0,5.91h5.91a3,3,0,0,0,0-5.91Z"/><path class="cls-19" d="M540.1,161.91h-5.91a3,3,0,1,0,0,5.91h5.91a3,3,0,0,0,0-5.91Z"/><path class="cls-7" d="M539.56,155h-5.91a3,3,0,0,1-3-3h0a3,3,0,0,1,3-3h5.91a3,3,0,0,1,3,3h0A3,3,0,0,1,539.56,155Z"/><path class="cls-10" d="M536.6,155h-3a3,3,0,0,1-3-3h0a3,3,0,0,1,3-3h3Z"/><path class="cls-7" d="M508.05,166.83h-5.91a3,3,0,0,1-3-3h0a3,3,0,0,1,3-3h5.91a3,3,0,0,1,3,3h0A3,3,0,0,1,508.05,166.83Z"/><path class="cls-10" d="M505.1,166.83h-3a3,3,0,0,1-3-3h0a3,3,0,0,1,3-3h3Z"/><path class="cls-7" d="M523.81,166.83H517.9a3,3,0,0,1-3-3h0a3,3,0,0,1,3-3h5.91a3,3,0,0,1,3,3h0A3,3,0,0,1,523.81,166.83Z"/><path class="cls-10" d="M520.85,166.83h-3a3,3,0,0,1-3-3h0a3,3,0,0,1,3-3h3Z"/><path class="cls-7" d="M539.56,166.83h-5.91a3,3,0,0,1-3-3h0a3,3,0,0,1,3-3h5.91a3,3,0,0,1,3,3h0A3,3,0,0,1,539.56,166.83Z"/><path class="cls-10" d="M536.6,166.83h-3a3,3,0,0,1-3-3h0a3,3,0,0,1,3-3h3Z"/><path class="cls-20" d="M351.4,70.54h77a0,0,0,0,1,0,0v9.63A6.42,6.42,0,0,1,422,86.59H357.82a6.42,6.42,0,0,1-6.42-6.42V70.54A0,0,0,0,1,351.4,70.54Z"/><path class="cls-20" d="M372.76,35.25h33.47A21.77,21.77,0,0,1,428,57v.69a0,0,0,0,1,0,0H351a0,0,0,0,1,0,0V57A21.77,21.77,0,0,1,372.76,35.25Z"/><path class="cls-7" d="M426.81,60.92H353a4.81,4.81,0,0,0-4.81,4.81h0A4.81,4.81,0,0,0,353,70.54h73.81a4.81,4.81,0,0,0,4.81-4.81h0A4.81,4.81,0,0,0,426.81,60.92Z"/><path class="cls-7" d="M426.81,60.92H353a4.81,4.81,0,0,0-4.81,4.81h0A4.81,4.81,0,0,0,353,70.54h73.81a4.81,4.81,0,0,0,4.81-4.81h0A4.81,4.81,0,0,0,426.81,60.92Z"/><circle class="cls-21" cx="397.51" cy="48.08" r="1.6"/><circle class="cls-21" cx="381.47" cy="48.08" r="1.6"/><circle class="cls-21" cx="365.42" cy="48.08" r="1.6"/><circle class="cls-21" cx="405.54" cy="41.66" r="1.6"/><circle class="cls-21" cx="389.49" cy="41.66" r="1.6"/><circle class="cls-21" cx="373.45" cy="41.66" r="1.6"/><circle class="cls-21" cx="413.56" cy="48.08" r="1.6"/><rect class="cls-14" x="348.19" y="57.71" width="83.43" height="3.21" rx="1.6" ry="1.6"/><path class="cls-14" d="M430,57.71H349.8a1.6,1.6,0,1,0,0,3.21h2.47a9.14,9.14,0,0,1,5.1,1.47,13.26,13.26,0,0,0,14.66.06,9.64,9.64,0,0,1,5.3-1.53h0a9.64,9.64,0,0,1,5.3,1.53,13.26,13.26,0,0,0,14.56,0,9.64,9.64,0,0,1,5.3-1.53h0a9.64,9.64,0,0,1,5.3,1.53,13.26,13.26,0,0,0,14.66-.06,9.14,9.14,0,0,1,5.1-1.47H430a1.6,1.6,0,0,0,0-3.21Z"/><path class="cls-22" d="M417.19,70.54H351.4v3.21H414A3.21,3.21,0,0,1,417.19,77v3.21a6.42,6.42,0,0,1-6.42,6.42H422a6.42,6.42,0,0,0,6.42-6.42V70.54Z"/><path class="cls-22" d="M406.22,35.25H395A21.77,21.77,0,0,1,416.77,57v.69H428V57A21.77,21.77,0,0,0,406.22,35.25Z"/><path class="cls-6" d="M426.81,60.92H415.58a4.81,4.81,0,1,1,0,9.63h11.23a4.81,4.81,0,0,0,0-9.63Z"/><path class="cls-14" d="M371.4,62.44a10,10,0,0,0-10.61,0,13.28,13.28,0,0,1-1.66.93,13.16,13.16,0,0,0,12.58-.75C371.61,62.56,371.5,62.51,371.4,62.44Z"/><path class="cls-14" d="M396.57,62.44a10,10,0,0,0-10.61,0,13.28,13.28,0,0,1-1.66.93,13.19,13.19,0,0,0,12.59-.75C396.78,62.56,396.67,62.51,396.57,62.44Z"/><polygon class="cls-23" points="374.8 79.84 358.75 70.54 390.44 70.54 374.8 79.84"/><path class="cls-15" d="M430,57.71H419.48a9.14,9.14,0,0,0-5.1,1.47,13,13,0,0,1-9.12,2.11,9.17,9.17,0,0,1,2.53,1.15,13.26,13.26,0,0,0,14.66-.06,9.14,9.14,0,0,1,5.1-1.47H430a1.6,1.6,0,0,0,0-3.21Z"/><polygon class="cls-22" points="390.44 70.54 374.8 79.84 378.77 79.9 390.44 70.54"/><path class="cls-24" d="M232,143.39,244.91,177a17.74,17.74,0,0,0,22.93,10.18l5.3-2a17.74,17.74,0,0,0,10.18-22.93l-12.93-33.6a3.74,3.74,0,0,0-4.84-2.15l-31.43,12.1A3.74,3.74,0,0,0,232,143.39Z"/><path class="cls-25" d="M265.55,126.45l-5,1.92a3.74,3.74,0,0,1,4.84,2.15l12.93,33.6A17.74,17.74,0,0,1,268.15,187l5-1.92a17.74,17.74,0,0,0,10.18-22.93l-12.93-33.6A3.74,3.74,0,0,0,265.55,126.45Z"/><path class="cls-25" d="M252,131.66h0l-4.66,1.79h0l-3.1,1.19.6,1.57a1.66,1.66,0,0,0,2.15,1l7.76-3a1.66,1.66,0,0,0,1-2.15l-.6-1.57Z"/><path class="cls-10" d="M276.19,161.59l-3.09,2a54.38,54.38,0,0,1-20,7.75l-4,.7a1.25,1.25,0,0,1-1.38-.78l-9.43-24.49a1.25,1.25,0,0,1,.72-1.61l26.64-10.26a1.25,1.25,0,0,1,1.61.72l9.43,24.5A1.25,1.25,0,0,1,276.19,161.59Z"/><path class="cls-17" d="M265.64,134.88l-5,1.92a1.25,1.25,0,0,1,1.61.72l8.11,21.08a5.73,5.73,0,0,1-2.26,6.89h0a54.38,54.38,0,0,1-7.28,3.9,54.4,54.4,0,0,0,12.27-5.82l3.09-2a1.25,1.25,0,0,0,.49-1.5l-9.43-24.5A1.25,1.25,0,0,0,265.64,134.88Z"/><path class="cls-26" d="M264.21,174.68a1.25,1.25,0,0,0-1.56-.73,55.86,55.86,0,0,1-8,2l-4.15.72h0l3.29,1.81a16.34,16.34,0,0,0,12,1.54.52.52,0,0,0,.36-.69Z"/><path class="cls-26" d="M278.31,166l-3.18,2a55.88,55.88,0,0,1-7.06,3.82,1.25,1.25,0,0,0-.65,1.59L269.2,178a.52.52,0,0,0,.74.26,16.33,16.33,0,0,0,7.31-9.05l1.09-3.3Z"/><rect class="cls-17" x="240.77" y="105.43" width="8.32" height="29.52" transform="translate(-26.83 96.02) rotate(-21.06)"/><path class="cls-12" d="M241,105.88l7.62,19.79a5.64,5.64,0,0,1-3.24,7.29h0l1,2.49,7.76-3-10.61-27.55Z"/><rect class="cls-10" x="238" y="107.18" width="6.24" height="6.24" transform="translate(-23.53 93.99) rotate(-21.05)"/><rect class="cls-17" x="242.45" y="106.35" width="1.63" height="6.24" transform="translate(-23.09 94.71) rotate(-21.05)"/><rect class="cls-7" x="239.04" y="108.22" width="4.16" height="4.16" transform="translate(-23.53 93.99) rotate(-21.05)"/><path class="cls-6" d="M241.07,108.09l.53,1.39a1.34,1.34,0,0,1-.77,1.73l-1.39.53.48,1.25,3.88-1.49-1.49-3.88Z"/><path class="cls-14" d="M246.41,154.1l.23-.51,1.52.68.85,2.2-.68,1.52-.51-.23Zm4.34-2.93.51.23-.68,1.52-2.2.85-1.52-.68.23-.51Zm2.93,4.34-.23.51-1.52-.68-.85-2.2.68-1.52.51.23Zm1.69,4.4-.23.51-1.52-.68-.85-2.2.68-1.52.51.23Z"/><path class="cls-14" d="M257.63,160.3l-.51-.23.68-1.52,2.2-.85,1.52.68-.23.51Z"/><path class="cls-14" d="M259.6,149l.23-.51,1.52.68.85,2.2-.68,1.52-.51-.23Zm4.34-2.93.51.23-.68,1.52-2.2.85L260,148l.23-.51Zm.29,11.67-.51-.23.68-1.52,2.2-.85,1.52.68-.23.51Zm-2-5.13.45-1,2.2-.85,1,.45-.45,1-2.2.85Zm6.32,2.2-.23.51-1.52-.68-.85-2.2.68-1.52.51.23Z"/><path class="cls-9" d="M588.17,269.75v-8.39a1.8,1.8,0,0,0-1.8-1.8H553.92a1.8,1.8,0,0,0-1.8,1.8v8.39a252.35,252.35,0,0,0,1.39,26.42l2,19.46a1.8,1.8,0,0,0,1.79,1.61h25.6a1.8,1.8,0,0,0,1.79-1.61l2-19.46A252.35,252.35,0,0,0,588.17,269.75Z"/><path class="cls-11" d="M554.41,259.57h18.53V263a288.38,288.38,0,0,1-1.58,30.19L569,315.43a2,2,0,0,1-1.91,1.82h-9.27a1.8,1.8,0,0,1-1.79-1.61l-2-19.46a252.4,252.4,0,0,1-1.39-26.42v-8.39A1.8,1.8,0,0,1,554.41,259.57Z"/><polygon class="cls-24" points="556.07 303.45 557.52 317.25 582.76 317.25 584.21 303.45 556.07 303.45"/><path class="cls-25" d="M569,315.43l1.26-12H556.07l1.45,13.74a1.71,1.71,0,0,0,.32.06h9.27A2,2,0,0,0,569,315.43Z"/><path class="cls-9" d="M555.15,311.84l.4,3.79a1.8,1.8,0,0,0,1.79,1.61h25.6a1.8,1.8,0,0,0,1.79-1.61l.4-3.79Z"/><path class="cls-9" d="M540.78,269.75v-8.39a1.8,1.8,0,0,0-1.8-1.8H506.53a1.8,1.8,0,0,0-1.8,1.8v8.39a252.35,252.35,0,0,0,1.39,26.42l2,19.46a1.8,1.8,0,0,0,1.79,1.61h25.6a1.8,1.8,0,0,0,1.79-1.61l2-19.46A252.38,252.38,0,0,0,540.78,269.75Z"/><path class="cls-11" d="M540.59,259.57H522.05V263a288.38,288.38,0,0,0,1.58,30.19L526,315.43a2,2,0,0,0,1.91,1.82h9.27a1.8,1.8,0,0,0,1.79-1.61l2-19.46a252.4,252.4,0,0,0,1.39-26.42v-8.39A1.8,1.8,0,0,0,540.59,259.57Z"/><polygon class="cls-24" points="509.03 306.75 510.14 317.25 535.38 317.25 536.48 306.75 509.03 306.75"/><path class="cls-25" d="M525.07,306.75l.91,8.68a2,2,0,0,0,1.91,1.82h7.48l1.11-10.5Z"/><path class="cls-9" d="M507.77,311.84l.4,3.79a1.8,1.8,0,0,0,1.79,1.61h25.6a1.8,1.8,0,0,0,1.79-1.61l.4-3.79Z"/><path class="cls-11" d="M537.35,315.63l.4-3.79H525.6l.38,3.59a2,2,0,0,0,1.91,1.82h7.66A1.8,1.8,0,0,0,537.35,315.63Z"/><path class="cls-11" d="M557.65,315.63l-.4-3.79h12.14l-.38,3.59a2,2,0,0,1-1.91,1.82h-7.66A1.8,1.8,0,0,1,557.65,315.63Z"/><path class="cls-9" d="M568.08,263v-9.58a2.06,2.06,0,0,0-2.06-2.06H528.94a2.06,2.06,0,0,0-2.06,2.06V263a288.39,288.39,0,0,0,1.58,30.19l2.34,22.24a2.06,2.06,0,0,0,2,1.84H562.1a2.06,2.06,0,0,0,2-1.84l2.34-22.24A288.42,288.42,0,0,0,568.08,263Z"/><path class="cls-27" d="M566,251.35h-4.37V255a288.35,288.35,0,0,1-1.58,30.19l-2.34,22.24a2.06,2.06,0,0,1-2,1.84H530.15l.65,6.2a2.06,2.06,0,0,0,2,1.84H562.1a2.06,2.06,0,0,0,2-1.84l2.34-22.24A288.35,288.35,0,0,0,568.08,263v-9.58A2.06,2.06,0,0,0,566,251.35Z"/><path class="cls-24" d="M529,264.69q.08,14.28,1.56,28.5l2.54,24.09H561.9l2.54-24.09q1.5-14.2,1.56-28.5H529Z"/><path class="cls-28" d="M562.55,311.09l1.89-17.91q1.49-14.2,1.56-28.5h-8.21q-.34,10.25-1.4,20.46l-1.32,12.57a12.86,12.86,0,0,1-12.79,11.52H532.21l.2,1.86Z"/><path class="cls-10" d="M530.35,311.09l.46,4.34a2.06,2.06,0,0,0,2,1.84H562.1a2.06,2.06,0,0,0,2-1.84l.46-4.34Z"/><path class="cls-27" d="M530.35,311.09l.46,4.34a2.06,2.06,0,0,0,2,1.84H562.1a2.06,2.06,0,0,0,2-1.84l.46-4.34Z"/><path class="cls-19" d="M237.56,329.46H175.11a3.27,3.27,0,0,1-3.27-3.11l-2.94-58.87a3.27,3.27,0,0,1,3.27-3.43H240.5a3.27,3.27,0,0,1,3.27,3.43l-2.94,58.87A3.27,3.27,0,0,1,237.56,329.46Z"/><path class="cls-29" d="M240.83,326.35l2.94-58.86a3.27,3.27,0,0,0-3.27-3.43h-4.9l-1.93,35.58a22.89,22.89,0,0,1-22.86,21.65H171.59l.25,5.07a3.27,3.27,0,0,0,3.27,3.11h62.45A3.27,3.27,0,0,0,240.83,326.35Z"/><path class="cls-13" d="M228.67,269H177.55a3.27,3.27,0,0,0-3.27,3.4l2,49.05a3.27,3.27,0,0,0,3.27,3.14H233.1a3.27,3.27,0,0,0,3.27-3.14l2-49.05a3.27,3.27,0,0,0-3.27-3.4Z"/><path class="cls-19" d="M235.33,269l-1.66,30.65a22.89,22.89,0,0,1-22.86,21.65H176.3v.13a3.27,3.27,0,0,0,3.27,3.14H233.1a3.27,3.27,0,0,0,3.27-3.14l2-49.05A3.26,3.26,0,0,0,235.33,269Z"/><path class="cls-29" d="M185.9,264.05a20.44,20.44,0,0,0,40.87,0Z"/><path class="cls-19" d="M226.14,269H186.53a20.4,20.4,0,0,0,39.61,0Z"/><circle class="cls-11" cx="206.33" cy="264.01" r="17.99"/><circle class="cls-10" cx="206.33" cy="264.01" r="14.99"/><path class="cls-17" d="M206.33,249a15.05,15.05,0,0,0-2.45.22,15,15,0,0,1,0,29.54A15,15,0,1,0,206.33,249Z"/><path class="cls-7" d="M214.77,268.88a9.87,9.87,0,0,0,.31-9.91,10.38,10.38,0,0,0-8.74-5.45,10.76,10.76,0,0,0-9.39,5.08,11,11,0,0,0-.34,11,11.38,11.38,0,0,1-.3-11.41,11.89,11.89,0,0,1,10-6.2A12.26,12.26,0,0,1,217,257.84a12.49,12.49,0,0,1,1.87,6.17,12.65,12.65,0,0,1-1.52,6.36Z"/><line class="cls-10" x1="202.44" y1="266.26" x2="218.02" y2="257.26"/><polygon class="cls-30" points="202.06 265.61 218.01 257.26 202.81 266.91 202.06 265.61"/><circle class="cls-31" cx="206.33" cy="264.01" r="2.45" transform="translate(-126.25 223.23) rotate(-45)"/><path class="cls-19" d="M194.46,293.94c-4.18-.08-7,2.09-8,6.44a12.93,12.93,0,0,0,.51,6.79,37.12,37.12,0,0,0,5.06,9.56,4.32,4.32,0,0,0,5.21,1.27c1.94-1.09,1.9-3,1.46-4.71a18.06,18.06,0,0,1,.55-11.09,8.92,8.92,0,0,0,.48-2.61C200,296.24,197.84,294,194.46,293.94Z"/><path class="cls-19" d="M199.12,285.72c-1.72-.06-3.38,1.93-3.36,4s1.19,3.44,2.78,3.48c1.8,0,3.3-1.75,3.32-4C201.86,287.3,200.67,285.77,199.12,285.72Z"/><path class="cls-19" d="M192.54,292.66a2,2,0,0,0,1.85-2.47c-.1-1.14-.62-2.42-2.19-2.41s-2,1.2-1.86,2.43S191,292.73,192.54,292.66Z"/><path class="cls-19" d="M188.22,293.93c1.09.07,1.45-.86,1.42-1.72s-.43-1.92-1.61-2-1.46.61-1.47,1.54C186.55,292.88,187.08,293.85,188.22,293.93Z"/><path class="cls-19" d="M186.57,295.09a1.6,1.6,0,0,0-1.4-1.72c-.95-.12-1.35.63-1.32,1.42s.39,1.64,1.37,1.73S186.57,295.95,186.57,295.09Z"/><path class="cls-19" d="M183.34,296.77a.91.91,0,0,0-1.08,1,1.57,1.57,0,0,0,1.32,1.81,1,1,0,0,0,1.24-1.11A1.55,1.55,0,0,0,183.34,296.77Z"/><path class="cls-19" d="M216.46,294.19c-3.24,1-4.29,3.59-3.19,7.9.08.33.2.66.31,1a15.38,15.38,0,0,1,.48,9.09,11.53,11.53,0,0,0-.35,2.44c-.11,3,2.05,4.55,4.88,3.47a5.6,5.6,0,0,0,3-2.64,73.18,73.18,0,0,0,4-8.52,9.83,9.83,0,0,0,.77-4,10.67,10.67,0,0,0-.78-4.21A7.67,7.67,0,0,0,216.46,294.19Z"/><path class="cls-19" d="M216.85,289.7c0-2.06-1.64-4-3.34-4-1.54,0-2.76,1.55-2.77,3.45,0,2.17,1.44,4,3.2,4.05S216.85,291.72,216.85,289.7Z"/><path class="cls-19" d="M220.24,292.66c1.49-.1,2.12-1.33,2.1-2.67,0-1.12-.52-2.25-1.92-2.21-1.65,0-2.16,1.35-2.14,2.72C218.3,291.66,218.88,292.75,220.24,292.66Z"/><path class="cls-19" d="M224.37,293.87c1.11-.05,1.67-.92,1.69-2.09,0-.76-.27-1.57-1.33-1.59S223.06,291,223,292,223.22,293.93,224.37,293.87Z"/><path class="cls-19" d="M228.75,294.63c0-.71-.45-1.45-1.38-1.3a1.66,1.66,0,0,0-1.32,1.94c.06.73.43,1.36,1.28,1.26A1.63,1.63,0,0,0,228.75,294.63Z"/><path class="cls-19" d="M229.22,296.77a1.55,1.55,0,0,0-1.4,1.68,1,1,0,0,0,1.15,1.09,1.59,1.59,0,0,0,1.43-1.71A1,1,0,0,0,229.22,296.77Z"/><path class="cls-9" d="M304.07,256.27a94.14,94.14,0,0,0-30.42,2.61l7.57,10.3,3.73,1.86a90,90,0,0,1,21.29-5.21c19.28-2.26,33,1.3,33,1.3A89.35,89.35,0,0,0,304.07,256.27Z"/><path class="cls-10" d="M300.56,254.4A94.15,94.15,0,0,0,270.14,257l11.3,12.17A90,90,0,0,1,302.73,264c19.28-2.26,33,1.3,33,1.3A89.35,89.35,0,0,0,300.56,254.4Z"/><path class="cls-9" d="M404.91,180.4a94.15,94.15,0,0,0,4.52-30.19l-11.78,5L395,158.37a90,90,0,0,1,.14,21.92c-2.27,19.28-8.93,31.82-8.93,31.82A89.35,89.35,0,0,0,404.91,180.4Z"/><path class="cls-10" d="M407.53,177.42A94.15,94.15,0,0,0,412,147.22l-14.46,8.17a90,90,0,0,1,.14,21.92c-2.27,19.28-8.93,31.82-8.93,31.82A89.36,89.36,0,0,0,407.53,177.42Z"/><path class="cls-9" d="M341.83,200.85a55.82,55.82,0,0,0-13.33-15.5L325,194l.28,2.85a54.46,54.46,0,0,1,11.44,9.37c8.83,9.55,11.91,18.63,11.91,18.63A55.16,55.16,0,0,0,341.83,200.85Z"/><path class="cls-10" d="M340.73,197.64A63,63,0,0,0,327.58,182l-2.3,10.87a60.2,60.2,0,0,1,11.05,9.64,65.88,65.88,0,0,1,12,18.56A59.77,59.77,0,0,0,340.73,197.64Z"/><path class="cls-9" d="M461.74,249.21a34.2,34.2,0,0,1,16.21-5.68l.38,10.07-1.1,2.42a36.24,36.24,0,0,0-12.72,1.3c-10.52,3.12-15.93,9.44-15.93,9.44S452.51,255.5,461.74,249.21Z"/><path class="cls-10" d="M462.73,246.84a34.2,34.2,0,0,1,16.21-5.68l-.72,12.49a36.25,36.25,0,0,0-12.72,1.3c-10.52,3.12-15.93,9.44-15.93,9.44S453.5,253.14,462.73,246.84Z"/><path class="cls-9" d="M446.43,200.85a55.82,55.82,0,0,1,13.33-15.5l3.48,8.64-.28,2.85a54.46,54.46,0,0,0-11.44,9.37c-8.83,9.55-11.91,18.63-11.91,18.63A55.16,55.16,0,0,1,446.43,200.85Z"/><path class="cls-10" d="M447.54,197.64A63,63,0,0,1,460.69,182l2.3,10.87a60.2,60.2,0,0,0-11.05,9.64,65.88,65.88,0,0,0-12,18.56A59.77,59.77,0,0,1,447.54,197.64Z"/><polygon class="cls-4" points="831.56 793.37 808.16 673.64 785.02 680 825.56 793.37 831.56 793.37"/><polygon class="cls-4" points="693.52 793.37 716.92 673.64 740.07 680 699.53 793.37 693.52 793.37"/><polygon class="cls-4" points="766.05 766.34 774.54 676.82 750.54 676.82 759.03 766.34 766.05 766.34"/><polygon class="cls-5" points="774.11 681.35 750.97 681.35 753.24 705.23 771.85 705.23 774.11 681.35"/><polygon class="cls-5" points="809.67 681.35 785.5 681.35 794.04 705.23 814.33 705.23 809.67 681.35"/><polygon class="cls-5" points="710.75 705.23 731.04 705.23 739.58 681.35 715.42 681.35 710.75 705.23"/><rect class="cls-19" x="690.97" y="671.35" width="143.14" height="23.88" rx="4.48" ry="4.48"/><path class="cls-29" d="M829.63,671.35h-20a4.48,4.48,0,0,1,4.48,4.48v14.93a4.48,4.48,0,0,1-4.48,4.48h20a4.48,4.48,0,0,0,4.48-4.48V675.82A4.48,4.48,0,0,0,829.63,671.35Z"/><path class="cls-15" d="M769.63,630.78c-.2-1-1.46-.84-2.63-2.76a10.35,10.35,0,0,1-1.22-6.71c.73-5.34,5-8.81,1.24-15.94a12.09,12.09,0,0,0-3.63-4.34c-6.39-4.58-13-3.26-16.82-7.27-4.67-4.91,1.88-11.49-2.48-19s-13-4.8-16.65-12.34c-2.94-6,1.42-10.29-2.17-15.17-2.71-3.68-8.76-6.13-13.57-3.82-5.23,2.51-7,9.64-5.23,14.13,2,5,7.22,4.42,9.87,9.81,3.46,7.06-3.59,12.06-.61,19.77,2.88,7.45,10.66,5.85,12.37,12.76,1.31,5.28-2.24,10.21-2.19,19a14,14,0,0,0,1.08,5.56c3.17,7.4,8.55,6.28,13.15,9.09a10.35,10.35,0,0,1,4.44,5.17,9.86,9.86,0,0,1,.49,3.79c0,.27,0,.3.08.35C746.52,645.18,770.53,635.21,769.63,630.78Z"/><path class="cls-15" d="M761.89,635.62c.18-.86,1.32-.75,2.37-2.49a9.31,9.31,0,0,0,1.09-6c-.65-4.8-4.48-7.92-1.11-14.33a10.87,10.87,0,0,1,3.26-3.91c5.74-4.12,11.69-2.93,15.12-6.54,4.2-4.41-1.69-10.33,2.23-17.1s11.68-4.32,15-11.09c2.64-5.44-1.28-9.25,1.95-13.64,2.43-3.31,7.88-5.51,12.21-3.44,4.71,2.25,6.28,8.67,4.7,12.7-1.76,4.48-6.5,4-8.87,8.82-3.11,6.35,3.22,10.85.55,17.78-2.59,6.7-9.58,5.26-11.12,11.47-1.18,4.75,2,9.18,2,17.07a12.56,12.56,0,0,1-1,5c-2.85,6.65-7.69,5.65-11.82,8.17a9.31,9.31,0,0,0-4,4.65,8.87,8.87,0,0,0-.44,3.41c0,.24,0,.27-.07.31C782.66,648.57,761.08,639.61,761.89,635.62Z"/><path class="cls-32" d="M799.82,574.14c-3.29,6.77-11.08,4.38-15,11.09s2,12.68-2.23,17.1c-3.43,3.6-9.38,2.42-15.12,6.54a10.86,10.86,0,0,0-3.26,3.91c-3.37,6.41.46,9.53,1.11,14.33a9.31,9.31,0,0,1-1.09,6c-1.05,1.73-2.19,1.63-2.37,2.49-.81,4,20.78,12.95,22,10.82,0,0,.08-.07.07-.31a8.87,8.87,0,0,1,.44-3.41,9.31,9.31,0,0,1,4-4.65c4.14-2.52,9-1.52,11.82-8.17a12.55,12.55,0,0,0,1-5c0-6.6-2.18-10.78-2.22-14.75a19.13,19.13,0,0,1-5.59-6.34,12.91,12.91,0,0,1-1.56-4.75,13.56,13.56,0,0,1,2.34-8.62c3.86-5.9,10.85-7.62,10.44-18.15a14.68,14.68,0,0,0-3.82-9.9C799.56,566,802.08,569.5,799.82,574.14Z"/><path class="cls-32" d="M769.63,630.78c-.2-1-1.46-.84-2.63-2.76a10.35,10.35,0,0,1-1.22-6.71c.73-5.34,5-8.81,1.24-15.94a12.09,12.09,0,0,0-3.63-4.34c-6.39-4.58-13-3.26-16.82-7.27-4.67-4.91,1.88-11.49-2.48-19-3.86-6.67-11.19-5.26-15.31-10.25a15.46,15.46,0,0,0-2.22,7.8c-.42,10.53,6.57,12.25,10.43,18.15a13.56,13.56,0,0,1,2.34,8.62,12.92,12.92,0,0,1-1.56,4.75c-2.47,4.64-6.24,6.71-7.87,8a13.57,13.57,0,0,0-4,6.12c0,.3,0,.6,0,.91a14,14,0,0,0,1.08,5.56c3.17,7.4,8.55,6.28,13.15,9.09a10.35,10.35,0,0,1,4.44,5.17,9.86,9.86,0,0,1,.49,3.79c0,.27,0,.3.08.35C746.52,645.18,770.53,635.21,769.63,630.78Z"/><path class="cls-14" d="M791.26,611.83c-1.63-1.31-5.41-3.38-7.87-8a12.92,12.92,0,0,1-1.56-4.75,13.56,13.56,0,0,1,2.34-8.62c3.86-5.9,10.85-7.62,10.44-18.15C794,556.7,777.77,559.22,777,547c-.57-8.57,7.24-10,7.3-19.77.07-11.81-11.31-14.51-11-25.86.3-9.34,8.12-10.89,7.91-19.77-.2-8.37-7.41-18.43-15.61-19.68h-.06c-8.2,1.25-15.41,11.32-15.61,19.68-.21,8.88,7.61,10.43,7.91,19.77.36,11.35-11,14-11,25.86.06,9.77,7.87,11.2,7.3,19.77-.81,12.17-17,9.66-17.64,25.25-.42,10.53,6.57,12.25,10.44,18.15a13.56,13.56,0,0,1,2.34,8.62,12.92,12.92,0,0,1-1.56,4.75c-2.47,4.64-6.24,6.71-7.87,8-6.29,5.06-7.88,20.78-.3,31.94,7.13,10.49,20.38,11.5,26,11.56h.06c5.57-.06,18.83-1.07,26-11.56C799.14,632.62,797.55,616.9,791.26,611.83Z"/><path class="cls-15" d="M791.26,611.83l-.48-.37-.19-.14-.18-.13a24.35,24.35,0,0,1-5.31-4.77h0a17.32,17.32,0,0,1-1.72-2.63,12.91,12.91,0,0,1-1.56-4.75,13.56,13.56,0,0,1,2.34-8.62c3.86-5.9,10.85-7.62,10.44-18.15C794,556.7,777.77,559.22,777,547c-.57-8.57,7.24-10,7.3-19.77.07-11.81-11.31-14.51-11-25.85.3-9.34,8.12-10.89,7.91-19.77-.2-8.37-7.41-18.43-15.61-19.68h-.06a13.84,13.84,0,0,0-5,1.87c5.94,3.55,10.48,11.2,10.64,17.81.21,8.88-7.61,10.43-7.91,19.77-.36,11.35,11,14,11,25.85-.06,9.77-7.87,11.2-7.3,19.77.81,12.17,17,9.66,17.64,25.25.42,10.53-6.57,12.25-10.44,18.15a13.56,13.56,0,0,0-2.34,8.62,12.91,12.91,0,0,0,1.56,4.75q.21.39.44.77c4.1,6.59,1.72,15.35-5.46,18.27a33.69,33.69,0,0,1-12.76,2.48h-.06c-4.28,0-13.06-.67-20.14-5.68a30.68,30.68,0,0,0,4.19,24.12c5.47,8.05,14.54,10.51,21,11.25h0a48.69,48.69,0,0,0,4.94.31h.06c5.57-.06,18.83-1.07,26-11.56C799.14,632.62,797.55,616.9,791.26,611.83Z"/><path class="cls-31" d="M738.2,671.35h54.69a10,10,0,0,0,9.94-8.87l3-26.26H725.27l3,26.26A10,10,0,0,0,738.2,671.35Z"/><polygon class="cls-26" points="725.27 636.21 805.82 636.21 803.93 652.77 725.42 637.5 725.27 636.21"/><rect class="cls-31" x="720.54" y="629.5" width="90" height="8" rx="3" ry="3"/><polygon class="cls-6" points="490.8 566.71 501.1 551.84 510.65 556.57 532.71 508.75 524.84 479.01 531.19 476.28 514.84 423.25 247.64 423.25 247.25 439.81 302.29 436.18 307.52 484.15 290.1 522.71 286.6 549.92 298.09 566.63 297.86 572.14 226.01 614.62 239.97 661.75 337.94 661.75 389.17 650.69 440.5 661.75 538.6 661.75 552.29 615.2 490.98 572.81 490.8 566.71"/><polygon class="cls-8" points="530.24 690.21 549.53 624.6 228.96 624.6 248.4 690.21 326.5 690.21 323.57 664.86 389.17 650.69 454.92 664.86 451.98 690.21 530.24 690.21"/><path class="cls-6" d="M79.25,452.9l-.86,14.31a6.79,6.79,0,0,0,6.15,7.24l.47,0A15.45,15.45,0,0,0,91.62,473l37.58-17.75,112.6-20.76L358.87,433l-.44-9.73H139.91C139.39,423.25,79.25,452.9,79.25,452.9Z"/><path class="cls-33" d="M484.67,793.92,453,789.31,449.71,812a6.89,6.89,0,0,0,5.82,7.81L484.69,824a6.89,6.89,0,0,0,7.81-5.82l.34-2.31a6.89,6.89,0,0,0-1.75-5.66l-3.77-4.1a6.89,6.89,0,0,1-1.78-3.95Z"/><path class="cls-34" d="M491.09,810.25l-3.77-4.1a6.89,6.89,0,0,1-1.78-3.95l-.87-8.28-10-1.46.86,8.24a6.89,6.89,0,0,0,1.78,3.95l3.77,4.1a6.89,6.89,0,0,1,1.75,5.66l-.34,2.31a6.89,6.89,0,0,1-7.81,5.82l-19.9-2.9a6.85,6.85,0,0,0,.74.15L484.69,824a6.89,6.89,0,0,0,7.81-5.82l.34-2.31A6.89,6.89,0,0,0,491.09,810.25Z"/><path class="cls-33" d="M294.28,793.92l31.65-4.61,3.3,22.67a6.89,6.89,0,0,1-5.82,7.81L294.25,824a6.89,6.89,0,0,1-7.81-5.82l-.34-2.31a6.89,6.89,0,0,1,1.75-5.66l3.77-4.1a6.89,6.89,0,0,0,1.78-3.95Z"/><path class="cls-34" d="M329.23,812l-3.3-22.67-31.65,4.61v0l21.66-3.15,3.3,22.67a6.89,6.89,0,0,1-5.08,7.65l9.26-1.35A6.89,6.89,0,0,0,329.23,812Z"/><polygon class="cls-33" points="521.03 507.64 494.63 407.84 446.98 423.67 481.93 518.58 513.7 509.69 521.03 507.64"/><polygon class="cls-34" points="494.63 407.84 487.28 410.28 513.03 507.64 505.7 509.69 481.19 516.55 481.93 518.58 513.7 509.69 521.03 507.64 494.63 407.84"/><polygon class="cls-31" points="480.32 578.56 479.71 563.42 309.22 563.42 308.61 578.56 480.32 578.56"/><polygon class="cls-26" points="479.71 563.42 468.71 563.42 469.32 578.56 480.32 578.56 479.71 563.42"/><polygon class="cls-19" points="352.04 364.53 369.1 358.6 418.44 358.6 425.07 365.55 468.18 417.21 469.72 485.95 487.99 525.74 490.97 547.15 479.71 563.42 395.98 563.42 393.03 563.42 309.22 563.42 298.05 547.15 300.8 525.74 318.78 485.95 311.28 417.21 352.04 364.53"/><polygon class="cls-19" points="517.76 470.07 490.5 381.62 417.11 357.94 440.11 411.21 466.53 492.06 517.76 470.07"/><path class="cls-29" d="M484.29,387.83l26.3,85.32,7.17-3.08-27.27-88.45-73.39-23.68h0a22.92,22.92,0,0,0,14,12.73Z"/><polygon class="cls-29" points="468.27 417.21 475.5 485.95 476.39 487.9 466.71 492.06 468.27 417.21"/><polygon class="cls-10" points="463.19 481.84 464.86 486.95 516.18 464.93 514.59 459.78 463.19 481.84"/><polygon class="cls-35" points="509 468 516.18 464.93 514.59 459.78 507.42 462.86 509 468"/><polygon class="cls-35" points="466.84 486.1 475.14 482.53 474.56 476.96 466.96 480.22 466.84 486.1"/><polygon class="cls-29" points="487.99 525.74 469.72 485.95 468.18 417.21 458.34 485.95 476.61 525.74 479.59 547.15 468.34 563.42 479.72 563.42 490.97 547.15 487.99 525.74"/><path class="cls-33" d="M347.37,422.12,345,369.22,236.75,380.84,119.13,427.25l-21.38,3.89a9.18,9.18,0,0,0-5,2.7l-11,11.59a9.18,9.18,0,0,0-2.35,8.13l1.26,6.3A4.48,4.48,0,0,0,86.92,463l38.88-18.36,114.92-21.19Z"/><path class="cls-34" d="M240.72,417.48,125.8,438.67,86.92,457a4.48,4.48,0,0,1-6.31-3.18l-1-4.91a9.17,9.17,0,0,0-.28,4.61l1.26,6.3A4.48,4.48,0,0,0,86.92,463l38.88-18.36,114.92-21.19,106.65-1.36-.27-6Z"/><polygon class="cls-19" points="259.84 372.35 352.02 364.7 401.31 423.94 343.34 422.45 258.52 428.05 259.84 372.35"/><polygon class="cls-29" points="258.52 428.05 312.08 424.51 258.7 420.4 258.52 428.05"/><polygon class="cls-18" points="480.14 578.69 308.61 578.56 238.99 619.72 292.01 798.73 327.27 792.45 311.5 656.21 389.17 639.44 466.99 656.21 451.22 792.45 486.87 798.73 539.5 619.72 480.14 578.69"/><polygon class="cls-5" points="389.17 639.44 300.9 651.06 317.47 794.2 327.27 792.45 311.5 656.21 389.17 639.44"/><polygon class="cls-5" points="480.14 578.69 308.61 578.56 308.6 578.57 470.14 578.69 525.5 622.72 477.36 797.05 486.87 798.73 539.5 619.72 480.14 578.69"/><polygon class="cls-10" points="264.1 427.7 269.67 427.35 271.19 371.44 265.62 371.88 264.1 427.7"/><polygon class="cls-35" points="264.1 427.68 269.67 427.31 269.83 421.26 264.28 420.83 264.1 427.68"/><path class="cls-33" d="M369.15,315.64v44.06a24.53,24.53,0,0,0,49.06,0V315.64Z"/><path class="cls-34" d="M369.15,345.59a50.18,50.18,0,0,0,9.16,8.79h0a18.74,18.74,0,0,0,11.15,3.68h9.36a18.74,18.74,0,0,0,10.89-3.49h0a50.94,50.94,0,0,0,8.5-7.66V319.56H369.15Z"/><path class="cls-33" d="M378.34,349.77h0a18.76,18.76,0,0,0,11.16,3.68h9.37a18.76,18.76,0,0,0,10.9-3.49h0a51,51,0,0,0,21.37-41.52V273.25H358v36.12A50.27,50.27,0,0,0,378.34,349.77Z"/><path class="cls-26" d="M361.48,296.67l.91-6.23a33.88,33.88,0,0,1,1.57-6.37h0a15.88,15.88,0,0,1,19.82-9.85h0a32.34,32.34,0,0,0,20.15-.14h0a17.91,17.91,0,0,1,21.27,8.13h0a11,11,0,0,1,1.34,4l1.35,10.25a47.42,47.42,0,0,1,.41,6.19h0a2.9,2.9,0,0,0,2.9,2.89h0l1.92-25.61a29.79,29.79,0,0,0-23.53-31.37l-.6-.13a76.13,76.13,0,0,0-15.79-1.66h0a87.21,87.21,0,0,0-17.11,1.69l-20.48,4.1L372.32,256l-14.58.43,8,5.84-8.6-.05,4.18,3.22-1.93,3a22.25,22.25,0,0,0-3.48,14.11l2.09,23h0a3.11,3.11,0,0,0,3.11-3.11h0A40,40,0,0,1,361.48,296.67Z"/><path class="cls-36" d="M390.43,496h-22a3.06,3.06,0,0,1-3-2.75l-3.8-46.63h35.74l-3.8,46.63A3.06,3.06,0,0,1,390.43,496Z"/><polyline class="cls-37" points="379.66 485.31 379.66 416.79 392.17 404.28"/><path class="cls-7" d="M364.49,455l3,37.17a2,2,0,0,0,2,1.83h20.31a2,2,0,0,0,2-1.83l3-37.17Z"/><path class="cls-18" d="M379.32,424.78a18.46,18.46,0,0,0-18.46,18.46h36.93A18.46,18.46,0,0,0,379.32,424.78Z"/><rect class="cls-38" x="359.5" y="441.55" width="39.82" height="5.11" rx="1.02" ry="1.02"/><path class="cls-33" d="M387.49,463.89l2.16-.18a7.41,7.41,0,0,0,6.79-6.78h0a22.21,22.21,0,0,1,5.39,13l.05.75-12.29-2Z"/><polygon class="cls-34" points="483.88 496.16 476.36 487.84 471.39 489.97 481.93 518.58 513.7 509.69 483.88 496.16"/><path class="cls-33" d="M375.8,483.69l20.25,3.8,109.33,54.2,15.65-34L402.47,471,365.7,453.38a4.25,4.25,0,0,0-6,3l-1.23,6a8.71,8.71,0,0,0,2.19,7.72l10.4,11A8.71,8.71,0,0,0,375.8,483.69Z"/><path class="cls-34" d="M391.19,485.12l-19.84-3.77a8.69,8.69,0,0,0,4.45,2.34l20.25,3.85Z"/><polygon class="cls-34" points="512.32 504.95 500.17 532.43 396.06 487.48 497.75 537.9 505.39 541.69 521.04 507.65 512.32 504.95"/><path class="cls-24" d="M422.32,275.43a3.12,3.12,0,1,1-6.24,0c0-1.72,3.12-5.17,3.12-5.17S422.32,273.7,422.32,275.43Z"/><path class="cls-24" d="M430,282.62a3.12,3.12,0,1,1-6.24,0c0-1.72,3.12-5.17,3.12-5.17S430,280.9,430,282.62Z"/><path class="cls-24" d="M424.67,293.77a3.12,3.12,0,0,1-6.24,0c0-1.72,3.12-5.17,3.12-5.17S424.67,292,424.67,293.77Z"/><polygon class="cls-39" points="319.12 335.22 336.96 352.9 340.37 346.36 353.38 353.14 337.85 336.74 334.45 343.27 319.12 335.22"/><polygon class="cls-39" points="342.28 324.48 347.23 338.36 350.69 335.76 355.86 342.65 351.81 330.04 348.35 332.63 342.28 324.48"/></g></g></g></svg>