<svg xmlns="http://www.w3.org/2000/svg" viewBox="0 0 800 802.44"><defs><style>.cls-1,.cls-11,.cls-4{fill:none;}.cls-1{stroke:#9c82a7;stroke-width:1.42px;}.cls-1,.cls-11{stroke-linecap:round;stroke-linejoin:round;}.cls-2{fill:#e8ecf5;}.cls-15,.cls-2,.cls-39{opacity:0.5;}.cls-3{fill:#65b3b3;stroke-width:5.26px;}.cls-3,.cls-4{stroke:#d0cfd4;stroke-miterlimit:10;}.cls-4{stroke-width:1.65px;}.cls-5{fill:#dadfe8;}.cls-6{fill:#d3d6dd;}.cls-15,.cls-7{fill:#e9edf6;}.cls-8{fill:#c9cbd1;}.cls-9{fill:#494059;}.cls-10{fill:#d0cfd4;}.cls-11{stroke:#7c8193;stroke-width:8px;}.cls-12{fill:#fff;}.cls-13{fill:#a8becb;}.cls-14{fill:#99b3c1;}.cls-16{fill:#6b7aa0;}.cls-17{fill:#fe7c6f;}.cls-18{fill:#352b44;}.cls-19{fill:#dee4f0;}.cls-20{fill:#2c3e66;}.cls-21{fill:#2e8fd8;}.cls-22{fill:#fecb6f;}.cls-23{fill:#65b88c;}.cls-24{fill:#304855;}.cls-25{fill:#263a42;}.cls-26{fill:#59caaf;}.cls-27{fill:#ff7b7c;}.cls-28{fill:#e86d74;}.cls-29{fill:#fbda85;}.cls-30{fill:#fdc87d;}.cls-31{fill:#51b1a9;}.cls-32{fill:#facabc;}.cls-33{fill:#f4ba5d;}.cls-34{fill:#f0f0f0;}.cls-35{fill:#2a4049;}.cls-36{fill:#21323a;}.cls-37{fill:#dde3ef;}.cls-38{fill:#f2beb1;}.cls-39{fill:#e0e0e0;}</style></defs><title>sdsdfsdfsd</title><g id="Layer_2" data-name="Layer 2"><g id="Layer_1-2" data-name="Layer 1"><line class="cls-1" x1="670.99" y1="516.44" x2="745.08" y2="516.44"/><line class="cls-1" x1="690.14" y1="516.83" x2="690.14" y2="544.49"/><line class="cls-1" x1="690.14" y1="575.05" x2="690.14" y2="602.71"/><line class="cls-1" x1="736.76" y1="516.83" x2="736.76" y2="544.49"/><line class="cls-1" x1="736.76" y1="575.05" x2="736.76" y2="602.71"/><line class="cls-1" x1="714.9" y1="544.68" x2="714.9" y2="574.66"/><line class="cls-1" x1="668.29" y1="544.68" x2="668.29" y2="574.66"/><line class="cls-1" x1="760.75" y1="544.68" x2="760.75" y2="574.66"/><line class="cls-1" x1="647.4" y1="544.49" x2="774.87" y2="544.49"/><line class="cls-1" x1="670.99" y1="544.49" x2="745.08" y2="544.49"/><line class="cls-1" x1="751.27" y1="602.71" x2="666.74" y2="602.71"/><line class="cls-1" x1="774.87" y1="574.66" x2="647.4" y2="574.66"/><ellipse class="cls-2" cx="400" cy="751.72" rx="400" ry="50.72"/><path class="cls-2" d="M560,6.09a82.69,82.69,0,0,1,30.07,30c6.58,12.64,9.77,28.93,5.84,52.73C583.78,162,525.15,180.54,528.66,235c.49,7.57,1.91,28.86,17,41.52C570,297,603.7,273.32,628.22,289c28.17,18,22.35,74,20.92,87.75-14,134.31-189.88,297.39-362.46,290-23.7-1-101.57-4.37-125.08-52.59-17.39-35.66,4.23-79.57,5.69-82.44,27.11-53.52,82.93-49.39,97.37-98.79,4.54-15.54,6.67-42.12-7.11-54-20.32-17.55-57.2,12.47-87.06-6-18.8-11.65-23.51-35.61-25.23-44.42-13-66.68,71.31-139.48,133.32-191.86C389.23,43.07,513.29-20.5,560,6.09Z"/><line class="cls-1" x1="151.84" y1="629.05" x2="225.92" y2="629.05"/><line class="cls-1" x1="170.99" y1="629.44" x2="170.99" y2="657.1"/><line class="cls-1" x1="170.99" y1="687.66" x2="170.99" y2="715.32"/><line class="cls-1" x1="217.6" y1="629.44" x2="217.6" y2="657.1"/><line class="cls-1" x1="217.6" y1="687.66" x2="217.6" y2="715.32"/><line class="cls-1" x1="195.75" y1="657.29" x2="195.75" y2="687.27"/><line class="cls-1" x1="149.13" y1="657.29" x2="149.13" y2="687.27"/><line class="cls-1" x1="241.59" y1="657.29" x2="241.59" y2="687.27"/><line class="cls-1" x1="128.24" y1="657.1" x2="255.71" y2="657.1"/><line class="cls-1" x1="151.84" y1="657.1" x2="225.92" y2="657.1"/><line class="cls-1" x1="232.11" y1="715.32" x2="147.58" y2="715.32"/><line class="cls-1" x1="255.71" y1="687.27" x2="128.24" y2="687.27"/><line class="cls-3" x1="253.89" y1="658.73" x2="253.89" y2="290.61"/><path class="cls-4" d="M154.07,300a10.53,10.53,0,1,0,21.05,0h78.77"/><rect class="cls-5" x="135.66" y="647.95" width="518.67" height="29.17"/><rect class="cls-6" x="139.51" y="647.95" width="30.7" height="29.17"/><polygon class="cls-7" points="623.78 626.89 641.32 602.33 158.09 602.33 175.64 626.89 160.22 647.95 639.2 647.95 623.78 626.89"/><polygon class="cls-5" points="623.78 626.89 641.32 602.33 158.09 602.33 175.64 626.89 623.78 626.89"/><rect class="cls-6" x="87.7" y="580.11" width="624.6" height="28.07"/><rect class="cls-8" x="87.7" y="580.11" width="28.77" height="28.07"/><rect class="cls-7" x="129.51" y="640.34" width="30.7" height="36.77"/><rect class="cls-6" x="629.2" y="647.95" width="25.13" height="29.17"/><rect class="cls-7" x="639.2" y="640.34" width="30.7" height="36.77" transform="translate(1309.1 1317.46) rotate(180)"/><circle class="cls-6" cx="144.87" cy="677.12" r="11.4"/><circle class="cls-6" cx="654.33" cy="676.02" r="11.4"/><circle class="cls-9" cx="688.32" cy="711.11" r="22.81"/><circle class="cls-10" cx="688.32" cy="711.11" r="11.4"/><line class="cls-11" x1="688.32" y1="711.11" x2="654.33" y2="677.12"/><circle class="cls-9" cx="111.09" cy="711.11" r="22.81"/><circle class="cls-10" cx="111.09" cy="711.11" r="11.4"/><line class="cls-11" x1="111.09" y1="711.11" x2="145.09" y2="677.12"/><rect class="cls-12" x="96.47" y="569.58" width="607.06" height="28.07"/><rect class="cls-12" x="96.47" y="569.58" width="607.06" height="28.07"/><rect class="cls-7" x="86.47" y="569.58" width="30" height="28.07"/><rect class="cls-8" x="684.76" y="580.11" width="28.77" height="28.07"/><rect class="cls-7" x="684.76" y="569.58" width="18.77" height="28.07"/><path class="cls-13" d="M96.47,538H686a17.54,17.54,0,0,1,17.54,17.54V576.6a0,0,0,0,1,0,0H96.47a0,0,0,0,1,0,0V538A0,0,0,0,1,96.47,538Z"/><path class="cls-14" d="M116.47,556.6V538h-20v38.6H703.53v-10H126.47A10,10,0,0,1,116.47,556.6Z"/><path class="cls-14" d="M683.53,556.6V538h4a16,16,0,0,1,16,16v22.6H96.47v-10H673.53A10,10,0,0,0,683.53,556.6Z"/><path class="cls-13" d="M128.05,501.15h64.33A31.58,31.58,0,0,1,224,532.73V538a0,0,0,0,1,0,0H96.47a0,0,0,0,1,0,0v-5.26A31.58,31.58,0,0,1,128.05,501.15Z"/><path class="cls-14" d="M124.85,501.31a31.46,31.46,0,0,0-8.38,21.42h0a5.26,5.26,0,0,0,5.26,5.26H223.61a31.83,31.83,0,0,1,.35,4.74V538H96.47v-5.26A31.58,31.58,0,0,1,124.85,501.31Z"/><rect class="cls-13" x="75.42" y="416.06" width="21.05" height="217.56" rx="5.26" ry="5.26"/><path class="cls-14" d="M91.21,613.62H80.68a5.26,5.26,0,0,1-5.26-5.26v20a5.26,5.26,0,0,0,5.26,5.26H91.21a5.26,5.26,0,0,0,5.26-5.26v-20A5.26,5.26,0,0,1,91.21,613.62Z"/><rect class="cls-13" x="703.53" y="486.24" width="21.05" height="147.38" rx="5.26" ry="5.26"/><path class="cls-14" d="M719.32,613.62H708.79a5.26,5.26,0,0,1-5.26-5.26v20a5.26,5.26,0,0,0,5.26,5.26h10.53a5.26,5.26,0,0,0,5.26-5.26v-20A5.26,5.26,0,0,1,719.32,613.62Z"/><polygon class="cls-5" points="304.26 602.33 281.18 602.33 274.27 647.95 297.35 647.95 304.26 602.33"/><polygon class="cls-5" points="482.54 638.38 482.53 636.7 482.57 632.01 478.6 632.01 479.49 607.96 479.39 602.33 414.33 602.33 415.78 608.96 417.85 632.01 414.52 632.01 415.52 647.95 482.48 647.95 482.5 645.36 482.54 638.38"/><polygon class="cls-5" points="518.82 602.33 495.74 602.33 502.65 647.95 525.73 647.95 518.82 602.33"/><polygon class="cls-5" points="384.36 608.96 385.81 602.33 320.75 602.33 320.65 607.96 322.12 647.95 380.85 647.95 384.36 608.96"/><polygon class="cls-6" points="300.54 626.89 304.26 602.33 281.18 602.33 277.46 626.89 300.54 626.89"/><polygon class="cls-6" points="479.49 607.96 479.39 602.33 414.33 602.33 415.78 608.96 417.39 626.89 478.79 626.89 479.49 607.96"/><polygon class="cls-6" points="518.82 602.33 495.74 602.33 499.46 626.89 522.54 626.89 518.82 602.33"/><polygon class="cls-6" points="384.36 608.96 385.81 602.33 320.75 602.33 320.65 607.96 321.35 626.89 382.75 626.89 384.36 608.96"/><line class="cls-1" x1="541.92" y1="249.52" x2="616" y2="249.52"/><line class="cls-1" x1="561.07" y1="249.91" x2="561.07" y2="277.57"/><line class="cls-1" x1="561.07" y1="308.13" x2="561.07" y2="335.79"/><line class="cls-1" x1="607.68" y1="249.91" x2="607.68" y2="277.57"/><line class="cls-1" x1="607.68" y1="308.13" x2="607.68" y2="335.79"/><line class="cls-1" x1="585.83" y1="277.76" x2="585.83" y2="307.75"/><line class="cls-1" x1="539.21" y1="277.76" x2="539.21" y2="307.75"/><line class="cls-1" x1="631.67" y1="277.76" x2="631.67" y2="307.75"/><line class="cls-1" x1="518.32" y1="277.57" x2="645.79" y2="277.57"/><line class="cls-1" x1="541.92" y1="277.57" x2="616" y2="277.57"/><line class="cls-1" x1="622.19" y1="335.79" x2="537.66" y2="335.79"/><line class="cls-1" x1="645.79" y1="307.75" x2="518.32" y2="307.75"/><line class="cls-1" x1="165.29" y1="61.41" x2="239.38" y2="61.41"/><line class="cls-1" x1="184.44" y1="61.8" x2="184.44" y2="89.46"/><line class="cls-1" x1="184.44" y1="120.02" x2="184.44" y2="147.68"/><line class="cls-1" x1="231.06" y1="61.8" x2="231.06" y2="89.46"/><line class="cls-1" x1="231.06" y1="120.02" x2="231.06" y2="147.68"/><line class="cls-1" x1="209.2" y1="89.65" x2="209.2" y2="119.63"/><line class="cls-1" x1="162.59" y1="89.65" x2="162.59" y2="119.63"/><line class="cls-1" x1="255.05" y1="89.65" x2="255.05" y2="119.63"/><line class="cls-1" x1="141.7" y1="89.46" x2="269.17" y2="89.46"/><line class="cls-1" x1="165.29" y1="89.46" x2="239.38" y2="89.46"/><line class="cls-1" x1="245.57" y1="147.68" x2="161.04" y2="147.68"/><line class="cls-1" x1="269.17" y1="119.63" x2="141.7" y2="119.63"/><circle class="cls-15" cx="215.53" cy="70.73" r="54.42"/><circle class="cls-6" cx="220.97" cy="67.46" r="54.42"/><circle class="cls-12" cx="220.97" cy="67.46" r="46.26"/><path class="cls-7" d="M221,21.2a46.68,46.68,0,0,0-5.44.33,46.25,46.25,0,0,1,0,91.85A46.25,46.25,0,1,0,221,21.2Z"/><rect class="cls-16" x="215.53" y="63.65" width="37.76" height="7.62" rx="2.91" ry="2.91"/><rect class="cls-16" x="199.37" y="47.5" width="43.2" height="7.62" rx="2.91" ry="2.91" transform="translate(169.67 272.28) rotate(-90)"/><rect class="cls-17" x="187.95" y="76.34" width="43.2" height="4.35" rx="1.66" ry="1.66" transform="translate(5.86 171.17) rotate(-45)"/><circle class="cls-18" cx="220.97" cy="67.46" r="8.16"/><polygon class="cls-10" points="479.49 607.96 479.01 580.11 409.47 580.11 415.61 608.18 479.48 608.18 479.49 607.96"/><polygon class="cls-10" points="390.67 580.11 321.12 580.11 320.65 607.96 320.66 608.18 384.53 608.18 390.67 580.11"/><polygon class="cls-10" points="515.45 580.11 492.38 580.11 496.63 608.18 519.71 608.18 515.45 580.11"/><polygon class="cls-14" points="478.3 538 400.26 538 408.7 576.6 478.95 576.6 478.3 538"/><polygon class="cls-14" points="509.08 538 486 538 491.85 576.6 514.92 576.6 509.08 538"/><polygon class="cls-14" points="399.88 538 321.84 538 321.18 576.6 391.44 576.6 399.88 538"/><polygon class="cls-14" points="308.15 576.6 314 538 290.92 538 285.08 576.6 308.15 576.6"/><polygon class="cls-7" points="304.96 597.65 308.15 576.59 285.08 576.59 281.89 597.65 304.96 597.65"/><polygon class="cls-7" points="408.7 576.59 413.3 597.65 479.31 597.65 478.95 576.6 408.7 576.59"/><polygon class="cls-8" points="304.96 597.65 281.89 597.65 280.29 608.18 303.37 608.18 304.96 597.65"/><polygon class="cls-7" points="321.18 576.59 320.83 597.65 386.83 597.65 391.44 576.59 321.18 576.59"/><polygon class="cls-7" points="491.85 576.6 495.04 597.65 518.11 597.65 514.92 576.59 491.85 576.6"/><polygon class="cls-6" points="415.52 647.95 417.35 677.12 482.16 677.12 482.48 647.95 415.52 647.95"/><polygon class="cls-6" points="292.93 677.12 297.35 647.95 274.27 647.95 269.85 677.12 292.93 677.12"/><polygon class="cls-6" points="525.73 647.95 502.65 647.95 507.07 677.12 530.15 677.12 525.73 647.95"/><polygon class="cls-6" points="380.85 647.95 322.12 647.95 323.19 677.12 378.22 677.12 380.85 647.95"/><rect class="cls-19" x="596.81" y="36.52" width="100" height="81.12" rx="4" ry="4"/><rect class="cls-20" x="596.81" y="31.52" width="100" height="81.12" rx="4" ry="4"/><rect class="cls-12" x="600.63" y="35.35" width="92.35" height="73.47"/><path class="cls-17" d="M611.59,101.52h-.1c-1.88-.09-2.88-2.67-3.6-5.17a27.72,27.72,0,0,1-1-9.63c.31-4.22.59-8.21,2.91-12.85,2.43-4.87,7.81-11.5,11.61-10.24A4.64,4.64,0,0,1,624,66.12a7.32,7.32,0,0,1,.33,2.5c0,.74,0,1.49,0,2.23a1,1,0,1,1-2-.08c0-.69,0-1.38,0-2.08a6.41,6.41,0,0,0-.19-1.81,2.59,2.59,0,0,0-1.33-1.31c-1.93-.64-6.54,4-9.14,9.21-2.14,4.28-2.41,8.07-2.7,12.08a25.66,25.66,0,0,0,.94,8.91c.89,3.07,1.53,3.6,1.71,3.69.11-.08.31-.27.5-.44s.6-.56,1.05-.94a24,24,0,0,1,3.53-2.38c.68-.41,1.25-.7,1.85-1,.76-.4,1.63-.85,3-1.66.79-.47,1.28-.79,1.45-1.27a2.55,2.55,0,0,0-.07-1.35l0-.16c0-.06-.29-1.61-.57-4.41a15.17,15.17,0,0,1,0-2.15c0-.57.06-1.21.07-1.93a1,1,0,0,1,2,0c0,.76,0,1.42-.08,2a14.21,14.21,0,0,0,0,1.84c.27,2.7.54,4.22.55,4.24l0,.15a4.33,4.33,0,0,1,0,2.38,4.57,4.57,0,0,1-2.34,2.38c-1.4.83-2.29,1.3-3.07,1.71-.6.32-1.12.59-1.76,1a22.12,22.12,0,0,0-3.26,2.19c-.41.34-.72.63-1,.86A2.67,2.67,0,0,1,611.59,101.52Z"/><path class="cls-17" d="M641.55,101.52a2.67,2.67,0,0,1-1.85-1c-.25-.23-.56-.52-1-.86a22.16,22.16,0,0,0-3.26-2.19c-.64-.38-1.16-.65-1.76-1-.78-.41-1.67-.88-3.07-1.71a4.57,4.57,0,0,1-2.34-2.38,4.33,4.33,0,0,1,0-2.38l0-.16s.28-1.54.55-4.23a14.25,14.25,0,0,0,0-1.85c0-.59-.06-1.25-.08-2a1,1,0,0,1,2,0c0,.72,0,1.36.07,1.93a15.2,15.2,0,0,1,0,2.15c-.27,2.79-.56,4.34-.57,4.41l0,.16a2.55,2.55,0,0,0-.07,1.35c.16.49.65.81,1.45,1.27,1.35.8,2.22,1.26,3,1.66.6.32,1.17.61,1.85,1A24,24,0,0,1,640,98.09c.45.38.79.69,1.05.94s.39.36.5.44c.17-.08.81-.6,1.71-3.69a25.65,25.65,0,0,0,.94-8.91c-.29-4-.56-7.81-2.7-12.08-2.6-5.2-7.21-9.85-9.14-9.21a2.59,2.59,0,0,0-1.33,1.31,6.42,6.42,0,0,0-.19,1.81c0,.69,0,1.39,0,2.08a1,1,0,1,1-2,.08c0-.74,0-1.49,0-2.23a7.33,7.33,0,0,1,.33-2.5,4.64,4.64,0,0,1,2.58-2.48c3.8-1.26,9.18,5.36,11.61,10.24,2.32,4.64,2.61,8.63,2.91,12.85a27.7,27.7,0,0,1-1,9.63c-.73,2.5-1.73,5.08-3.6,5.17Z"/><path class="cls-17" d="M619.49,86.64a1,1,0,0,1-1-.81,6,6,0,0,1,0-2.59A5.19,5.19,0,0,1,619,82c.09-.19.19-.39.29-.65a4.32,4.32,0,0,0,.52-2.26c-.09-.23-.46-.38-1.34-.69-.52-.19-1.17-.42-1.92-.77a16.54,16.54,0,0,1-3.62-2.3,1,1,0,0,1,1.31-1.57,14.49,14.49,0,0,0,3.17,2c.66.31,1.24.51,1.75.7,1.14.41,2.13.76,2.56,1.89s-.06,2.56-.53,3.74c-.14.34-.26.6-.36.8a3.22,3.22,0,0,0-.31.81,4,4,0,0,0,0,1.72,1,1,0,0,1-.79,1.21Z"/><path class="cls-17" d="M612.45,84.49a1,1,0,0,1-.79-1.67A8.57,8.57,0,0,1,615,80.27a9.86,9.86,0,0,1,1.56-.47,7,7,0,0,0,1.79-.62A7.13,7.13,0,0,0,620,78a1,1,0,0,1,1.42,1.47A9.17,9.17,0,0,1,619.28,81a9,9,0,0,1-2.25.79,8.09,8.09,0,0,0-1.26.38,6.56,6.56,0,0,0-2.54,2A1,1,0,0,1,612.45,84.49Z"/><path class="cls-17" d="M633.37,86.64l-.21,0a1,1,0,0,1-.79-1.21,4,4,0,0,0,0-1.72,3.22,3.22,0,0,0-.31-.81c-.1-.21-.23-.46-.36-.8-.47-1.18-1-2.52-.53-3.74s1.42-1.48,2.56-1.89c.51-.18,1.09-.39,1.75-.7a14.49,14.49,0,0,0,3.17-2A1,1,0,0,1,640,75.31a16.53,16.53,0,0,1-3.62,2.3c-.75.35-1.4.58-1.92.77-.88.32-1.25.47-1.34.69a4.31,4.31,0,0,0,.52,2.26c.11.27.2.46.3.65a5.2,5.2,0,0,1,.47,1.26,6,6,0,0,1,0,2.59A1,1,0,0,1,633.37,86.64Z"/><path class="cls-17" d="M640.42,84.49a1,1,0,0,1-.79-.37,6.56,6.56,0,0,0-2.54-2,8.09,8.09,0,0,0-1.26-.38,9,9,0,0,1-2.25-.79,9.17,9.17,0,0,1-2.17-1.56A1,1,0,0,1,632.84,78a7.13,7.13,0,0,0,1.68,1.21,7,7,0,0,0,1.79.62,9.87,9.87,0,0,1,1.56.47,8.57,8.57,0,0,1,3.34,2.55,1,1,0,0,1-.79,1.67Z"/><path class="cls-17" d="M633.16,77.33h0a2,2,0,0,1-1.59-.53l-3.85-3.58V52.53a1.27,1.27,0,0,0-1.27-1.27h0a1.27,1.27,0,0,0-1.28,1.27V73.22l-3.51,3.54a2.25,2.25,0,0,1-1.81.66l-1.41-.13,1.83.49c-.25.23.26.46.24.77s-.55.76-.3,1c.09.09.34-.45.44-.38s-.76,3.38-.54,3.38S622,79.64,622,79.64l4.46-4.14,4.05,3.76a4.39,4.39,0,0,1,.7.84l1.08,1.68a10.47,10.47,0,0,1-.23-2.57c.05-.24.71.2.71.2a1.67,1.67,0,0,1-.51-.77,1.5,1.5,0,0,1,.3-.73C632.58,77.82,633.16,77.33,633.16,77.33Z"/><rect class="cls-21" x="606.15" y="40.8" width="81.63" height="5.1"/><rect class="cls-6" x="655.39" y="52.28" width="32.4" height="2.55"/><rect class="cls-6" x="655.39" y="58.4" width="32.4" height="2.55"/><rect class="cls-6" x="655.39" y="64.52" width="32.4" height="2.55"/><rect class="cls-6" x="655.39" y="70.65" width="32.4" height="2.55"/><rect class="cls-6" x="655.39" y="76.77" width="32.4" height="2.55"/><rect class="cls-6" x="655.39" y="82.89" width="32.4" height="2.55"/><rect class="cls-21" x="670.69" y="97.69" width="17.09" height="3.57"/><rect class="cls-22" x="497.3" y="390.77" width="8.76" height="362.84" transform="translate(-80.06 81.61) rotate(-8.62)"/><path class="cls-23" d="M333.53,746.71h30.1v21.56a6.48,6.48,0,0,1-6.48,6.48H329.42a6.48,6.48,0,0,1-6.48-6.48v-2.19a6.48,6.48,0,0,1,2.4-5l4.07-3.3a6.48,6.48,0,0,0,2.2-3.44Z"/><path class="cls-24" d="M465.37,746.71h-30.1v21.56a6.48,6.48,0,0,0,6.48,6.48h27.73a6.48,6.48,0,0,0,6.48-6.48v-2.19a6.48,6.48,0,0,0-2.4-5l-4.07-3.3a6.48,6.48,0,0,1-2.2-3.44Z"/><polygon class="cls-24" points="469.41 433.9 469.39 433.44 330.74 433.44 330.73 433.9 327.65 614.89 332.52 747.33 365.5 747.33 377.43 614.89 399.91 512.08 400.07 511.89 400.23 512.08 422.71 614.89 434.63 747.33 467.61 747.33 472.48 614.89 469.41 433.9"/><polygon class="cls-25" points="469.99 451.77 469.41 433.9 469.39 433.44 330.74 433.44 330.73 433.9 330.15 451.77 469.99 451.77"/><polygon class="cls-26" points="359.1 217.35 375.57 211.62 423.23 211.62 429.62 213.35 491.24 268.23 462.78 329.63 469.22 433.44 401.53 433.44 398.69 433.44 331 433.44 337.44 329.63 308.98 268.23 359.1 217.35"/><polygon class="cls-27" points="359.1 217.35 375.57 211.62 423.23 211.62 429.62 213.35 491.24 268.23 462.78 329.63 469.22 433.44 401.53 433.44 398.69 433.44 331 433.44 337.44 329.63 308.98 268.23 359.1 217.35"/><polygon class="cls-28" points="458.11 433.44 469.22 433.44 462.78 329.63 458.11 433.44"/><path class="cls-29" d="M421.94,210.81V177.73H376.39v33.08a22.78,22.78,0,0,0,22.78,22.78h0A22.78,22.78,0,0,0,421.94,210.81Z"/><rect class="cls-29" x="376.39" y="169.9" width="45.55" height="38.35"/><path class="cls-30" d="M376.39,194.07a46.59,46.59,0,0,0,8.5,8.16h0a17.4,17.4,0,0,0,10.35,3.42h8.69A17.4,17.4,0,0,0,414,202.4h0a47.3,47.3,0,0,0,7.9-7.11V169.9H376.39Z"/><path class="cls-31" d="M421.94,211h0a22.77,22.77,0,0,1-22.77,22.6h0A22.77,22.77,0,0,1,376.4,211.3h0l-4.88,1.76a27.75,27.75,0,0,0,55.35-.41Z"/><path class="cls-31" d="M421.94,211h0a22.77,22.77,0,0,1-22.77,22.6h0A22.77,22.77,0,0,1,376.4,211.3h0l-4.88,1.76a27.75,27.75,0,0,0,55.35-.41Z"/><path class="cls-32" d="M292.26,462.14l19.22,36.65a2.78,2.78,0,0,0,4.46.59l.59-.62a6.94,6.94,0,0,0,1.22-7.79l-15.88-34.42Z"/><rect class="cls-22" x="116.9" y="567.8" width="362.84" height="8.76" transform="matrix(0.15, -0.99, 0.99, 0.15, -312.1, 781.42)"/><rect class="cls-22" x="121.37" y="538.66" width="362.84" height="8.76" transform="translate(-279.48 761.05) rotate(-81.38)"/><path class="cls-33" d="M310.74,497.66l.1-10-.62-8.16-.8-9.87-8,53.41a8.85,8.85,0,0,0,4.29,2l2.64.46a4.28,4.28,0,0,0,1.56,0l2.46-16.26Z"/><path class="cls-16" d="M266,750.43h9.87a1.39,1.39,0,0,1,1.39,1.39V772a2.78,2.78,0,0,1-2.78,2.78H263.05a2.78,2.78,0,0,1-2.71-3.36l4.29-19.86A1.39,1.39,0,0,1,266,750.43Z"/><path class="cls-32" d="M283.42,353.39l8.1,122.51h0l-3.88,20.64a8.87,8.87,0,0,0,.71,5.45L295,516a8.87,8.87,0,0,0,6.52,4.93l2.64.46a4.33,4.33,0,0,0,5-4.6l-.72-9.55-1.9-13.7.1-10-.62-8.16,9.45-110.78Z"/><path class="cls-32" d="M507.73,462.14l-19.22,36.65a2.78,2.78,0,0,1-4.46.59l-.59-.62a6.94,6.94,0,0,1-1.22-7.79l15.88-34.42Z"/><rect class="cls-22" x="492.83" y="361.62" width="8.76" height="362.84" transform="translate(-75.74 80.62) rotate(-8.62)"/><path class="cls-33" d="M489.07,497.66l-.1-10,.62-8.16.8-9.87,8,53.41a8.85,8.85,0,0,1-4.29,2l-2.64.46a4.28,4.28,0,0,1-1.56,0l-2.46-16.26Z"/><path class="cls-16" d="M534,750.43h-9.87a1.39,1.39,0,0,0-1.39,1.39V772a2.78,2.78,0,0,0,2.78,2.78h11.42a2.78,2.78,0,0,0,2.71-3.36l-4.29-19.86A1.39,1.39,0,0,0,534,750.43Z"/><path class="cls-34" d="M399.8,239.61h0a32.45,32.45,0,0,1-32.45-32.45V171.55h64.9v35.61A32.45,32.45,0,0,1,399.8,239.61Z"/><circle class="cls-34" cx="375.45" cy="204.27" r="1.39"/><path class="cls-35" d="M399.91,512.08l.16-.2h0a14.25,14.25,0,0,0-13.67,11.2l-20.08,91.8L354.39,747.33H365.5l11.93-132.44,17.08-78.12Z"/><polygon class="cls-35" points="469.41 433.9 469.39 433.44 458.29 433.44 458.3 433.9 461.37 614.89 456.5 747.33 467.61 747.33 472.48 614.89 469.41 433.9"/><polygon class="cls-36" points="469.41 433.9 469.4 433.67 469.39 433.44 458.29 433.44 458.3 433.9 458.6 451.77 469.71 451.77 469.41 433.9"/><path class="cls-7" d="M494,763.24a6.25,6.25,0,0,0-4.09-5.63l-11-4.28a5.55,5.55,0,0,1-2.53-3.22h0a42.84,42.84,0,0,1-1.78-12.62l.86-91.47H422l6.35,101.32v20.93a6.48,6.48,0,0,0,6.48,6.48h53.65a5.55,5.55,0,0,0,5.55-5.55v-6Z"/><path class="cls-37" d="M494,763.24a6.25,6.25,0,0,0-4.09-5.63l-11-4.28a5.56,5.56,0,0,1-2.53-3.22,42.84,42.84,0,0,1-1.78-12.62l.86-91.47H464.4l-.86,91.47a42.84,42.84,0,0,0,1.78,12.62,5.55,5.55,0,0,0,2.53,3.22l11,4.28a6.25,6.25,0,0,1,4.09,5.63v6a5.55,5.55,0,0,1-5.55,5.55h11.11a5.55,5.55,0,0,0,5.55-5.55v-6Z"/><polygon class="cls-37" points="421.98 646.01 422.76 658.56 475.5 646.01 421.98 646.01"/><polygon class="cls-37" points="475.5 652.29 423.44 669.34 423.92 676.96 475.27 670.55 475.5 652.29"/><polygon class="cls-37" points="475.21 677.03 424.43 685.18 425.9 708.68 475.09 690.35 475.21 677.03"/><polygon class="cls-37" points="474.98 701.83 426.16 712.84 426.67 720.88 474.84 716.86 474.98 701.83"/><polygon class="cls-37" points="474.73 727.82 427.04 726.79 428.24 745.97 474.64 737.12 474.73 727.82"/><path class="cls-37" d="M477.71,752.31a5.53,5.53,0,0,1-1.29-2.2,42.84,42.84,0,0,1-1.4-6.62l0-.07-46.67,10.41v12.31l49.4-13.78Z"/><polygon class="cls-37" points="480.95 754.11 434.81 774.75 463.62 774.75 483.7 755.18 480.95 754.11"/><path class="cls-37" d="M489.92,757.6l-2.6-1h0l-12.59,18.16h3.87l14.55-14.43A6.58,6.58,0,0,0,489.92,757.6Z"/><path class="cls-6" d="M474.65,737l.09-9.13-11.11-.24-.09,9.91c0,.58,0,1.16,0,1.74l11.06-2.11Z"/><path class="cls-6" d="M481,754.1l-5.17,2.31,3,1.18a6.73,6.73,0,0,1,1.53.85l3.36-3.27Z"/><polygon class="cls-6" points="475.09 690.35 475.21 677.03 464.09 678.82 463.94 694.5 475.09 690.35"/><path class="cls-6" d="M482.66,770.72l10.49-10.41h0a6.45,6.45,0,0,0-.6-.82l-.06-.06a6.58,6.58,0,0,0-.65-.64l-.13-.12a6.5,6.5,0,0,0-.68-.48l-.19-.13a6.54,6.54,0,0,0-.93-.45h0l-.9-.35-1.7-.66h0l-4.44,6.4c0,.08,0,.16,0,.24v6A5.5,5.5,0,0,1,482.66,770.72Z"/><polygon class="cls-6" points="464.15 671.94 475.27 670.55 475.27 670.55 475.45 652.31 464.3 655.96 464.15 671.94"/><path class="cls-6" d="M477.35,774.75h1.25l.23-.23A5.48,5.48,0,0,1,477.35,774.75Z"/><polygon class="cls-6" points="475.5 646.01 464.4 646.01 464.37 648.66 475.5 646.01"/><polygon class="cls-6" points="474.84 716.86 474.93 706.91 474.98 701.83 463.84 704.34 463.72 717.79 474.84 716.86"/><path class="cls-6" d="M477.71,752.31a5.53,5.53,0,0,1-.73-1l-.06-.09a5.52,5.52,0,0,1-.5-1.15h0v0c-.32-1.08-.59-2.16-.82-3.26v-.06c-.23-1.09-.41-2.18-.56-3.28l0-.07-10.7,2.39a42.83,42.83,0,0,0,1,4.3,5.55,5.55,0,0,0,2.53,3.22l2.68,1,7.21-2Z"/><path class="cls-32" d="M508.47,475.9h0l8.1-122.51-32.09,11.15,9.45,110.78-.62,8.16.1,10-1.9,13.7-.72,9.55a4.33,4.33,0,0,0,5,4.6l2.64-.46A8.87,8.87,0,0,0,505,516l6.65-14a8.87,8.87,0,0,0,.71-5.45Z"/><path class="cls-38" d="M508.47,475.9h0l8.1-122.51L489.66,251.68l-5.11,1.7,26.46,100-8.1,122.51h0l3.88,20.64a8.87,8.87,0,0,1-.71,5.45l-6.65,14a8.87,8.87,0,0,1-6.42,4.91,4.29,4.29,0,0,0,2.81.48l2.64-.46A8.87,8.87,0,0,0,505,516l6.65-14a8.87,8.87,0,0,0,.71-5.45Z"/><polygon class="cls-27" points="487.82 233.86 520.28 351.55 511.83 474.57 489.32 473.18 481.54 364.68 439.15 262.43 429.68 213.35 487.82 233.86"/><path class="cls-28" d="M487.82,233.86l-58.14-20.51v5.43l39.79,17a19.44,19.44,0,0,1,11.12,12.72l26.28,95.26A81.45,81.45,0,0,1,509.61,371l-7.08,103,9.3.57,8.45-123Z"/><path class="cls-18" d="M465.48,295.36l-9.49.79a5.55,5.55,0,0,0-5,6.54l11.48,62.58a2.78,2.78,0,0,0,3.28,2.22l9.57-1.94a2.78,2.78,0,0,0,2.21-3l-6.06-62.2A5.55,5.55,0,0,0,465.48,295.36Z"/><polygon class="cls-27" points="312.17 233.86 279.7 351.55 288.15 474.57 310.67 473.18 318.45 364.68 360.84 262.43 370.31 213.35 312.17 233.86"/><path class="cls-18" d="M334.52,295.36l9.49.79a5.55,5.55,0,0,1,5,6.54l-11.48,62.58a2.78,2.78,0,0,1-3.28,2.22l-9.57-1.94a2.78,2.78,0,0,1-2.21-3l6.06-62.2A5.55,5.55,0,0,1,334.52,295.36Z"/><path class="cls-12" d="M399.8,239.61h0a32.45,32.45,0,0,1-32.45-32.45V171.55h64.9v35.61A32.45,32.45,0,0,1,399.8,239.61Z"/><path class="cls-32" d="M372.94,176l-5.26-4.21a16.37,16.37,0,0,1-6.13-12.77v-6.42a4.27,4.27,0,0,1,4.27-4.27h7.12Z"/><path class="cls-32" d="M427,176l5.26-4.21a16.37,16.37,0,0,0,6.13-12.77v-6.42a4.27,4.27,0,0,0-4.27-4.27H427Z"/><path class="cls-39" d="M367.35,175.7a46.62,46.62,0,0,0,17.54,26.42,17.4,17.4,0,0,0,10.35,3.42h8.69A17.4,17.4,0,0,0,414,202.3,47.31,47.31,0,0,0,432.25,176v-7.18h-64.9Z"/><path class="cls-32" d="M384.89,198h0a17.4,17.4,0,0,0,10.35,3.42h8.69A17.4,17.4,0,0,0,414,198.13h0a47.32,47.32,0,0,0,19.82-38.51V127H366v33.5A46.62,46.62,0,0,0,384.89,198Z"/><path class="cls-18" d="M369.74,148.71l.83-5.68a57.94,57.94,0,0,1,1.32-6.46h0a9.79,9.79,0,0,1,9.44-7.29l34.41-.09a36.21,36.21,0,0,0,13.8-2.77h0l.91,7.64q.33,2.76.89,5.49h0A67.37,67.37,0,0,1,432.7,153v1.3a2.73,2.73,0,0,0,2.73,2.73h0l5.92-25.91a7.47,7.47,0,0,0-8.15-9.08h0a23.66,23.66,0,0,0-23.44-20.38H398.71A46.56,46.56,0,0,0,379,106.06l-.25.12a25.45,25.45,0,0,0-14.19,18.08l0,.21a26.16,26.16,0,0,0-.4,7.49l2.28,25.1h0a2.93,2.93,0,0,0,2.93-2.93h0A37.69,37.69,0,0,1,369.74,148.71Z"/><path class="cls-18" d="M369.28,151.88l2.22-13.4h1.28a85.85,85.85,0,0,0,34.64-7.3l2.74-1.21h0a14.56,14.56,0,0,1-6.61,7.4l-2,1.07h0a35.68,35.68,0,0,0,20.53-9.33l.67-.62h0a7.37,7.37,0,0,1-2.61,7.25l-1.69,1.36,1.34-.33a23.1,23.1,0,0,0,10.41-5.71h0l2.65,23.44s4.9-16.29,3.84-18S426.49,117,426.49,117l-27.94-1.32-26.62,6.75-5.86,11.39Z"/><path class="cls-7" d="M397.54,209a32.45,32.45,0,0,1-26-16.47v15.25a25.62,25.62,0,0,0,14.63,23.29A32.23,32.23,0,0,0,397.54,234Z"/><circle class="cls-12" cx="375.45" cy="212.73" r="1.39"/><circle class="cls-12" cx="375.45" cy="204.62" r="1.39"/><circle class="cls-12" cx="382.43" cy="215.63" r="1.39"/><circle class="cls-12" cx="382.43" cy="208.56" r="1.39"/><circle class="cls-12" cx="382.43" cy="222.7" r="1.39"/><circle class="cls-12" cx="390.46" cy="221.18" r="1.39"/><circle class="cls-12" cx="390.46" cy="214.12" r="1.39"/><circle class="cls-12" cx="390.46" cy="228.25" r="1.39"/><path class="cls-7" d="M402.07,209a32.45,32.45,0,0,0,26-16.47v15.25a25.62,25.62,0,0,1-14.63,23.29A32.23,32.23,0,0,1,402.07,234Z"/><circle class="cls-12" cx="424.16" cy="212.73" r="1.39"/><circle class="cls-12" cx="424.16" cy="204.62" r="1.39"/><circle class="cls-12" cx="417.17" cy="215.63" r="1.39"/><circle class="cls-12" cx="417.17" cy="208.56" r="1.39"/><circle class="cls-12" cx="417.17" cy="222.7" r="1.39"/><circle class="cls-12" cx="409.14" cy="221.18" r="1.39"/><circle class="cls-12" cx="409.14" cy="214.12" r="1.39"/><circle class="cls-12" cx="409.14" cy="228.25" r="1.39"/></g></g></svg>