<?xml version="1.0" encoding="UTF-8"?>
<svg width="100px" height="100px" viewBox="0 0 100 100" version="1.1" xmlns="http://www.w3.org/2000/svg" xmlns:xlink="http://www.w3.org/1999/xlink">
    <!-- Generator: Sketch 49 (51002) - http://www.bohemiancoding.com/sketch -->
    <title>Page 1</title>
    <desc>Created with Sketch.</desc>
    <defs>
        <circle id="path-1" cx="50" cy="50" r="50"></circle>
    </defs>
    <g id="Page-1" stroke="none" stroke-width="1" fill="none" fill-rule="evenodd">
        <g id="Disease-care" transform="translate(-571.000000, -1075.000000)">
            <g id="Group" transform="translate(530.000000, 1046.000000)">
                <g id="Page-1" transform="translate(41.000000, 29.000000)">
                    <mask id="mask-2" fill="white">
                        <use xlink:href="#path-1"></use>
                    </mask>
                    <use id="Mask" fill="#F2F2EF" xlink:href="#path-1"></use>
                    <g id="48" mask="url(#mask-2)" fill-rule="nonzero">
                        <g transform="translate(-12.000000, 32.000000)" id="Shape">
                            <path d="M82.1805118,13.7033399 L2.01377953,13.7033399 C0.897047244,13.7033399 0,14.5986248 0,15.7131631 L0,76.1722986 C0,77.2868369 0.897047244,78.1821218 2.01377953,78.1821218 L82.1988189,78.1821218 C83.3155512,78.1821218 84.2125984,77.2868369 84.2125984,76.1722986 L84.2125984,15.6948919 C84.1942913,14.5986248 83.2972441,13.7033399 82.1805118,13.7033399 Z" fill="#444444"></path>
                            <polygon fill="#EFF3F5" points="3.80787402 17.686444 80.3864173 17.686444 80.3864173 69.9235756 3.80787402 69.9235756"></polygon>
                            <path d="M71.8370079,5.24381139 C61.6582677,-6.21218075 47.0858268,3.70903733 51.4795276,15.8227898 C55.8732283,27.9365422 71.8370079,39.4108055 71.8370079,39.4108055 C71.8370079,39.4108055 87.8007874,27.9548134 92.1944882,15.8227898 C96.588189,3.70903733 82.015748,-6.21218075 71.8370079,5.24381139 Z" fill="#F1786B"></path>
                            <path d="M32.9527559,62.7064833 C32.8246063,62.7064833 32.6964567,62.7064833 32.5683071,62.6882122 C30.7742126,62.5420432 28.8702756,61.2630648 28.6505906,58.7964637 L26.0692913,28.959725 C25.9228346,27.3153242 24.6779528,26.6027505 23.6344488,26.4931238 C22.609252,26.3834971 21.2362205,26.840275 20.7602362,28.4298625 L17.3185039,40.1964637 C16.7875984,42.0053045 15.0850394,43.2660118 13.1994094,43.2660118 L3.80787402,43.2660118 L3.80787402,41.6946955 L13.1994094,41.6946955 C14.3893701,41.6946955 15.4694882,40.8907662 15.7990157,39.7579568 L19.2590551,27.9730845 C19.9547244,25.61611 22.0417323,24.7390963 23.7992126,24.9218075 C25.5566929,25.1045187 27.4423228,26.3652259 27.6437008,28.813556 L30.2433071,58.6502947 C30.3897638,60.3312377 31.6712598,61.0255403 32.7147638,61.1168959 C33.7765748,61.2082515 35.1312992,60.7332024 35.5706693,59.1070727 L40.6783465,39.6848723 C41.1909449,37.7481336 42.8202756,36.4874263 44.8340551,36.4874263 C46.8478346,36.4874263 48.4771654,37.7298625 48.9897638,39.6666012 C49.3009843,40.854224 50.3811024,41.6764244 51.6076772,41.6764244 L80.4047244,41.6764244 L80.4047244,43.2477407 L51.5893701,43.2477407 C49.6488189,43.2477407 47.9462598,41.93222 47.4336614,40.0685658 C47.0309055,38.5886051 45.7677165,38.0587426 44.815748,38.0587426 C43.8454724,38.0587426 42.5822835,38.5886051 42.1978346,40.0685658 L37.0901575,59.4907662 C36.5043307,61.7563851 34.655315,62.7064833 32.9527559,62.7064833 Z" fill="#E85B72"></path>
                        </g>
                    </g>
                </g>
            </g>
        </g>
    </g>
</svg>