<?xml version="1.0" encoding="iso-8859-1"?>
<!-- Generator: Adobe Illustrator 19.0.0, SVG Export Plug-In . SVG Version: 6.00 Build 0)  -->
<svg version="1.1" id="Capa_1" xmlns="http://www.w3.org/2000/svg" xmlns:xlink="http://www.w3.org/1999/xlink" x="0px" y="0px"
	 viewBox="0 0 512 512" style="enable-background:new 0 0 512 512;" xml:space="preserve">
<g>
	<path style="fill:#303C42;" d="M405.333,0h-74.667C324.771,0,320,4.771,320,10.667s4.771,10.667,10.667,10.667h74.667
		c11.76,0,21.333,9.573,21.333,21.333v74.667c0,5.896,4.771,10.667,10.667,10.667S448,123.229,448,117.333V42.667
		C448,19.135,428.865,0,405.333,0z"/>
	<path style="fill:#303C42;" d="M437.333,384c-5.896,0-10.667,4.771-10.667,10.667v74.667c0,11.76-9.573,21.333-21.333,21.333
		h-74.667c-5.896,0-10.667,4.771-10.667,10.667S324.771,512,330.667,512h74.667C428.865,512,448,492.865,448,469.333v-74.667
		C448,388.771,443.229,384,437.333,384z"/>
	<path style="fill:#303C42;" d="M74.667,128c5.896,0,10.667-4.771,10.667-10.667V42.667c0-11.76,9.573-21.333,21.333-21.333h74.667
		c5.896,0,10.667-4.771,10.667-10.667S187.229,0,181.333,0h-74.667C83.135,0,64,19.135,64,42.667v74.667
		C64,123.229,68.771,128,74.667,128z"/>
	<path style="fill:#303C42;" d="M181.333,490.667h-74.667c-11.76,0-21.333-9.573-21.333-21.333v-74.667
		c0-5.896-4.771-10.667-10.667-10.667C68.771,384,64,388.771,64,394.667v74.667C64,492.865,83.135,512,106.667,512h74.667
		c5.896,0,10.667-4.771,10.667-10.667S187.229,490.667,181.333,490.667z"/>
	<path style="fill:#303C42;" d="M437.333,234.667h-96v-25.5c0-9.854-4.292-18.917-11.479-24.24
		c-44.083-32.625-103.615-32.625-147.719,0c-7.177,5.323-11.469,14.385-11.469,24.24v25.5h-96c-5.896,0-10.667,4.771-10.667,10.667
		C64,251.229,68.771,256,74.667,256h96v64c0,5.896,4.771,10.667,10.667,10.667h21.333V448c0,5.896,4.771,10.667,10.667,10.667
		h85.333c5.896,0,10.667-4.771,10.667-10.667V330.667h21.333c5.896,0,10.667-4.771,10.667-10.667v-64h96
		c5.896,0,10.667-4.771,10.667-10.667C448,239.438,443.229,234.667,437.333,234.667z"/>
</g>
<g>
	<path style="fill:#3D82C4;" d="M192,209.167c0-2.99,1.146-5.833,2.833-7.094c36.688-27.125,85.656-27.125,122.323,0
		c1.698,1.26,2.844,4.104,2.844,7.094v25.5H192V209.167z"/>
	<path style="fill:#3D82C4;" d="M320,309.333h-21.333c-5.896,0-10.667,4.771-10.667,10.667v117.333h-64V320
		c0-5.896-4.771-10.667-10.667-10.667H192V256h128V309.333z"/>
</g>
<g>
	<path style="opacity:0.1;fill:#231F20;enable-background:new    ;" d="M317.156,202.073c-19.888-14.714-43.382-21.16-66.586-19.913
		c19.574,1.053,38.943,7.501,55.721,19.913c1.698,1.26,2.844,4.104,2.844,7.094v25.5H320v-25.5
		C320,206.177,318.854,203.333,317.156,202.073z"/>
	<path style="opacity:0.1;fill:#231F20;enable-background:new    ;" d="M309.135,256v31.802c0,5.891-4.776,10.667-10.667,10.667
		h-10.667c-5.891,0-10.667,4.775-10.667,10.667v106.667c0,5.891-4.776,10.667-10.667,10.667H224v10.865h64V320
		c0-5.896,4.771-10.667,10.667-10.667H320V256H309.135z"/>
</g>
<circle style="fill:#303C42;" cx="256" cy="101.333" r="48"/>
<circle style="fill:#3D82C4;" cx="256" cy="101.333" r="26.667"/>
<path style="opacity:0.1;fill:#231F20;enable-background:new    ;" d="M270.073,79.26c2.659,4.146,4.594,8.79,4.594,14.073
	C274.667,108.042,262.708,120,248,120c-5.283,0-9.926-1.936-14.072-4.595C238.672,122.805,246.574,128,256,128
	c14.708,0,26.667-11.958,26.667-26.667C282.667,91.908,277.473,84.004,270.073,79.26z"/>
<linearGradient id="SVGID_1_" gradientUnits="userSpaceOnUse" x1="-46.0957" y1="639.7961" x2="-23.3106" y2="629.1726" gradientTransform="matrix(21.3333 0 0 -21.3333 996.3334 13791.667)">
	<stop  offset="0" style="stop-color:#FFFFFF;stop-opacity:0.2"/>
	<stop  offset="1" style="stop-color:#FFFFFF;stop-opacity:0"/>
</linearGradient>
<path style="fill:url(#SVGID_1_);" d="M405.333,0h-74.667C324.771,0,320,4.771,320,10.667s4.771,10.667,10.667,10.667h74.667
	c11.76,0,21.333,9.573,21.333,21.333v74.667c0,5.896,4.771,10.667,10.667,10.667S448,123.229,448,117.333V42.667
	C448,19.135,428.865,0,405.333,0z M437.333,384c-5.896,0-10.667,4.771-10.667,10.667v74.667c0,11.76-9.573,21.333-21.333,21.333
	h-74.667c-5.896,0-10.667,4.771-10.667,10.667S324.771,512,330.667,512h74.667C428.865,512,448,492.865,448,469.333v-74.667
	C448,388.771,443.229,384,437.333,384z M74.667,128c5.896,0,10.667-4.771,10.667-10.667V42.667c0-11.76,9.573-21.333,21.333-21.333
	h74.667c5.896,0,10.667-4.771,10.667-10.667S187.229,0,181.333,0h-74.667C83.135,0,64,19.135,64,42.667v74.667
	C64,123.229,68.771,128,74.667,128z M181.333,490.667h-74.667c-11.76,0-21.333-9.573-21.333-21.333v-74.667
	c0-5.896-4.771-10.667-10.667-10.667C68.771,384,64,388.771,64,394.667v74.667C64,492.865,83.135,512,106.667,512h74.667
	c5.896,0,10.667-4.771,10.667-10.667S187.229,490.667,181.333,490.667z M437.333,234.667h-96v-25.5
	c0-9.854-4.292-18.917-11.479-24.24c-44.083-32.625-103.615-32.625-147.719,0c-7.177,5.323-11.469,14.385-11.469,24.24v25.5h-96
	c-5.896,0-10.667,4.771-10.667,10.667C64,251.229,68.771,256,74.667,256h96v64c0,5.896,4.771,10.667,10.667,10.667h21.333V448
	c0,5.896,4.771,10.667,10.667,10.667h85.333c5.896,0,10.667-4.771,10.667-10.667V330.667h21.333c5.896,0,10.667-4.771,10.667-10.667
	v-64h96c5.896,0,10.667-4.771,10.667-10.667C448,239.438,443.229,234.667,437.333,234.667z M256,149.333c26.469,0,48-21.531,48-48
	s-21.531-48-48-48s-48,21.531-48,48S229.531,149.333,256,149.333z"/>
<g>
</g>
<g>
</g>
<g>
</g>
<g>
</g>
<g>
</g>
<g>
</g>
<g>
</g>
<g>
</g>
<g>
</g>
<g>
</g>
<g>
</g>
<g>
</g>
<g>
</g>
<g>
</g>
<g>
</g>
</svg>
