<svg xmlns="http://www.w3.org/2000/svg" xmlns:xlink="http://www.w3.org/1999/xlink" width="100" height="102" viewBox="0 0 100 102"><defs><path id="htoca" d="M980 376a50 50 0 1 1 100 0 50 50 0 0 1-100 0z"/><path id="htocc" d="M1041.46 375.22c9.58 0 20.54 12.33 20.54 28.76 0 16.44-6.85 23.28-15.06 23.28-8.22 0-15.07-9.58-15.07-24.65 0-15.06 1.37-27.39 9.59-27.39z"/><path id="htocd" d="M1019.54 375.22c-9.58 0-20.54 12.33-20.54 28.76 0 16.44 6.85 23.28 15.07 23.28 8.21 0 15.06-9.58 15.06-24.65 0-15.06-1.37-27.39-9.59-27.39z"/><path id="htoce" d="M1046.94 390.28c-6.8 0-12.33-5.52-12.33-12.32v-9.59c0-.76-.61-1.37-1.37-1.37h-5.48c-.75 0-1.36.61-1.36 1.37v9.59c0 6.8-5.52 12.32-12.33 12.32-1.51 0-2.74 1.84-2.74 4.11 0 2.27 1.23 4.11 2.74 4.11 5.17-2.55 9.59-4.1 16.43-4.1 6.85 0 11.27 1.55 16.44 4.1 1.51 0 2.74-1.84 2.74-4.1 0-2.28-1.23-4.12-2.74-4.12z"/><clipPath id="htocb"><use xlink:href="#htoca"/></clipPath></defs><g><g transform="translate(-980 -326)"><g><use fill="#f2f2ef" xlink:href="#htoca"/></g><g clip-path="url(#htocb)"><g><use fill="#e86c60" xlink:href="#htocc"/></g><g><use fill="#e86c60" xlink:href="#htocd"/></g><g><use fill="#c64a4a" xlink:href="#htoce"/></g></g></g></g></svg>