<svg xmlns="http://www.w3.org/2000/svg" xmlns:xlink="http://www.w3.org/1999/xlink" width="100" height="112" viewBox="0 0 100 112"><defs><path id="4ccma" d="M160 806a50 50 0 1 1 100 0 50 50 0 0 1-100 0z"/><path id="4ccmc" d="M193 789.5a17.5 17.5 0 1 1 35 0 17.5 17.5 0 0 1-35 0z"/><path id="4ccmd" d="M196 789.5a14.5 14.5 0 1 1 29 0 14.5 14.5 0 0 1-29 0z"/><path id="4ccme" d="M222 789.5s-10.74 1.5-11.55 1.5c-.8 0-1.45-.68-1.45-1.5s.66-1.5 1.45-1.5c.8 0 11.55 1.5 11.55 1.5z"/><path id="4ccmf" d="M210 776h1v2h-1z"/><path id="4ccmg" d="M210 801h1v2h-1z"/><path id="4ccmh" d="M221.73 789.08h2.18v.9h-2.18z"/><path id="4ccmi" d="M197.09 789.08h2.18v.9h-2.18z"/><path id="4ccmj" d="M220.51 780.04l.48.47-1.59 1.57-.47-.47z"/><path id="4ccmk" d="M202.6 797.78l.48.47-1.59 1.57-.47-.47z"/><path id="4ccml" d="M220.99 799.37l-.48.47-1.58-1.57.47-.47z"/><path id="4ccmm" d="M203.08 781.6l-.48.47-1.58-1.57.47-.47z"/><path id="4ccmn" d="M216.11 777.16l.62.26-.89 2.07-.61-.26z"/><path id="4ccmo" d="M206.15 800.55l.62.26-.88 2.07-.62-.26z"/><path id="4ccmp" d="M223.86 795.13l-.26.62-2.07-.89.26-.61z"/><path id="4ccmq" d="M200.49 785.18l-.26.62-2.07-.88.26-.62z"/><path id="4ccmr" d="M223.71 784.55l.25.62-2.08.84-.25-.62z"/><path id="4ccms" d="M200.13 794.03l.25.62-2.08.84-.25-.62z"/><path id="4ccmt" d="M216.49 802.73l-.62.25-.84-2.08.62-.25z"/><path id="4ccmu" d="M206.99 779.15l-.62.25-.84-2.08.62-.25z"/><path id="4ccmv" d="M226.5 813.11c3.04 1.21 3.79 3.56 3.95 6.18a4.94 4.94 0 0 1-1.08 3.54c-1.08 1.3-2.74 1.44-4.15.4a6.34 6.34 0 0 1-2.38-3.89 6.35 6.35 0 0 1 .5-4.54 3.81 3.81 0 0 1 2.11-1.69h1.05z"/><path id="4ccmw" d="M233.32 824.92c3.94.1 7.24.9 10.19 2.86 1.61 1.08 3.08 2.35 3.83 4.29.51 1.34.66 2.73.6 4.14-.09 2.7-.68 5.3-1.6 7.81-1 2.8-2.12 5.6-3.18 8.38-.7 1.82-1 3.72-1.17 5.65-.13 1.43-.17 2.9-.42 4.29-.42 2.33-1.49 4.23-3.74 5.13a7.1 7.1 0 0 1-3.39.39 9.5 9.5 0 0 1-3.66-.94c-2.47-1.34-3.39-3.6-3.39-6.36 0-2.44.93-4.58 2.22-6.56.86-1.32 1.85-2.55 2.74-3.84a7.87 7.87 0 0 0 1.45-4.36c.11-3.26-1.26-5.74-3.6-7.74a21.03 21.03 0 0 1-3.9-3.97 6.06 6.06 0 0 1-1.07-5.03c.22-.97.79-1.7 1.56-2.27a8.85 8.85 0 0 1 3.97-1.6c1-.16 2.01-.22 2.56-.27z"/><path id="4ccmx" d="M236.92 819.54c-.06 1-.2 2-.81 2.88-.88 1.26-2.22 1.32-3.2.13-1.3-1.54-1.49-4.64-.39-6.33.95-1.46 2.5-1.46 3.48-.02.66 1.01.9 2.13.92 3.34z"/><path id="4ccmy" d="M237.82 820.37c.04-.8.15-1.63.68-2.35.66-.88 1.72-.93 2.43-.09.8.94.97 2.04.9 3.21-.04.73-.2 1.43-.68 2.02-.71.9-1.75.91-2.47 0a4.32 4.32 0 0 1-.86-2.79z"/><path id="4ccmz" d="M245.16 822.41c-.02 1.03-.15 1.8-.7 2.42-.55.64-1.35.6-1.85-.1-.68-.95-.53-2.98.26-3.84.84-.92 1.72-.33 2.01.42.17.42.22.88.28 1.1z"/><path id="4ccmA" d="M245.33 825.9c.04-.8.15-1.4.68-1.85.35-.27.73-.27 1.04.04.64.64.62 2.36-.05 3-.55.54-1.16.43-1.45-.27-.13-.35-.17-.71-.22-.92z"/><path id="4ccmB" d="M195.5 813.11c-3.03 1.21-3.78 3.56-3.95 6.18a4.94 4.94 0 0 0 1.08 3.54c1.08 1.3 2.75 1.44 4.16.4a6.34 6.34 0 0 0 2.38-3.89c.33-1.54.3-3.08-.51-4.54a3.81 3.81 0 0 0-2.1-1.69h-1.05z"/><path id="4ccmC" d="M188.67 824.92c-3.94.1-7.24.9-10.19 2.86-1.6 1.08-3.07 2.35-3.82 4.29a10.32 10.32 0 0 0-.6 4.14c.08 2.7.67 5.3 1.58 7.81 1.01 2.8 2.13 5.6 3.2 8.38.69 1.82 1 3.72 1.16 5.65.13 1.43.17 2.9.43 4.29.42 2.33 1.48 4.23 3.73 5.13a7.1 7.1 0 0 0 3.39.39 9.5 9.5 0 0 0 3.66-.94c2.48-1.34 3.4-3.6 3.4-6.36 0-2.44-.94-4.58-2.22-6.56-.86-1.32-1.85-2.55-2.75-3.84a7.87 7.87 0 0 1-1.45-4.36c-.1-3.26 1.27-5.74 3.61-7.74 1.41-1.19 2.8-2.42 3.88-3.97a6.06 6.06 0 0 0 1.08-5.03 3.84 3.84 0 0 0-1.55-2.27 8.85 8.85 0 0 0-3.98-1.6c-1-.16-2.01-.22-2.56-.27z"/><path id="4ccmD" d="M185.08 819.54c.05 1 .2 2 .8 2.88.89 1.26 2.22 1.32 3.21.13 1.3-1.54 1.49-4.64.39-6.33-.96-1.46-2.51-1.46-3.48-.02-.66 1.01-.9 2.13-.92 3.34z"/><path id="4ccmE" d="M184.19 820.37a4.07 4.07 0 0 0-.68-2.35c-.66-.88-1.72-.93-2.44-.09a4.3 4.3 0 0 0-.9 3.21c.04.73.2 1.43.68 2.02.72.9 1.76.91 2.48 0 .64-.8.84-1.73.86-2.79z"/><path id="4ccmF" d="M176.84 822.41c.02 1.03.15 1.8.7 2.42.55.64 1.35.6 1.85-.1.67-.95.53-2.98-.26-3.84-.84-.92-1.72-.33-2.02.42-.16.42-.22.88-.27 1.1z"/><path id="4ccmG" d="M176.68 825.9c-.04-.8-.15-1.4-.68-1.85-.35-.27-.73-.27-1.04.04-.64.64-.63 2.36.05 3 .55.54 1.16.43 1.45-.27.13-.35.16-.71.22-.92z"/><clipPath id="4ccmb"><use xlink:href="#4ccma"/></clipPath></defs><g><g transform="translate(-160 -756)"><g><g><use fill="#f2f2ef" xlink:href="#4ccma"/></g><g clip-path="url(#4ccmb)"><g><use fill="#41b3e1" xlink:href="#4ccmc"/></g><g><use fill="#eff3f5" xlink:href="#4ccmd"/></g><g><use fill="#f1776b" xlink:href="#4ccme"/></g><g><use fill="#445c6c" xlink:href="#4ccmf"/></g><g><use fill="#445c6c" xlink:href="#4ccmg"/></g><g><g><use fill="#445c6c" xlink:href="#4ccmh"/></g><g><use fill="#445c6c" xlink:href="#4ccmi"/></g></g><g><g><use fill="#445c6c" xlink:href="#4ccmj"/></g><g><use fill="#445c6c" xlink:href="#4ccmk"/></g><g><g><use fill="#445c6c" xlink:href="#4ccml"/></g><g><use fill="#445c6c" xlink:href="#4ccmm"/></g></g></g><g><g><use fill="#445c6c" xlink:href="#4ccmn"/></g><g><use fill="#445c6c" xlink:href="#4ccmo"/></g><g><g><use fill="#445c6c" xlink:href="#4ccmp"/></g><g><use fill="#445c6c" xlink:href="#4ccmq"/></g></g><g><g><use fill="#445c6c" xlink:href="#4ccmr"/></g><g><use fill="#445c6c" xlink:href="#4ccms"/></g><g><g><use fill="#445c6c" xlink:href="#4ccmt"/></g><g><use fill="#445c6c" xlink:href="#4ccmu"/></g></g></g></g><g><g><use fill="#445c6c" xlink:href="#4ccmv"/></g><g><use fill="#445c6c" xlink:href="#4ccmw"/></g><g><use fill="#445c6c" xlink:href="#4ccmx"/></g><g><use fill="#445c6c" xlink:href="#4ccmy"/></g><g><use fill="#445c6c" xlink:href="#4ccmz"/></g><g><use fill="#445c6c" xlink:href="#4ccmA"/></g><g><g><use fill="#445c6c" xlink:href="#4ccmB"/></g><g><use fill="#445c6c" xlink:href="#4ccmC"/></g><g><use fill="#445c6c" xlink:href="#4ccmD"/></g><g><use fill="#445c6c" xlink:href="#4ccmE"/></g><g><use fill="#445c6c" xlink:href="#4ccmF"/></g><g><use fill="#445c6c" xlink:href="#4ccmG"/></g></g></g></g></g></g></g></svg>