<?xml version="1.0" encoding="UTF-8"?>
<svg width="60px" height="60px" viewBox="0 0 60 60" version="1.1" xmlns="http://www.w3.org/2000/svg" xmlns:xlink="http://www.w3.org/1999/xlink">
    <!-- Generator: Sketch 47.1 (45422) - http://www.bohemiancoding.com/sketch -->
    <title>Group 6</title>
    <desc>Created with Sketch.</desc>
    <defs>
        <circle id="path-1" cx="30" cy="30" r="30"></circle>
    </defs>
    <g id="Page-1" stroke="none" stroke-width="1" fill="none" fill-rule="evenodd">
        <g id="Person-info" transform="translate(-96.000000, -1078.000000)">
            <g id="Group-6" transform="translate(96.000000, 1078.000000)">
                <g id="Page-1">
                    <mask id="mask-2" fill="white">
                        <use xlink:href="#path-1"></use>
                    </mask>
                    <use id="Mask" fill="#F2F2EF" xlink:href="#path-1"></use>
                </g>
                <g id="broccoli" transform="translate(14.000000, 14.000000)" fill-rule="nonzero">
                    <path d="M9.03907478,19.2363267 C13.344327,25.719212 13.2173913,31 13.2173913,31 L18.7826087,31 C18.7826087,31 17.6811617,23.0203727 24.1590261,18.3711718 L18.0869565,13.7777778 L10.4347826,15.8444444 L9.03907478,19.2363267 Z" id="Shape" fill="#9EDB9E"></path>
                    <path d="M14.6086957,22.0444444 C11.3654887,22.0444444 8.35937391,20.2909398 6.76018783,17.5226053 C6.15897043,17.7782451 5.51630609,17.9111111 4.86956522,17.9111111 C2.18477913,17.9111111 0,15.7479036 0,13.0888889 C0,11.7013564 0.613453913,10.3824442 1.66236522,9.47054133 C1.48029913,8.81091644 1.39130435,8.18795422 1.39130435,7.57777778 C1.39130435,3.39937044 4.8240487,0 9.04347826,0 C11.4293496,0 13.6283965,1.08782444 15.0740522,2.94694956 C16.3158957,1.92976378 17.8519026,1.37777778 19.4782609,1.37777778 C22.8104626,1.37777778 25.6317913,3.72262467 26.2703791,6.92218978 C29.5278539,7.209112 32,9.81464822 32,13.0888889 C32,16.5074311 29.1915757,19.2888889 25.7391304,19.2888889 C24.4218783,19.2888889 23.1535304,18.8768369 22.0917148,18.1152909 C20.41712,20.5576844 17.6202435,22.0444444 14.6086957,22.0444444 Z" id="Shape" fill="#4DA34D"></path>
                </g>
            </g>
        </g>
    </g>
</svg>