<?xml version="1.0" encoding="UTF-8"?>
<svg width="100px" height="100px" viewBox="0 0 100 100" version="1.1" xmlns="http://www.w3.org/2000/svg" xmlns:xlink="http://www.w3.org/1999/xlink">
    <!-- Generator: Sketch 49 (51002) - http://www.bohemiancoding.com/sketch -->
    <title>Page 1</title>
    <desc>Created with Sketch.</desc>
    <defs>
        <circle id="path-1" cx="50" cy="50" r="50"></circle>
    </defs>
    <g id="Page-1" stroke="none" stroke-width="1" fill="none" fill-rule="evenodd">
        <g id="Activity-Tracker" transform="translate(-145.000000, -815.000000)">
            <g id="Group" transform="translate(120.000000, 717.000000)">
                <g id="Page-1" transform="translate(25.000000, 98.000000)">
                    <mask id="mask-2" fill="white">
                        <use xlink:href="#path-1"></use>
                    </mask>
                    <use id="Mask" fill="#F2F2EF" xlink:href="#path-1"></use>
                    <g id="bike" mask="url(#mask-2)" fill-rule="nonzero">
                        <g transform="translate(-36.000000, 17.000000)" id="Shape">
                            <path d="M40.4974219,23 C39.376885,23 38.3588673,22.3026764 38.0756832,21.2583698 L33.0759646,2.8605441 C32.7390586,1.62759081 33.5544627,0.378907379 34.8947123,0.071226741 C36.232537,-0.243192101 37.5898606,0.513648455 37.9243168,1.74437101 L42.9240354,20.1421967 C43.2609414,21.37515 42.4455373,22.6238335 41.1052877,22.9315141 C40.9026741,22.9786585 40.6976107,23 40.4974219,23 Z" fill="#B3B3B3"></path>
                            <path d="M88.5,74 C75.5428755,74 65,63.4571245 65,50.5 C65,37.5428755 75.5428755,27 88.5,27 C101.457124,27 112,37.5428755 112,50.5 C112,63.4571245 101.457124,74 88.5,74 Z M88.5,31.7 C78.1338445,31.7 69.7,40.1338445 69.7,50.5 C69.7,60.8661555 78.1338445,69.3 88.5,69.3 C98.8661555,69.3 107.3,60.8661555 107.3,50.5 C107.3,40.1338445 98.8661555,31.7 88.5,31.7 Z" fill="#444444"></path>
                            <path d="M23.5,74 C10.5428755,74 0,63.4571245 0,50.5 C0,37.5428755 10.5428755,27 23.5,27 C36.4571245,27 47,37.5428755 47,50.5 C47,63.4571245 36.4571245,74 23.5,74 Z M23.5,31.7 C13.1338445,31.7 4.7,40.1338445 4.7,50.5 C4.7,60.8661555 13.1338445,69.3 23.5,69.3 C33.8661555,69.3 42.3,60.8661555 42.3,50.5 C42.3,40.1338445 33.8661555,31.7 23.5,31.7 Z" fill="#444444"></path>
                            <path d="M44.6666667,4 L28.3333333,4 C27.04363,4 26,3.10546 26,2 C26,0.89454 27.04363,0 28.3333333,0 L44.6666667,0 C45.95637,0 47,0.89454 47,2 C47,3.10546 45.95637,4 44.6666667,4 Z" fill="#444444"></path>
                            <path d="M88.6218233,54 C87.5898444,54 86.6390331,53.3282096 86.3398667,52.2964234 L72.0915894,2.99272057 C71.7321291,1.74542517 72.4626383,0.446547509 73.7242045,0.0900029844 C74.9788128,-0.263090201 76.2983458,0.45342671 76.6601333,1.70184907 L90.9084106,51.0078528 C91.2678709,52.2528473 90.5373617,53.5528754 89.2757955,53.9105704 C89.0578206,53.9701823 88.839822,54 88.6218233,54 Z" fill="#E85B72"></path>
                            <path d="M51.1596547,53 L23.3197227,53 C22.5041055,53 21.747393,52.5657438 21.3282396,51.8534808 C20.9091094,51.1435001 20.8909671,50.2612003 21.2761325,49.5328442 L37.5160929,18.9452985 C37.874068,18.2743742 38.5265664,17.8205898 39.2719574,17.7263837 L76.3918667,13.0207848 C77.3184956,12.894416 78.2088863,13.3527884 78.6801467,14.1638689 C79.1491336,14.9737966 79.0992769,15.9893589 78.5510158,16.7464428 L53.0310782,52.0395873 C52.5937824,52.6438567 51.8982481,53 51.1596547,53 Z M27.2029989,48.2944011 L49.983812,48.2944011 L71.6249975,18.3674275 L41.0345963,22.2447233 L27.2029989,48.2944011 Z" fill="#E85B72"></path>
                            <path d="M90.6666667,4 L74.3333333,4 C73.04363,4 72,3.10546 72,2 C72,0.89454 73.04363,0 74.3333333,0 L90.6666667,0 C91.95637,0 93,0.89454 93,2 C93,3.10546 91.95637,4 90.6666667,4 Z" fill="#B3B3B3"></path>
                        </g>
                    </g>
                </g>
            </g>
        </g>
    </g>
</svg>