<?xml version="1.0" encoding="iso-8859-1"?>
<!-- Generator: Adobe Illustrator 19.0.0, SVG Export Plug-In . SVG Version: 6.00 Build 0)  -->
<svg version="1.1" id="Capa_1" xmlns="http://www.w3.org/2000/svg" xmlns:xlink="http://www.w3.org/1999/xlink" x="0px" y="0px"
	 viewBox="0 0 512 512" style="enable-background:new 0 0 512 512;" xml:space="preserve">
<g>
	<g>
		<path d="M256,180.907c-51.964,0-94.239,42.275-94.239,94.239s42.275,94.239,94.239,94.239s94.239-42.275,94.239-94.239
			C350.239,223.182,307.964,180.907,256,180.907z M256,338.51c-34.939,0-63.363-28.425-63.363-63.364s28.425-63.363,63.363-63.363
			s63.363,28.425,63.363,63.363C319.363,310.085,290.939,338.51,256,338.51z"/>
	</g>
</g>
<g>
	<g>
		<path d="M256,241.783c-18.396,0-33.363,14.967-33.363,33.363c0,18.397,14.967,33.364,33.363,33.364s33.363-14.967,33.363-33.364
			C289.363,256.75,274.397,241.783,256,241.783z"/>
	</g>
</g>
<g>
	<g>
		<path d="M357.713,112.167l-34.498-51.056h-134.43l-34.498,51.056H0v338.722h512V112.167H357.713z M256,399.386
			c-68.506,0-124.239-55.733-124.239-124.239S187.494,150.908,256,150.908s124.239,55.733,124.239,124.239
			C380.239,343.652,324.506,399.386,256,399.386z"/>
	</g>
</g>
<g>
</g>
<g>
</g>
<g>
</g>
<g>
</g>
<g>
</g>
<g>
</g>
<g>
</g>
<g>
</g>
<g>
</g>
<g>
</g>
<g>
</g>
<g>
</g>
<g>
</g>
<g>
</g>
<g>
</g>
</svg>
