<?xml version="1.0" encoding="UTF-8"?>
<svg width="200px" height="200px" viewBox="0 0 200 200" version="1.1" xmlns="http://www.w3.org/2000/svg" xmlns:xlink="http://www.w3.org/1999/xlink">
    <!-- Generator: Sketch 47.1 (45422) - http://www.bohemiancoding.com/sketch -->
    <title>Group 7</title>
    <desc>Created with Sketch.</desc>
    <defs>
        <polygon id="path-1" points="0.000625 0 79.999375 0 79.999375 23.909875 0.000625 23.909875"></polygon>
        <polygon id="path-3" points="39.999875 67.75 0 67.75 0 0.105 79.99975 0.105 79.99975 67.75"></polygon>
    </defs>
    <g id="Page-1" stroke="none" stroke-width="1" fill="none" fill-rule="evenodd">
        <g id="Predict-disease" transform="translate(-1030.000000, -334.000000)">
            <g id="Group-7" transform="translate(1030.000000, 334.000000)">
                <circle id="Mask" fill="#F2F2EF" cx="100" cy="100" r="100"></circle>
                <g id="Group" transform="translate(60.000000, 66.000000)">
                    <g id="Page-1">
                        <path d="M58.064125,0 C50.567875,0 43.956625,3.89375 40.000375,9.82625 C36.042875,3.89375 29.432875,0 21.935375,0 C9.820375,0 0.000375,10.15375 0.000375,22.68 C0.000375,35.205 21.204125,51.35375 40.000375,70.78625 C57.429125,52.76625 79.999125,35.205 79.999125,22.68 C79.999125,10.15375 70.179125,0 58.064125,0" id="Fill-1" fill="#F1786B"></path>
                        <g id="Group-5">
                            <mask id="mask-2" fill="white">
                                <use xlink:href="#path-1"></use>
                            </mask>
                            <g id="Clip-4"></g>
                            <path d="M21.935625,2.633625 C29.433125,2.633625 36.043125,6.527375 40.000625,12.458625 C43.956875,6.527375 50.568125,2.633625 58.064375,2.633625 C69.715625,2.633625 79.218125,12.032375 79.930625,23.893625 C79.975625,23.483625 79.999375,23.078625 79.999375,22.679875 C79.999375,10.153625 70.179375,-0.000125 58.064375,-0.000125 C50.568125,-0.000125 43.956875,3.893625 40.000625,9.826125 C36.043125,3.893625 29.433125,-0.000125 21.935625,-0.000125 C9.820625,-0.000125 0.000625,10.153625 0.000625,22.679875 C0.000625,23.086125 0.024375,23.496125 0.068125,23.909875 C0.771875,12.041125 10.278125,2.633625 21.935625,2.633625" id="Fill-3" fill="#FF9088" mask="url(#mask-2)"></path>
                        </g>
                        <path d="M57.7345,18.942875 L54.74325,39.860375 L41.4345,39.860375 L36.2895,65.955375 L30.88325,13.957875 L24.437,39.402875 L8.6495,39.402875 C9.32825,40.194125 10.04075,40.996625 10.77825,41.806625 L26.23325,41.806625 L29.92325,27.232875 L33.8045,64.557875 C35.237,65.966625 36.67075,67.390375 38.0945,68.836625 L43.33325,42.265375 L56.75075,42.265375 L58.36575,30.969125 L62.78825,48.500375 C63.437,47.851625 64.077,47.206625 64.7045,46.565375 L57.7345,18.942875 Z" id="Fill-6" fill="#D45947"></path>
                        <path d="M68.67025,40.090375 L67.88025,43.244125 C68.869,42.180375 69.81775,41.127875 70.71775,40.090375 L68.67025,40.090375 Z" id="Fill-8" fill="#D45947"></path>
                        <g id="Group-12" transform="translate(0.000000, 12.250000)">
                            <mask id="mask-4" fill="white">
                                <use xlink:href="#path-3"></use>
                            </mask>
                            <g id="Clip-11"></g>
                            <polygon id="Fill-10" fill="#FFFFFF" mask="url(#mask-4)" points="34.02725 67.75 28.37475 13.38 24.68225 27.95375 -0.00025 27.95375 -0.00025 25.55 22.88725 25.55 29.33225 0.105 34.7385 52.1025 39.88475 26.0075 53.1935 26.0075 56.18475 5.09 64.32975 37.37125 67.11975 26.2375 79.99975 26.2375 79.99975 28.64125 68.91975 28.64125 64.33725 46.92625 56.81475 17.115 55.19975 28.4125 41.7835 28.4125"></polygon>
                        </g>
                    </g>
                </g>
            </g>
        </g>
    </g>
</svg>