<svg xmlns="http://www.w3.org/2000/svg" xmlns:xlink="http://www.w3.org/1999/xlink" width="29" height="31" viewBox="0 0 29 31"><defs><path id="njnca" d="M301.5 648.5l2-8h2l2 8"/><path id="njncb" d="M301.32 636.58l-8.73 4.78a4 4 0 0 0-2.09 3.51v3.63h28v-3.63a4 4 0 0 0-2.08-3.51l-8.74-4.78"/><path id="njncc" d="M296.5 626.5a8 8 0 0 1 16 0c0 6-3.58 11-8 11s-8-5-8-11z"/><path id="njncd" d="M296.54 625.71c1.17.5 2.52.8 3.96.8 2.62 0 4.94-.96 6.4-2.42a7.42 7.42 0 0 0 5.6 2.41"/></defs><g><g transform="translate(-290 -618)"><g><use fill="#fff" fill-opacity="0" stroke="#444" stroke-miterlimit="50" xlink:href="#njnca"/></g><g><use fill="#fff" fill-opacity="0" stroke="#444" stroke-miterlimit="50" xlink:href="#njncb"/></g><g><use fill="#fff" fill-opacity="0" stroke="#444" stroke-linecap="square" stroke-miterlimit="50" xlink:href="#njncc"/></g><g><use fill="#fff" fill-opacity="0" stroke="#444" stroke-miterlimit="50" xlink:href="#njncd"/></g></g></g></svg>