<?xml version="1.0" encoding="UTF-8"?>
<svg width="200px" height="200px" viewBox="0 0 200 200" version="1.1" xmlns="http://www.w3.org/2000/svg" xmlns:xlink="http://www.w3.org/1999/xlink">
    <!-- Generator: Sketch 47.1 (45422) - http://www.bohemiancoding.com/sketch -->
    <title>Group 2</title>
    <desc>Created with Sketch.</desc>
    <defs>
        <polygon id="path-1" points="94.3846154 0.0115384615 94.3846154 57.4607692 0.302307692 57.4607692 0.302307692 0.0115384615 94.3846154 0.0115384615"></polygon>
        <polygon id="path-3" points="29.2516923 14.3846154 0.914769231 14.3846154 0.914769231 0.0295384615 29.2516923 0.0295384615 29.2516923 14.3846154"></polygon>
    </defs>
    <g id="Page-1" stroke="none" stroke-width="1" fill="none" fill-rule="evenodd">
        <g id="Predict-disease" transform="translate(-210.000000, -334.000000)">
            <g id="Group-2" transform="translate(210.000000, 334.000000)">
                <circle id="Mask" fill="#F2F2EF" cx="100" cy="100" r="100"></circle>
                <g id="Page-1" transform="translate(50.000000, 71.000000)">
                    <g id="Group-3" transform="translate(4.076923, 0.527077)">
                        <mask id="mask-2" fill="white">
                            <use xlink:href="#path-1"></use>
                        </mask>
                        <g id="Clip-2"></g>
                        <path d="M87.2069231,0.0115384615 L45.0638462,0.0115384615 L39.2715385,0.0115384615 L23.7715385,0.0115384615 C17.0253846,0.0115384615 11.1023077,3.52076923 7.71769231,8.81153846 L0.302307692,8.81153846 L0.302307692,51.07 L9.54076923,51.07 C13.03,54.99 18.11,57.4607692 23.7715385,57.4607692 L45.0638462,57.4607692 L45.0638462,14.3669231 L87.2069231,14.3669231 C91.1715385,14.3669231 94.3853846,11.1530769 94.3853846,7.19 C94.3853846,3.22538462 91.1715385,0.0115384615 87.2069231,0.0115384615" id="Fill-1" fill="#FDC77C" mask="url(#mask-2)"></path>
                    </g>
                    <path d="M64.7896923,14.8933846 L38.5035385,14.8933846 L38.5035385,29.278 L64.7896923,29.278 C68.7543077,29.278 71.9681538,26.058 71.9681538,22.0856923 C71.9681538,18.1133846 68.7543077,14.8933846 64.7896923,14.8933846" id="Fill-4" fill="#F0B972"></path>
                    <path d="M63.2541538,29.2781538 L39.0233846,29.2781538 L39.0233846,43.6335385 L63.2541538,43.6335385 C67.2187692,43.6335385 70.4326154,40.4196923 70.4326154,36.4566154 C70.4326154,32.492 67.2187692,29.2781538 63.2541538,29.2781538" id="Fill-6" fill="#F0B972"></path>
                    <g id="Group-10" transform="translate(36.923077, 43.604000)">
                        <mask id="mask-4" fill="white">
                            <use xlink:href="#path-3"></use>
                        </mask>
                        <g id="Clip-9"></g>
                        <path d="M22.0747692,0.0295384615 L8.09169231,0.0295384615 C4.12707692,0.0295384615 0.914769231,3.24338462 0.914769231,7.208 C0.914769231,11.1710769 4.12707692,14.3849231 8.09169231,14.3849231 L22.0747692,14.3849231 C26.0393846,14.3849231 29.2516923,11.1710769 29.2516923,7.208 C29.2516923,3.24338462 26.0393846,0.0295384615 22.0747692,0.0295384615" id="Fill-8" fill="#F0B972" mask="url(#mask-4)"></path>
                    </g>
                    <path d="M13.4849231,30.8263077 C31.368,39.3493846 40.5587692,10.2955385 40.5587692,10.2955385 L40.5587692,0.538615385 L27.848,0.538615385 C21.1018462,0.538615385 15.1803077,4.04784615 11.7941538,9.33861538 C11.7941538,9.33861538 5.02184615,26.7924615 13.4849231,30.8263077" id="Fill-11" fill="#FBD984"></path>
                    <path d="M38.8033846,0.538615385 L34.1833846,0.538615385 L34.1833846,36.154 C34.1833846,40.2847692 37.5310769,43.634 41.6618462,43.634 C45.7910769,43.634 49.1403077,40.2847692 49.1403077,36.154 L49.1403077,10.8755385 C49.1403077,5.16630769 44.5126154,0.538615385 38.8033846,0.538615385" id="Fill-13" fill="#FBD984"></path>
                    <path d="M95.4176923,45.2929231 C95.4176923,50.1744615 91.4607692,54.1313846 86.5807692,54.1313846 C81.6992308,54.1313846 77.7438462,50.1744615 77.7438462,45.2929231 C77.7438462,40.4129231 86.5807692,29.2775385 86.5807692,29.2775385 C86.5807692,29.8636923 95.4176923,40.4129231 95.4176923,45.2929231" id="Fill-15" fill="#F1786B"></path>
                    <path d="M91.4235385,8.38646154 C91.4235385,9.72338462 90.3389231,10.808 89.002,10.808 C87.6650769,10.808 86.5804615,9.72338462 86.5804615,8.38646154 C86.5804615,7.04953846 87.6650769,5.96492308 89.002,5.96492308 C90.3389231,5.96492308 91.4235385,7.04953846 91.4235385,8.38646154" id="Fill-17" fill="#F1786B"></path>
                    <polygon id="Fill-19" fill="#41B3E2" points="0 57.9886154 9.22923077 57.9886154 9.22923077 7.31938462 0 7.31938462"></polygon>
                </g>
            </g>
        </g>
    </g>
</svg>