<svg xmlns="http://www.w3.org/2000/svg" xmlns:xlink="http://www.w3.org/1999/xlink" width="100" height="104" viewBox="0 0 100 104"><defs><path id="458ha" d="M570 376a50 50 0 1 1 100 0 50 50 0 0 1-100 0z"/><path id="458hc" d="M648.16 362h-27.39a2.45 2.45 0 0 0-2.45 2.45v40.6c0 1.35 1.1 2.45 2.45 2.45h27.4c1.35 0 2.45-1.1 2.45-2.45v-40.6a2.46 2.46 0 0 0-2.46-2.45z"/><path id="458hd" d="M635.37 375.68a2.97 2.97 0 1 0 4.2 4.2l2.9-2.89-4.2-4.2-2.9 2.9z"/><path id="458he" d="M641.14 369.9l-2.89 2.89 4.2 4.2 2.9-2.89a2.97 2.97 0 1 0-4.2-4.2z"/><path id="458hf" d="M635.37 374.85a2.97 2.97 0 1 0 4.2 4.2l2.9-2.89-4.2-4.2z"/><path id="458hg" d="M641.14 369.08l-2.89 2.89 4.2 4.2 2.9-2.89a2.97 2.97 0 1 0-4.2-4.2z"/><path id="458hh" d="M622.05 375.68a2.97 2.97 0 1 0 4.2 4.2l2.9-2.89-4.2-4.2-2.9 2.9z"/><path id="458hi" d="M627.84 369.9l-2.89 2.89 4.2 4.2 2.9-2.89a2.97 2.97 0 1 0-4.2-4.2z"/><path id="458hj" d="M622.05 374.85a2.97 2.97 0 1 0 4.2 4.2l2.9-2.89-4.2-4.2z"/><path id="458hk" d="M627.84 369.08l-2.89 2.89 4.2 4.2 2.9-2.89a2.97 2.97 0 1 0-4.2-4.2z"/><path id="458hl" d="M635.37 388.74a2.97 2.97 0 1 0 4.2 4.2l2.9-2.89-4.2-4.2z"/><path id="458hm" d="M641.14 382.97l-2.89 2.9 4.2 4.2 2.9-2.9a2.97 2.97 0 1 0-4.2-4.2z"/><path id="458hn" d="M635.37 387.93a2.97 2.97 0 1 0 4.2 4.2l2.9-2.89-4.2-4.2z"/><path id="458ho" d="M641.14 382.16l-2.89 2.9 4.2 4.2 2.9-2.9a2.97 2.97 0 1 0-4.2-4.2z"/><path id="458hp" d="M622.05 388.74a2.97 2.97 0 1 0 4.2 4.2l2.9-2.89-4.2-4.2z"/><path id="458hq" d="M627.84 382.97l-2.89 2.9 4.2 4.2 2.9-2.9a2.97 2.97 0 1 0-4.2-4.2z"/><path id="458hr" d="M622.05 387.93a2.97 2.97 0 1 0 4.2 4.2l2.9-2.89-4.2-4.2z"/><path id="458hs" d="M627.84 382.16l-2.89 2.9 4.2 4.2 2.9-2.9a2.97 2.97 0 1 0-4.2-4.2z"/><path id="458ht" d="M621.23 362h-27.39a2.46 2.46 0 0 0-2.46 2.45v40.6c0 1.35 1.1 2.45 2.45 2.45h27.4c1.35 0 2.45-1.1 2.45-2.45v-40.6a2.43 2.43 0 0 0-2.45-2.45z"/><path id="458hu" d="M594.63 372.79a5.69 5.69 0 1 1 11.38 0 5.69 5.69 0 0 1-11.38 0z"/><path id="458hv" d="M594.63 371.72a5.69 5.69 0 1 1 11.38 0 5.69 5.69 0 0 1-11.38 0z"/><path id="458hw" d="M609.06 372.79a5.69 5.69 0 1 1 11.38 0 5.69 5.69 0 0 1-11.38 0z"/><path id="458hx" d="M609.06 371.72a5.69 5.69 0 1 1 11.38 0 5.69 5.69 0 0 1-11.38 0z"/><path id="458hy" d="M594.63 387.78a5.69 5.69 0 1 1 11.38 0 5.69 5.69 0 0 1-11.38 0z"/><path id="458hz" d="M594.63 386.71a5.69 5.69 0 1 1 11.38 0 5.69 5.69 0 0 1-11.38 0z"/><path id="458hA" d="M609.06 387.78a5.69 5.69 0 1 1 11.38 0 5.69 5.69 0 0 1-11.38 0z"/><path id="458hB" d="M609.06 386.71a5.69 5.69 0 1 1 11.38 0 5.69 5.69 0 0 1-11.38 0z"/><path id="458hC" d="M587 388.83h68V430h-68z"/><path id="458hD" d="M587 388.83h68v2.03h-68z"/><path id="458hE" d="M634 405.06h-8.65v-8.65h-8.7v8.65H608v8.68h8.65v8.67h8.7v-8.67H634z"/><clipPath id="458hb"><use xlink:href="#458ha"/></clipPath></defs><g><g transform="translate(-570 -326)"><g><use fill="#f2f2ef" xlink:href="#458ha"/></g><g clip-path="url(#458hb)"><g><use fill="#eff3f5" xlink:href="#458hc"/></g><g><use fill="#778d9a" xlink:href="#458hd"/></g><g><use fill="#778d9a" xlink:href="#458he"/></g><g><use fill="#369fc8" xlink:href="#458hf"/></g><g><use fill="#dbdfe0" xlink:href="#458hg"/></g><g><use fill="#778d9a" xlink:href="#458hh"/></g><g><use fill="#778d9a" xlink:href="#458hi"/></g><g><use fill="#369fc8" xlink:href="#458hj"/></g><g><use fill="#dbdfe0" xlink:href="#458hk"/></g><g><g><use fill="#778d9a" xlink:href="#458hl"/></g><g><use fill="#778d9a" xlink:href="#458hm"/></g><g><g><use fill="#369fc8" xlink:href="#458hn"/></g><g><use fill="#dbdfe0" xlink:href="#458ho"/></g></g></g><g><g><use fill="#778d9a" xlink:href="#458hp"/></g><g><use fill="#778d9a" xlink:href="#458hq"/></g><g><g><use fill="#369fc8" xlink:href="#458hr"/></g><g><use fill="#dbdfe0" xlink:href="#458hs"/></g></g></g><g><use fill="#59c8ae" xlink:href="#458ht"/></g><g><g><use fill="#52afa8" xlink:href="#458hu"/></g><g><use fill="#eff3f5" xlink:href="#458hv"/></g><g><use fill="#52afa8" xlink:href="#458hw"/></g><g><use fill="#eff3f5" xlink:href="#458hx"/></g></g><g><g><use fill="#52afa8" xlink:href="#458hy"/></g><g><use fill="#eff3f5" xlink:href="#458hz"/></g><g><use fill="#52afa8" xlink:href="#458hA"/></g><g><use fill="#eff3f5" xlink:href="#458hB"/></g></g><g><use fill="#dbdfe0" xlink:href="#458hC"/></g><g><use fill="#eaeaea" xlink:href="#458hD"/></g><g><use fill="#f1776b" xlink:href="#458hE"/></g></g></g></g></svg>