<svg xmlns="http://www.w3.org/2000/svg" xmlns:xlink="http://www.w3.org/1999/xlink" width="100" height="119.32" viewBox="0 0 100 119.32"><defs><path id="7jgna" d="M980 806a50 50 0 1 1 100 0 50 50 0 0 1-100 0z"/><path id="7jgnc" d="M1061.7 809.86h-66.04c-.92 0-1.66.74-1.66 1.66v49.9c0 .93.74 1.66 1.66 1.66h66.06c.92 0 1.66-.73 1.66-1.65V811.5a1.67 1.67 0 0 0-1.68-1.64z"/><path id="7jgnd" d="M997.14 813.15h63.09v43.12h-63.09z"/><path id="7jgne" d="M1017.86 863.07h21.66v9.64h-21.66z"/><path id="7jgnf" d="M1017.86 863.07h21.66v2.47h-21.66z"/><path id="7jgng" d="M1009.93 872.71h37.5v2.6h-37.5z"/><path id="7jgnh" d="M1039.24 793.68c-11.4-12.86-27.73-1.72-22.8 11.88 4.91 13.6 22.8 26.48 22.8 26.48s17.88-12.86 22.8-26.48c4.93-13.6-11.4-24.74-22.8-11.88z"/><path id="7jgni" d="M1021.15 850.3h-.32a3.46 3.46 0 0 1-3.22-3.22l-2.13-24.63a2.17 2.17 0 0 0-2-2.03 2.17 2.17 0 0 0-2.37 1.6l-2.84 9.7a3.56 3.56 0 0 1-3.4 2.54h-7.73v-1.3h7.74c.98 0 1.87-.66 2.14-1.6l2.85-9.72a3.45 3.45 0 0 1 3.74-2.52c1.45.15 3 1.2 3.17 3.21l2.14 24.63a2.16 2.16 0 0 0 2.03 2.04c.88.07 2-.32 2.36-1.66l4.2-16.03a3.46 3.46 0 0 1 3.43-2.64c1.66 0 3 1.02 3.42 2.62a2.23 2.23 0 0 0 2.16 1.66h23.72v1.3h-23.74c-1.6 0-3-1.09-3.42-2.63a2.2 2.2 0 0 0-2.16-1.66c-.8 0-1.84.44-2.15 1.66l-4.21 16.03a3.42 3.42 0 0 1-3.4 2.66z"/><clipPath id="7jgnb"><use xlink:href="#7jgna"/></clipPath></defs><g><g transform="translate(-980 -756)"><g><use fill="#f2f2ef" xlink:href="#7jgna"/></g><g clip-path="url(#7jgnb)"><g><use fill="#778d9a" xlink:href="#7jgnc"/></g><g><use fill="#eff3f5" xlink:href="#7jgnd"/></g><g><use fill="#445c6c" xlink:href="#7jgne"/></g><g><use fill="#344955" xlink:href="#7jgnf"/></g><g><use fill="#778d9a" xlink:href="#7jgng"/></g><g><use fill="#f1776b" xlink:href="#7jgnh"/></g><g><use fill="#59c8ae" xlink:href="#7jgni"/></g></g></g></g></svg>