<svg xmlns="http://www.w3.org/2000/svg" xmlns:xlink="http://www.w3.org/1999/xlink" width="24" height="17" viewBox="0 0 24 17"><defs><path id="m1rqa" d="M443 345.5a5.5 5.5 0 1 1-7.06-5.27l-.05-.23h-9.14l-.12.43a5.5 5.5 0 1 1-2.13-.43h.17l.37-1.27a1 1 0 0 1 .96-.73h9.53l-.36-2H432v-2h4a1 1 0 0 1 .98.82l.95 5.2a5.5 5.5 0 0 1 5.07 5.48zm-16.93-3.11l-1.1 3.88a1 1 0 0 1-1.93-.54l1.05-3.69a3.5 3.5 0 1 0 1.98.35zM441 345.5a3.5 3.5 0 0 0-2.7-3.4l.68 3.72a1 1 0 1 1-1.96.36l-.72-3.95a3.5 3.5 0 1 0 4.7 3.27z"/><path id="m1rqb" d="M423 336v-2h6v2z"/></defs><g><g transform="translate(-419 -334)"><g><use fill="#5f5f62" xlink:href="#m1rqa"/></g><g><use fill="#5f5f62" xlink:href="#m1rqb"/></g></g></g></svg>