<?xml version="1.0" encoding="UTF-8"?>
<svg width="100px" height="100px" viewBox="0 0 100 100" version="1.1" xmlns="http://www.w3.org/2000/svg" xmlns:xlink="http://www.w3.org/1999/xlink">
    <!-- Generator: Sketch 49 (51002) - http://www.bohemiancoding.com/sketch -->
    <title>Page 1</title>
    <desc>Created with Sketch.</desc>
    <defs>
        <circle id="path-1" cx="50" cy="50" r="50"></circle>
    </defs>
    <g id="Page-1" stroke="none" stroke-width="1" fill="none" fill-rule="evenodd">
        <g id="Activity-Tracker" transform="translate(-571.000000, -985.000000)">
            <g id="Group" transform="translate(530.000000, 956.000000)">
                <g id="Page-1" transform="translate(41.000000, 29.000000)">
                    <mask id="mask-2" fill="white">
                        <use xlink:href="#path-1"></use>
                    </mask>
                    <use id="Mask" fill="#F2F2EF" xlink:href="#path-1"></use>
                    <g id="user-balance" mask="url(#mask-2)" fill-rule="nonzero">
                        <g transform="translate(8.000000, 22.000000)">
                            <path d="M65.0946094,59.7353951 L43.3684388,47.8847566 C42.1436358,47.2173879 40.6594223,47.2463232 39.4606512,47.9561172 C38.2618999,48.6678468 37.527022,49.9582431 37.527022,51.352767 L37.527022,79.0042569 C37.527022,80.4894382 38.3602799,81.8492594 39.684411,82.5243508 C40.250516,82.8117288 40.8648334,82.9544697 41.4772349,82.9544697 C42.296983,82.9544697 43.11286,82.6998588 43.8004933,82.1983792 L65.5266639,66.3975279 C66.6222357,65.6009279 67.2327016,64.2989773 67.1449476,62.9488143 C67.0581417,61.5966959 66.2837222,60.3834868 65.0946094,59.7353951 Z" id="Shape" fill="#F6BD70"></path>
                            <circle id="Oval" fill="#FBD984" cx="41.4772349" cy="11.8506385" r="11.8506385"></circle>
                            <path d="M79.0042569,27.6514899 L3.95021284,27.6514899 C1.76872755,27.6514899 0,29.4202175 0,31.6017028 C0,33.783188 1.76872755,35.5519156 3.95021284,35.5519156 L31.9895149,35.5519156 L37.5482347,89.2867597 C37.7565491,91.3004597 39.4529483,92.8300018 41.4772349,92.8300018 C43.5015214,92.8300018 45.1979206,91.3004597 45.4062351,89.2867597 L50.9649548,35.5519156 L79.0042569,35.5519156 C81.1857422,35.5519156 82.9544697,33.783188 82.9544697,31.6017028 C82.9544697,29.4202175 81.1857422,27.6514899 79.0042569,27.6514899 Z" id="Shape" fill="#FBD984"></path>
                        </g>
                    </g>
                </g>
            </g>
        </g>
    </g>
</svg>