<?xml version="1.0" encoding="iso-8859-1"?>
<!-- Generator: Adobe Illustrator 19.0.0, SVG Export Plug-In . SVG Version: 6.00 Build 0)  -->
<svg version="1.1" id="Layer_1" xmlns="http://www.w3.org/2000/svg" xmlns:xlink="http://www.w3.org/1999/xlink" x="0px" y="0px"
	 viewBox="0 0 512 512" style="enable-background:new 0 0 512 512;" xml:space="preserve">
<rect x="128.675" y="28.788" style="fill:#E5F8F9;" width="100.994" height="111.854"/>
<path style="fill:#62DCD2;" d="M205.638,140.642c0.098-0.891,0.141-1.803,0.141-2.715c0-14.693-11.913-26.606-26.606-26.606
	c-14.693,0-26.606,11.913-26.606,26.606c0,0.912,0.043,1.824,0.141,2.715"/>
<circle style="fill:#F7CBA4;" cx="179.172" cy="84.715" r="26.606"/>
<rect x="144.584" y="387.263" style="fill:#E5F8F9;" width="86.67" height="95.988"/>
<path style="fill:#FD5D65;" d="M210.631,483.258c0.084-0.765,0.122-1.547,0.122-2.33c0-12.61-10.224-22.833-22.833-22.833
	s-22.833,10.224-22.833,22.833c0,0.783,0.037,1.566,0.122,2.33"/>
<circle style="fill:#F7CBA4;" cx="187.914" cy="435.262" r="22.838"/>
<rect x="280.927" y="387.263" style="fill:#E5F8F9;" width="86.67" height="95.988"/>
<path style="fill:#62DCD2;" d="M346.977,483.258c0.084-0.765,0.122-1.547,0.122-2.33c0-12.61-10.224-22.833-22.833-22.833
	c-12.61,0-22.833,10.224-22.833,22.833c0,0.783,0.037,1.566,0.122,2.33"/>
<circle style="fill:#F7CBA4;" cx="324.267" cy="435.262" r="22.838"/>
<rect x="417.269" y="387.263" style="fill:#E5F8F9;" width="86.67" height="95.988"/>
<path style="fill:#F4AAB6;" d="M483.322,483.258c0.084-0.765,0.122-1.547,0.122-2.33c0-12.61-10.224-22.833-22.833-22.833
	c-12.61,0-22.833,10.224-22.833,22.833c0,0.783,0.037,1.566,0.122,2.33"/>
<circle style="fill:#F7CBA4;" cx="460.609" cy="435.262" r="22.838"/>
<rect x="8.237" y="387.263" style="fill:#E5F8F9;" width="86.67" height="95.988"/>
<path style="fill:#FEC95B;" d="M74.286,483.258c0.084-0.765,0.122-1.547,0.122-2.33c0-12.61-10.224-22.833-22.833-22.833
	s-22.833,10.224-22.833,22.833c0,0.783,0.037,1.566,0.122,2.33"/>
<circle style="fill:#F7CBA4;" cx="51.572" cy="435.262" r="22.838"/>
<rect x="48.315" y="211.989" style="fill:#E5F8F9;" width="86.67" height="95.988"/>
<path style="fill:#9691C6;" d="M114.364,307.985c0.084-0.765,0.122-1.547,0.122-2.33c0-12.61-10.224-22.833-22.833-22.833
	s-22.833,10.224-22.833,22.833c0,0.783,0.037,1.566,0.122,2.33"/>
<circle style="fill:#F7CBA4;" cx="91.655" cy="259.989" r="22.838"/>
<rect x="212.75" y="211.989" style="fill:#E5F8F9;" width="86.67" height="95.988"/>
<path style="fill:#FEC95B;" d="M278.805,307.985c0.084-0.765,0.122-1.547,0.122-2.33c0-12.61-10.224-22.833-22.833-22.833
	s-22.833,10.224-22.833,22.833c0,0.783,0.037,1.566,0.122,2.33"/>
<circle style="fill:#F7CBA4;" cx="256.091" cy="259.989" r="22.838"/>
<rect x="377.197" y="211.989" style="fill:#E5F8F9;" width="86.67" height="95.988"/>
<path style="fill:#415E72;" d="M443.244,307.985c0.084-0.765,0.122-1.547,0.122-2.33c0-12.61-10.224-22.833-22.833-22.833
	c-12.61,0-22.833,10.224-22.833,22.833c0,0.783,0.037,1.566,0.122,2.33"/>
<circle style="fill:#F7CBA4;" cx="420.537" cy="259.989" r="22.838"/>
<rect x="295.967" y="28.788" style="fill:#E5F8F9;" width="100.994" height="111.854"/>
<path style="fill:#F4AAB6;" d="M372.93,140.642c0.098-0.891,0.141-1.803,0.141-2.715c0-14.693-11.913-26.606-26.606-26.606
	c-14.693,0-26.606,11.913-26.606,26.606c0,0.912,0.043,1.824,0.141,2.715"/>
<circle style="fill:#F7CBA4;" cx="346.464" cy="84.715" r="26.606"/>
<path d="M367.509,379.095h-34.712v-32.502c0-4.498-3.646-8.145-8.145-8.145h-60.509v-22.344h35.192c4.499,0,8.145-3.647,8.145-8.145
	v-95.993c0-4.498-3.646-8.145-8.145-8.145h-35.192v-24.357h22.58c4.499,0,8.145-3.647,8.145-8.145c0-4.498-3.646-8.145-8.145-8.145
	H187.36v-14.414h42.218c4.499,0,8.145-3.647,8.145-8.145V28.764c0-4.498-3.646-8.145-8.145-8.145H128.584
	c-4.499,0-8.145,3.647-8.145,8.145v111.854c0,4.498,3.646,8.145,8.145,8.145h42.487v14.414H91.56c-4.499,0-8.145,3.647-8.145,8.145
	v32.502H48.223c-4.499,0-8.145,3.647-8.145,8.145v44.058c0,4.498,3.646,8.145,8.145,8.145s8.145-3.647,8.145-8.145v-35.914h70.384
	v79.705h-4.768c-1.274-6.675-4.691-12.599-9.513-17.019c6.183-5.668,10.068-13.805,10.068-22.833
	c0-17.081-13.897-30.978-30.978-30.978s-30.978,13.897-30.978,30.978c0,9.029,3.884,17.166,10.068,22.833
	c-4.823,4.42-8.24,10.343-9.513,17.019h-4.768v-16.641c0-4.498-3.646-8.145-8.145-8.145s-8.145,3.647-8.145,8.145v24.786
	c0,4.498,3.646,8.145,8.145,8.145h35.192v22.344H51.481c-4.499,0-8.145,3.647-8.145,8.145v32.502H8.145
	c-4.499,0-8.145,3.647-8.145,8.145v95.994c0,4.498,3.646,8.145,8.145,8.145h86.674c4.499,0,8.145-3.647,8.145-8.145v-95.994
	c0-4.498-3.646-8.145-8.145-8.145H59.626v-24.358h31.934c4.499,0,8.145-3.647,8.145-8.145v-30.488h35.192
	c4.499,0,8.145-3.647,8.145-8.145v-95.993c0-4.498-3.646-8.145-8.145-8.145h-35.19v-24.357h148.151v24.357h-35.193
	c-4.499,0-8.145,3.647-8.145,8.145v95.994c0,4.498,3.646,8.145,8.145,8.145h35.193v22.344h-60.51c-4.499,0-8.145,3.647-8.145,8.145
	v32.502H144.49c-4.499,0-8.145,3.647-8.145,8.145v95.994c0,4.498,3.646,8.145,8.145,8.145h86.674c4.499,0,8.145-3.647,8.145-8.145
	v-95.994c0-4.498-3.646-8.145-8.145-8.145H195.49v-24.358h121.017v24.357h-35.673c-4.499,0-8.145,3.647-8.145,8.145v95.994
	c0,4.498,3.646,8.145,8.145,8.145h86.674c4.499,0,8.145-3.647,8.145-8.145V387.24C375.654,382.742,372.008,379.095,367.509,379.095z
	 M179.081,119.442c8.29,0,15.32,5.494,17.644,13.032h-35.288C163.761,124.936,170.791,119.442,179.081,119.442z M160.62,84.691
	c0-10.18,8.282-18.461,18.461-18.461s18.461,8.282,18.461,18.461s-8.282,18.461-18.461,18.461S160.62,94.871,160.62,84.691z
	 M136.729,36.909h84.705v95.564h-8.029c-1.332-8.453-5.724-15.901-12.002-21.176c7.592-6.38,12.429-15.936,12.429-26.606
	c0-19.162-15.589-34.751-34.751-34.751S144.33,65.529,144.33,84.691c0,10.67,4.837,20.226,12.429,26.606
	c-6.278,5.276-10.67,12.723-12.002,21.176h-8.028L136.729,36.909L136.729,36.909z M51.481,466.215c6.034,0,11.226,3.66,13.483,8.874
	H37.998C40.255,469.875,45.447,466.215,51.481,466.215z M36.792,435.237c0-8.099,6.59-14.689,14.689-14.689
	s14.689,6.59,14.689,14.689c0,8.099-6.59,14.689-14.689,14.689S36.792,443.336,36.792,435.237z M86.674,475.09h-4.768
	c-1.274-6.675-4.691-12.599-9.513-17.019c6.183-5.668,10.068-13.805,10.068-22.833c0-17.081-13.897-30.978-30.978-30.978
	s-30.979,13.897-30.979,30.978c0,9.029,3.884,17.166,10.068,22.833c-4.823,4.42-8.24,10.343-9.513,17.019h-4.768v-79.705h70.384
	V475.09z M76.871,259.964c0-8.099,6.59-14.689,14.689-14.689s14.689,6.59,14.689,14.689c0,8.099-6.59,14.689-14.689,14.689
	S76.871,268.063,76.871,259.964z M91.56,290.942c6.034,0,11.226,3.66,13.483,8.874H78.076
	C80.334,294.601,85.526,290.942,91.56,290.942z M255.999,290.942c6.034,0,11.226,3.66,13.482,8.874h-26.965
	C244.774,294.601,249.966,290.942,255.999,290.942z M241.311,259.964c0-8.099,6.59-14.689,14.689-14.689
	c8.099,0,14.688,6.59,14.688,14.689c0,8.099-6.589,14.689-14.688,14.689S241.311,268.063,241.311,259.964z M220.807,220.112h70.384
	v79.705h-4.77c-1.274-6.675-4.691-12.599-9.513-17.019c6.183-5.668,10.068-13.805,10.068-22.833
	c0-17.081-13.897-30.978-30.977-30.978c-17.081,0-30.978,13.897-30.978,30.978c0,9.029,3.884,17.166,10.068,22.833
	c-4.823,4.42-8.24,10.343-9.513,17.019h-4.77L220.807,220.112L220.807,220.112z M187.827,466.215c6.034,0,11.226,3.66,13.482,8.874
	h-26.965C176.602,469.875,181.794,466.215,187.827,466.215z M173.139,435.237c0-8.099,6.59-14.689,14.689-14.689
	s14.688,6.59,14.688,14.689c0,8.099-6.589,14.689-14.688,14.689C179.728,449.926,173.139,443.336,173.139,435.237z M223.019,475.09
	h-4.77c-1.274-6.675-4.691-12.599-9.513-17.019c6.183-5.668,10.068-13.805,10.068-22.833c0-17.081-13.897-30.978-30.977-30.978
	c-17.081,0-30.978,13.897-30.978,30.978c0,9.029,3.884,17.166,10.068,22.833c-4.823,4.42-8.24,10.343-9.513,17.019h-4.77v-79.705
	h70.384L223.019,475.09L223.019,475.09z M324.173,466.215c6.034,0,11.226,3.66,13.483,8.874h-26.966
	C312.947,469.875,318.138,466.215,324.173,466.215z M309.483,435.237c0-8.099,6.59-14.689,14.689-14.689
	c8.099,0,14.689,6.59,14.689,14.689c0,8.099-6.59,14.689-14.689,14.689C316.072,449.926,309.483,443.336,309.483,435.237z
	 M359.364,475.09h-4.768c-1.274-6.675-4.691-12.599-9.513-17.019c6.183-5.668,10.068-13.805,10.068-22.833
	c0-17.081-13.897-30.978-30.978-30.978c-17.081,0-30.978,13.897-30.978,30.978c0,9.029,3.884,17.166,10.068,22.833
	c-4.823,4.42-8.24,10.343-9.513,17.019h-4.768v-79.705h70.384v79.705H359.364z"/>
<path d="M503.855,379.095h-35.193v-32.502c0-4.498-3.646-8.145-8.145-8.145h-31.934v-22.344h35.193c4.499,0,8.145-3.647,8.145-8.145
	v-95.993c0-4.498-3.646-8.145-8.145-8.145h-35.193v-32.502c0-4.498-3.646-8.145-8.145-8.145h-65.921v-14.414h42.352
	c4.499,0,8.145-3.647,8.145-8.145V81.186c0-4.498-3.646-8.145-8.145-8.145c-4.499,0-8.145,3.647-8.145,8.145v51.288h-8.029
	c-1.332-8.453-5.724-15.901-12.002-21.176c7.592-6.38,12.429-15.936,12.429-26.606c0-19.162-15.589-34.751-34.751-34.751
	c-19.162,0-34.751,15.589-34.751,34.751c0,10.67,4.837,20.226,12.429,26.606c-6.278,5.276-10.67,12.723-12.002,21.176h-8.029V36.909
	h84.705v17.128c0,4.498,3.646,8.145,8.145,8.145c4.499,0,8.145-3.647,8.145-8.145V28.764c0-4.498-3.646-8.145-8.145-8.145H295.877
	c-4.499,0-8.145,3.647-8.145,8.145v111.854c0,4.498,3.646,8.145,8.145,8.145h42.352v14.414h-24.355
	c-4.499,0-8.145,3.647-8.145,8.145c0,4.498,3.646,8.145,8.145,8.145h98.42v24.357h-35.192c-4.499,0-8.145,3.647-8.145,8.145v95.994
	c0,4.498,3.646,8.145,8.145,8.145h35.192v30.488c0,4.498,3.646,8.145,8.145,8.145h31.934v24.357h-35.192
	c-4.499,0-8.145,3.647-8.145,8.145v95.994c0,4.498,3.646,8.145,8.145,8.145h66.049c0.003,0,20.625,0,20.625,0
	c4.499,0,8.145-3.647,8.145-8.145v-95.994C512,382.742,508.353,379.095,503.855,379.095z M327.912,84.691
	c0-10.18,8.282-18.461,18.461-18.461c10.18,0,18.461,8.282,18.461,18.461s-8.282,18.461-18.461,18.461
	C336.193,103.152,327.912,94.871,327.912,84.691z M346.373,119.442c8.29,0,15.32,5.494,17.644,13.032h-35.288
	C331.053,124.936,338.083,119.442,346.373,119.442z M420.439,290.942c6.034,0,11.226,3.66,13.483,8.874h-26.965
	C409.214,294.601,414.405,290.942,420.439,290.942z M405.751,259.964c0-8.099,6.589-14.689,14.688-14.689s14.689,6.59,14.689,14.689
	c0,8.099-6.59,14.689-14.689,14.689S405.751,268.063,405.751,259.964z M385.247,220.112h70.384v79.705h-4.77
	c-1.274-6.675-4.691-12.599-9.513-17.019c6.183-5.668,10.068-13.805,10.068-22.833c0-17.081-13.897-30.978-30.978-30.978
	c-17.081,0-30.977,13.897-30.977,30.978c0,9.029,3.884,17.166,10.068,22.833c-4.822,4.42-8.239,10.343-9.513,17.019h-4.77
	L385.247,220.112L385.247,220.112z M460.517,466.215c6.034,0,11.226,3.66,13.483,8.874h-26.965
	C449.292,469.875,454.483,466.215,460.517,466.215z M445.829,435.237c0-8.099,6.588-14.689,14.688-14.689s14.689,6.59,14.689,14.689
	c0,8.099-6.59,14.689-14.689,14.689S445.829,443.336,445.829,435.237z M495.711,475.09h-4.77
	c-1.274-6.675-4.691-12.599-9.513-17.019c6.183-5.668,10.068-13.805,10.068-22.833c0-17.081-13.897-30.978-30.978-30.978
	s-30.977,13.897-30.977,30.978c0,9.029,3.884,17.166,10.068,22.833c-4.822,4.42-8.239,10.343-9.513,17.019h-4.77v-79.705h70.384
	L495.711,475.09L495.711,475.09z"/>
<g>
</g>
<g>
</g>
<g>
</g>
<g>
</g>
<g>
</g>
<g>
</g>
<g>
</g>
<g>
</g>
<g>
</g>
<g>
</g>
<g>
</g>
<g>
</g>
<g>
</g>
<g>
</g>
<g>
</g>
</svg>
