<?xml version="1.0" encoding="utf-8"?>
<!-- Generator: Adobe Illustrator 22.1.0, SVG Export Plug-In . SVG Version: 6.00 Build 0)  -->
<svg version="1.1" xmlns="http://www.w3.org/2000/svg" xmlns:xlink="http://www.w3.org/1999/xlink" x="0px" y="0px"
	 viewBox="0 0 764 897" style="enable-background:new 0 0 764 897;" xml:space="preserve">
<style type="text/css">
	.st0{display:none;}
	.st1{display:inline;}
	.st2{fill:#502000;}
	.st3{fill:#FFCA9F;}
	.st4{fill:#7C3B11;}
	.st5{fill:#FBD2D0;}
	.st6{fill:#F27584;}
	.st7{fill:#F5949B;}
	.st8{fill:#344B5E;}
	.st9{fill:#3D566A;}
	.st10{fill:#B5581E;}
	.st11{fill:#D24862;}
	.st12{fill:#FFDFAA;}
	.st13{fill:#B23C53;}
	.st14{fill:#F89A64;}
	.st15{fill:#425D73;}
	.st16{fill:#F7A9AC;}
	.st17{fill:#596B80;}
	.st18{display:inline;fill:#FBD2D0;}
	.st19{display:inline;fill:#F27584;}
	.st20{display:inline;fill:#9CA1AF;}
	.st21{display:inline;fill:#55697D;}
	.st22{display:inline;fill:#9D694A;}
	.st23{display:inline;fill:none;}
	.st24{display:inline;fill:#BC7950;}
	.st25{display:inline;fill:#FFCA9F;}
	.st26{display:inline;fill:#383440;}
	.st27{display:inline;fill:#443F4A;}
	.st28{display:inline;fill:#F9A877;}
	.st29{display:inline;fill:#2E130B;}
	.st30{display:inline;fill:#CF8558;}
	.st31{display:inline;fill:#324851;}
	.st32{display:inline;fill:#AB331A;}
	.st33{display:inline;fill:#5C2F1C;}
	.st34{display:inline;fill:#2F0B00;}
	.st35{display:inline;fill:#4E230C;}
	.st36{display:inline;fill:#F89A64;}
	.st37{display:inline;fill:#714837;}
	.st38{display:inline;fill:#572917;}
	.st39{display:inline;fill:#5C301D;}
	.st40{fill:#4D2902;}
	.st41{fill:#FFFFFF;}
	.st42{display:inline;fill:#FEAA8C;}
	.st43{fill:#3C2415;}
	.st44{fill:#231F20;}
	.st45{fill:#F4D2BE;}
	.st46{fill:#E0D4BD;}
	.st47{fill:#4F413B;}
	.st48{fill:#E6E7E8;}
	.st49{fill:none;stroke:#EAC6B5;stroke-width:0.75;stroke-linecap:round;stroke-linejoin:round;stroke-miterlimit:10;}
	.st50{fill:#E2BFAF;}
	.st51{fill:#603913;}
	.st52{fill:#EF4136;}
	.st53{opacity:0.3;}
	.st54{fill:none;stroke:#E8C6B5;stroke-width:0.75;stroke-linecap:round;stroke-linejoin:round;stroke-miterlimit:10;}
	.st55{fill:#F1F2F2;}
</style>
<g id="Layer_1" class="st0">
	<g id="_Group_" class="st1">
		<path class="st2" d="M483.4,741.8c2.5,3.3,1.5,6.2-6.7,7.3c-15.1,2.5-30.8-0.6-45.2-5c-11.9-4.1-17.4-5.7-16.8-15h0.5
			c6.6,7.8,24.5,11.2,34.2,13.7C458.7,745.5,473.7,747.3,483.4,741.8z"/>
		<path class="st3" d="M478.1,488.8c1.6,3.2,4.2,8.9,1.2,12.2l-1.1,0.2c0.3,1.5,0.5,3.1,0.5,4.7c-0.2,4.6-2.7,4.6-5,0.7
			c-2.2-3.5-2.3-7.8-4.4-11.5c2.4,9.5,3.4,21.3,0.8,21.4c-4,2.3-6.3-20.8-9.3-27.9h-0.2c1,9.6,3.1,19.6,0.3,28.3
			c-1.2,0.1-3.1,0.9-4-1.4h0.1c-0.4-10.4-3.1-24.8-7.6-33.7l-0.2,0.1c2.5,6-4.8,28-13.5,16.3l1.3-0.1c3-5,5.8-18.2,5.6-25.4
			c8.4-0.8,16.9-1,25.3-0.7c0,0.7,0,1.3,0,2h0.1c1.8,1.3,2.7,3.9,3.9,5.7C473.9,482.7,476.3,485.4,478.1,488.8z"/>
		<path class="st4" d="M461.6,728c5.4,2.3,17.9,8.6,21.8,13.8c-9.6,5.5-24.7,3.7-34,1.1c-9.7-2.5-27.6-5.9-34.2-13.7h-0.5
			c0-0.2,0-0.3,0-0.5c5.5-0.2,13.5-2.4,21-5.4c1.4-0.5,2.8-1.1,4.1-1.7c0,0.3,0,0.7-0.1,1C446.4,721.8,455.3,725.7,461.6,728z"/>
		<path class="st5" d="M459.7,460.5c3.2-0.4,6-0.7,8.1-0.8c0.1,4.1,0.2,8.2,0.1,12.2c-8.4-0.3-16.9-0.1-25.3,0.7
			c-0.4,0-0.8,0.1-1.3,0.1c0.4-3.3,0.6-6.6,0.7-10C446.9,462.2,453.8,461.2,459.7,460.5z"/>
		<path class="st6" d="M467.8,459.7c-2.1,0.1-4.9,0.4-8.1,0.8v-3.9c-2.5-37.4-10.7-75.3-25.7-110.2c-6.3-13.1-15.1-27.4-23.2-39.9
			c-5.4-9-14.9-29.4-24.5-34.3c1.1-2.1,2.2-4.3,3.2-6.5c0.8,0.9,1.6,1.9,2.3,2.9h0.1C442.9,310.1,466,391.4,467.8,459.7z"/>
		<path class="st7" d="M413.8,335.3c-0.3-0.7-0.7-1.5-1-2.1c0.1,0.4,0.2,0.9,0.2,1.3c-5.1-5.5-8.8-16.4-11.6-22.9
			c-5.6,8.1,0,57.9,0,70.4c0,21.5,0,43.6,3.9,64.1h-24.5v-2.5h-9.3l-0.5-27.5c0.3,0.3,0.5,0.6,0.8,0.9l0.6,0.5
			c5.2-5.3,8.7-13.7,13.2-21c0.7-1.1,1.4-2.2,2.2-3.3c-3.5-19.5-14.8-82.4-15.3-100.6c-0.1,0-0.2,0-0.2,0c0.6-5.4,2.1-10.8,4.3-15.8
			l0.4-0.3c1.3,1.5,2.7,2.9,4,4h0.4c1.7-2.5,3.4-5.3,5-8.2c9.6,4.9,19.1,25.4,24.5,34.3c8.2,12.5,17,26.8,23.2,39.9
			c15,34.9,23.2,72.8,25.7,110.2v3.9c-5.9,0.7-12.9,1.7-17.7,2.2C443.8,421.9,432.8,374.2,413.8,335.3z"/>
		<path class="st8" d="M430.4,498.9c9.6,75.2,15.5,151.1,9.3,222.8c-1.3,0.6-2.7,1.2-4.1,1.7l-0.4-0.9c-2.5-11.8-0.6-122-6.3-163.7
			c-2.3-17.6-10.5-81.3-16.7-102.7h12.1h0.2C426.6,470.2,428.6,484.5,430.4,498.9z"/>
		<path class="st9" d="M435.3,722.4l0.4,0.9c-7.4,3-15.5,5.2-21,5.4c0.2-2.1,0.6-4.3,1.1-6.3h0.2c-0.1-50.1-2.7-105.2-10.9-153.3
			c-1-4.3-15.8-77.3-32.7-71l-0.6-39.2h9.1V456h31.4c6.2,21.5,14.4,85.1,16.7,102.7C434.6,600.4,432.8,710.5,435.3,722.4z"/>
		<path class="st10" d="M412.3,456h-31.4v-10h42.3c0.5,3.3,1,6.6,1.4,9.9h-0.2L412.3,456z"/>
		<path class="st6" d="M420.9,430.8c0.8,5.1,1.5,10.2,2.2,15.2h-17.8c-3.9-20.5-3.9-42.6-3.9-64.1c0-12.5-5.6-62.3,0-70.4
			c2.8,6.5,6.5,17.4,11.6,22.9C418.9,371.3,420.5,411.4,420.9,430.8z"/>
		<path class="st11" d="M371.1,416c-6-6.4-10.1-15.1-15.1-22.5c-0.1-0.2-0.3-0.5-0.5-0.7c-0.4-33.2,10.4-67.2,10-100.4h0.2
			c1.4,0,2.8,0.1,4.3,0.1c0.8,0,1.5,0,2.3-0.1c0.1,0,0.2,0,0.2,0c0.5,18.3,11.9,81.2,15.3,100.6c-0.8,1.1-1.5,2.2-2.2,3.3
			c-4.5,7.3-8,15.7-13.2,21l-0.6-0.5C371.6,416.6,371.3,416.3,371.1,416z"/>
		<path class="st5" d="M386.3,272.2c-1.6,2.9-3.3,5.7-5,8.2h-0.4c-1.3-1.2-2.6-2.5-4-4c-4.2-4.8-6.3-10.9-7.9-16.3l-1-0.1v-1h0.1
			c0.9,0,1.8-0.1,2.7-0.1c2.4-0.3,4.8-0.8,7.1-1.5c0.3,0,0.6,0.1,0.9,0.2c4.7,1,6.9,3.9,10.6,8.2
			C388.5,267.9,387.4,270.1,386.3,272.2z"/>
		<polygon class="st12" points="380.9,456 380.9,458.9 371.8,458.9 371.5,443.5 372.5,443.5 380.9,443.5 380.9,446 		"/>
		<path class="st13" d="M376.9,276.4l-0.4,0.3c-2.2,5-3.6,10.4-4.3,15.8c-0.7,0.1-1.5,0.2-2.3,0.1c-1.4,0-2.8-0.1-4.3-0.1
			c0-0.1-0.1-0.3-0.2-0.5c-2-5.5-4.5-10.9-6.8-16.2c3.3-5,8.6-10.8,9.3-15.9l1,0.1C370.7,265.5,372.7,271.6,376.9,276.4z"/>
		<path class="st14" d="M378.8,257.1l-0.8,0.3c-2.3,0.7-4.7,1.1-7.1,1.4"/>
		<path class="st4" d="M352.9,728.2c7.2,1.2,14.4,1.7,21.7,1.6c0.6,1.8,0.9,3.8,1,5.7c0,0.4-0.1,0.9-0.1,1.3c-5,1-10.3,3.2-15.2,4.3
			c-6.6,1.2-13.1,3.4-20.1,4.4c-7.9,1.2-25.9,5.6-32.9-1.2c1.4-2.5,3.3-4.6,5.6-6.2c6.3-5,24.5-10.6,33.3-11.2l0.1-0.2
			C348.4,727.3,350.6,727.8,352.9,728.2z"/>
		<path class="st15" d="M374.6,729.8c-7.3,0.1-14.5-0.4-21.7-1.6c-2.9-15.5-16.5-113.4-20.1-141.1c-1.7-12.5-5-60.6-6.3-72.2
			c-1.9-19.5-0.7-39.4,1.5-58.9h30.3v2.9h13.5l0.6,39.2c-0.6,0.2-1.1,0.5-1.7,0.9l0.1,0.2c-22.9,15.6-13.3,169.9-0.2,220.9
			C372.3,723.2,373.6,726.4,374.6,729.8z"/>
		<path class="st2" d="M375.5,736.8c-0.8,6.9-3.7,7.8-10.2,9.5c-14.7,3.7-29.7,6.1-44.9,7.2c-10,0.5-16-3.3-13.1-9.3
			c7,6.8,25,2.4,32.9,1.2c6.9-0.9,13.5-3.1,20.1-4.4C365.2,740,370.5,737.8,375.5,736.8z"/>
		<polygon class="st12" points="371.5,443.5 371.8,458.9 358.3,458.9 358.3,456 358.3,446 358.3,443.5 		"/>
		<path class="st16" d="M371.1,416l0.5,27.5h-13.3v2.5h-40.1c0.3-35.2,1.6-68.2,3.6-95.8v-0.1c0.3-3.6,0.6-7.2,0.9-10.6
			c-0.2,0.4-0.3,0.8-0.5,1.1c-0.3,0.6-0.5,1.3-0.7,1.9c0.4-6.6,0.4-13.6-1-19.8h-0.6c-13.2,27.4-19.4,54.8-23.2,84.7
			c-2.2,19.3,1.7,38.5,2.8,57.8c-7.1-0.4-15.8-1-20.4-0.9c-3.3-68.3,13.3-150.8,61.3-195.9l0.3,0.3c1.2-1.4,2.4-2.7,3.8-3.8
			c1.3,6.8,5.4,12.1,10.5,16.8c1.2-1.8,2.5-3.7,3.9-5.8c2.3,5.3,4.7,10.7,6.8,16.2c0,0.1,0,0.3,0,0.5c0.4,33.2-10.5,67.1-10,100.4
			c0.1,0.2,0.3,0.5,0.5,0.7C361,400.9,365.1,409.6,371.1,416z"/>
		<path class="st14" d="M370.9,258.8c-0.9,0.1-1.8,0.1-2.7,0.1h-0.1c-2.4,0-4.7-0.5-6.8-1.6"/>
		<path class="st5" d="M368.1,259v1c-0.7,5.1-6,10.9-9.3,15.9c-1.4,2.1-2.8,4.1-3.9,5.8c-5.1-4.7-9.2-10-10.5-16.8
			c4.3-3.7,11.4-6.3,16.9-7.5C363.4,258.5,365.8,259,368.1,259z"/>
		<path class="st10" d="M328,456h-9.9c0-3.3,0-6.7,0-10h40.1v10H328z"/>
		<path class="st17" d="M352.9,728.2c-2.3-0.4-4.5-0.9-6.6-1.7c-1-0.3-1.9-0.9-2.6-1.6l2.1-0.4C328.1,672,320.3,585,318.5,501.2
			c0-0.3,0-0.6,0-0.9c-0.3-15-0.5-29.8-0.4-44.4h9.9c-2.2,19.6-3.4,39.5-1.5,58.9c1.3,11.6,4.6,59.8,6.3,72.2
			C336.4,614.8,350,712.7,352.9,728.2z"/>
		<path class="st7" d="M320.4,322.7c1.5,6.3,1.4,13.2,1,19.8c-14.4,38.9-21,84.4-16.5,123c-1.6-0.1-3.5-0.2-5.5-0.3
			c-1.1-19.3-5-38.5-2.8-57.8c3.8-29.9,10-57.3,23.2-84.7H320.4z"/>
		<path class="st3" d="M312.6,500.3l0.6,1c-7.7,10.2-16-10.3-14-16.3H299c-3.8,9.3-5.4,23.8-5.1,34.2h0.1c-0.8,2.4-2.7,1.8-3.9,1.7
			c-3.4-8.5-2.1-18.7-1.8-28.3h-0.2c-2.5,7.2-3.1,30.4-7.2,28.5c-2.6,0.1-2.4-11.7-0.8-21.4c-1.9,3.7-1.7,8-3.6,11.7
			c-2,4.1-4.5,4.2-5-0.3c-0.1-1.6,0-3.1,0.1-4.7l-1.1-0.1c-3.3-3-1-8.9,0.3-12.2c1.5-3.5,3.7-6.4,5.5-9.6c1.1-1.8,1.8-4.5,3.5-5.9
			h0.1c0-0.7-0.1-1.4-0.1-2c8.4-0.9,16.8-1.3,25.3-1.1C305.5,482.6,309.2,495.6,312.6,500.3z"/>
		<path class="st5" d="M299.4,465.2c2,0.1,3.9,0.2,5.5,0.3c0.4,3.4,0.9,6.7,1.5,10c-0.4,0-0.8,0-1.2-0.1c-8.4-0.1-16.9,0.2-25.3,1.1
			c-0.4-4-0.6-8-0.8-12.1C283.6,464.2,292.3,464.8,299.4,465.2z"/>
	</g>
	<path class="st18" d="M370.3,416.1c-0.8,8.5-2.3,18.3-0.4,26.7c0.1,0.4,0.6,0.7,1.1,0.5c0.3-0.1,0.5-0.3,0.5-0.5
		c1.8-8.4,0.3-18.2-0.4-26.7c0-0.2-0.2-0.4-0.4-0.4S370.3,415.9,370.3,416.1L370.3,416.1z"/>
	<path class="st19" d="M447,467.7c0.9,0,1.5-0.7,1.5-1.5c0-0.9-0.7-1.6-1.5-1.6s-1.5,0.7-1.5,1.6C445.5,467,446.1,467.7,447,467.7z"
		/>
	<path class="st19" d="M300.6,472.3c0.8,0,1.4-0.6,1.4-1.4s-0.6-1.4-1.4-1.4s-1.4,0.6-1.4,1.4C299.2,471.6,299.8,472.3,300.6,472.3z
		"/>
	<path class="st20" d="M321.5,481.3c4.8-5,9.7-10.1,15.2-14.3c1.3-1,0-3.1-1.3-2.1c-5.7,4.4-10.7,9.6-15.7,14.7
		C318.6,480.7,320.4,482.5,321.5,481.3z"/>
	<path class="st20" d="M406.2,463.7c6,3.3,11.3,7.9,16.7,12c1.3,1,2.5-1.2,1.3-2.1c-5.5-4.1-10.7-8.7-16.7-12
		C406,460.7,404.8,462.9,406.2,463.7L406.2,463.7z"/>
	<path class="st20" d="M366.9,459.4c1.2,13.3,1.3,26.6,2.2,39.8c0,0.3,0.3,0.6,0.6,0.6c0.2,0,0.4-0.1,0.5-0.3
		c2.1-2.9,4.7-6.2,7.9-7.9c0.2-0.1,0.3-0.3,0.3-0.5c-0.3-10.5-0.6-21-1.4-31.4c-0.1-0.8-1.3-0.8-1.3,0c0.6,8.4,0.9,16.8,1.1,25.1
		c0.1,1.6,0.8,5.6-0.4,6.2c-2.8,1.5-5,4.7-6.9,7.1c-0.8,1,0.6,0.9,0.5-0.1c-0.1-1.5-0.2-3.1-0.3-4.7c-0.2-4.1-0.4-8.1-0.6-12.2
		c-0.4-7.3-0.6-14.5-1.3-21.8C368.1,458.6,366.8,458.6,366.9,459.4L366.9,459.4z"/>
	<path class="st21" d="M344.9,445.5v11.4c0,3.2,5,3.2,5,0v-11.4C349.9,442.3,344.9,442.3,344.9,445.5z"/>
	<path class="st21" d="M329.2,446v11.4c0,3.2,5,3.2,5,0V446C334.2,442.8,329.2,442.8,329.2,446z"/>
	<path class="st21" d="M407.8,445.2v11.4c0,3.2,5,3.2,5,0v-11.4C412.8,442,407.8,442,407.8,445.2z"/>
	<path class="st21" d="M392.1,445.7V457c0,3.2,5,3.2,5,0v-11.3C397.1,442.5,392.1,442.5,392.1,445.7z"/>
	<path class="st22" d="M445.3,730.5c1.2-2.7,4.3-4.5,7.1-5.2c1.6-0.4,0.9-2.8-0.7-2.4c-3.4,0.8-7.1,3.1-8.6,6.3
		C442.4,730.7,444.6,731.9,445.3,730.5L445.3,730.5z"/>
	<path class="st22" d="M452.5,734.1c1.6-3,5.2-4.8,8.4-5.7c0.7-0.2,1-0.9,0.9-1.5c-0.2-0.7-0.9-1-1.5-0.9c-3.8,1-8,3.2-9.8,6.8
		C449.6,734.2,451.8,735.5,452.5,734.1z"/>
	<path class="st22" d="M459.7,736.5c2.3-2.4,5.5-3,8.2-4.8c1.3-0.9,0.1-3-1.3-2.1c-2.9,1.9-6.3,2.6-8.7,5.2
		C456.8,735.9,458.6,737.7,459.7,736.5z"/>
	<path class="st22" d="M321,734.2c3.1,0.9,4.6,3.9,7.2,5.5c0.6,0.3,1.4,0.1,1.7-0.5c0.3-0.6,0.1-1.3-0.4-1.6
		c-1.2-0.9-2.3-1.8-3.3-2.9c-1.3-1.3-2.8-2.2-4.5-2.8c-0.7-0.2-1.4,0.2-1.5,0.9C320,733.3,320.4,734,321,734.2L321,734.2z"/>
	<path class="st22" d="M326.4,731.2c3.4,0.9,6.1,3.2,8.2,5.9c1,1.3,2.8-0.5,1.8-1.8c-2.3-3.1-5.6-5.4-9.3-6.5
		c-0.7-0.1-1.3,0.3-1.5,1C325.5,730.4,325.8,731,326.4,731.2z"/>
	<path class="st22" d="M332.8,728.8c2.7,1.5,6.3,2.3,7.4,5.5c0.6,1.5,3,0.8,2.4-0.7c-1.5-4-5.1-5.1-8.6-7c-0.6-0.3-1.4,0-1.7,0.6
		C332.2,727.7,332.3,728.4,332.8,728.8L332.8,728.8z"/>
	<line class="st23" x1="-500.3" y1="223.7" x2="2158.5" y2="223.7"/>
	<path class="st24" d="M401.9,216.5c0.6-2.2,1.2-4.4,1.7-6.7c0,0,0,0,0-0.1c0.3-0.8,0.6-1.6,0.8-2.4c2.7,0.4,5.2,2.6,4.6,5.4
		C408.6,215.9,405,216.6,401.9,216.5z"/>
	<path class="st25" d="M407.2,202.9c5.5,1.8,5,7.9,4.5,11.7c-1.5,7.2-5.7,10.3-12.6,10.3c1.1-2.8,2-5.6,2.9-8.5
		c3.1,0.2,6.7-0.6,7.2-3.8c0.5-2.7-2-5-4.6-5.4c0.5-1.5,1-3.1,1.3-4.7C406.3,202.7,406.8,202.8,407.2,202.9z"/>
	<path class="st26" d="M404.5,207.3c-0.2,0.8-0.5,1.6-0.8,2.4c0,0,0,0,0,0.1c-0.5,2.2-1.1,4.5-1.7,6.7c-0.4,0-0.8-0.1-1.1-0.1
		c1.1-6.8,0.4-13.9,0.8-20.7c0-1.1,0.1-2.2,0.2-3.3c1.1,2.6,5.5,5,9,5.9c-1.3,1.7-2.7,3.3-3.7,4.7c-0.4-0.1-0.9-0.3-1.4-0.3
		C405.5,204.2,405,205.8,404.5,207.3z"/>
	<path class="st25" d="M402,191.1c0,0.4-0.1,0.8-0.1,1.2c-0.2-0.4-0.3-0.8-0.3-1.2C401.7,191.1,401.9,191.1,402,191.1z"/>
	<path class="st25" d="M361.1,254.5c-8.3-6.3-13.7-16.2-15.4-26.2c-1.1-5.9-1.6-12-2-18.1c-0.3-5.4-0.9-11.7,0-16.9
		c2.2,1.1,5.2,0.2,6.8-1.6c0.4,0.2,0.9,0.7,1.2,0.7c2.5,0.5,4.7,2.2,7.4,2.3c2.3,0.2,4.8-0.2,7.2-0.9c2-0.5,5-2.9,7.2-2.7
		c1.8,0.4,4.3,3.1,5.9,4c5.8,3.1,16.4,4,22.3,0.5c-0.4,6.9,0.3,13.9-0.8,20.7c-0.3,2-0.7,3.9-1.4,5.9l0.3,0.1
		c-0.3,0.9-0.5,1.8-0.8,2.7c-0.3,0.8-0.5,1.5-0.8,2.3c-7.9,19-20.9,33.2-34.4,29.3"/>
	<path class="st26" d="M401.9,216.5c-0.8,2.9-1.8,5.7-2.9,8.5l0,0h-0.1c0.3-0.9,0.6-1.8,0.8-2.7l-0.3-0.1c0.6-1.9,1.1-3.9,1.4-5.9
		C401.2,216.4,401.6,216.4,401.9,216.5z"/>
	<path class="st27" d="M351.5,185c-3,4.2-9.7,4-12.8,1.6c-0.5,3.2-0.8,6.4-0.8,9.6c-1,1.7-2.2,3.3-3.3,4.8c-1,0.2-2,0.6-2.8,1.1
		l-0.3-0.4c-6.4-4.5-7.7-15-5.8-24.8c1.9-2.2,4.8-4,7-3.1c3.6-7.5,10.7-9.3,15.6-2.9c2.9-4.1,13.3-11.5,15.1-4.1
		c5-12.2,25.3-2.7,28.2,6.5c2.2-7.5,13,2.7,18,2.5c-0.3,0.4-0.7,0.8-1.1,1.1c8.6-5.4,7.5,10.8,5.9,15.1c-0.8,2.1-2.2,4.2-3.7,6.1
		c-3.5-0.9-7.9-3.3-9-5.9c0-0.4,0.1-0.8,0.1-1.2c-0.1,0-0.3,0.1-0.4,0.1c-6.1,1.5-25.7,2.4-24.7-9.3
		C370.9,189.4,359.1,192.6,351.5,185z"/>
	<path class="st26" d="M339.3,222.9c-0.7-2.4-1.3-4.8-1.9-7.2c0.5-0.1,1.1-0.3,1.7-0.5c0.2,2.2,0.3,4.5,0.5,6.7h-0.3
		C339.3,222.2,339.3,222.4,339.3,222.9z"/>
	<path class="st26" d="M335.8,206.6c-0.3-1.9-0.5-3.8-0.7-5.6c-0.2,0-0.3,0.1-0.5,0.1c1.2-1.5,2.3-3.1,3.3-4.8
		c0,6.2,0.6,12.6,1.2,18.9c-0.6,0.3-1.2,0.5-1.7,0.5C336.8,212.7,336.2,209.7,335.8,206.6z"/>
	<path class="st24" d="M335.8,206.6c0.4,3.1,1,6.1,1.7,9.1C330.9,217,331.6,206.7,335.8,206.6z"/>
	<path class="st28" d="M363.8,256.5c-4.4-1.3-9-4.5-13.4-10.1c-4.4-6.1-7.8-13.3-10.4-21.2c-12.4,0.5-16.4-17.8-8.1-23
		c0.8-0.5,1.7-0.9,2.8-1.1c0.1,0,0.3-0.1,0.5-0.1c0.2,1.9,0.4,3.8,0.7,5.6c-4.2,0.1-4.9,10.4,1.7,9.1c0.5,2.4,1.2,4.8,1.9,7.2
		c0-0.5,0-0.8,0-1.1h0.3c-0.1-2.2-0.3-4.5-0.5-6.7c-0.6-6.4-1.2-12.7-1.2-18.9c0-3.2,0.2-6.4,0.8-9.6c3,2.4,9.8,2.7,12.8-1.6
		c7.5,7.5,19.4,4.3,25.3-3.2c-1,11.8,18.7,10.8,24.7,9.3c0,0.4,0.1,0.8,0.3,1.2c-0.1,1.1-0.2,2.2-0.2,3.3
		c-5.9,3.6-16.5,2.6-22.3-0.5c-1.6-0.9-4.1-3.6-5.9-4c-2.2-0.2-5.2,2.2-7.2,2.7c-2.3,0.7-4.8,1.1-7.2,0.9c-2.7-0.2-4.8-1.8-7.4-2.3
		c-0.3,0-0.9-0.5-1.2-0.7c-1.6,1.8-4.7,2.7-6.8,1.6c-0.9,5.2-0.3,11.5,0,16.9c0.4,6.1,0.9,12.2,2,18.1c1.8,10.1,7.2,19.9,15.4,26.2"
		/>
	<path class="st26" d="M392.7,151.1c4.9-9,24.1,15.3,17,24.7c-5,0.3-15.8-9.9-18-2.5c-2.9-9.2-23.2-18.7-28.2-6.5
		c-1.8-7.4-12.2,0-15.1,4.1c-4.8-6.4-12-4.5-15.6,2.9c-2.2-0.9-5.1,0.8-7,3.1c2.4-12,9.6-23.2,18-21.2c3.5-12,19.5-14,28.1-9.9"/>
	<path class="st29" d="M342.6,205.6c6.5-3.4,16.4-2.2,23.1,0.1c1.3,0.5,1.9-1.6,0.6-2.1c-7.3-2.6-17.7-3.6-24.8,0.1
		C340.2,204.3,341.3,206.2,342.6,205.6L342.6,205.6z"/>
	<path class="st29" d="M340.9,204.4c0.1,8.5,3.4,14.3,12.5,14.9c8.8,0.5,12.3-6.1,13.5-13.8c0.2-1.4-1.8-1.9-2.1-0.6
		c-1,6.3-3,11.8-10.2,12.2c-8.5,0.5-11.5-5.3-11.6-12.7C343.1,203,340.9,203,340.9,204.4L340.9,204.4z"/>
	<path class="st29" d="M398.6,205.5c-6.8-4.2-17.4-3.6-24.8-1.5c-1.3,0.4-0.8,2.5,0.6,2.1c6.8-2,16.8-2.5,23.1,1.3
		C398.7,208.1,399.8,206.2,398.6,205.5L398.6,205.5z"/>
	<path class="st29" d="M397,206.1c-0.5,7.2-3.2,12.1-11.1,12c-7.8,0-10-6-10.6-12.6c-0.1-1.4-2.3-1.4-2.1,0
		c0.8,7.7,3.2,13.7,11.5,14.7c9.7,1.2,13.9-5.5,14.5-14.1C399.3,204.8,397.1,204.8,397,206.1L397,206.1z"/>
	<path class="st29" d="M366.5,206c2.2-0.4,5.1-1.2,7.1,0.2c1.1,0.8,2.2-1.1,1.1-1.9c-2.5-1.8-5.9-1-8.7-0.5
		C364.6,204.2,365.2,206.3,366.5,206L366.5,206z"/>
	<path class="st29" d="M398.4,207.7c1.5-0.7,2.8-1.7,4.1-2.6c1.1-0.8,0.1-2.7-1.1-1.9c-1.3,0.9-2.6,1.9-4.1,2.6
		C396,206.4,397.1,208.3,398.4,207.7L398.4,207.7z"/>
	<path class="st29" d="M342.8,204.6c-1.1-1.8-2.4-3.1-4.1-4.3c-1.1-0.8-2.2,1.1-1.1,1.9c1.4,1,2.5,2.1,3.3,3.5
		C341.6,206.9,343.5,205.8,342.8,204.6L342.8,204.6z"/>
	<path class="st30" d="M367.2,213c-0.9,4.5-2.2,8.1-5.4,11.6c-0.4,0.4-0.5,1.1,0,1.5c4,3.2,8.7,2.7,13.5,1.8c0.2,0,0.2-0.4,0-0.4
		c-4.2-1.4-8.5,0.9-12-2.8c-0.1,0.5-0.1,1.1-0.2,1.6c2.1-1.4,2.6-3.6,3.3-5.9c0.7-2.3,1.7-4.9,1.3-7.3
		C367.6,212.8,367.3,212.8,367.2,213L367.2,213z"/>
	<path class="st26" d="M347.9,197c2.2-1.8,4.4-1.9,7.2-1.7c2.8,0.2,5.8,0.2,8.5,0.7c0.3,0.1,0.4-0.3,0.2-0.4
		c-3.2-2.4-6.2-3.9-10.2-3.7c-2.8,0.2-6.3,1.6-6.6,4.7C346.9,197.2,347.6,197.3,347.9,197L347.9,197z"/>
	<path class="st26" d="M379.3,196.3c2.5-0.3,4.9-0.6,7.4-0.5c3.3,0.1,5.1,1.8,7.9,3.1c0.4,0.2,1,0.1,1-0.4c0.5-3.4-3-5.1-6-5.3
		c-3.6-0.3-7.6,0.6-10.4,2.8C379,196,379,196.3,379.3,196.3L379.3,196.3z"/>
	<path class="st31" d="M359.6,209.3c0,1.9-1.5,3.5-3.4,3.5s-3.4-1.6-3.4-3.5s1.5-3.5,3.4-3.5S359.6,207.4,359.6,209.3z"/>
	<path class="st31" d="M386,209.6c0,1.9-1.5,3.5-3.4,3.5s-3.4-1.6-3.4-3.5s1.5-3.5,3.4-3.5S386,207.6,386,209.6z"/>
	<path class="st32" d="M360,232.9c1.7,10.6,18.7,11.7,19.8,0.3c0.1-1.4-2-1.4-2.2,0c-0.4,4.1-4,6-7.8,6c-4.1,0-7.1-3-7.8-6.9
		C361.9,231,359.8,231.6,360,232.9L360,232.9z"/>
</g>
<g id="Layer_2" class="st0">
	<path class="st33" d="M419,156.3c1.4,5.5,1.4,11.6,0.4,17.6c-3.6,0-7.1-0.2-10.6-0.4c-14.2-2.3-30.9-0.8-44-6.5
		c7,3.2,11.6,9.1,16.8,13.9c-11.2,0.8-27.8-5.6-39.1-12.8c-5.8-6.4-10.8-9.9-5.9-17.9c5.7,3.6,13,5.2,18.7,8.7c-0.8-3.5-3.1-7-5-9.7
		c10.8,5.8,25.1,7,37.1,8.9C398.3,159.4,408.3,157.1,419,156.3z"/>
	<path class="st28" d="M342.5,168c11.3,7.1,28,13.6,39.1,12.8c-5.2-4.8-9.9-10.7-16.8-13.9c13,5.8,29.8,4.2,44,6.5
		c0.3,0,0.7,0.1,1,0.2c0.4,12.3-1.8,26.1-5.8,38.8c-0.5,1.6-1,3.1-1.6,4.6c0.9-1.4,1.8-2.9,2.6-4.3c2.7,0.6,5.9,0.3,7.3-2.6
		c1.1-2.5-0.1-5.8-2.6-6.5c1-2.3,2-4.5,2.9-6.9c4.6,1.8,5,8.6,4.5,12.9c-1.6,8.1-7.5,10-15.5,9.7c-5.6,14.6-13.7,26.8-22.8,31.9
		c-2.9,1.6-5.9,2.5-9,2.5c-2.5,0-5-0.6-7.6-1.8c-1-0.5-2-1.1-3-1.8c4,1.7,8.6,0.4,13.1-1.4c8.3-3.3,11.8-8.9,16.2-16.6
		c6.6-11.2,10.4-21.8,11.8-34.8c0.4-3.1,2.3-13.1,0.4-15.4c-1-1.4-12.8-4.1-14.9-6c1.9,3.5,4.8,7.5,6,11.2c-9.6,0-23-1.2-31.7-4.8
		c-6.9-2.6-15.9-5.2-22.6-9.5c0.1-2.6,0.3-5.1,0.5-7.7l0.1-0.1C339.4,166,340.9,167,342.5,168z"/>
	<path class="st34" d="M409.6,203.6c-1.4,3.1-2.9,6.1-4.6,9.1c-0.3-0.1-0.7-0.2-1-0.3c4-12.7,6.2-26.5,5.8-38.8
		c-0.3,0-0.6-0.1-1-0.2c3.5,0.2,6.9,0.4,10.6,0.4c-0.9,5.3-2.5,10.5-4.4,15.3l0.3,0.1c-0.9,2.5-1.8,5-2.8,7.4
		C411.6,199,410.6,201.3,409.6,203.6z"/>
	<path class="st24" d="M409.6,203.6c2.5,0.7,3.8,4,2.6,6.5c-1.4,2.9-4.5,3.3-7.3,2.6C406.7,209.7,408.2,206.7,409.6,203.6z"/>
	<path class="st35" d="M404.3,138.6c8.3,4.1,12.8,10.4,14.7,17.7c-10.6,0.7-20.6,3.1-31.5,1.8c-12-1.9-26.3-3.1-37.1-8.9
		c1.9,2.7,4.2,6.2,5,9.7c-5.7-3.6-13.1-5.1-18.7-8.7c0.5-0.8,1-1.6,1.7-2.5c2.8-3.7,6.7-7.1,10.4-10.1c0.1,0,0.3,0,0.4,0
		C367.1,131.7,388,130.3,404.3,138.6z"/>
	<path class="st35" d="M403.9,212.4c0.3,0.1,0.6,0.2,1,0.3c-0.8,1.4-1.6,2.9-2.6,4.3C402.9,215.5,403.4,214,403.9,212.4z"/>
	<path class="st25" d="M400.6,181.9c1.9,2.3,0,12.4-0.4,15.4c-1.3,13-5.2,23.6-11.8,34.8c-4.5,7.8-7.9,13.3-16.2,16.6
		c-4.5,1.8-9.1,3.1-13.1,1.4c-2.7-1.8-5.5-4.4-8.2-7.9c-4.8-6.7-8.1-14.7-10.3-23.4c0,0,0,0,0-0.1c-3.5-14.4-4-30.7-3.2-46
		c6.7,4.3,15.7,6.9,22.6,9.5c8.7,3.7,22,4.8,31.7,4.8c-1.2-3.7-4.1-7.7-6-11.2C387.8,177.8,399.6,180.5,400.6,181.9z"/>
	<path class="st36" d="M369.3,262.8c0.7-2.6,1.7-6.7,0.4-9.2c3.1,0,6.1-0.9,9-2.5c0,3.3-2.2,6.7-2.1,10.1"/>
	<path class="st36" d="M360.5,261.4c0-3.1,2-6.3,1.6-9.6c2.6,1.2,5.1,1.8,7.6,1.8c1.3,2.5,0.3,6.5-0.4,9.2"/>
	<path class="st34" d="M335.9,211.7c-1.6-3.2-2.9-6.7-3.7-10.3c-0.7-3-1.2-6-1.3-8.9c-0.1-2.1-0.1-4.1,0-6
		c-3.4-12.1-4.1-27.3-2.8-31.3c4.1-12.3,8.9-14.3,20.6-17.7c-3.7,3-7.7,6.4-10.4,10.1c-0.7,0.9-1.2,1.7-1.7,2.5
		c-4.9,8,0.1,11.5,5.9,17.9c-1.6-1-3.2-2.1-4.5-3.1l-0.1,0.1c-0.2,2.5-0.4,5.1-0.5,7.7c-0.8,15.3-0.3,31.6,3.2,46c0,0,0,0,0,0
		C338.8,216.7,337.3,214.3,335.9,211.7z"/>
	<path class="st28" d="M340.6,218.7c-16.4,0.2-18-16.6-10.6-26.2l0.8,0c0.2,2.9,0.6,5.9,1.3,8.9c-1.4,1-2.4,2.8-2.4,4.8
		c0.1,3.6,3,5,6.1,5.5C337.3,214.3,338.8,216.7,340.6,218.7z"/>
	<path class="st24" d="M332.2,201.4c0.8,3.6,2.1,7.1,3.7,10.3c-3-0.6-5.9-1.9-6.1-5.5C329.9,204.2,330.8,202.4,332.2,201.4z"/>
	<path class="st37" d="M339.4,157.3c6,9,18.5,17.5,29.7,15.9c0.6-0.1,0.7-1,0.2-1.2c-4.8-2.2-10-3.3-14.9-5.4
		c-5.7-2.5-9.8-5.7-14.5-9.6C339.6,156.8,339.2,157,339.4,157.3L339.4,157.3z"/>
	<path class="st37" d="M358.4,156.3c12.8,14.1,36,13,53.2,10c0.4-0.1,0.4-0.8,0-0.9C394.4,162.6,372.8,169.5,358.4,156.3
		C358.5,156.2,358.4,156.2,358.4,156.3L358.4,156.3z"/>
	<path class="st37" d="M381.3,158.8c3.9,1,9,1.6,12.9,0.5c0.5-0.1,0.4-0.8-0.1-0.8c-1.9-0.1-3.9,0.1-5.9,0c-2.3,0-4.6-0.4-6.9-0.1
		C381.1,158.4,381,158.7,381.3,158.8L381.3,158.8z"/>
	<path class="st38" d="M335,149.1c-6.7,3.9-4.9,17.4-1.5,22.9c0.2,0.3,0.8,0.2,0.8-0.2c-0.4-3.3-1.6-6.5-2.1-9.8
		C331.6,157.1,332.9,153.3,335,149.1C335.1,149.1,335,149,335,149.1L335,149.1z"/>
	<path class="st38" d="M413.7,175.3c-1.5,5.4-4.7,12.5-2.9,18.2c0.1,0.3,0.6,0.4,0.7,0.1c2.4-5.3,2.1-12.3,2.9-18.1
		C414.6,175,413.9,174.7,413.7,175.3L413.7,175.3z"/>
	<path class="st39" d="M351.8,143.5c8.4,2.3,17,3.9,25.6,5.2c7.1,1.1,15.9,1.7,22.4-1.9c0.7-0.4,0.4-1.6-0.4-1.6
		c-8.1,0.4-15.7,2.2-23.9,1.8C367.5,146.7,359.7,144.4,351.8,143.5C351.8,143.5,351.8,143.5,351.8,143.5L351.8,143.5z"/>
	<path class="st39" d="M370.3,141.6c2,1,4,0.7,6.2,0.5c2.7-0.3,5.7-0.6,8.2-1.6c0.6-0.2,0.5-1-0.1-1c-2.1-0.2-4.3,0.4-6.3,0.7
		c-2.6,0.4-5.4,0.3-7.9,1.1C370.2,141.3,370.1,141.6,370.3,141.6L370.3,141.6z"/>
	<path class="st30" d="M367.6,197.1c-0.4,5.6-2.1,11.7-7.6,14.1c-0.3,0.1-0.6,0.6-0.6,1c0.2,5.3,5.1,9.2,10.1,10.1
		c0.3,0.1,0.4-0.3,0.2-0.4c-2.5-1.8-5-3.2-6.9-5.7c-2.2-3,0-3.6,1.5-5.6c3-3.8,4.2-8.6,3.7-13.4
		C367.9,196.9,367.6,196.9,367.6,197.1L367.6,197.1z"/>
	<path class="st31" d="M356.9,197.5c0,2.8-1.9,5-4.3,5c-2.3,0-4.2-2.2-4.2-5c0-2.8,1.9-5,4.2-5C355,192.5,356.9,194.7,356.9,197.5z"
		/>
	<path class="st31" d="M389.4,199.1c0,2.8-1.9,5-4.3,5c-2.3,0-4.3-2.2-4.3-5c0-2.8,1.9-5,4.3-5C387.5,194.1,389.4,196.4,389.4,199.1
		z"/>
	<g class="st1">
		<path class="st40" d="M359.7,232.2c0.5,0.4,1.2,0.7,1.7,0.9c1.3,0.5,2.6,0.6,3.9,0.7c0,0,0,0,0,0c-1-0.2-2.2-0.4-3.2-0.8
			c-0.6-0.3-1.3-0.7-1.8-1.1c-0.3-0.2-0.5-0.4-0.7-0.6c-0.1-1,0-2,0.1-2.8c-0.8-0.5-1.5-1.1-2.1-1.7c-0.6,2.6,0.8,5.7,2.9,8.2l0,0
			C360.1,234.5,359.8,233.4,359.7,232.2z"/>
		<path class="st40" d="M373.9,230.2c0.1,0.5,0.2,1,0.3,1.5c-0.5,0.3-1,0.7-1.4,1c-1.7,1-3.7,1.2-5.6,1.3c0,0,0,0,0,0
			c1.8,0,5.2,0.2,7.2-1.1c0.1,0.8,0.2,1.6,0.2,2.3c1.5-2.1,2.6-4.9,3.2-7.4C376.7,228.8,375.4,229.6,373.9,230.2z"/>
		<path class="st41" d="M367.2,234C367.2,234,367.2,233.9,367.2,234c1.9,0,3.9-0.3,5.6-1.3c0.5-0.3,0.9-0.6,1.4-1
			c-0.1-0.5-0.2-1.1-0.3-1.5c-4.4,1.7-10.2,0.9-14.2-1.6c-0.1,0.8-0.1,1.8-0.1,2.8c0.2,0.2,0.4,0.4,0.7,0.6c0.6,0.4,1.2,0.8,1.8,1.1
			c1,0.4,2.1,0.6,3.2,0.8c0,0,0,0,0,0c-1.3-0.1-2.6-0.2-3.9-0.7c-0.5-0.2-1.2-0.5-1.7-0.9c0.1,1.2,0.4,2.3,0.9,2.9l0,0
			c2,2.3,4.6,4,6.7,4c3.1,0.1,5.5-1.6,7.3-4c0-0.7-0.1-1.5-0.2-2.3C372.4,234.2,368.9,234,367.2,234z"/>
	</g>
	<path class="st34" d="M393.6,187.5c-1.5-2.7-2.8-4.1-5.9-4.9c-2.1-0.6-6.4-0.8-8,0.9c-0.3,0.3-0.3,0.8,0,1.1
		c1.5,1.3,3.7,0.7,5.5,0.7C388,185.2,391.5,185.2,393.6,187.5C393.5,187.6,393.6,187.6,393.6,187.5L393.6,187.5z"/>
	<path class="st34" d="M345.7,186.4c0.9-0.8,1.6-1.7,2.5-2.4c1-0.7,2.6-0.5,3.8-0.7c2.2-0.2,4.5-0.3,6.7-0.2c0.2,0,0.3-0.3,0.2-0.4
		c-1.7-2.6-4.4-2.9-7.3-2.3C349.4,180.9,346.1,184.1,345.7,186.4C345.7,186.4,345.7,186.4,345.7,186.4L345.7,186.4z"/>
	<path class="st42" d="M378.9,215c1.5,1.4,3.4,1.3,5.4,1c1.7-0.3,3.5-0.2,5.3-0.5c3.2-0.6,3.3-6,0-6.5c-2-0.3-3.9,0.1-5.8,0.5
		c-1.9,0.4-4.1,0.9-5.1,2.8C378,213.1,378.1,214.3,378.9,215L378.9,215z"/>
	<path class="st42" d="M355.3,208.9c-0.7-1.7-2.7-2.5-4.2-3.3c-1.9-1.1-4.5-0.4-5.6,1.5c-1.1,1.8-0.5,4.6,1.5,5.6
		c1.8,0.9,4.2,2.1,6.3,1.3C355.4,213,356.2,211.1,355.3,208.9L355.3,208.9z"/>
</g>
<g id="Layer_3">
	<polygon class="st43" points="354.7,250 420,250 420,180 342.4,180 	"/>
	<path class="st44" d="M364.7,699.6c0,0-8.4,2.7-6.1,36.5c0.6,8.1,0.3,13.3-0.3,16.5c0,0-0.3,3.4,0.4,5.4c0,0,0.4,0,1.8,0h9.3v-58.4
		H364.7z"/>
	<path class="st45" d="M375.3,553.9v9.4c0,0,13.8,28.1,0,117.2c0,0-2.3,48.7,6.1,70.4l1.9,7.1h-25c0,0,3.8-15.4,1.9-28.5
		c-1.9-13.1,5-29.4,5-29.4l-6.9-25.3c0,0-27.7-92.1-6.9-120.9H375.3z"/>
	<path class="st44" d="M358.5,758c0-6.9,5.6-12.5,12.5-12.5c6.9,0,12.5,5.6,12.5,12.5"/>
	<rect x="364.3" y="695.1" class="st44" width="11.3" height="2.9"/>
	<path class="st44" d="M397.6,699.6c0,0,8.4,2.7,6.1,36.5c-0.6,8.1-0.3,13.3,0.3,16.5c0,0,0.3,3.4-0.4,5.4c0,0-0.4,0-1.8,0h-9.3
		v-58.4H397.6z"/>
	<path class="st45" d="M387.1,553.9v9.4c0,0-13.8,28.1,0,117.2c0,0,2.3,48.7-6.1,70.4L379,758h25c0,0-3.8-15.4-1.9-28.5
		c1.9-13.1-5-29.4-5-29.4l6.9-25.3c0,0,27.7-92.1,6.9-120.9H387.1z"/>
	<path class="st46" d="M341.5,324.3c4,7.4,5.7,26,5.7,26h0.1c-0.1,9.1-1.2,16.8-1.2,16.8h0c-0.3,0.9-1,2.7-2.3,5.7h74.8
		c-1.4-3.1-2-4.8-2.3-5.7h0c0,0-1.1-7.7-1.2-16.8h0.1c0,0,1.7-18.6,5.7-26c0,0,11.1-3.6,5.8-23.1l26.3-26.3c0,0-7.4-24.9-32.7-25.3
		L420,250c-3.5,19.8-19.6,40.4-38.8,40.4c-19.2,0-35.2-20.6-38.8-40.4l-0.3-0.3c-25.3,0.3-32.7,25.3-32.7,25.3l26.3,26.3
		C330.3,320.7,341.5,324.3,341.5,324.3z"/>
	<path class="st44" d="M403.8,758c0-6.9-5.6-12.5-12.5-12.5c-6.9,0-12.5,5.6-12.5,12.5"/>
	<rect x="386.7" y="695.1" class="st44" width="11.3" height="2.9"/>
	<path class="st47" d="M416.2,367.1L416.2,367.1C416.3,367.1,416.3,367.1,416.2,367.1l-70.1-0.1c0,0,0,0.1,0,0.1h0
		c-0.5,1.6-2,5.3-6.2,14c-1.6,3.3-3.7,6.8-5.8,10.9l-1.8,3.6c-7.7,16.1-14.9,41.5-2.9,95c16.3,72.7,19.1,71.7,19.1,71.7h65.3
		c0,0,2.9,1,19.1-71.7c16.3-72.7-2.8-93.5-10.5-109.5C418.2,372.4,416.7,368.7,416.2,367.1z"/>
	<g>
		<path class="st48" d="M348.5,562.4L348.5,562.4C348.5,562.4,348.5,562.4,348.5,562.4z"/>
		<path class="st48" d="M422.4,381.1c-4.2-8.7-5.7-12.4-6.2-14h0c0,0,0,0,0-0.1h-4.8c0,0,0,0.1,0,0.1h0c0.5,1.6,2,5.3,6.2,14
			c7.7,16,26.8,36.8,10.5,109.5c-15.7,70.1-18.9,71.7-19.1,71.7h4.8c0,0,2.9,1,19.1-71.7C449.2,418,430.2,397.1,422.4,381.1z"/>
	</g>
	<path class="st45" d="M301.4,456.1c0.4,3.2,4.1,7,10.7,16.9c6.6,9.8,7.3,8,7.3,8c2.8-1.4-4.2-17.2-4.2-17.2
		c-5.6-11.4-2.3-13.9-0.1-14.3c2.2-0.4,3.7,6.4,3.8,9.8c0.1,3.4,0.5,2.2,0.5,2.2c3.1,1.5,2.9-11.4,2.9-11.4
		c0.4-10.7-8.3-16.3-8.3-16.3l6.3-54.3c-0.2-11.5-0.2-20.4,0.1-21.6l11.1-60.9l-18.8-18.8c-10,34.1-12.2,67.4-12.2,67.4"/>
	<path class="st45" d="M342.4,250c3.5,19.8,19.6,40.4,38.8,40.4c19.2,0,35.2-20.6,38.8-40.4l0,0c-1.4-0.1-2.2-0.1-2.2-0.1l-32.8-0.8
		l-40.4,0.8C344.6,249.9,343.8,249.8,342.4,250L342.4,250z"/>
	<path class="st45" d="M462,345.4c0,0-2.2-33.2-12.2-67.4l-18.8,18.8l11.1,60.9c0.3,1.2,0.3,10.1,0.1,21.6l6.3,54.3
		c0,0-8.7,5.6-8.3,16.3c0,0-0.1,12.9,2.9,11.4c0,0,0.4,1.3,0.5-2.2c0.1-3.5,1.7-10.2,3.8-9.8c2.2,0.4,5.5,2.9-0.1,14.3
		c0,0-7,15.8-4.2,17.2c0,0,0.7,1.8,7.3-8c6.6-9.8,10.3-13.7,10.7-16.9"/>
	<g>
		<path class="st48" d="M335.7,318.5c2.1,4.7,5.7,5.8,5.7,5.8c2.1,3.9,3.6,11,4.5,16.8c-1.3-9.2,1.4-18,1.4-18
			C338.1,323.2,335.7,318.5,335.7,318.5z"/>
		<path class="st48" d="M426.6,318.5c-2.1,4.7-5.7,5.8-5.7,5.8c-2.1,3.9-3.6,11-4.5,16.8c1.3-9.2-1.4-18-1.4-18
			C424.3,323.2,426.6,318.5,426.6,318.5z"/>
	</g>
	<g>
		<path class="st49" d="M350.1,257.7c0,0,22.6-1.4,19.7,5.2"/>
		<path class="st49" d="M412.2,257.7c0,0-22.6-1.4-19.7,5.2"/>
	</g>
	<rect x="369.8" y="235.7" class="st45" width="22.7" height="16.3"/>
	<path class="st50" d="M369.8,240.3c3.3,1.7,7.1,2.9,11.3,3.4c4.3-0.5,8-1.7,11.3-3.4v-4.6h-22.7V240.3z"/>
	<g>
		<path class="st45" d="M416.5,171c0-35.9-35.3-32.1-35.3-32.1s-35.3-3.8-35.3,32.1c0,0-5.6,64.4,35.3,69.5
			C422.2,235.4,416.5,171,416.5,171z"/>
		<g>
			<path class="st43" d="M352.4,182.6c0,0,11.3-7.2,20.2,0.5c0,0,1.3,1,1.1-2.4c0,0-1-3.2-9.7-3.9
				C355.2,176,352.4,182.6,352.4,182.6z"/>
			<g>
				<path class="st44" d="M360.7,184.4c0,0-2.6,0.2-5,1.4l0,0c-1.5,0.6-2.8-0.5-2.8-0.5c0,1.5,1,1.7,1,1.7c-1.5,1-2.7,0-2.7,0
					c-0.1,1.2,1.2,2.3,1.2,2.3s2.7,9.2,20.3,4.2C372.6,193.5,371.6,184.4,360.7,184.4z"/>
				<path class="st41" d="M354.7,190c0,0,8-11.4,17.9,3.6C372.6,193.5,361.6,199.6,354.7,190z"/>
				<path class="st51" d="M367.8,190.4c0-2.2-1.8-3.9-3.9-3.9c-2.2,0-3.9,1.8-3.9,3.9c0,2.2,1.8,3.9,3.9,3.9
					C366.1,194.3,367.8,192.6,367.8,190.4z"/>
				<path class="st44" d="M365.6,190.4c0-0.9-0.7-1.7-1.7-1.7c-0.9,0-1.7,0.7-1.7,1.7c0,0.9,0.7,1.7,1.7,1.7
					C364.8,192.1,365.6,191.3,365.6,190.4z"/>
				<g>
					<g>
						<path class="st41" d="M362.7,190.7c1.6,0,1.6-2.5,0-2.5C361.1,188.2,361.1,190.7,362.7,190.7L362.7,190.7z"/>
					</g>
				</g>
				<g>
					<g>
						<path class="st41" d="M365,192.3c0.8,0,0.8-1.3,0-1.3C364.2,191,364.2,192.3,365,192.3L365,192.3z"/>
					</g>
				</g>
			</g>
			<path class="st43" d="M409.8,182.6c0,0-11.3-7.2-20.2,0.5c0,0-1.3,1-1.1-2.4c0,0,1-3.2,9.7-3.9C407,176,409.8,182.6,409.8,182.6z
				"/>
			<g>
				<path class="st44" d="M401.5,184.4c0,0,2.6,0.2,5,1.4l0,0c1.5,0.6,2.8-0.5,2.8-0.5c0,1.5-1,1.7-1,1.7c1.5,1,2.7,0,2.7,0
					c0.1,1.2-1.2,2.3-1.2,2.3s-2.7,9.2-20.3,4.2C389.6,193.5,390.5,184.4,401.5,184.4z"/>
				<path class="st41" d="M407.4,190c0,0-8-11.4-17.9,3.6C389.6,193.5,400.5,199.6,407.4,190z"/>
				<path class="st51" d="M394.3,190.4c0-2.2,1.8-3.9,3.9-3.9s3.9,1.8,3.9,3.9c0,2.2-1.8,3.9-3.9,3.9S394.3,192.6,394.3,190.4z"/>
				<path class="st44" d="M396.6,190.4c0-0.9,0.8-1.7,1.7-1.7c0.9,0,1.7,0.7,1.7,1.7c0,0.9-0.7,1.7-1.7,1.7
					C397.3,192.1,396.6,191.3,396.6,190.4z"/>
				<g>
					<g>
						<path class="st41" d="M399.5,190.7c1.6,0,1.6-2.5,0-2.5C397.9,188.2,397.9,190.7,399.5,190.7L399.5,190.7z"/>
					</g>
				</g>
				<g>
					<g>
						<path class="st41" d="M397.1,192.3c0.8,0,0.8-1.3,0-1.3C396.3,191,396.3,192.3,397.1,192.3L397.1,192.3z"/>
					</g>
				</g>
			</g>
			<path class="st52" d="M387.7,214.7c-3-1.4-4.4-1-5.2-0.5c-0.8,0.5-1.4,0.8-1.4,0.8s-0.5-0.2-1.4-0.8c-0.8-0.5-2.2-0.9-5.2,0.5
				c0,0-4.3,1.5-5.9,0.8c0,0,2.9,10.8,12.4,10.8c9.5,0,12.4-10.8,12.4-10.8C392,216.2,387.7,214.7,387.7,214.7z"/>
			<path class="st41" d="M381.2,218c0,0-7.8,0.9-9.3-0.3c0,0,3.8,5.1,9.3,5.1c5.6,0,9.3-5.1,9.3-5.1C389,218.9,381.2,218,381.2,218z
				"/>
		</g>
		<g class="st53">
			<image style="overflow:visible;" width="90" height="80" xlink:href="C9992C57.png"  transform="matrix(1 0 0 1 318 164)">
			</image>
		</g>
		<g class="st53">
			<image style="overflow:visible;" width="90" height="80" xlink:href="C9992C55.png"  transform="matrix(1 0 0 1 355 164)">
			</image>
		</g>
		<path class="st54" d="M386.7,207.8c-0.2,0.5,0.1,1.2-0.8,1.6c-1,0.4-1.8,0.2-2.6,0.8c-0.6,0.5-1.1,1.1-2.2,1
			c-1.1,0.1-1.6-0.5-2.2-1c-0.8-0.6-1.6-0.3-2.6-0.8c-0.9-0.4-0.6-1.1-0.8-1.6"/>
	</g>
	<g>
		<path class="st55" d="M366.6,252.7c0.8,0,1.5-0.7,1.5-1.5c0-0.8-0.7-1.5-1.5-1.5c-0.8,0-1.5,0.7-1.5,1.5
			C365.1,252,365.7,252.7,366.6,252.7z"/>
		<path class="st55" d="M367.1,255.2c0.8-0.1,1.4-0.9,1.2-1.8c-0.1-0.8-0.9-1.4-1.8-1.2c-0.8,0.1-1.4,0.9-1.2,1.8
			C365.5,254.8,366.2,255.4,367.1,255.2z"/>
		<path class="st55" d="M368,257.6c0.8-0.3,1.2-1.2,0.9-1.9c-0.3-0.8-1.2-1.2-1.9-0.9c-0.8,0.3-1.2,1.2-0.9,1.9
			C366.3,257.5,367.2,257.9,368,257.6z"/>
		<path class="st55" d="M369.3,259.8c0.7-0.4,1-1.3,0.6-2.1c-0.4-0.7-1.3-1-2.1-0.6c-0.7,0.4-1,1.3-0.6,2.1
			C367.6,260,368.6,260.2,369.3,259.8z"/>
		<path class="st55" d="M371,261.7c0.6-0.5,0.7-1.5,0.2-2.1c-0.5-0.6-1.5-0.7-2.1-0.2c-0.6,0.5-0.7,1.5-0.2,2.1
			C369.4,262.2,370.3,262.3,371,261.7z"/>
		<path class="st55" d="M373,263.4c0.5-0.6,0.5-1.6-0.2-2.1c-0.6-0.5-1.6-0.5-2.1,0.2c-0.5,0.6-0.5,1.6,0.2,2.1
			C371.5,264.1,372.4,264,373,263.4z"/>
		<path class="st55" d="M375.2,264.6c0.4-0.7,0.2-1.6-0.6-2.1c-0.7-0.4-1.7-0.2-2.1,0.6c-0.4,0.7-0.2,1.6,0.6,2.1
			C373.9,265.6,374.8,265.3,375.2,264.6z"/>
		<path class="st55" d="M377.6,265.4c0.3-0.8-0.1-1.7-0.9-1.9c-0.8-0.3-1.7,0.1-1.9,0.9c-0.3,0.8,0.1,1.7,0.9,1.9
			C376.5,266.6,377.3,266.2,377.6,265.4z"/>
		<path class="st55" d="M380.2,265.8c0.1-0.8-0.4-1.6-1.2-1.8c-0.8-0.1-1.6,0.4-1.8,1.2c-0.1,0.8,0.4,1.6,1.2,1.8
			C379.2,267.2,380,266.7,380.2,265.8z"/>
		<path class="st55" d="M382.7,265.8c0-0.8-0.7-1.5-1.5-1.5c-0.8,0-1.5,0.7-1.5,1.5c0,0.8,0.7,1.5,1.5,1.5
			C382,267.3,382.7,266.6,382.7,265.8z"/>
		<path class="st55" d="M385.2,265.3c-0.1-0.8-0.9-1.4-1.8-1.2c-0.8,0.1-1.4,0.9-1.2,1.8c0.1,0.8,0.9,1.4,1.8,1.2
			C384.8,266.9,385.4,266.1,385.2,265.3z"/>
		<path class="st55" d="M387.6,264.4c-0.3-0.8-1.2-1.2-1.9-0.9c-0.8,0.3-1.2,1.2-0.9,1.9c0.3,0.8,1.2,1.2,1.9,0.9
			C387.5,266.1,387.9,265.2,387.6,264.4z"/>
		<path class="st55" d="M389.8,263.1c-0.4-0.7-1.3-1-2.1-0.6c-0.7,0.4-1,1.3-0.6,2.1c0.4,0.7,1.3,1,2.1,0.6
			C390,264.7,390.2,263.8,389.8,263.1z"/>
		<path class="st55" d="M391.8,261.4c-0.5-0.6-1.5-0.7-2.1-0.2c-0.6,0.5-0.7,1.5-0.2,2.1c0.5,0.6,1.5,0.7,2.1,0.2
			C392.2,263,392.3,262.1,391.8,261.4z"/>
		<path class="st55" d="M393.4,259.4c-0.6-0.5-1.6-0.5-2.1,0.2c-0.5,0.6-0.5,1.6,0.2,2.1c0.6,0.5,1.6,0.5,2.1-0.2
			C394.1,260.9,394,260,393.4,259.4z"/>
		<path class="st55" d="M394.6,257.2c-0.7-0.4-1.7-0.2-2.1,0.6c-0.4,0.7-0.2,1.7,0.6,2.1c0.7,0.4,1.6,0.2,2.1-0.6
			C395.6,258.5,395.3,257.6,394.6,257.2z"/>
		<path class="st55" d="M395.5,254.8c-0.8-0.3-1.7,0.1-1.9,0.9c-0.3,0.8,0.1,1.7,0.9,1.9c0.8,0.3,1.7-0.1,1.9-0.9
			C396.6,255.9,396.2,255,395.5,254.8z"/>
		<path class="st55" d="M395.9,252.2c-0.8-0.1-1.6,0.4-1.8,1.2c-0.1,0.8,0.4,1.6,1.2,1.8c0.8,0.1,1.6-0.4,1.8-1.2
			C397.2,253.2,396.7,252.4,395.9,252.2z"/>
		<path class="st55" d="M395.8,249.7c-0.8,0-1.5,0.7-1.5,1.5c0,0.8,0.7,1.5,1.5,1.5c0.8,0,1.5-0.7,1.5-1.5
			C397.3,250.3,396.7,249.7,395.8,249.7z"/>
	</g>
	<g>
		<path class="st43" d="M362.8,147c20.8,8.4,46.2,16.5,50.9,40.5c3.4,19,1.7,38,3,57c1.7,21.1,5.1,40.1,11,60.8
			c-4.2-22.8-3.4-40.9,0.4-63.3c3-19,3.4-37.6,3.4-56.5c0-23.2-17-54.1-42.4-59.2c-8.1-1.3-14.4,1.6-19.5,7.5
			C366.2,138,362.8,142.4,362.8,147"/>
	</g>
	<path class="st43" d="M369.6,133.8c0,0-51.1-2.8-27.2,116.2H360c0,0-36.9-97.8,8.1-100.8L369.6,133.8z"/>
	<path class="st45" d="M346.2,189.9c-0.8-0.7-1.5-1-2.3-0.8c-2.2,0.5-3,5.1-1.8,10.3c1.2,5.2,3.9,9,6.1,8.5c0.4-0.1,0.7-0.3,0.9-0.6
		C347.6,201.4,346.7,195.3,346.2,189.9z"/>
</g>
</svg>
