<?xml version="1.0" encoding="UTF-8"?>
<svg width="200px" height="200px" viewBox="0 0 200 200" version="1.1" xmlns="http://www.w3.org/2000/svg" xmlns:xlink="http://www.w3.org/1999/xlink">
    <!-- Generator: Sketch 47.1 (45422) - http://www.bohemiancoding.com/sketch -->
    <title>Group 4</title>
    <desc>Created with Sketch.</desc>
    <defs>
        <polygon id="path-1" points="64.6309375 0 0.603045629 0 0.603045629 99.9996875 64.6309375 99.9996875 64.6309375 0"></polygon>
    </defs>
    <g id="Page-1" stroke="none" stroke-width="1" fill="none" fill-rule="evenodd">
        <g id="Predict-disease" transform="translate(-620.000000, -334.000000)">
            <g id="Group-4" transform="translate(620.000000, 334.000000)">
                <circle id="Mask" fill="#F2F2EF" cx="100" cy="100" r="100"></circle>
                <g id="Page-1" transform="translate(67.000000, 50.000000)">
                    <g id="Group-3">
                        <mask id="mask-2" fill="white">
                            <use xlink:href="#path-1"></use>
                        </mask>
                        <g id="Clip-2"></g>
                        <path d="M64.6309375,-0.0003125 C64.6309375,-0.0003125 57.0434375,22.0215625 45.8825,36.529375 C34.723125,51.0371875 36.0621875,53.2684375 40.079375,57.510625 C44.0965625,61.75125 60.3903125,79.10125 62.845,99.9996875 L28.02625,99.9996875 C28.02625,99.9996875 17.7590625,81.83875 13.52,74.6965625 C9.2778125,67.5528125 -1.658125,59.295 1.02,48.5825 C3.698125,37.8684375 4.591875,34.7434375 5.0371875,26.485625 C5.4840625,18.2278125 10.6184375,-0.0003125 10.6184375,-0.0003125 L64.6309375,-0.0003125 Z" id="Fill-1" fill="#FDC77C" mask="url(#mask-2)"></path>
                    </g>
                    <g id="Group-6" transform="translate(0.000000, 27.562500)" fill="#FFFFFF">
                        <path d="M4.95,0.39203125 L40.2140625,16.9326562 C40.2140625,16.9326562 35.215625,25.2264062 44.6578125,35.0451562 L15.6953125,51.6654687 C15.6953125,51.6654687 11.0375,44.2982812 5.3578125,37.8498437 C-0.321875,31.4029687 -1.634375,24.0654687 2.134375,12.6732812 C4.0234375,6.96546875 4.95,0.39203125 4.95,0.39203125" id="Fill-4"></path>
                    </g>
                    <path d="M5.358125,65.4126562 C6.57375,66.7939062 7.7440625,68.2157812 8.83,69.6001562 L39.9159375,55.4626563 C39.589375,54.6126563 39.355,53.7970313 39.1940625,53.0173438 L1.7925,60.0532813 C2.670625,61.9392188 3.858125,63.7095312 5.358125,65.4126562" id="Fill-7" fill="#DBDFE0"></path>
                    <path d="M38.9015625,50.6078125 L1.365625,42.7828125 C-1.253125,52.225 -0.0234375,58.7515625 4.58125,64.4765625 L39.5359375,54.35625 C39.125,53.003125 38.9390625,51.74375 38.9015625,50.6078125" id="Fill-9" fill="#E8E9EA"></path>
                </g>
            </g>
        </g>
    </g>
</svg>