<?xml version="1.0" encoding="UTF-8"?>
<svg width="60px" height="60px" viewBox="0 0 60 60" version="1.1" xmlns="http://www.w3.org/2000/svg" xmlns:xlink="http://www.w3.org/1999/xlink">
    <!-- Generator: Sketch 47.1 (45422) - http://www.bohemiancoding.com/sketch -->
    <title>Page 1</title>
    <desc>Created with Sketch.</desc>
    <defs>
        <circle id="path-1" cx="30" cy="30" r="30"></circle>
        <polygon id="path-3" points="17.314275 15 34.62825 15 34.62825 0.35325 0.0003 0.35325 0.0003 15"></polygon>
    </defs>
    <g id="Page-1" stroke="none" stroke-width="1" fill="none" fill-rule="evenodd">
        <g id="Person-info" transform="translate(-186.000000, -348.000000)">
            <g id="Page-1" transform="translate(186.000000, 348.000000)">
                <mask id="mask-2" fill="white">
                    <use xlink:href="#path-1"></use>
                </mask>
                <use id="Mask" fill="#F2F2EF" xlink:href="#path-1"></use>
                <g mask="url(#mask-2)">
                    <g transform="translate(12.750000, 12.000000)">
                        <path d="M31.862625,14.70645 C31.862625,6.58395 25.348875,0.00045 17.314125,0.00045 C9.279375,0.00045 2.765625,6.58395 2.765625,14.70645 L2.765625,30.45945 C2.765625,31.87245 3.910125,33.0177 5.323875,33.0177 L29.304375,33.0177 C30.717375,33.0177 31.862625,31.87245 31.862625,30.45945 L31.862625,14.7072 L31.862625,14.70645 Z" id="Fill-1" fill="#445C6C"></path>
                        <g id="Group-5" stroke-width="1" fill="none" transform="translate(0.000000, 33.000000)">
                            <mask id="mask-4" fill="white">
                                <use xlink:href="#path-3"></use>
                            </mask>
                            <g id="Clip-4"></g>
                            <path d="M32.11755,5.16525 C31.76655,3.79125 30.6858,2.72175 29.30805,2.3865 L20.96805,0.35325 L13.54905,0.35325 L5.3133,2.382 C3.9393,2.72025 2.8623,3.78825 2.51205,5.15925 L0.0003,15 L34.62855,15 L32.11755,5.16525 Z" id="Fill-3" fill="#FFFFFF" mask="url(#mask-4)"></path>
                        </g>
                        <path d="M17.52405,35.72115 C17.52405,37.21365 16.0038,38.42415 14.12955,38.42415 C12.25455,38.42415 10.7343,37.21365 10.7343,35.72115 C10.7343,34.2279 12.25455,33.01815 14.12955,33.01815 C16.0038,33.01815 17.52405,34.2279 17.52405,35.72115" id="Fill-6" fill="#DBDFE0"></path>
                        <path d="M23.893875,35.72115 C23.893875,37.21365 22.374375,38.42415 20.499375,38.42415 C18.624375,38.42415 17.104125,37.21365 17.104125,35.72115 C17.104125,34.2279 18.624375,33.01815 20.499375,33.01815 C22.374375,33.01815 23.893875,34.2279 23.893875,35.72115" id="Fill-8" fill="#DBDFE0"></path>
                        <path d="M22.128,34.911075 C19.44525,37.102575 15.183,37.102575 12.50025,34.911075 L12.50025,28.673325 L22.128,28.673325 L22.128,34.911075 Z" id="Fill-10" fill="#FDC77C"></path>
                        <path d="M22.1295,9.698175 C18.33225,14.079675 8.66325,15.041175 5.32725,15.245175 L5.32725,19.796925 C5.32725,26.417175 10.6935,31.783425 17.31375,31.783425 C23.934,31.783425 29.30175,26.417175 29.30175,19.796925 L29.30175,14.899425 C24.0675,13.270425 22.1295,9.698175 22.1295,9.698175" id="Fill-12" fill="#FBD984"></path>
                    </g>
                </g>
            </g>
        </g>
    </g>
</svg>