<?xml version="1.0" encoding="UTF-8"?>
<svg width="17px" height="13px" viewBox="0 0 17 13" version="1.1" xmlns="http://www.w3.org/2000/svg" xmlns:xlink="http://www.w3.org/1999/xlink">
    <!-- Generator: Sketch 49 (51002) - http://www.bohemiancoding.com/sketch -->
    <title>Group 5</title>
    <desc>Created with Sketch.</desc>
    <defs></defs>
    <g id="Page-1" stroke="none" stroke-width="1" fill="none" fill-rule="evenodd">
        <g id="Result" transform="translate(-496.000000, -728.000000)" fill-rule="nonzero" stroke="#606062">
            <g id="Group-4" transform="translate(497.000000, 728.000000)">
                <g id="Group-5">
                    <path d="M5.14280556,6.96297222 C5.14280556,6.65541667 5.23672222,6.41927778 5.34577778,6.14519444 C5.46636111,5.8415 5.60325,5.49688889 5.60325,5.03319444 C5.60325,3.49008333 4.58666667,2.37038889 3.18636111,2.37038889 C0.585472222,2.37036111 0,5.74991667 0,6.93333333 C0,7.85186111 0.567111111,11.5555556 3.18636111,11.5555556 C4.58694444,11.5555556 5.60325,10.4358611 5.60325,8.89275 C5.60325,8.42963889 5.46636111,8.08533333 5.34577778,7.78163889 C5.23702778,7.50725 5.14280556,7.27052778 5.14280556,6.96297222 Z" id="Shape"></path>
                    <path d="M12.1946667,2.37036111 C10.7940833,2.37036111 9.77777778,3.49005556 9.77777778,5.03316667 C9.77777778,5.49658333 9.91436111,5.84116667 10.0346667,6.14516667 C10.1434167,6.41925 10.2373333,6.65597222 10.2373333,6.96294444 C10.2373333,7.26991667 10.1436944,7.50752778 10.0346667,7.78191667 C9.91436111,8.08533333 9.77777778,8.42991667 9.77777778,8.89272222 C9.77777778,10.4358333 10.7943611,11.5555278 12.1946667,11.5555278 C14.8133333,11.5555556 15.3801389,7.85186111 15.3801389,6.93333333 C15.3801389,5.74991667 14.7946667,2.37036111 12.1946667,2.37036111 Z" id="Shape"></path>
                    <path d="M7.72014352,10.3012308 L7.72014352,4.39506549 C7.72010185,4.32415544 7.72014352,10.3721409 7.72014352,10.3012308 Z" id="Shape"></path>
                    <path d="M7.72014352,2.78518345 L7.72014352,0.0592609954 C7.72010185,0.0265332815 7.72014352,2.81791116 7.72014352,2.78518345 Z" id="Shape-Copy"></path>
                </g>
            </g>
        </g>
    </g>
</svg>