<svg xmlns="http://www.w3.org/2000/svg" xmlns:xlink="http://www.w3.org/1999/xlink" width="31" height="22" viewBox="0 0 31 22"><defs><path id="nn49a" d="M312 844.5h-3.5"/><path id="nn49b" d="M308.5 832.5h9v5l3 1v6H316"/><path id="nn49c" d="M295.7 844.5h-5.2v-17h18v17h-7.2"/><path id="nn49d" d="M295.5 845.5a3 3 0 1 1 6 0 3 3 0 0 1-6 0z"/><path id="nn49e" d="M311.5 846a2.5 2.5 0 1 1 5 0 2.5 2.5 0 0 1-5 0z"/><path id="nn49f" d="M314.5 837.5h-2v-2"/><path id="nn49g" d="M299.5 832.5v6"/><path id="nn49h" d="M296.5 835.5h6"/></defs><g><g transform="translate(-290 -827)"><g><use fill="#fff" fill-opacity="0" stroke="#444" stroke-miterlimit="50" xlink:href="#nn49a"/></g><g><use fill="#fff" fill-opacity="0" stroke="#444" stroke-miterlimit="50" xlink:href="#nn49b"/></g><g><use fill="#fff" fill-opacity="0" stroke="#444" stroke-miterlimit="50" xlink:href="#nn49c"/></g><g><use fill="#fff" fill-opacity="0" stroke="#444" stroke-linecap="square" stroke-miterlimit="50" xlink:href="#nn49d"/></g><g><use fill="#fff" fill-opacity="0" stroke="#444" stroke-linecap="square" stroke-miterlimit="50" xlink:href="#nn49e"/></g><g><use fill="#fff" fill-opacity="0" stroke="#444" stroke-linecap="square" stroke-miterlimit="50" xlink:href="#nn49f"/></g><g><use fill="#fff" fill-opacity="0" stroke="#444" stroke-linecap="square" stroke-miterlimit="50" xlink:href="#nn49g"/></g><g><use fill="#fff" fill-opacity="0" stroke="#444" stroke-linecap="square" stroke-miterlimit="50" xlink:href="#nn49h"/></g></g></g></svg>