<?xml version="1.0" encoding="UTF-8"?>
<svg width="100px" height="100px" viewBox="0 0 100 100" version="1.1" xmlns="http://www.w3.org/2000/svg" xmlns:xlink="http://www.w3.org/1999/xlink">
    <!-- Generator: Sketch 49 (51002) - http://www.bohemiancoding.com/sketch -->
    <title>Group 10</title>
    <desc>Created with Sketch.</desc>
    <defs>
        <circle id="path-1" cx="50" cy="50" r="50"></circle>
    </defs>
    <g id="Page-1" stroke="none" stroke-width="1" fill="none" fill-rule="evenodd">
        <g id="Solution_page_v1" transform="translate(-769.000000, -1454.000000)">
            <g id="Group" transform="translate(319.000000, 1224.000000)">
                <g id="Card_4" transform="translate(420.000000, 200.000000)">
                    <g id="Group-10" transform="translate(30.000000, 30.000000)">
                        <mask id="mask-2" fill="white">
                            <use xlink:href="#path-1"></use>
                        </mask>
                        <use id="Mask" fill="#EAEAEA" xlink:href="#path-1"></use>
                        <g id="ICON" mask="url(#mask-2)">
                            <g transform="translate(-13.750000, 28.750000)" id="16">
                                <g>
                                    <g id="Group-3" fill-rule="nonzero">
                                        <g id="Group" transform="translate(40.087912, 0.000000)">
                                            <ellipse id="Oval" fill="#2E89AC" cx="25.0549451" cy="25" rx="25.0549451" ry="25"></ellipse>
                                            <path d="M25.0549451,1.86023622 C38.5786969,1.86023622 49.5969542,12.5590551 50.0901618,25.9350394 C50.100026,25.6299213 50.1098901,25.3149606 50.1098901,25.0098425 C50.1098901,11.1909449 38.8943497,0 25.0549451,0 C11.2155404,0 0,11.1909449 0,25 C0,25.3149606 0.0098641516,25.6200787 0.0197283032,25.9251969 C0.512935883,12.5590551 11.5311932,1.86023622 25.0549451,1.86023622 Z" id="Shape" fill="#3B9AB7"></path>
                                            <ellipse id="Oval" fill="#379FC8" cx="25.0549451" cy="25" rx="14.0169594" ry="13.9862205"></ellipse>
                                            <ellipse id="Oval" fill="#445C6C" cx="25.0549451" cy="25" rx="9.52877044" ry="9.50787402"></ellipse>
                                            <path d="M12.557065,25.0787402 C12.557065,25.0787402 12.103314,25.1771654 11.4128234,25.2854331 C11.0675781,25.3444882 10.673012,25.4133858 10.2389894,25.4724409 C9.81483084,25.5413386 9.35121571,25.5905512 8.89746474,25.6496063 C8.44371377,25.6988189 7.98009864,25.8366142 7.55594012,25.8464567 C7.1317816,25.8464567 6.72735139,25.757874 6.38210608,25.6496063 C6.03686078,25.5413386 5.75080038,25.4035433 5.55351735,25.2854331 C5.35623432,25.1673228 5.2378645,25.0787402 5.2378645,25.0787402 C5.18854374,25.0393701 5.18854374,24.9704724 5.22800035,24.9311024 L5.2378645,24.9212598 C5.2378645,24.9212598 5.35623432,24.8228346 5.55351735,24.7145669 C5.75080038,24.5964567 6.03686078,24.4586614 6.38210608,24.3503937 C6.72735139,24.242126 7.12191745,24.1535433 7.55594012,24.1535433 C7.98009864,24.1633858 8.44371377,24.3011811 8.89746474,24.3503937 C9.35121571,24.4094488 9.81483084,24.4586614 10.2389894,24.5275591 C10.6631479,24.5866142 11.0675781,24.6555118 11.4128234,24.7145669 C12.103314,24.8228346 12.557065,24.9212598 12.557065,24.9212598 C12.6063857,24.9311024 12.626114,24.9704724 12.626114,25.019685 C12.6063857,25.0492126 12.5866574,25.0787402 12.557065,25.0787402 Z" id="Shape" fill="#41B3E2"></path>
                                            <path d="M16.2758501,33.8779528 C16.2758501,33.8779528 16.0193822,34.2716535 15.614952,34.8326772 C15.4176689,35.1181102 15.1809293,35.4527559 14.9244614,35.7972441 C14.6679934,36.1515748 14.381933,36.5059055 14.0958726,36.8700787 C13.8098122,37.2244094 13.5829367,37.6476378 13.2870122,37.9527559 C12.9910877,38.257874 12.6359782,38.4744094 12.3203253,38.6417323 C12.0046725,38.8090551 11.6988838,38.9173228 11.4818725,38.9665354 C11.254997,39.0255906 11.1070347,39.0354331 11.1070347,39.0354331 C11.0478498,39.0452756 10.998529,38.996063 10.9886649,38.9370079 L10.9886649,38.9173228 C10.9886649,38.9173228 10.998529,38.769685 11.0577139,38.5433071 C11.1168988,38.3169291 11.2254045,38.0216535 11.3832309,37.7066929 C11.5509215,37.3917323 11.7679329,37.0374016 12.0737216,36.742126 C12.3893744,36.4468504 12.8036688,36.2204724 13.1587782,35.9350394 C13.5237518,35.6496063 13.8788613,35.3641732 14.2339708,35.1082677 C14.5792161,34.8523622 14.9145972,34.6161417 15.2006576,34.4192913 C15.7629143,34.015748 16.1574803,33.7598425 16.1574803,33.7598425 C16.1969369,33.730315 16.2462577,33.75 16.2758501,33.7795276 C16.2955784,33.8188976 16.2857143,33.8484252 16.2758501,33.8779528 Z" id="Shape" fill="#41B3E2"></path>
                                            <path d="M16.1574803,16.2401575 C16.1574803,16.2401575 15.7629143,15.984252 15.2006576,15.5807087 C14.9145972,15.3838583 14.5792161,15.1476378 14.2339708,14.8917323 C13.8788613,14.6358268 13.5237518,14.3503937 13.1587782,14.0649606 C12.8036688,13.7795276 12.3795103,13.5531496 12.0737216,13.257874 C11.7679329,12.9625984 11.5509215,12.6082677 11.3832309,12.2933071 C11.2155404,11.9783465 11.1070347,11.6732283 11.0577139,11.4566929 C10.998529,11.230315 10.9886649,11.0826772 10.9886649,11.0826772 C10.9788007,11.023622 11.0281215,10.9744094 11.0873064,10.9645669 L11.1070347,10.9645669 C11.1070347,10.9645669 11.254997,10.9744094 11.4818725,11.0334646 C11.7087479,11.0925197 12.0046725,11.2007874 12.3203253,11.3582677 C12.6359782,11.5255906 12.9910877,11.742126 13.2870122,12.0472441 C13.5829367,12.3622047 13.8098122,12.7755906 14.0958726,13.1299213 C14.381933,13.4940945 14.6679934,13.8484252 14.9244614,14.2027559 C15.1809293,14.5472441 15.4176689,14.8818898 15.614952,15.1673228 C16.0193822,15.7283465 16.2758501,16.1220472 16.2758501,16.1220472 C16.3054426,16.1614173 16.2857143,16.2106299 16.2561218,16.2401575 C16.2166652,16.2598425 16.1870728,16.25 16.1574803,16.2401575 Z" id="Shape" fill="#41B3E2"></path>
                                            <path d="M20.4483863,36.5944882 C20.4483863,36.5944882 20.369473,37.0570866 20.2116466,37.726378 C20.1425976,38.0610236 20.0538202,38.4645669 19.9453145,38.8779528 C19.846673,39.3011811 19.718439,39.7440945 19.6000692,40.1870079 C19.4718353,40.6299213 19.4323786,41.1023622 19.2844164,41.5059055 C19.1265899,41.8996063 18.8898503,42.234252 18.6629748,42.519685 C18.4360993,42.7952756 18.1993597,43.011811 18.021805,43.1496063 C17.8442502,43.2874016 17.7061521,43.3661417 17.7061521,43.3661417 C17.6568314,43.3956693 17.5877823,43.3759843 17.5581898,43.3267717 C17.5581898,43.3169291 17.5483257,43.3169291 17.5483257,43.3070866 C17.5483257,43.3070866 17.4990049,43.1692913 17.4694125,42.9330709 C17.4299559,42.7066929 17.4102276,42.3917323 17.43982,42.0275591 C17.4694125,41.6732283 17.5384615,41.269685 17.696288,40.8661417 C17.8639785,40.4724409 18.1697672,40.0984252 18.3769144,39.6948819 C18.6037899,39.2913386 18.8208012,38.8877953 19.0378126,38.5137795 C19.2548239,38.1397638 19.4718353,37.7952756 19.64939,37.5 C20.0143636,36.9094488 20.2708315,36.515748 20.2708315,36.515748 C20.300424,36.476378 20.3497447,36.4665354 20.3892013,36.496063 C20.4483863,36.5354331 20.4582504,36.5649606 20.4483863,36.5944882 Z" id="Shape" fill="#41B3E2"></path>
                                            <path d="M13.4349745,20.4035433 C13.4349745,20.4035433 12.9713593,20.3248031 12.300597,20.1673228 C11.9652159,20.0984252 11.5607857,20.0098425 11.1464913,19.9015748 C10.7223328,19.8031496 10.278446,19.6751969 9.83455914,19.5570866 C9.39067232,19.4291339 8.91719304,19.3897638 8.51276283,19.242126 C8.11819676,19.0846457 7.78281561,18.8484252 7.49675521,18.6220472 C7.22055897,18.3956693 7.00354763,18.1594488 6.86544951,17.9822835 C6.72735139,17.8051181 6.64843818,17.6673228 6.64843818,17.6673228 C6.61884572,17.6181102 6.63857402,17.5492126 6.68789478,17.519685 C6.69775893,17.519685 6.69775893,17.5098425 6.70762309,17.5098425 C6.70762309,17.5098425 6.84572121,17.4606299 7.08246085,17.4311024 C7.30933633,17.3917323 7.62498918,17.3720472 7.98996279,17.4015748 C8.34507225,17.4311024 8.74950247,17.5 9.15393268,17.6574803 C9.54849875,17.8248031 9.92333651,18.1299213 10.3277667,18.3366142 C10.7321969,18.5629921 11.1366272,18.7795276 11.5114649,18.996063 C11.8863027,19.2125984 12.231548,19.4291339 12.5274725,19.6062992 C13.1193216,19.9606299 13.5138877,20.226378 13.5138877,20.226378 C13.5533443,20.2559055 13.5632084,20.3051181 13.533616,20.3444882 C13.4941594,20.4035433 13.4645669,20.4133858 13.4349745,20.4035433 Z" id="Shape" fill="#41B3E2"></path>
                                            <path d="M13.5829367,29.9507874 C13.5829367,29.9507874 13.1982348,30.2165354 12.6162499,30.5905512 C12.3203253,30.7775591 11.9849442,31.003937 11.6101064,31.2204724 C11.2451328,31.4468504 10.8407026,31.6732283 10.4461365,31.8996063 C10.0417063,32.1259843 9.67673272,32.4311024 9.2920308,32.6082677 C8.89746474,32.7755906 8.49303452,32.8444882 8.13792507,32.8838583 C7.78281561,32.9232283 7.46716276,32.9035433 7.23042312,32.8740157 C7.00354763,32.8444882 6.85558536,32.8051181 6.85558536,32.8051181 C6.79640045,32.7854331 6.766808,32.726378 6.7865363,32.6771654 C6.7865363,32.6673228 6.7865363,32.6673228 6.79640045,32.6574803 C6.79640045,32.6574803 6.86544951,32.5295276 7.00354763,32.3425197 C7.14164576,32.1555118 7.34879294,31.9192913 7.62498918,31.6830709 C7.90118543,31.4566929 8.22670243,31.2106299 8.63113265,31.0433071 C9.02569871,30.8858268 9.50904214,30.8366142 9.94306481,30.6988189 C10.3869516,30.5708661 10.8209743,30.4429134 11.2451328,30.3346457 C11.6594272,30.226378 12.0539933,30.1279528 12.3992386,30.0492126 C13.0700009,29.8818898 13.533616,29.7933071 13.533616,29.7933071 C13.5829367,29.7834646 13.6223934,29.8129921 13.6322575,29.8622047 C13.6223934,29.9015748 13.6026651,29.9311024 13.5829367,29.9507874 Z" id="Shape" fill="#41B3E2"></path>
                                            <path d="M20.0932768,13.5531496 C20.0932768,13.5531496 19.8269447,13.1692913 19.4521069,12.5885827 C19.2646881,12.2933071 19.0378126,11.9586614 18.8208012,11.5846457 C18.5939258,11.2204724 18.3670503,10.8169291 18.1401748,10.4232283 C17.9132993,10.019685 17.6075106,9.65551181 17.4299559,9.26181102 C17.2622653,8.86811024 17.1932162,8.46456693 17.1537596,8.11023622 C17.114303,7.75590551 17.1340313,7.44094488 17.1636238,7.20472441 C17.1932162,6.97834646 17.2326728,6.83070866 17.2326728,6.83070866 C17.2524011,6.77165354 17.3115861,6.74212598 17.3609068,6.76181102 C17.370771,6.76181102 17.370771,6.76181102 17.3806351,6.77165354 C17.3806351,6.77165354 17.5088691,6.84055118 17.696288,6.97834646 C17.8837068,7.11614173 18.1204465,7.32283465 18.3571861,7.5984252 C18.5840616,7.87401575 18.8306654,8.1988189 18.998356,8.6023622 C19.1561824,8.99606299 19.2055032,9.47834646 19.3436013,9.91141732 C19.4718353,10.3543307 19.6000692,10.7874016 19.7085749,11.2106299 C19.8170806,11.6240157 19.9157221,12.0177165 19.9946353,12.3622047 C20.1623259,13.0314961 20.2511032,13.4940945 20.2511032,13.4940945 C20.2609674,13.5433071 20.2313749,13.5826772 20.1820542,13.5925197 C20.1425976,13.5925197 20.1130051,13.5728346 20.0932768,13.5531496 Z" id="Shape" fill="#41B3E2"></path>
                                            <path d="M24.9760318,12.5295276 C24.9760318,12.5295276 24.8773903,12.0767717 24.7688847,11.3877953 C24.7096997,11.0433071 24.6406507,10.6496063 24.5814658,10.2165354 C24.5124167,9.79330709 24.463096,9.33070866 24.403911,8.87795276 C24.3545903,8.42519685 24.2164922,7.96259843 24.206628,7.53937008 C24.206628,7.11614173 24.2954054,6.71259843 24.403911,6.36811024 C24.5124167,6.02362205 24.6505148,5.73818898 24.7688847,5.54133858 C24.8872545,5.34448819 24.9760318,5.22637795 24.9760318,5.22637795 C25.0154884,5.17716535 25.0845375,5.17716535 25.1239941,5.21653543 L25.1338583,5.22637795 C25.1338583,5.22637795 25.2324998,5.34448819 25.3410055,5.54133858 C25.4593753,5.73818898 25.5974734,6.02362205 25.7059791,6.36811024 C25.8144847,6.71259843 25.9032621,7.10629921 25.9032621,7.53937008 C25.8933979,7.96259843 25.7552998,8.42519685 25.7059791,8.87795276 C25.6467942,9.33070866 25.5974734,9.79330709 25.5284243,10.2165354 C25.4692394,10.6397638 25.4001904,11.0433071 25.3410055,11.3877953 C25.2324998,12.0767717 25.1338583,12.5295276 25.1338583,12.5295276 C25.1239941,12.5787402 25.0845375,12.5984252 25.0352168,12.5885827 C25.0056243,12.5787402 24.9760318,12.5590551 24.9760318,12.5295276 Z" id="Shape" fill="#41B3E2"></path>
                                            <path d="M25.1338583,37.4704724 C25.1338583,37.4704724 25.2324998,37.9232283 25.3410055,38.6122047 C25.4001904,38.9566929 25.4692394,39.3503937 25.5284243,39.7834646 C25.5974734,40.2066929 25.6467942,40.6692913 25.7059791,41.1220472 C25.7552998,41.5748031 25.8933979,42.0374016 25.9032621,42.4606299 C25.9032621,42.8838583 25.8144847,43.2874016 25.7059791,43.6318898 C25.5974734,43.976378 25.4593753,44.261811 25.3410055,44.4586614 C25.2226356,44.6555118 25.1338583,44.773622 25.1338583,44.773622 C25.0944017,44.8228346 25.0253526,44.8228346 24.985896,44.7834646 L24.9760318,44.773622 C24.9760318,44.773622 24.8773903,44.6555118 24.7688847,44.4586614 C24.6505148,44.261811 24.5124167,43.976378 24.403911,43.6318898 C24.2954054,43.2874016 24.206628,42.8937008 24.206628,42.4606299 C24.2164922,42.0374016 24.3545903,41.5748031 24.403911,41.1220472 C24.463096,40.6692913 24.5124167,40.2066929 24.5814658,39.7834646 C24.6406507,39.3602362 24.7096997,38.9566929 24.7688847,38.6122047 C24.8773903,37.9232283 24.9760318,37.4704724 24.9760318,37.4704724 C24.985896,37.4212598 25.0253526,37.4015748 25.0746734,37.4114173 C25.1042658,37.4212598 25.1338583,37.4409449 25.1338583,37.4704724 Z" id="Shape" fill="#41B3E2"></path>
                                            <path d="M37.5528251,24.9212598 C37.5528251,24.9212598 38.0065761,24.8228346 38.6970667,24.7145669 C39.042312,24.6555118 39.4368781,24.5866142 39.8709008,24.5275591 C40.2950593,24.4586614 40.7586744,24.4094488 41.2124254,24.3503937 C41.6661763,24.3011811 42.1297915,24.1633858 42.55395,24.1535433 C42.9781085,24.1535433 43.3825387,24.242126 43.727784,24.3503937 C44.0730293,24.4586614 44.3590897,24.5964567 44.5563728,24.7145669 C44.7536558,24.8326772 44.8720256,24.9212598 44.8720256,24.9212598 C44.9213464,24.9606299 44.9213464,25.0295276 44.8818898,25.0688976 L44.8720256,25.0787402 C44.8720256,25.0787402 44.7536558,25.1771654 44.5563728,25.2854331 C44.3590897,25.4035433 44.0730293,25.5413386 43.727784,25.6496063 C43.3825387,25.757874 42.9879727,25.8464567 42.55395,25.8464567 C42.1297915,25.8366142 41.6661763,25.6988189 41.2124254,25.6496063 C40.7586744,25.5905512 40.2950593,25.5413386 39.8709008,25.4724409 C39.4467422,25.4133858 39.042312,25.3444882 38.6970667,25.2854331 C38.0065761,25.1771654 37.5528251,25.0787402 37.5528251,25.0787402 C37.5035044,25.0688976 37.4837761,25.0295276 37.4837761,24.980315 C37.5035044,24.9507874 37.5232327,24.9212598 37.5528251,24.9212598 Z" id="Shape" fill="#41B3E2"></path>
                                            <path d="M33.9524098,33.7598425 C33.9524098,33.7598425 34.3469759,34.015748 34.9092325,34.4192913 C35.1952929,34.6161417 35.5306741,34.8523622 35.8759194,35.1082677 C36.2310288,35.3641732 36.5861383,35.6496063 36.9511119,35.9350394 C37.3062213,36.2204724 37.7303799,36.4468504 38.0361686,36.742126 C38.3419573,37.0374016 38.5589686,37.3917323 38.7266592,37.7066929 C38.8943497,38.0216535 39.0028554,38.3267717 39.0521762,38.5433071 C39.1113611,38.769685 39.1212252,38.9173228 39.1212252,38.9173228 C39.1310894,38.976378 39.0817686,39.0255906 39.0225837,39.0354331 L39.0028554,39.0354331 C39.0028554,39.0354331 38.8548931,39.0255906 38.6280177,38.9665354 C38.4011422,38.9074803 38.1052176,38.7992126 37.7895648,38.6417323 C37.4739119,38.4744094 37.1188025,38.257874 36.8228779,37.9527559 C36.5269534,37.6377953 36.3000779,37.2244094 36.0140175,36.8700787 C35.7279571,36.5059055 35.4418967,36.1515748 35.1854287,35.7972441 C34.9289608,35.4527559 34.6922212,35.1181102 34.4949381,34.8326772 C34.0905079,34.2716535 33.83404,33.8779528 33.83404,33.8779528 C33.8044475,33.8385827 33.8241758,33.7893701 33.8537683,33.7598425 C33.8932249,33.7401575 33.9228173,33.75 33.9524098,33.7598425 Z" id="Shape" fill="#41B3E2"></path>
                                            <path d="M33.83404,16.1220472 C33.83404,16.1220472 34.0905079,15.7283465 34.4949381,15.1673228 C34.6922212,14.8818898 34.9289608,14.5472441 35.1854287,14.2027559 C35.4418967,13.8484252 35.7279571,13.4940945 36.0140175,13.1299213 C36.3000779,12.7755906 36.5269534,12.3523622 36.8228779,12.0472441 C37.1188025,11.742126 37.4739119,11.5255906 37.7895648,11.3582677 C38.1052176,11.1909449 38.4110063,11.0826772 38.6280177,11.0334646 C38.8548931,10.9744094 39.0028554,10.9645669 39.0028554,10.9645669 C39.0620403,10.9547244 39.1113611,11.003937 39.1212252,11.0629921 L39.1212252,11.0826772 C39.1212252,11.0826772 39.1113611,11.230315 39.0521762,11.4566929 C38.9929913,11.6830709 38.8844856,11.9783465 38.7266592,12.2933071 C38.5589686,12.6082677 38.3419573,12.9625984 38.0361686,13.257874 C37.7205157,13.5531496 37.3062213,13.7795276 36.9511119,14.0649606 C36.5861383,14.3503937 36.2310288,14.6358268 35.8759194,14.8917323 C35.5306741,15.1476378 35.1952929,15.3838583 34.9092325,15.5807087 C34.3469759,15.984252 33.9524098,16.2401575 33.9524098,16.2401575 C33.9129532,16.269685 33.8636324,16.25 33.83404,16.2204724 C33.8143117,16.1811024 33.8241758,16.1515748 33.83404,16.1220472 Z" id="Shape" fill="#41B3E2"></path>
                                            <path d="M29.8094661,36.5354331 C29.8094661,36.5354331 30.0659341,36.9192913 30.4309077,37.519685 C30.6183266,37.8149606 30.8254737,38.1594488 31.0424851,38.5334646 C31.2693606,38.9074803 31.4863719,39.3110236 31.7033832,39.7145669 C31.9203946,40.1181102 32.2163191,40.492126 32.3840097,40.8858268 C32.5517003,41.2795276 32.6108852,41.6830709 32.6404776,42.0472441 C32.6700701,42.4015748 32.6503418,42.7165354 32.6108852,42.9527559 C32.5812927,43.1791339 32.531972,43.3267717 32.531972,43.3267717 C32.5122437,43.3858268 32.4530588,43.4153543 32.3938738,43.3956693 C32.3840097,43.3956693 32.3840097,43.3956693 32.3741455,43.3858268 C32.3741455,43.3858268 32.2459116,43.3169291 32.0584927,43.1692913 C31.8710738,43.0314961 31.6441983,42.8149606 31.4173228,42.5393701 C31.1904473,42.2637795 30.9537077,41.9291339 30.7958813,41.5255906 C30.647919,41.1220472 30.5985983,40.6496063 30.4802284,40.2066929 C30.3618586,39.7637795 30.2336246,39.3208661 30.1349831,38.8976378 C30.0264775,38.4744094 29.9475642,38.0807087 29.868651,37.746063 C29.7108246,37.0669291 29.6319114,36.6141732 29.6319114,36.6141732 C29.6220472,36.5649606 29.6516397,36.5255906 29.7009605,36.515748 C29.7601454,36.496063 29.7897378,36.5059055 29.8094661,36.5354331 Z" id="Shape" fill="#41B3E2"></path>
                                            <path d="M36.6157307,20.2559055 C36.6157307,20.2559055 37.0004326,20 37.6021459,19.6358268 C37.8980704,19.4488189 38.2433157,19.242126 38.6181535,19.0255906 C38.9929913,18.7992126 39.3974215,18.5826772 39.8018517,18.3661417 C40.2062819,18.1496063 40.5811197,17.8543307 40.9756857,17.6870079 C41.3702518,17.519685 41.774682,17.4606299 42.1396556,17.4311024 C42.4947651,17.4015748 42.8104179,17.4212598 43.0471576,17.4606299 C43.2740331,17.4901575 43.4219953,17.5393701 43.4219953,17.5393701 C43.4811802,17.5590551 43.5107727,17.6181102 43.4910444,17.6771654 C43.4910444,17.6870079 43.4910444,17.6870079 43.4811802,17.6968504 C43.4811802,17.6968504 43.4121312,17.8248031 43.2641689,18.011811 C43.1260708,18.1988189 42.9090594,18.4251969 42.6328632,18.6515748 C42.356667,18.8779528 42.0212858,19.1141732 41.6168556,19.2716535 C41.2124254,19.4192913 40.7389461,19.4685039 40.2950593,19.5866142 C39.8511724,19.7047244 39.4072856,19.8326772 38.9831271,19.9311024 C38.5589686,20.0393701 38.1644025,20.1181102 37.8290214,20.1968504 C37.1483949,20.3543307 36.6946439,20.4330709 36.6946439,20.4330709 C36.6453232,20.4429134 36.6058666,20.4133858 36.5960024,20.3641732 C36.5762741,20.3051181 36.5861383,20.2755906 36.6157307,20.2559055 Z" id="Shape" fill="#41B3E2"></path>
                                            <path d="M36.5960024,29.8031496 C36.5960024,29.8031496 37.0596175,29.8917323 37.7303799,30.0590551 C38.065761,30.1377953 38.4603271,30.226378 38.8844856,30.3444882 C39.3086441,30.4527559 39.7426668,30.5807087 40.1865536,30.7086614 C40.6304404,30.8464567 41.1039197,30.8956693 41.4984858,31.0531496 C41.8930518,31.2204724 42.228433,31.4566929 42.5046292,31.6929134 C42.7808255,31.9291339 42.9879727,32.1653543 43.1260708,32.3523622 C43.2641689,32.5393701 43.333218,32.6673228 43.333218,32.6673228 C43.3628104,32.7165354 43.3430821,32.7854331 43.2838972,32.8051181 C43.2740331,32.8051181 43.2740331,32.8149606 43.2641689,32.8149606 C43.2641689,32.8149606 43.1260708,32.8543307 42.8893311,32.8838583 C42.6624557,32.9133858 42.3468028,32.9232283 41.9818292,32.8937008 C41.6267197,32.8543307 41.2222895,32.7854331 40.8277235,32.6181102 C40.4331574,32.4409449 40.0681838,32.1358268 39.6736177,31.9094488 C39.2790517,31.6830709 38.8746214,31.4566929 38.5096478,31.230315 C38.1348101,31.003937 37.7994289,30.7874016 37.5035044,30.6003937 C36.9116553,30.226378 36.5368175,29.9606299 36.5368175,29.9606299 C36.4973609,29.9311024 36.4874968,29.8818898 36.5170892,29.8425197 C36.5269534,29.8129921 36.5565458,29.7933071 36.5960024,29.8031496 Z" id="Shape" fill="#41B3E2"></path>
                                            <path d="M29.868651,13.484252 C29.868651,13.484252 29.9574284,13.0216535 30.125119,12.3523622 C30.2040322,12.0177165 30.2928096,11.6240157 30.4111794,11.2007874 C30.519685,10.7775591 30.647919,10.3444882 30.776153,9.9015748 C30.9142511,9.45866142 30.9635719,8.98622047 31.1213983,8.59251969 C31.2890889,8.1988189 31.5258285,7.86417323 31.7625681,7.58858268 C31.9993078,7.31299213 32.2360474,7.10629921 32.4234663,6.96850394 C32.6108852,6.83070866 32.7391191,6.76181102 32.7391191,6.76181102 C32.7884399,6.73228346 32.857489,6.7519685 32.8772173,6.81102362 C32.8772173,6.82086614 32.8870814,6.82086614 32.8870814,6.83070866 C32.8870814,6.83070866 32.926538,6.96850394 32.9561305,7.20472441 C32.9857229,7.43110236 32.9955871,7.74606299 32.9659946,8.11023622 C32.926538,8.46456693 32.857489,8.86811024 32.6897984,9.26181102 C32.5122437,9.65551181 32.206455,10.019685 31.9795795,10.4232283 C31.752704,10.8169291 31.5258285,11.2204724 31.298953,11.5846457 C31.0720775,11.9586614 30.8550662,12.2933071 30.6676473,12.5885827 C30.2928096,13.1791339 30.0264775,13.5531496 30.0264775,13.5531496 C29.996885,13.5925197 29.9475642,13.6023622 29.9081076,13.5728346 C29.8785152,13.5531496 29.8587869,13.523622 29.868651,13.484252 Z" id="Shape" fill="#41B3E2"></path>
                                            <ellipse id="Oval" fill="#EFF3F5" cx="32.078221" cy="20.0787402" rx="3.0776153" ry="3.07086614"></ellipse>
                                            <ellipse id="Oval" fill="#EFF3F5" cx="20.5470278" cy="28.2086614" rx="1.59799256" ry="1.59448819"></ellipse>
                                        </g>
                                        <g id="Group" transform="translate(63.890110, 27.500000)">
                                            <path d="M44.3310089,8.51669941 C44.3310089,8.51669941 42.8346035,26.7288802 22.6626654,31.0412574 C22.6626654,31.0412574 14.25523,39.8330059 4.0954252,36.0510806 L7.92504156,19.194499 L44.3310089,8.51669941 Z" id="Shape" fill="#D45947"></path>
                                            <path d="M26.1181804,40.4518664 C25.5668732,40.4518664 25.1238585,40.0098232 25.1238585,39.459725 L25.1238585,30.7858546 C25.1238585,29.7937132 24.798981,29.0176817 24.1393812,28.4184676 C22.4067014,26.8467583 18.7346014,26.8172888 17.4744705,26.9449902 C16.9330081,26.9941061 16.4407694,26.6011788 16.3915456,26.0510806 C16.3423217,25.5009823 16.7361126,25.0196464 17.2874198,24.9705305 C17.5138496,24.9508841 22.7512684,24.4793713 25.488115,26.9548134 C26.5808847,27.9371316 27.132192,29.2337917 27.132192,30.7956778 L27.132192,39.4695481 C27.1125024,40.0098232 26.6694877,40.4518664 26.1181804,40.4518664 Z" id="Shape" fill="#FBD984"></path>
                                            <path d="M50.1098901,1.61100196 C50.1098901,1.61100196 45.8274142,17.9862475 29.2586628,19.78389 C29.2586628,19.78389 9.08672467,40.3536346 3.68194477,35.7563851 C-1.72283512,31.1591356 -2.11662601,4.2043222 10.2877869,1.61100196 C22.6921997,-0.982318271 29.2586628,1.61100196 29.2586628,1.61100196 C29.2586628,1.61100196 45.5025368,-1.98428291 50.1098901,1.61100196 Z" id="Shape" fill="#F1786B"></path>
                                            <path d="M10.2877869,3.15324165 C22.6921997,0.559921415 29.2586628,3.15324165 29.2586628,3.15324165 C29.2586628,3.15324165 44.6165073,-0.245579568 49.6964097,2.87819253 C49.9819081,2.09233792 50.1098901,1.61100196 50.1098901,1.61100196 C45.5025368,-1.98428291 29.2586628,1.61100196 29.2586628,1.61100196 C29.2586628,1.61100196 22.6921997,-0.982318271 10.2877869,1.61100196 C2.73684665,3.19253438 -0.0689134049,13.7819253 0.108292493,22.8781925 C0.265808847,14.1650295 3.16017185,4.64636542 10.2877869,3.15324165 Z" id="Shape" fill="#FF8E85"></path>
                                            <path d="M26.1181804,29.2829077 L26.0295775,29.2829077 C25.6160971,29.2337917 25.3207539,28.870334 25.3699778,28.4577603 C26.5218161,18.2318271 18.3605,16.9646365 18.0060882,16.9155206 C17.6024526,16.8565815 17.3169542,16.4833006 17.366178,16.0805501 C17.4252467,15.6777996 17.799348,15.3831041 18.2029837,15.4420432 C18.3014314,15.4518664 28.165893,16.9253438 26.8466936,28.6247544 C26.8171593,28.9980354 26.4922818,29.2829077 26.1181804,29.2829077 Z" id="Shape" fill="#FBD984"></path>
                                            <path d="M23.3813338,19.6365422 C23.2533518,19.6365422 23.1155249,19.6070727 22.9973877,19.5284872 C22.6429759,19.3123772 22.5248386,18.8605108 22.7414236,18.5068762 L25.5964075,13.7524558 C25.8031477,13.3988212 26.265852,13.280943 26.6202638,13.497053 C26.9746756,13.7131631 27.0928129,14.1650295 26.8762279,14.518664 L24.021244,19.2730845 C23.8834172,19.5088409 23.6372979,19.6365422 23.3813338,19.6365422 Z" id="Shape" fill="#FBD984"></path>
                                        </g>
                                        <g id="Group" transform="translate(33.824176, 36.151961) rotate(-23.000000) translate(-33.824176, -36.151961) translate(8.769231, 11.250000)">
                                            <g id="Shape">
                                                <path d="M11.3091144,41.9607843 C9.68791209,41.9607843 8.05688429,41.4509804 6.63219134,40.372549 C2.40723982,37.1960784 0.0196509373,31.5196078 0.0982546865,24.7941176 C0.176858436,18.0196078 2.68235294,12.2254902 6.80904977,9.30392157 C10.5525533,6.6372549 15.6126697,7.7254902 18.0985133,11.7352941 C20.3976729,15.4313725 19.7098901,20.3333333 16.6443439,23.1568627 C16.3495798,24.0588235 16.3004525,25.7156863 16.5460892,26.5588235 C19.7688429,29.4313725 20.4369748,34.5196078 17.9904331,38.254902 C16.3987072,40.6666667 13.8735617,41.9607843 11.3091144,41.9607843 Z" fill="#F1786B"></path>
                                                <path d="M38.8007757,41.9607843 C40.421978,41.9607843 42.0530058,41.4509804 43.4776988,40.372549 C47.7124758,37.1960784 50.0902392,31.5098039 50.0116354,24.7941176 C49.9330317,18.0196078 47.4275372,12.2254902 43.3008403,9.30392157 C39.5573368,6.6372549 34.4972204,7.7254902 32.0113769,11.7352941 C29.7122172,15.4313725 30.4,20.3333333 33.4655462,23.1568627 C33.7603103,24.0588235 33.8094376,25.7156863 33.5638009,26.5588235 C30.3410472,29.4313725 29.6729153,34.5196078 32.119457,38.254902 C33.7111829,40.6666667 36.2363284,41.9607843 38.8007757,41.9607843 Z" fill="#F1786B"></path>
                                                <polygon fill="#FDC77C" points="21.1738849 0 23.8857143 0 23.8857143 49.8039216 21.1738849 49.8039216"></polygon>
                                                <polygon fill="#FDC77C" points="26.2143504 0 28.9261797 0 28.9261797 49.8039216 26.2143504 49.8039216"></polygon>
                                            </g>
                                        </g>
                                    </g>
                                    <polygon id="Shape" fill="#DBDFE0" fill-rule="nonzero" points="10.021978 39.4488189 110.241758 39.4488189 110.241758 100 10.021978 100"></polygon>
                                    <polygon id="Shape" fill="#EAEAEA" fill-rule="nonzero" points="10.021978 39.4488189 110.241758 39.4488189 110.241758 42.4409449 10.021978 42.4409449"></polygon>
                                    <polygon id="Shape" fill="#F1786B" fill-rule="nonzero" points="79.2880505 75.8267717 66.5435667 75.8267717 66.5435667 63.1102362 53.7201696 63.1102362 53.7201696 75.8267717 40.9756857 75.8267717 40.9756857 88.6023622 53.7201696 88.6023622 53.7201696 101.338583 66.5435667 101.338583 66.5435667 88.6023622 79.2880505 88.6023622"></polygon>
                                </g>
                            </g>
                        </g>
                    </g>
                </g>
            </g>
        </g>
    </g>
</svg>