<?xml version="1.0" encoding="UTF-8"?>
<svg width="100px" height="100px" viewBox="0 0 100 100" version="1.1" xmlns="http://www.w3.org/2000/svg" xmlns:xlink="http://www.w3.org/1999/xlink">
    <!-- Generator: Sketch 47.1 (45422) - http://www.bohemiancoding.com/sketch -->
    <title>Group 4</title>
    <desc>Created with Sketch.</desc>
    <defs>
        <circle id="path-1" cx="50" cy="50" r="50"></circle>
    </defs>
    <g id="Page-1" stroke="none" stroke-width="1" fill="none" fill-rule="evenodd">
        <g id="Person-info" transform="translate(-570.000000, -756.000000)">
            <g id="Group-4" transform="translate(570.000000, 756.000000)">
                <g id="Page-1">
                    <mask id="mask-2" fill="white">
                        <use xlink:href="#path-1"></use>
                    </mask>
                    <use id="Mask" fill="#F2F2EF" xlink:href="#path-1"></use>
                </g>
                <g id="Page-1" transform="translate(28.000000, 18.000000)">
                    <g id="Group-3" transform="translate(0.000000, 19.000000)" fill="#FFFFFF">
                        <path d="M44.7809,22.6094 C44.7809,34.9754 34.7569,45.0004 22.3899,45.0004 C10.0239,45.0004 -0.0001,34.9754 -0.0001,22.6094 C-0.0001,10.2434 10.0239,0.2184 22.3899,0.2184 C34.7569,0.2184 44.7809,10.2434 44.7809,22.6094" id="Fill-1"></path>
                    </g>
                    <path d="M1.9626,42.9156 C2.6396,53.5986 11.5396,62.0836 22.3906,62.0836 C33.2406,62.0836 42.1426,53.5986 42.8186,42.9156 L1.9626,42.9156 Z" id="Fill-4" fill="#FBD984"></path>
                    <polygon id="Fill-6" fill="#FFFFFF" points="15.86 27.429 28.922 27.429 28.922 4.851 15.86 4.851"></polygon>
                    <polygon id="Fill-8" fill="#DBDFE0" points="12.315 4.851 32.466 4.851 32.466 0 12.315 0"></polygon>
                    <path d="M25.9977,30.6055 C25.9977,31.8255 25.0087,32.8145 23.7877,32.8145 C22.5677,32.8145 21.5787,31.8255 21.5787,30.6055 C21.5787,29.3855 22.5677,28.3965 23.7877,28.3965 C25.0087,28.3965 25.9977,29.3855 25.9977,30.6055" id="Fill-9" fill="#F2F2EF"></path>
                    <path d="M24.8073,49.7364 C24.8073,51.0974 23.7043,52.2004 22.3433,52.2004 C20.9823,52.2004 19.8783,51.0974 19.8783,49.7364 C19.8783,48.3754 20.9823,47.2724 22.3433,47.2724 C23.7043,47.2724 24.8073,48.3754 24.8073,49.7364" id="Fill-10" fill="#FFFFFF"></path>
                    <path d="M17.8395,36.6392 C17.8395,37.6252 17.0395,38.4242 16.0545,38.4242 C15.0685,38.4242 14.2705,37.6252 14.2705,36.6392 C14.2705,35.6532 15.0685,34.8542 16.0545,34.8542 C17.0395,34.8542 17.8395,35.6532 17.8395,36.6392" id="Fill-11" fill="#F2F2EF"></path>
                    <path d="M27.4704,12.4283 C27.4704,13.8313 26.3334,14.9683 24.9304,14.9683 C23.5284,14.9683 22.3904,13.8313 22.3904,12.4283 C22.3904,11.0263 23.5284,9.8883 24.9304,9.8883 C26.3334,9.8883 27.4704,11.0263 27.4704,12.4283" id="Fill-12" fill="#F2F2EF"></path>
                </g>
            </g>
        </g>
    </g>
</svg>