<?xml version="1.0" encoding="utf-8"?>
<!-- Generator: Adobe Illustrator 21.0.2, SVG Export Plug-In . SVG Version: 6.00 Build 0)  -->
<svg version="1.1" id="Layer_1" xmlns="http://www.w3.org/2000/svg" xmlns:xlink="http://www.w3.org/1999/xlink" x="0px" y="0px"
	 viewBox="0 0 841.9 526.7" style="enable-background:new 0 0 841.9 526.7;" xml:space="preserve">
<style type="text/css">
	.st0{opacity:0.5;fill:#DCE0E1;}
	.st1{opacity:0.5;fill:#304D5A;}
	.st2{fill:#FAD985;}
	.st3{fill:#F3796C;}
	.st4{fill:#E0685F;}
	.st5{opacity:0.2;fill:#425C6D;}
	.st6{fill:#DCE0E1;}
	.st7{fill:#F2F1EF;}
	.st8{fill:#F9D075;}
	.st9{fill:#314855;}
	.st10{fill:#2B414A;}
	.st11{fill:#61C3AC;}
	.st12{fill:#425C6D;}
	.st13{fill:#3D5461;}
	.st14{fill:#ECB96D;}
	.st15{fill:#DC9D4D;}
	.st16{fill:#8C7E84;}
	.st17{fill:#706769;}
	.st18{fill:#F0CD81;}
	.st19{fill:#B76C36;}
	.st20{fill:#AA6635;}
	.st21{fill:#788E9B;}
	.st22{fill:#657B85;}
	.st23{fill:#F1F3F4;}
	.st24{fill:#807479;}
	.st25{fill:#E6E7E7;}
	.st26{fill:#D2D3D3;}
	.st27{fill:#56C0A4;}
	.st28{opacity:0.1;fill:#42B5E1;}
	.st29{fill:#5D4349;}
	.st30{fill:#B3B7BA;}
	.st31{fill:#BDC3C7;}
	.st32{fill:#EBECED;}
	.st33{fill:#C03B2B;}
	.st34{fill:#2D3F50;}
	.st35{opacity:0.15;fill:#F1F3F4;}
	.st36{fill:#50B1A9;}
	.st37{fill:#469F93;}
	.st38{fill:#42B5E1;}
	.st39{fill:#22A9D3;}
	.st40{fill:#2791B2;}
	.st41{fill:#33A0CA;}
</style>
<g>
	<path class="st0" d="M740.1,335.8c-4.1-15.3-14.6-24.2-31.3-38.1c-29.3-24.3-41.8-20.6-60.5-42.2c-7.3-8.5-21.7-25-18.6-43.1
		c2.2-12.7,11-13.7,19-31.3c2.2-4.8,11.4-24.8,5.9-45.8c-5.6-21.3-23.3-32.8-40.4-44c-7.2-4.7-23.4-15-46.7-19
		c-17.7-3.1-27.2-0.3-53,1.8c-8,0.7-40.9,3.2-64.8,1.4c-49.1-3.8-52.2-25.3-106.1-35.4c-18.9-3.5-47.7-8.5-81.6,1.4
		c-15,4.4-60.4,17.7-78.9,59.8c-2,4.6-14.2,33.5-4.5,64.4c7.8,24.8,22.2,27.1,25.4,50.3c2.6,18.4-3.4,38.9-15.9,52.6
		c-3.8,4.2-8.5,8-43.1,22.7c-41.1,17.4-47.2,17.4-53.5,25.8c-12.2,16.3-6.5,39.2-0.9,61.7c4.1,16.5,14.1,56.9,53,84.3
		c23.4,16.5,47.3,21.2,61.7,22.7l420.6-1.1c14.4,0,28.2-6,38.1-16.4c5.9-6.2,12.5-13.2,19.6-21c33.7-36.8,41.3-48.7,46.9-61.2
		C737.5,370.7,745,354.3,740.1,335.8z"/>
	<path class="st1" d="M272.5,53.3h-55.7c-1.3,0-2.4,1.1-2.4,2.4V100c0,1.3,1.1,2.4,2.4,2.4h55.7c1.3,0,2.4-1.1,2.4-2.4V55.7
		C274.9,54.4,273.8,53.3,272.5,53.3z"/>
	<path class="st1" d="M272.5,117.5h-55.7c-1.3,0-2.4,1.1-2.4,2.4v44.3c0,1.3,1.1,2.4,2.4,2.4h55.7c1.3,0,2.4-1.1,2.4-2.4v-44.3
		C274.9,118.6,273.8,117.5,272.5,117.5z"/>
	<path class="st2" d="M528.1,229.6L528.1,229.6c5.7-1.6,11.8-0.1,16.1,4l10.6,10.2l7.7,4.6l-8.6,9.2l-9.4-4.5L528.1,229.6z"/>
	<path class="st3" d="M657.1,226.1L657.1,226.1c8.8,0.4,14.9,9,12.4,17.5v0c-2.2,7.4-6.2,14.1-11.7,19.5l-38.1,37.5
		c-4.4,4.3-11.3,4.7-16.1,0.8l-54.8-44.5l9.2-12.7l48.3,30.7l40.2-44.2C649.1,227.6,653,225.9,657.1,226.1z"/>
	<path class="st4" d="M617.4,302.2c0.8-0.5,1.6-1.1,2.2-1.7l37.4-36.8l-7.1-35.2c-0.1-0.2-0.1-0.5-0.2-0.7c-1.2,0.7-2.4,1.6-3.3,2.7
		l-32.6,35.9L617.4,302.2z"/>
	<polygon class="st5" points="318.6,89 311.7,89 310.1,292.5 318.6,292.5 	"/>
	<ellipse class="st6" cx="403.3" cy="481.2" rx="372.3" ry="11.8"/>
	<path class="st7" d="M618.3,259.4l4,39.6c0.1,1,1.3,1.5,2.1,0.8l38-37.2l-7.5-37.6c-0.4-1.9-2.8-2.6-4.1-1.2l-31.7,33.8
		C618.5,258,618.2,258.7,618.3,259.4z"/>
	<path class="st6" d="M658.1,221.6l-31.6,29.3c-1.2,7.3-1.6,14.8-1.2,22.4c0.5,7.8,1,16.2,1.5,24.5l37.3-36.6L658.1,221.6z"/>
	<path class="st2" d="M174.9,331.4L132,357.2l70.9,11.6l33.1-16.9l41.2,82.4l11.7-3.4l-30-95c-4.5-14.1-19.2-22.2-33.5-18.3
		L174.9,331.4z"/>
	<path class="st8" d="M282.5,410.9L282.5,410.9c-5.6,1.6-11.5-1-14.1-6.1l-36.7-73.5l-33.1,16.9l-40.7-6.7L132,357.2l70.9,11.6
		l33.1-16.9l41.2,82.4l11.7-3.4L282.5,410.9z"/>
	<path class="st8" d="M255.3,365.8c1.3-6.2,0.2-12.7-3.3-18c-0.1-0.1-0.1-0.2-0.2-0.3c-1.8-2.6-5.3-3.3-7.9-1.6
		c-10.6,6.8-21.6,13-32.8,18.8l24.8-12.7v0l15.8,31.5L255.3,365.8z"/>
	<polygon class="st2" points="167.9,220.3 163.4,238 145.5,227.6 148.4,211.2 	"/>
	<polygon class="st8" points="148.5,227.6 151.2,212.5 148.4,211.2 145.5,227.6 163.4,238 163.8,236.4 	"/>
	<polygon class="st8" points="157.5,215.4 167.9,220.3 166.2,227 151.4,214.8 	"/>
	<path class="st9" d="M285.7,413.5l2.3,8.3l15.5-0.9c1.5-0.1,3,0.5,4.1,1.7l0,0c2.2,2.6,1.3,6.6-1.9,7.9l-22.6,9.1
		c-2.2,0.9-4.7,0.1-5.9-2l-10.8-17.6L285.7,413.5z"/>
	<path class="st10" d="M307.6,425.5l-22.6,9.1c-2.2,0.9-4.7,0.1-5.9-2l-8.7-14l-4,1.3l10.8,17.6c1.2,2,3.7,2.8,5.9,2l22.6-9.1
		c2.3-0.9,3.4-3.3,3-5.5C308.4,425.1,308,425.3,307.6,425.5z"/>
	<path class="st2" d="M149.8,368.8L149.8,368.8c3.1-3.6,4-8.5,2.4-13l-3.8-11.1l-0.8-7.1l-9.5,3.2l0.2,8.3L149.8,368.8z"/>
	<path class="st2" d="M147.6,337.7l-3.9-49.6l13-39.2c1-3.1,0.5-6.5-1.5-9.1l0,0c-3.5-4.5-10.1-5.1-14.4-1.3l0,0
		c-4.2,3.8-7.1,8.9-8.3,14.5l-7.8,38.3l13.3,49.4L147.6,337.7z"/>
	<path class="st2" d="M177.8,335.6l-26-6.1v42.7l76.4,4.8l0.7,74.2l14.1,3.9l7.6-89c1.1-12.3-7.3-23.4-19.3-25.8l-35.9-7.3
		L177.8,335.6z"/>
	<path class="st8" d="M233.1,438.3l-0.6-63.7l-76.4-4.8v-39.3l-4.2-1v42.7l76.4,4.8l0.7,74.2l14.1,3.9l0.3-3.5l0,0
		C237.3,450,233.1,444.6,233.1,438.3z"/>
	<path class="st9" d="M244.9,454.5l-1.4,6.3l14.6,4.9c1.5,0.5,2.7,1.7,3.1,3.2l0,0c1,3.2-1.5,6.5-4.9,6.4l-24-0.9
		c-2.5-0.1-4.6-2.1-4.7-4.7l-0.6-19L244.9,454.5z"/>
	<path class="st10" d="M259.9,472.3l-24-0.9c-2.5-0.1-4.6-2.1-4.7-4.7l-0.4-15.2l-3.7-0.8l0.6,19c0.1,2.5,2.1,4.6,4.7,4.7l24,0.9
		c2.2,0.1,4-1.3,4.8-3.1C260.7,472.3,260.3,472.3,259.9,472.3z"/>
	<path class="st2" d="M153.5,201.6v-9.8c0-1.5-0.6-2.9-1.7-3.9v0c-2-1.8-5.1-1.8-7.1,0l-1,0.9c-1.3,1.2-2.2,2.9-2.4,4.6v0
		c-0.4,2.6,0.6,5.1,2.5,6.9l0,0c1.5,1.4,2.9,3,4.1,4.7l1.6,2.4c0.5,0.7,0.9,1.5,1.1,2.4l0,0l1.4,3L153.5,201.6z"/>
	<path class="st2" d="M174.9,331.4L132,357.2l70.9,11.6l8.2-4.2c16.5-8.5,32.5-18,47.7-28.7l0,0c-4.5-14.1-19.2-22.2-33.5-18.3
		L174.9,331.4z"/>
	<path class="st11" d="M177.3,332.5c0-0.5,0.7-24.1,1-37.8c0.2-6.3,1-12.6,2.5-18.8l0,0c2.6-10.9-0.2-22.4-7.6-30.8l-9-10.3
		l-18.4-9.1l0,0c-7.4,7-11.9,16.6-12.4,26.8l-4.3,76.8L177.3,332.5z"/>
	<polygon class="st8" points="243.9,345.9 233.2,359 247.3,351.5 250.5,349.3 248.5,346.4 	"/>
	<path class="st12" d="M129.1,329.3l48.2,1.4L224,318l2.1-0.6l1.4-0.3l1.5-0.2l1.2-0.1l2.2-0.1l2.9,0l2,7.7
		c2.7,10.3,3.2,20.9,1.7,31.4v0c-0.7,5-2.5,9.8-5.1,14.2l-0.4,0.6c-4.2,7.1-6.1,15.3-5.3,23.6l0,0l-5.8-3.1
		c-19.4-10.3-40.7-16.3-62.6-17.8l-8.6-0.6c-13-0.9-23-11.9-22.6-25L129.1,329.3z"/>
	<g>
		<polygon class="st13" points="171.3,330.7 171.9,330.5 129.1,329.3 129.1,329.4 		"/>
		<path class="st13" d="M237.2,324.4l-2-7.7l-2.9,0l-2.2,0.1l-0.9,0.1l1.9,7.5c2.7,10.3,3.2,20.9,1.7,31.4c-0.7,5-2.5,9.8-5.1,14.2
			l-0.4,0.6c-3.7,6.1-5.5,13.2-5.5,20.3c0.1,0.1,0.3,0.1,0.4,0.2l5.8,3.1c-0.8-8.2,1.1-16.5,5.3-23.6l0.4-0.6
			c2.6-4.3,4.3-9.2,5.1-14.2C240.4,345.3,239.9,334.6,237.2,324.4z"/>
	</g>
	<polygon class="st14" points="105.5,482.5 96,482.5 121.4,398.8 135.9,398.8 	"/>
	<polygon class="st14" points="230,482.5 239.6,482.5 201,398.8 186.6,398.8 	"/>
	<polygon class="st15" points="201,398.8 186.6,398.8 199.1,422.9 212.2,422.9 	"/>
	<polygon class="st15" points="114.1,422.9 127.1,422.9 135.9,398.8 121.4,398.8 	"/>
	<path class="st16" d="M95,269.7l16.4-3.7c5.2-1.2,10.2,2.5,10.7,7.8l8.5,91.8l-31.2-0.3l-11.3-85.8C87.6,275,90.5,270.7,95,269.7z"
		/>
	<path class="st17" d="M96.3,312.7l29.9,6.1l4.4,46.8l-31.2-0.3l-6.9-52.7C93.7,312.4,95,312.4,96.3,312.7z"/>
	<path class="st2" d="M181.1,182.5l-1.9,13.4l3.5,5.4c0.8,1.2,0.1,2.8-1.4,3.1l-1.8,0.3c-0.9,0.1-1.5,0.8-1.7,1.7l-1.6,11.5
		c-0.5,3.5-4,5.6-7.3,4.5l-17.8-6.1l-3.5-1.3c0,0-6.5-26.2-6.2-26.7c0.3-0.5,11.2-15,11.6-14.5C153.5,174.3,181.1,182.5,181.1,182.5
		z"/>
	<path class="st18" d="M182.7,201.3l-3.5-5.4l1.9-13.4c0,0-27.6-8.2-28-8.7c-0.1-0.1-0.5,0.3-1.1,0.9c6.9,2.3,25.4,7.7,25.4,7.7
		l-1.9,13.4l3.5,5.4c0.8,1.2,0.1,2.8-1.4,3.1l-1.8,0.3c-0.9,0.1-1.5,0.8-1.7,1.7l-1.6,11.5c-0.3,2.2-1.8,3.8-3.7,4.5l0,0
		c3.3,1.1,6.8-1,7.3-4.5l1.6-11.5c0.1-0.9,0.8-1.6,1.7-1.7l1.8-0.3C182.8,204.1,183.5,202.5,182.7,201.3z"/>
	<path class="st19" d="M181.2,192.9L181.2,192.9c5.8-5.9,6.5-15.2,1.6-21.9l0,0c-1.2-1.6-2.6-3-4.3-4.1c-1-0.7-2.3-1.5-3.6-2.4
		c-7-4.7-15.3-6.9-23.7-6.4l-0.2,0c-4.3,0.3-8.3,1.6-11.9,3.8c-0.5,0.3-0.9,0.6-1.4,0.9c-5.4,3.3-9.3,8.6-10.8,14.7l-0.1,0.4
		c-1.6,6.2-0.8,12.8,2.3,18.5l0.1,0.2c2.1,3.8,4.9,7.2,8.3,9.9c4.6,3.7,10.4,8.5,10.4,8.5l3.5-4l-3.6-11.7c-0.3-1,0-2.1,0.8-2.8l0,0
		c1.2-1,3-0.7,3.9,0.6l1.7,2.6l0.1,4.1c0.1,3.8,1.4,7.5,3.8,10.4l0.7,0.9l-0.1-0.5c-1-4.1-0.4-8.4,1.5-12.1l0,0l-0.5,3.6
		c-0.3,2.6-0.2,5.3,0.3,7.9l0,0c0.7,3.7,2.3,7.2,4.6,10.3l1.1,1.5l-1.1-3.5c-1.5-4.6-1.8-9.4-0.9-14.1v0c0.6-3.6,1.5-7.1,2.6-10.5h0
		c1.1-3.3,3-6.2,5.7-8.4l0,0c1.1-0.9,2.4-1.7,3.7-2.4l1.7-0.8l0,0c-0.9,1.8-2.2,3.4-3.8,4.6l-2.2,1.7l0.2,0c3.7-0.6,7-2.6,9.3-5.5
		l0,0l-0.4,1.4c-0.6,2.3-1.6,4.4-3,6.3l0,0l0.5,0C179.1,194.3,180.3,193.8,181.2,192.9z"/>
	<g>
		<path class="st20" d="M179.5,190.5c1.6-1.2,2.9-2.8,3.8-4.6l-1.7,0.8c-0.4,0.2-0.7,0.4-1.1,0.6l-0.2,0.7
			C180.1,188.9,179.8,189.8,179.5,190.5L179.5,190.5z"/>
		<path class="st20" d="M177.9,189.2L177.9,189.2c-0.4,0.3-0.7,0.6-1,1c1-0.6,1.9-1.4,2.8-2.2C179,188.3,178.4,188.7,177.9,189.2z"
			/>
		<path class="st20" d="M143.4,206.5c-3.4-2.7-6.2-6.1-8.3-9.9l-0.1-0.2c-3.1-5.6-3.9-12.3-2.3-18.5l0.1-0.4
			c1.6-6.1,5.5-11.4,10.8-14.7c0.5-0.3,1-0.6,1.4-0.9c3.5-2.1,7.4-3.4,11.5-3.7c-1.8-0.1-3.6-0.2-5.4-0.1l-0.2,0
			c-4.3,0.3-8.3,1.6-11.9,3.8c-0.5,0.3-0.9,0.6-1.4,0.9c-5.4,3.3-9.3,8.6-10.8,14.7l-0.1,0.4c-1.6,6.2-0.8,12.8,2.3,18.5l0.1,0.2
			c2.1,3.8,4.9,7.2,8.3,9.9c4.6,3.7,10.4,8.5,10.4,8.5l2.6-2.9C148.3,210.4,145.7,208.3,143.4,206.5z"/>
		<path class="st20" d="M178.8,191.9c-0.4,0.9-0.9,1.7-1.5,2.5l0.5,0c1.3,0,2.5-0.6,3.4-1.5l0,0c1-1,1.9-2.2,2.6-3.4
			C182.3,190.6,180.6,191.4,178.8,191.9z"/>
	</g>
	<path class="st6" d="M671.3,242.3L671.3,242.3c2.5-8.5-3.6-17-12.4-17.5c-4-0.2-8,1.4-10.7,4.4l-22,24.3
		c-0.9,6.5-1.2,13.1-0.8,19.8c0.4,6.7,0.8,13.8,1.3,20.9l32.9-32.4C665,256.3,669.1,249.6,671.3,242.3z"/>
	<path class="st12" d="M529.1,456.6l-2.4,5.2l-5.4,0.4c-7.4,0.6-14.6,2.9-21,6.8l0,0c-0.8,0.5-1.3,1.2-1.5,2.1l0,0
		c-0.5,2.2,1.2,4.3,3.4,4.2l31.3-1.2c2.1-0.1,3.9-1.5,4.5-3.6l4.5-16.5L529.1,456.6z"/>
	<path class="st21" d="M573.7,358.9l-18.2,5.3c-5.1,1.5-8.9,5.6-10.1,10.7l-19.3,83.4h16.6l25.4-60.8l5.5-0.6V358.9z"/>
	<path class="st22" d="M557.6,368.5l-3.1,61.7l13.7-32.8l5.5-0.6v-37.9l-14.8,4.3C558.1,364.8,557.6,366.6,557.6,368.5z"/>
	<path class="st12" d="M559.8,462.7v5.2l-4.2,0.4c-7.4,0.7-14.6,3-21,6.8l0,0c-0.8,0.5-1.3,1.2-1.6,2.1l0,0
		c-0.5,2.2,1.2,4.3,3.4,4.2l32-1.2c2.6-0.1,4.7-2.2,4.7-4.8v-15.3L559.8,462.7z"/>
	<path class="st10" d="M569.5,460.8v14.6c0,2.6-2.1,4.7-4.7,4.8l-29.3,1.1c0.3,0.1,0.6,0.1,0.9,0.1l32-1.2c2.6-0.1,4.7-2.2,4.7-4.8
		v-15.3L569.5,460.8z"/>
	<path class="st21" d="M557.5,464.3h16.6l15.1-79l80.7-6.1c13.3-0.9,23.7-12,23.7-25.4v-13l-60.5,4l-58.8,10
		c-6.7,1.1-11.7,6.8-12.1,13.6L557.5,464.3z"/>
	<path class="st10" d="M538.6,454.8l-4.3,15.8c-0.6,2-2.4,3.5-4.5,3.6l-28.6,1.1c0.3,0.1,0.6,0.1,1,0.1l31.3-1.2
		c2.1-0.1,3.9-1.5,4.5-3.6l4.5-16.5L538.6,454.8z"/>
	<path class="st22" d="M688.9,341.1v12.7c0,13.4-10.4,24.5-23.7,25.4l-73.1,5.6c-4.5,0.3-8.2,3.7-9.1,8.1l-13.7,71.5h4.8l15.1-79
		l80.7-6.1c13.3-0.9,23.7-12,23.7-25.4v-13L688.9,341.1z"/>
	<polygon class="st2" points="671,228.3 647.5,228.3 647.5,188.5 673.5,186.1 673,190 672.5,206.1 	"/>
	<polygon class="st8" points="669.2,186.5 668.7,190 668.2,206.1 666.7,228.3 671,228.3 672.5,206.1 673,190 673.5,186.1 	"/>
	<polygon class="st8" points="647.5,189.9 647.5,204.5 665.8,199.5 671,189.9 	"/>
	<path class="st2" d="M635.6,145.7v17.6l-5.6,14.3c-0.7,1.9,0.7,4,2.7,4l0,0c1.6,0,2.9,1.3,2.9,2.9v7.3c0,4.7,3.8,8.5,8.5,8.5h0.9
		l27.4-0.8l0.5-53.7H635.6z"/>
	<path class="st12" d="M679.8,134.4c-1.3-0.3-2.7-0.3-4-0.2c-6.8,0.6-18.1,1.5-24,2c-2.5,0.2-4.9-0.6-6.8-2.3l-0.1-0.1
		c-4.3-3.8-11-2.6-13.7,2.4l-1,1.9c-1.5,2.7-1.5,6,0.1,8.8l5.3,9.5l18.9-0.5c3.1-0.1,5.5,2.8,5,5.8l-1.1,5.8
		c-0.2,0.8,0.3,1.7,1.1,2.1l0,0c0.9,0.4,2,0,2.4-0.9c0.6-1.3,1.4-2,2.4-2c1.9,0,3.4,3.2,3.4,7.2c0,2.5-0.6,4.7-1.6,6l0,0L673,190
		l2.8-3c5.7-6.1,9.8-13.6,11.9-21.8l3.4-13.4C693.1,144.2,688.5,136,679.8,134.4z"/>
	<g>
		<path class="st13" d="M679.8,134.4c-1.3-0.3-2.7-0.3-4-0.2c-6.8,0.6-18.1,1.5-24,2c-2.5,0.2-4.9-0.6-6.8-2.3l-0.1-0.1
			c-3.6-3.2-8.9-2.9-12.1,0.3c2.5-0.4,5.2,0.3,7.3,2.1l0.1,0.1c1.9,1.7,4.3,2.5,6.8,2.3c5.9-0.5,17.2-1.4,24-2
			c1.3-0.1,2.7-0.1,4,0.2c8.6,1.7,13.2,9.8,11.3,17.4l-3.4,13.4c-2,7.7-5.7,14.8-11,20.8l1.1,1.6l2.8-3c5.7-6.1,9.8-13.6,11.9-21.8
			l3.4-13.4C693.1,144.2,688.5,136,679.8,134.4z"/>
	</g>
	<path class="st2" d="M581.2,355.7L581.2,355.7c0.4-5.9,3.8-11.2,9.1-13.8l13.1-6.6l6.9-5.7l5.8,11.2l-7.4,7.4L581.2,355.7z"/>
	<polygon class="st14" points="717,482.5 726.6,482.5 701.2,398.8 686.7,398.8 	"/>
	<polygon class="st14" points="592.5,482.5 583,482.5 621.5,398.8 636,398.8 	"/>
	<polygon class="st15" points="621.5,398.8 636,398.8 623.5,422.9 610.4,422.9 	"/>
	<polygon class="st15" points="708.5,422.9 695.4,422.9 686.7,398.8 701.2,398.8 	"/>
	<path class="st23" d="M632.9,350.6c0-1-2.6-43.7-4.5-76c-1.4-23,5.3-45.8,18.8-64.5h0l25.2-4h0c9.3,8.8,14.9,20.9,15.5,33.7
		l5.4,106.8L632.9,350.6z"/>
	<path class="st6" d="M631.7,330l41.7-24.6c3.6-2.1,5.8-6.1,5.7-10.3l-1.7-47.6c-0.2-5.9-3.1-11.3-7.9-14.8l0,0
		c-8.1-5.9-19.6-2.7-23.4,6.6v0c-1,2.4-1.4,5.1-1,7.7l6.6,45.7l-17.1,12.9l-4.2,3.1C630.5,308.7,631.3,323.4,631.7,330z"/>
	<path class="st6" d="M655.3,285l1.3,11.9l-26.7,18.8c1,9.1,1.9,16.8,2.5,21.8l45.9-28.3c3-1.8,4.7-5.1,4.6-8.6l-1.1-34
		C673.8,271.7,665.9,278.3,655.3,285z"/>
	<path class="st3" d="M649.8,241.1L649.8,241.1c3.8-9.3,15.3-12.6,23.4-6.6h0c4.8,3.5,7.7,8.9,7.9,14.8l1.7,47.6
		c0.1,4.2-2,8.2-5.7,10.3l-62.7,36.9l-8.9-12.9l48.6-36.7l-5.4-45.7C648.4,246.2,648.8,243.6,649.8,241.1z"/>
	<path class="st6" d="M677.4,247.5c-0.2-5.9-3.1-11.3-7.9-14.8c-8.1-5.9-19.6-2.7-23.4,6.6l0,0c-1,2.4-1.4,5.1-1,7.7l3.9,33.1
		l29.7,4.5L677.4,247.5z"/>
	<path class="st23" d="M681.1,249.3c-0.2-5.9-3.1-11.3-7.9-14.8l0,0c-9.6-7-24.1-1.1-24.7,12.5l4,33.6l29.8,4.5L681.1,249.3z"/>
	<path class="st6" d="M671,232L671,232c-9.2-6.7-22.2-3-26.6,7.5l0,0c-1.1,2.7-1.5,5.7-1.2,8.7l4.3,35.8l33.8,5.1l-1.4-40.3
		C679.7,242.1,676.4,235.9,671,232z"/>
	<path class="st4" d="M682.7,296.9l-1.7-47.6c0-0.4-0.1-0.9-0.1-1.3c0-0.1,0-0.2,0-0.4c0-0.3-0.1-0.7-0.2-1c0-0.1,0-0.2-0.1-0.3
		c-0.2-0.9-0.4-1.8-0.7-2.6c0-0.1-0.1-0.2-0.1-0.2c-0.1-0.4-0.3-0.8-0.4-1.1c0,0,0-0.1-0.1-0.1c-0.4-0.9-0.8-1.7-1.3-2.5
		c0,0,0-0.1-0.1-0.1c-0.2-0.4-0.5-0.8-0.8-1.1l0,0l0,0c-1.1-1.5-2.5-2.9-4-4h0c-1.1-0.8-2.3-1.4-3.5-1.9c0.6,0.5,1.1,1.1,1.7,1.7
		c-6.3-3-13.6-1.9-18.8,2.3c-1.2,1.3-2.2,2.9-2.9,4.6c-1,2.5-1.3,5.2-1,7.9l4.8,40.7l17.1,2.6c6,0.9,7.3,9.1,1.8,11.7
		c-0.1,0-0.1,0.1-0.2,0.1L611.5,340l2.9,4.2l62.7-36.9C680.7,305.1,682.9,301.1,682.7,296.9z"/>
	<path class="st16" d="M727.6,269.7l-16.4-3.7c-5.2-1.2-10.2,2.5-10.7,7.8l-8.5,91.8l31.2-0.3l11.3-85.8
		C735,275,732.1,270.7,727.6,269.7z"/>
	<path class="st24" d="M727.6,269.7l-3.1-0.7c2.3,1.9,3.6,4.9,3.2,8l-4.2,32c-0.3,2.6-2.3,4.6-4.8,5.1l-22.4,4.6l-4.3,46.1l-0.1,0.7
		l0,0l0,0l31.2-0.3l0,0l0,0l11.3-85.8C735,275,732.1,270.7,727.6,269.7z"/>
	<path class="st25" d="M693.5,346.5L688,239.8c-0.7-12.8-6.2-24.9-15.5-33.7h0l-2.1,0.3c9.1,8.8,14.6,20.7,15.2,33.3l3.6,69.8
		c0.4,8.2-5.2,15.4-13.2,17l-43.9,8.9c0.5,8.3,0.8,13.9,0.9,14.9h0c0,0,0,0,0,0.1c0,0,0,0.1,0,0.1L693.5,346.5z"/>
	<polygon class="st6" points="649.7,205.9 649.7,209.7 647.2,210.1 672.5,206.1 672.7,200.7 	"/>
	<g>
		<polygon class="st26" points="647.6,210.1 647.2,210.1 647.6,210.1 		"/>
		<polygon class="st26" points="670.6,201.2 670.4,206.4 672.5,206.1 672.7,200.7 		"/>
	</g>
	<g>
		<g>
			<path class="st12" d="M270.9,163.6h-52.5c-2.2,0-4-1.8-4-4v-41.1c0-2.2,1.8-4,4-4h52.5c2.2,0,4,1.8,4,4v41.1
				C274.9,161.8,273.1,163.6,270.9,163.6z"/>
			<rect x="216.7" y="116.8" class="st23" width="55.9" height="44.5"/>
			<path class="st6" d="M266.5,116.8V148c0,5.3-4.3,9.7-9.7,9.7h-40.2v3.6h55.9v-44.5H266.5z"/>
			<rect x="220" y="120.1" class="st11" width="49.4" height="3.1"/>
			<rect x="266.5" y="120.1" class="st27" width="2.9" height="3.1"/>
			<rect x="249.8" y="127.1" class="st6" width="19.6" height="1.5"/>
			<rect x="249.8" y="130.8" class="st6" width="19.6" height="1.5"/>
			<rect x="249.8" y="134.5" class="st6" width="19.6" height="1.5"/>
			<rect x="249.8" y="138.2" class="st6" width="19.6" height="1.5"/>
			<rect x="249.8" y="141.9" class="st6" width="19.6" height="1.5"/>
			<rect x="249.8" y="145.6" class="st6" width="19.6" height="1.5"/>
			<g>
				<rect x="266.5" y="138.2" class="st26" width="2.9" height="1.5"/>
				<rect x="266.5" y="127.1" class="st26" width="2.9" height="1.5"/>
				<rect x="266.5" y="134.5" class="st26" width="2.9" height="1.5"/>
				<rect x="266.5" y="130.8" class="st26" width="2.9" height="1.5"/>
				<rect x="266.5" y="141.9" class="st26" width="2.9" height="1.5"/>
				<rect x="266.5" y="145.6" class="st26" width="2.9" height="1.5"/>
			</g>
			<rect x="259.1" y="154.6" class="st11" width="10.3" height="2.2"/>
			<path class="st27" d="M261,156.7h8.5v-2.2h-5.5C263.1,155.5,262.1,156.2,261,156.7z"/>
		</g>
		<g>
			<g>
				<g transform="translate(0,-1020.3622)">
					<g transform="translate(98.999563,-66.0312)">
						<g>
							<g transform="translate(-98.999562,63.031208)">
								<g transform="translate(75.000003,-142.00001)">
									<path class="st14" d="M158.1,1294.1c-1.7,0-3.5,0.3-5.1,1c-0.2,0.1-0.3,0.4-0.2,0.6c0.1,0.2,0.4,0.3,0.6,0.2
										c4.8-2,10.1-0.7,13.5,2.8l-7.3,7.3h-10.4c-0.5,0-0.8,0.4-0.8,0.8v2.8c0,0.5,0.4,0.8,0.8,0.8h6l-5.8,5.8
										c-1.2-1.1-2.1-2.5-2.8-4.1c-1.3-3.1-1.3-6.5,0.1-9.6c0.1-0.2,0.1-0.5-0.2-0.6s-0.5-0.1-0.6,0.2c0,0,0,0.1,0,0.1
										c-1.8,4.1-1.4,8.8,1.2,12.6c3.5,5.2,10.4,7.2,16.2,4.7c6.6-2.9,9.7-10.5,6.9-17.2C168.2,1297.2,163.3,1294.1,158.1,1294.1z
										 M151.8,1296.7c-0.2,0.1-0.3,0.2-0.3,0.4c0,0.7-0.6,1.3-1.4,1.3h-2.3c0,0-0.1,0-0.1,0c0,0,0,0-0.1,0c0,0,0,0,0,0
										c0,0,0,0-0.1,0c-0.6,0.1-1,0.7-1,1.3c0,0.7,0.6,1.3,1.3,1.3c0,0,0,0,0,0c0,0,0.1,0,0.1,0h2c0,0,0.1,0,0.1,0h0h2.9
										c0,0,0.1,0,0.1,0h0.1c0.2,0,0.4,0.2,0.4,0.4c0,0.2-0.2,0.4-0.4,0.4c0,0,0,0,0,0h-2.6c0,0-0.1,0-0.1,0c0,0-0.1,0-0.1,0
										c-1.1,0.1-2,1-2,2.1c0,0.2,0.2,0.5,0.4,0.5c0,0,0,0,0,0c0.2,0,0.4-0.2,0.4-0.4c0,0,0,0,0,0c0-0.7,0.5-1.2,1.2-1.3
										c0,0,0.1,0,0.1,0c-0.3,0.4-0.4,0.8-0.4,1.3c0,0.2,0.2,0.5,0.4,0.5c0,0,0,0,0,0c0.2,0,0.4-0.2,0.4-0.4c0,0,0,0,0,0
										c0-0.7,0.6-1.3,1.4-1.3h0.8c0,0,0,0,0,0c0,0,0.1,0,0.1,0c0,0,0.1,0,0.1,0c0.6-0.1,1.1-0.6,1.1-1.3c0-0.7-0.6-1.3-1.3-1.3
										h-3.1h-0.4c-0.2,0-0.4-0.2-0.4-0.4c0-0.2,0.2-0.4,0.4-0.4h0c0,0,0.1,0,0.1,0h0.3c1.2,0,2.3-1,2.3-2.2
										c0-0.2-0.2-0.4-0.4-0.5C151.9,1296.7,151.9,1296.7,151.8,1296.7z M167.5,1299.3c0.8,0.9,1.5,2,2,3.2
										c2.6,6.3-0.4,13.5-6.7,16.1c-4.4,1.8-9.3,0.9-12.7-2l6.3-6.3h11.4c0.5,0,0.8-0.4,0.8-0.8v-2.8c0-0.5-0.4-0.8-0.8-0.8h-7
										L167.5,1299.3z M147.9,1299.4L147.9,1299.4c0.1,0,0.2,0,0.2,0h0.4c-0.1,0.1-0.1,0.3-0.1,0.4c0,0.2,0,0.3,0.1,0.4H148
										c0,0,0,0,0,0c0,0,0,0-0.1,0c-0.2,0-0.4-0.2-0.4-0.4C147.5,1299.6,147.6,1299.4,147.9,1299.4z M149.2,1306.8h0.7v2.6h-0.7
										V1306.8z M150.9,1306.8h7.8l-2.6,2.6h-5.2V1306.8z M160,1306.8h7.8v2.6h-10.4L160,1306.8z"/>
								</g>
							</g>
						</g>
					</g>
				</g>
				<rect x="237.7" y="141.2" class="st14" width="0.9" height="3.3"/>
			</g>
		</g>
	</g>
	<rect x="318.6" y="89" class="st23" width="169.5" height="207.7"/>
	<rect x="348.9" y="210" class="st12" width="50.4" height="86.7"/>
	<rect x="346.9" y="210" class="st12" width="54.5" height="4.8"/>
	<rect x="362.5" y="237.2" class="st12" width="50.4" height="57.6"/>
	<rect x="393.4" y="257.6" class="st12" width="50.4" height="37.3"/>
	<rect x="329.7" y="249.1" class="st12" width="50.4" height="47.6"/>
	<rect x="433.5" y="200.8" class="st12" width="31.2" height="95.9"/>
	<rect x="455.2" y="224.9" class="st12" width="32.9" height="71.8"/>
	<rect x="438.2" y="194.7" class="st12" width="21.8" height="95.9"/>
	<rect x="443.1" y="182.6" class="st12" width="12.1" height="95.9"/>
	<rect x="448.2" y="170.5" class="st12" width="1.8" height="95.9"/>
	<rect x="318.6" y="89" class="st28" width="169.5" height="207.7"/>
	<rect x="318.6" y="89" class="st28" width="169.5" height="207.7"/>
	<polygon class="st5" points="302.2,315.5 296.2,300.9 509.6,300.9 	"/>
	<rect x="318.1" y="155" class="st6" width="169.5" height="3.6"/>
	<path class="st29" d="M333.7,217.5L333.7,217.5c-2.2,0-3.9-1.8-3.9-3.9v-9.7c0-2.2,1.8-3.9,3.9-3.9h0c2.2,0,3.9,1.8,3.9,3.9v9.7
		C337.6,215.8,335.8,217.5,333.7,217.5z"/>
	<rect x="318.1" y="157.4" class="st12" width="169.5" height="1.2"/>
	<rect x="318.1" y="149.6" class="st6" width="169.5" height="3.6"/>
	<rect x="318.1" y="152" class="st12" width="169.5" height="1.2"/>
	<rect x="318.1" y="143.5" class="st6" width="169.5" height="3.6"/>
	<rect x="318.1" y="145.9" class="st12" width="169.5" height="1.2"/>
	<rect x="318.1" y="137.5" class="st6" width="169.5" height="3.6"/>
	<rect x="318.1" y="139.9" class="st12" width="169.5" height="1.2"/>
	<rect x="318.1" y="131.4" class="st6" width="169.5" height="3.6"/>
	<rect x="318.1" y="133.8" class="st12" width="169.5" height="1.2"/>
	<rect x="318.1" y="125.4" class="st6" width="169.5" height="3.6"/>
	<rect x="318.1" y="127.8" class="st12" width="169.5" height="1.2"/>
	<rect x="318.1" y="119.3" class="st6" width="169.5" height="3.6"/>
	<rect x="318.1" y="121.7" class="st12" width="169.5" height="1.2"/>
	<rect x="318.1" y="113.3" class="st6" width="169.5" height="3.6"/>
	<rect x="318.1" y="115.7" class="st12" width="169.5" height="1.2"/>
	<rect x="318.1" y="107.2" class="st6" width="169.5" height="3.6"/>
	<rect x="318.1" y="109.6" class="st12" width="169.5" height="1.2"/>
	<rect x="318.1" y="101.1" class="st6" width="169.5" height="3.6"/>
	<rect x="318.1" y="103.6" class="st12" width="169.5" height="1.2"/>
	<rect x="318.1" y="95.1" class="st6" width="169.5" height="3.6"/>
	<rect x="318.1" y="97.5" class="st12" width="169.5" height="1.2"/>
	<rect x="331.9" y="89" class="st29" width="3.6" height="111.7"/>
	<g>
		<rect x="347.1" y="89" class="st12" width="3.6" height="75.2"/>
		<rect x="456.1" y="89" class="st12" width="3.6" height="75.2"/>
	</g>
	<rect x="306" y="86" class="st21" width="193.7" height="6.1"/>
	<rect x="315.5" y="89" class="st21" width="6.1" height="207.7"/>
	<rect x="485" y="89" class="st21" width="6.1" height="207.7"/>
	<circle class="st30" cx="554.5" cy="82.4" r="30.3"/>
	<rect x="296.2" y="292.5" class="st21" width="213.4" height="8.5"/>
	<g>
		<circle class="st31" cx="557.6" cy="80.6" r="30.3"/>
		<circle class="st23" cx="557.6" cy="80.6" r="25.7"/>
		<path class="st32" d="M557.6,54.8c-1,0-2,0.1-3,0.2c12.8,1.5,22.7,12.4,22.7,25.5s-9.9,24-22.7,25.5c1,0.1,2,0.2,3,0.2
			c14.2,0,25.7-11.5,25.7-25.7C583.3,66.3,571.8,54.8,557.6,54.8z"/>
		<path class="st21" d="M573.4,82.7h-16.8c-1.2,0-2.1-0.9-2.1-2.1l0,0c0-1.2,0.9-2.1,2.1-2.1h16.8c1.2,0,2.1,0.9,2.1,2.1l0,0
			C575.5,81.7,574.6,82.7,573.4,82.7z"/>
		<path class="st21" d="M559.7,61.7v19.8c0,1.2-0.9,2.1-2.1,2.1l0,0c-1.2,0-2.1-0.9-2.1-2.1V61.7c0-1.2,0.9-2.1,2.1-2.1l0,0
			C558.7,59.6,559.7,60.5,559.7,61.7z"/>
		<path class="st33" d="M559.7,79.9l-15.3,15.3c-0.5,0.5-1.2,0.5-1.7,0l0,0c-0.5-0.5-0.5-1.2,0-1.7L558,78.2c0.5-0.5,1.2-0.5,1.7,0
			l0,0C560.2,78.7,560.2,79.5,559.7,79.9z"/>
		<circle class="st34" cx="557.6" cy="80.6" r="4.5"/>
	</g>
	<path class="st16" d="M728.4,412.5H601.2c-6,0-10.9-4.9-10.9-10.9v-46.3c0-5.2,3.6-9.6,8.7-10.7l127.2-25.8
		c6.8-1.4,13.1,3.8,13.1,10.7v72.2C739.3,407.6,734.4,412.5,728.4,412.5z"/>
	<path class="st24" d="M726.2,318.8L726.2,318.8c0.6,1.4,1,3,1,4.6v77c0,3.3-2.7,6.1-6.1,6.1H591.5c1.8,3.6,5.5,6.1,9.8,6.1h127.2
		c6,0,10.9-4.9,10.9-10.9v-72.1C739.3,322.6,733,317.4,726.2,318.8z"/>
	<path class="st24" d="M95,269.8l3.1-0.7c-2.3,1.9-3.6,4.9-3.2,8l4.2,32c0.3,2.6,2.3,4.6,4.8,5.1l22.4,4.6l4.3,46.1l0.1,0.7l0,0l0,0
		l-31.2-0.3l0,0l0,0l-11.3-85.8C87.6,275,90.5,270.8,95,269.8z"/>
	<path class="st2" d="M202.1,327.8L169,294.7l-4.3-41.1c-0.3-3.2-2.3-6.1-5.1-7.6l0,0c-5.1-2.7-11.3-0.5-13.6,4.7v0
		c-2.3,5.2-2.8,11.1-1.5,16.6l8.7,38.2l41.7,29.2L202.1,327.8z"/>
	<path class="st20" d="M164.5,222.2c-1-3-1.4-6.2-1.4-9.3c-1.8-2.7-2.8-5.9-2.9-9.1l0-1.4l-0.1,0.1l-0.5,3.6
		c-0.3,2.6-0.2,5.3,0.3,7.9l0,0c0.7,3.7,2.3,7.2,4.6,10.3l1.1,1.5L164.5,222.2z"/>
	<path class="st20" d="M153.6,197.7c-0.3-1.3-0.5-2.6-0.5-3.8l-0.1-0.2c-2.4-3-3.7-6.6-3.8-10.4l0-0.4l-0.1,0l0.1,4.1
		c0.1,3.8,1.4,7.5,3.8,10.4l0.7,0.9L153.6,197.7z"/>
	<path class="st27" d="M177.4,330.7c0-1.2,0.1-2.8,0.1-4.9l-0.1,0l-33.2-1c-6.1-0.2-10.9-5.4-10.6-11.5l3.4-60.9
		c0.5-9.6,4.5-18.7,11.2-25.6l-2.4-1.2c-7.4,7-11.9,16.6-12.4,26.8l-4,71.9l-0.3,4.8l0,0L177.4,330.7z"/>
	<path class="st16" d="M94.2,412.5h127.2c6,0,10.9-4.9,10.9-10.9v-46.3c0-5.2-3.6-9.6-8.7-10.7L96.3,318.8
		c-6.8-1.4-13.1,3.8-13.1,10.7v72.2C83.3,407.6,88.1,412.5,94.2,412.5z"/>
	<path class="st24" d="M96.3,318.8L96.3,318.8c-0.6,1.4-1,3-1,4.6v77c0,3.3,2.7,6.1,6.1,6.1h129.7c-1.8,3.6-5.5,6.1-9.8,6.1H94.2
		c-6,0-10.9-4.9-10.9-10.9v-72.1C83.3,322.6,89.6,317.5,96.3,318.8z"/>
	<polygon class="st35" points="485,129.2 318.6,295.6 318.6,296.7 324.4,296.7 485,136.1 	"/>
	<polygon class="st35" points="485,145.8 334.2,296.7 353.9,296.7 485,165.6 	"/>
	<polygon class="st35" points="485,187.1 375.4,296.7 382.3,296.7 485,193.9 	"/>
	<polygon class="st35" points="485,203.7 392,296.7 411.8,296.7 485,223.5 	"/>
	<g>
		<path class="st16" d="M475.1,412.7H335c-4.3,0-7.7-3.5-7.7-7.7v0c0-4.3,3.5-7.7,7.7-7.7h140.1c4.3,0,7.7,3.5,7.7,7.7v0
			C482.8,409.2,479.3,412.7,475.1,412.7z"/>
		<path class="st17" d="M339.4,407.8v-5.7c0-2.7,2.2-4.8,4.8-4.8h-12.1c-2.7,0-4.8,2.2-4.8,4.8v5.7c0,2.7,2.2,4.8,4.8,4.8h12.1
			C341.6,412.7,339.4,410.5,339.4,407.8z"/>
		<rect x="352.8" y="397.2" class="st16" width="104.6" height="85.2"/>
		<rect x="352.8" y="397.2" class="st16" width="104.6" height="85.2"/>
	</g>
	<polygon class="st17" points="457.4,420.7 352.8,457 352.8,412.7 457.4,412.7 	"/>
	<rect x="296.2" y="292.5" class="st21" width="213.4" height="8.5"/>
	<g>
		<g>
			<path class="st36" d="M406.3,372.8c-0.1-0.6-0.9-0.5-1.6-1.7c-1-1.6-0.8-3.3-0.7-4.1c0.4-3.2,3-5.3,0.7-9.6
				c-0.6-1.2-1.4-2.1-2.2-2.6c-3.9-2.8-7.9-2-10.2-4.4c-2.8-3,1.1-7-1.5-11.5c-2.6-4.5-7.9-2.9-10.1-7.5c-1.8-3.7,0.9-6.2-1.3-9.2
				c-1.6-2.2-5.3-3.7-8.2-2.3c-3.2,1.5-4.2,5.8-3.2,8.6c1.2,3,4.4,2.7,6,5.9c2.1,4.3-2.2,7.3-0.4,12c1.7,4.5,6.5,3.5,7.5,7.7
				c0.8,3.2-1.4,6.2-1.3,11.5c0,0.7,0,1.9,0.7,3.4c1.9,4.5,5.2,3.8,8,5.5c0.7,0.4,2.1,1.4,2.7,3.1c0.1,0.3,0.3,1,0.3,2.3
				c0,0.2,0,0.2,0,0.2C392.3,381.5,406.9,375.5,406.3,372.8z"/>
			<path class="st36" d="M401.6,375.7c0.1-0.5,0.8-0.5,1.4-1.5c0.9-1.4,0.8-3,0.7-3.7c-0.4-2.9-2.7-4.8-0.7-8.7
				c0.6-1.1,1.2-1.8,2-2.4c3.5-2.5,7.1-1.8,9.2-4c2.5-2.7-1-6.3,1.3-10.4c2.4-4.1,7.1-2.6,9.1-6.7c1.6-3.3-0.8-5.6,1.2-8.3
				c1.5-2,4.8-3.3,7.4-2.1c2.8,1.4,3.8,5.2,2.8,7.7c-1.1,2.7-3.9,2.4-5.4,5.3c-1.9,3.8,2,6.6,0.3,10.8c-1.6,4.1-5.8,3.2-6.7,6.9
				c-0.7,2.9,1.2,5.6,1.2,10.3c0,0.6,0,1.7-0.6,3c-1.7,4-4.7,3.4-7.2,4.9c-0.6,0.4-1.9,1.2-2.4,2.8c-0.1,0.2-0.3,0.9-0.3,2.1
				c0,0.1,0,0.2,0,0.2C414.2,383.6,401.1,378.1,401.6,375.7z"/>
			<path class="st37" d="M424.6,338.5c-2,4.1-6.7,2.7-9.1,6.7c-2.4,4.1,1.2,7.7-1.3,10.4c-2.1,2.2-5.7,1.5-9.2,4
				c-0.7,0.5-1.4,1.3-2,2.4c-2,3.9,0.3,5.8,0.7,8.7c0.1,0.7,0.2,2.2-0.7,3.7c-0.6,1-1.3,1-1.4,1.5c-0.5,2.4,12.6,7.8,13.3,6.6
				c0,0,0,0,0-0.2c0-1.1,0.2-1.8,0.3-2.1c0.6-1.6,1.8-2.5,2.4-2.8c2.5-1.5,5.4-0.9,7.2-4.9c0.5-1.3,0.6-2.4,0.6-3
				c0-4-1.3-6.5-1.3-8.9c-1.1-0.8-2.4-2-3.4-3.8c-0.8-1.4-0.9-2.5-0.9-2.9c-0.2-2.4,0.9-4.4,1.4-5.2c2.3-3.6,6.6-4.6,6.3-11
				c-0.1-2.8-1-4.6-2.3-6C424.4,333.6,426,335.7,424.6,338.5z"/>
			<path class="st37" d="M406.3,372.8c-0.1-0.6-0.9-0.5-1.6-1.7c-1-1.6-0.8-3.3-0.7-4.1c0.4-3.2,3-5.3,0.7-9.6
				c-0.6-1.2-1.4-2.1-2.2-2.6c-3.9-2.8-7.9-2-10.2-4.4c-2.8-3,1.1-7-1.5-11.5c-2.3-4-6.8-3.2-9.3-6.2c-0.8,1.2-1.3,2.7-1.3,4.7
				c-0.3,6.4,4,7.4,6.3,11c0.6,0.8,1.7,2.8,1.4,5.2c0,0.4-0.2,1.4-0.9,2.9c-1.5,2.8-3.8,4.1-4.8,4.9c-1,0.8-1.8,2.1-2.4,3.7
				c0,0.2,0,0.4,0,0.5c0,0.7,0,1.9,0.7,3.4c1.9,4.5,5.2,3.8,8,5.5c0.7,0.4,2.1,1.4,2.7,3.1c0.1,0.3,0.3,1,0.3,2.3c0,0.2,0,0.2,0,0.2
				C392.3,381.5,406.9,375.5,406.3,372.8z"/>
			<path class="st11" d="M419.4,361.3c-1-0.8-3.3-2-4.8-4.9c-0.8-1.4-0.9-2.5-0.9-2.9c-0.2-2.4,0.9-4.4,1.4-5.2
				c2.3-3.6,6.6-4.6,6.3-11c-0.4-9.4-10.2-7.9-10.7-15.3c-0.3-5.2,4.4-6.1,4.4-12c0-7.1-6.8-8.8-6.6-15.7c0.2-5.7,4.9-6.6,4.8-12
				c-0.1-5.1-4.5-11.2-9.5-11.9v0c0,0,0,0,0,0c0,0,0,0,0,0v0c-5,0.8-9.3,6.9-9.5,11.9c-0.1,5.4,4.6,6.3,4.8,12
				c0.2,6.9-6.7,8.5-6.6,15.7c0,5.9,4.8,6.8,4.4,12c-0.5,7.4-10.3,5.8-10.7,15.3c-0.3,6.4,4,7.4,6.3,11c0.6,0.8,1.7,2.8,1.4,5.2
				c0,0.4-0.2,1.4-0.9,2.9c-1.5,2.8-3.8,4.1-4.8,4.9c-3.8,3.1-4.8,12.6-0.2,19.3c4.3,6.4,12.3,7,15.7,7v0c0,0,0,0,0,0c0,0,0,0,0,0v0
				c3.4,0,11.4-0.6,15.7-7C424.2,373.9,423.2,364.4,419.4,361.3z"/>
			<path class="st36" d="M419.4,361.3c-0.1-0.1-0.2-0.1-0.3-0.2c0,0-0.1-0.1-0.1-0.1c0,0-0.1-0.1-0.1-0.1c-0.8-0.6-2.1-1.5-3.2-2.9
				l0,0c-0.4-0.5-0.7-1-1-1.6c-0.8-1.4-0.9-2.5-0.9-2.9c-0.2-2.4,0.9-4.4,1.4-5.2c2.3-3.6,6.6-4.6,6.3-11
				c-0.4-9.4-10.2-7.9-10.7-15.3c-0.3-5.2,4.4-6.1,4.4-12c0-7.1-6.8-8.8-6.6-15.7c0.2-5.7,4.9-6.6,4.8-12
				c-0.1-5.1-4.5-11.2-9.5-11.9v0c0,0,0,0,0,0c0,0,0,0,0,0v0c-1,0.2-2.1,0.6-3,1.1c3.6,2.1,6.3,6.8,6.4,10.8c0.1,5.4-4.6,6.3-4.8,12
				c-0.2,6.9,6.7,8.5,6.6,15.7c0,5.9-4.8,6.8-4.4,12c0.5,7.4,10.3,5.8,10.7,15.3c0.3,6.4-4,7.4-6.3,11c-0.6,0.8-1.7,2.8-1.4,5.2
				c0,0.4,0.2,1.4,0.9,2.9c0.1,0.2,0.2,0.3,0.3,0.5c2.5,4,1,9.3-3.3,11.1c-2.2,0.9-4.8,1.5-7.7,1.5v0c0,0,0,0,0,0c0,0,0,0,0,0v0
				c-2.6,0-7.9-0.4-12.2-3.4c-1.1,4.2-0.6,10,2.5,14.6c3.3,4.9,8.8,6.4,12.7,6.8c0,0,0,0,0,0c0,0,0,0,0,0c1.2,0.1,2.2,0.2,3,0.2v0
				c0,0,0,0,0,0c0,0,0,0,0,0v0c3.4,0,11.4-0.6,15.7-7C424.2,373.9,423.2,364.4,419.4,361.3z"/>
		</g>
		<path class="st38" d="M420.4,397.4h-33.1c-3.1,0-5.7-2.3-6-5.4l-1.8-15.9h48.8l-1.8,15.9C426.1,395,423.5,397.4,420.4,397.4z"/>
		<polygon class="st39" points="428.2,376.1 379.5,376.1 380.6,386.1 428.1,376.9 		"/>
		<path class="st38" d="M428.7,372H379c-1.3,0-2.4,1.1-2.4,2.4l0,0c0,1.3,1.1,2.4,2.4,2.4h49.6c1.3,0,2.4-1.1,2.4-2.4l0,0
			C431.1,373.1,430,372,428.7,372z"/>
	</g>
	<path class="st24" d="M220.4,346.4l-15-1.4c-3.1-0.3-5.6-2.5-6.4-5.4l0,0l19.5,4.5L220.4,346.4z"/>
	<path class="st2" d="M220.4,346.4L220.4,346.4c0-4.7-2.6-9-6.7-11.4l-10.2-5.8l-5.2-4.8l-5.1,8.6l5.6,6.2L220.4,346.4z"/>
	<path class="st8" d="M156.1,303.7l-8.7-38.2c-1.3-5.6-0.7-11.4,1.5-16.6v0c0.6-1.4,1.5-2.5,2.5-3.5c-2.4,0.9-4.4,2.7-5.5,5.3v0
		c-2.3,5.2-2.8,11.1-1.5,16.6l8.7,38.2l41.7,29.2l2.4-2.2L156.1,303.7z"/>
	<path class="st8" d="M201.9,337.4l-5.6-6.2l3.3-5.7l-1.3-1.2l-5.1,8.6l5.6,6.2l21.5,7.2c0-1-0.1-2-0.4-3L201.9,337.4z"/>
	<path class="st6" d="M266.5,52.6v31.2c0,5.3-4.3,9.7-9.7,9.7h-40.2v3.6h55.9V52.6H266.5z"/>
	<rect x="266.5" y="55.9" class="st40" width="2.9" height="3.1"/>
	<g>
		<rect x="266.5" y="74" class="st26" width="2.9" height="1.5"/>
		<rect x="266.5" y="62.9" class="st26" width="2.9" height="1.5"/>
		<rect x="266.5" y="70.3" class="st26" width="2.9" height="1.5"/>
		<rect x="266.5" y="66.6" class="st26" width="2.9" height="1.5"/>
		<rect x="266.5" y="77.7" class="st26" width="2.9" height="1.5"/>
		<rect x="266.5" y="81.4" class="st26" width="2.9" height="1.5"/>
	</g>
	<path class="st40" d="M261,92.5h8.5v-2.2h-5.5C263.1,91.2,262.1,92,261,92.5z"/>
	<path class="st23" d="M674.4,231.2L674.4,231.2c-9.4-6.8-22.7-3.1-27.1,7.7v0c-1.1,2.8-1.6,5.8-1.2,8.8l4.3,36.8l34.4,5.2
		l-1.4-41.5C683.2,241.5,679.9,235.2,674.4,231.2z"/>
	<path class="st25" d="M683.5,248.3c-0.2-6.8-3.6-13.1-9.1-17.1h0c-0.2-0.2-0.5-0.3-0.7-0.5c2.3,3.4,3.6,7.4,3.7,11.5l1.1,32.5
		c0.2,4.7-4,8.3-8.6,7.6l-20.1-3l0.6,5.2l34.4,5.2L683.5,248.3z"/>
	<g>
		<path class="st12" d="M270.9,99.4h-52.5c-2.2,0-4-1.8-4-4V54.3c0-2.2,1.8-4,4-4h52.5c2.2,0,4,1.8,4,4v41.1
			C274.9,97.6,273.1,99.4,270.9,99.4z"/>
		<rect x="216.7" y="52.6" class="st23" width="55.9" height="44.5"/>
		<g>
			<g>
				<path class="st3" d="M223.3,92.7C223.3,92.7,223.3,92.7,223.3,92.7c-1.2-0.1-1.8-1.6-2.2-3.1c-0.5-1.9-0.8-3.9-0.6-5.8
					c0.2-2.6,0.4-5,1.8-7.8c1.5-3,4.7-7,7-6.2c0.4,0.1,1.2,0.7,1.6,1.5c0.2,0.4,0.2,0.8,0.2,1.5c0,0.5,0,0.9,0,1.4
					c0,0.3-0.3,0.6-0.6,0.6c-0.3,0-0.6-0.3-0.6-0.6c0-0.4,0-0.8,0-1.3c0-0.6,0-0.9-0.1-1.1c-0.2-0.5-0.7-0.7-0.8-0.8
					c-1.2-0.4-4,2.4-5.5,5.6c-1.3,2.6-1.5,4.9-1.6,7.3c-0.1,1.8,0.1,3.7,0.6,5.4c0.5,1.9,0.9,2.2,1,2.2c0.1,0,0.2-0.2,0.3-0.3
					c0.2-0.2,0.4-0.3,0.6-0.6c0.7-0.6,1.3-0.9,2.1-1.4c0.4-0.2,0.8-0.4,1.1-0.6c0.5-0.2,1-0.5,1.8-1c0.5-0.3,0.8-0.5,0.9-0.8
					c0.1-0.2,0-0.4,0-0.8l0-0.1c0,0-0.2-1-0.3-2.7c0-0.4,0-0.8,0-1.3c0-0.3,0-0.7,0-1.2c0-0.3,0.3-0.6,0.6-0.6
					c0.3,0,0.6,0.3,0.6,0.6c0,0.5,0,0.9,0,1.2c0,0.5,0,0.8,0,1.1c0.2,1.6,0.3,2.6,0.3,2.6l0,0.1c0.1,0.5,0.2,0.9,0,1.4
					c-0.3,0.8-0.9,1.1-1.4,1.4c-0.8,0.5-1.4,0.8-1.9,1c-0.4,0.2-0.7,0.4-1.1,0.6c-0.8,0.5-1.3,0.8-2,1.3c-0.2,0.2-0.4,0.4-0.6,0.5
					C224.1,92.4,223.8,92.7,223.3,92.7z"/>
			</g>
			<g>
				<path class="st3" d="M241.4,92.7c-0.5,0-0.8-0.3-1.1-0.6c-0.2-0.1-0.3-0.3-0.6-0.5c-0.6-0.5-1.1-0.8-2-1.3
					c-0.4-0.2-0.7-0.4-1.1-0.6c-0.5-0.2-1-0.5-1.9-1c-0.5-0.3-1.2-0.7-1.4-1.4c-0.2-0.5-0.1-0.9,0-1.4l0-0.1c0,0,0.2-0.9,0.3-2.6
					c0-0.3,0-0.6,0-1.1c0-0.4,0-0.8,0-1.2c0-0.3,0.3-0.6,0.6-0.6c0.3,0,0.6,0.3,0.6,0.6c0,0.4,0,0.8,0,1.2c0,0.5,0,0.9,0,1.3
					c-0.2,1.7-0.3,2.6-0.3,2.7l0,0.1c-0.1,0.5-0.1,0.6,0,0.8c0.1,0.3,0.4,0.5,0.9,0.8c0.8,0.5,1.3,0.8,1.8,1
					c0.4,0.2,0.7,0.4,1.1,0.6c0.9,0.5,1.4,0.8,2.1,1.4c0.3,0.2,0.5,0.4,0.6,0.6c0.1,0.1,0.2,0.2,0.3,0.3c0.1-0.1,0.5-0.4,1-2.2
					c0.5-1.7,0.7-3.6,0.6-5.4c-0.2-2.4-0.3-4.7-1.6-7.3c-1.6-3.1-4.4-6-5.5-5.6c-0.2,0-0.6,0.3-0.8,0.8c-0.1,0.2-0.1,0.5-0.1,1.1
					c0,0.4,0,0.8,0,1.3c0,0.3-0.3,0.6-0.6,0.6c-0.3,0-0.6-0.3-0.6-0.6c0-0.4,0-0.9,0-1.4c0-0.7,0-1.1,0.2-1.5
					c0.3-0.8,1.1-1.4,1.6-1.5c2.3-0.8,5.6,3.2,7,6.2c1.4,2.8,1.6,5.2,1.8,7.8c0.1,1.9-0.1,4-0.6,5.8
					C243.2,91.1,242.6,92.6,241.4,92.7C241.5,92.7,241.5,92.7,241.4,92.7z"/>
			</g>
			<g>
				<path class="st3" d="M228.1,83.7c-0.3,0-0.5-0.2-0.6-0.5c-0.1-0.5-0.1-1.1,0-1.6c0.1-0.3,0.2-0.6,0.3-0.8
					c0.1-0.1,0.1-0.2,0.2-0.4c0.2-0.5,0.4-1.1,0.3-1.4c-0.1-0.1-0.3-0.2-0.8-0.4c-0.3-0.1-0.7-0.3-1.2-0.5c-0.8-0.4-1.5-0.8-2.2-1.4
					c-0.3-0.2-0.3-0.6-0.1-0.9c0.2-0.3,0.6-0.3,0.9-0.1c0.6,0.5,1.2,0.9,1.9,1.2c0.4,0.2,0.8,0.3,1.1,0.4c0.7,0.2,1.3,0.5,1.5,1.1
					c0.3,0.7,0,1.6-0.3,2.3c-0.1,0.2-0.2,0.4-0.2,0.5c-0.1,0.2-0.1,0.3-0.2,0.5c-0.1,0.3-0.1,0.7,0,1c0.1,0.3-0.1,0.7-0.5,0.7
					C228.2,83.7,228.1,83.7,228.1,83.7z"/>
			</g>
			<g>
				<path class="st3" d="M223.8,82.4c-0.1,0-0.3,0-0.4-0.1c-0.3-0.2-0.3-0.6-0.1-0.9c0.6-0.7,1.3-1.2,2-1.5c0.4-0.1,0.7-0.2,0.9-0.3
					c0.4-0.1,0.7-0.2,1.1-0.4c0.4-0.2,0.7-0.4,1-0.7c0.2-0.2,0.6-0.2,0.9,0c0.2,0.2,0.2,0.6,0,0.9c-0.4,0.4-0.8,0.7-1.3,0.9
					c-0.5,0.3-1,0.4-1.4,0.5c-0.3,0.1-0.5,0.1-0.8,0.2c-0.6,0.2-1.1,0.6-1.5,1.2C224.2,82.3,224,82.4,223.8,82.4z"/>
			</g>
			<g>
				<path class="st3" d="M236.5,83.7c0,0-0.1,0-0.1,0c-0.3-0.1-0.5-0.4-0.5-0.7c0.1-0.4,0.1-0.7,0-1c0-0.2-0.1-0.3-0.2-0.5
					c-0.1-0.1-0.1-0.3-0.2-0.5c-0.3-0.7-0.6-1.5-0.3-2.3c0.3-0.7,0.9-0.9,1.5-1.1c0.3-0.1,0.7-0.2,1.1-0.4c0.7-0.3,1.3-0.7,1.9-1.2
					c0.3-0.2,0.7-0.2,0.9,0.1c0.2,0.3,0.2,0.7-0.1,0.9c-0.7,0.6-1.4,1-2.2,1.4c-0.5,0.2-0.8,0.4-1.2,0.5c-0.5,0.2-0.8,0.3-0.8,0.4
					c-0.1,0.3,0.1,0.9,0.3,1.4c0.1,0.2,0.1,0.3,0.2,0.4c0.1,0.2,0.2,0.4,0.3,0.8c0.1,0.5,0.1,1,0,1.6
					C237,83.5,236.8,83.7,236.5,83.7z"/>
			</g>
			<g>
				<path class="st3" d="M240.7,82.4c-0.2,0-0.4-0.1-0.5-0.2c-0.5-0.6-1-1-1.5-1.2c-0.3-0.1-0.5-0.2-0.8-0.2
					c-0.4-0.1-0.8-0.2-1.4-0.5c-0.5-0.2-0.9-0.6-1.3-0.9c-0.2-0.2-0.3-0.6,0-0.9c0.2-0.2,0.6-0.3,0.9,0c0.3,0.3,0.7,0.5,1,0.7
					c0.4,0.2,0.7,0.3,1.1,0.4c0.3,0.1,0.6,0.1,0.9,0.3c0.7,0.3,1.4,0.8,2,1.5c0.2,0.3,0.2,0.7-0.1,0.9
					C241,82.3,240.9,82.4,240.7,82.4z"/>
			</g>
			<g>
				<path class="st3" d="M236.4,78L236.4,78c-0.4,0-0.7-0.1-1-0.3l-2.3-2.2V63c0-0.4-0.3-0.8-0.8-0.8c0,0,0,0,0,0c0,0,0,0,0,0
					c-0.4,0-0.8,0.3-0.8,0.8v12.5l-2.1,2.1c-0.3,0.3-0.7,0.4-1.1,0.4l-0.9-0.1l1.1,0.3c-0.2,0.1,0.2,0.3,0.1,0.5
					c0,0.2-0.3,0.5-0.2,0.6c0.1,0.1,0.2-0.3,0.3-0.2c0.1,0.1-0.5,2-0.3,2c0.2,0,1.1-1.8,1.1-1.8l2.7-2.5l2.5,2.3
					c0.2,0.2,0.3,0.3,0.4,0.5l0.7,1c0,0-0.2-1.2-0.1-1.6c0-0.1,0.4,0.1,0.4,0.1s-0.3-0.2-0.3-0.5c0-0.1,0.1-0.3,0.2-0.4
					C236,78.3,236.4,78,236.4,78z"/>
			</g>
		</g>
		<rect x="220" y="55.9" class="st41" width="49.4" height="3.1"/>
		<rect x="249.8" y="62.9" class="st6" width="19.6" height="1.5"/>
		<rect x="249.8" y="66.6" class="st6" width="19.6" height="1.5"/>
		<rect x="249.8" y="70.3" class="st6" width="19.6" height="1.5"/>
		<rect x="249.8" y="74" class="st6" width="19.6" height="1.5"/>
		<rect x="249.8" y="77.7" class="st6" width="19.6" height="1.5"/>
		<rect x="249.8" y="81.4" class="st6" width="19.6" height="1.5"/>
		<rect x="259.1" y="90.3" class="st41" width="10.3" height="2.2"/>
	</g>
	<polygon class="st22" points="560.8,400.5 536.6,458.2 542.7,458.2 559.9,417 	"/>
</g>
</svg>
