<svg xmlns="http://www.w3.org/2000/svg" viewBox="0 0 1229.8 755.21"><defs><style>.cls-1{fill:#e8ecf5;}.cls-1,.cls-40,.cls-6{opacity:0.5;}.cls-2,.cls-40{fill:#dee4f0;}.cls-3{fill:#facabc;}.cls-4{fill:#fe7c6f;}.cls-5{fill:#f26d66;}.cls-6{fill:#ccd5e2;}.cls-7{fill:#fff;}.cls-8{fill:#efefef;}.cls-9{fill:#f2beb1;}.cls-10{fill:#304855;}.cls-11{fill:#2a4049;}.cls-12{fill:#fbda85;}.cls-13{fill:#63b88e;}.cls-14{fill:#352b44;}.cls-15{fill:#3c5360;}.cls-16{fill:#2b223a;}.cls-17{fill:#fecb6f;}.cls-18{fill:#f4ba5d;}.cls-19{fill:#a8becb;}.cls-20{fill:#704729;}.cls-21{fill:#603c24;}.cls-22{fill:#425b6c;}.cls-23{fill:#788e9b;}.cls-24{fill:#647a84;}.cls-25{fill:#dce0e1;}.cls-26,.cls-42{fill:#f0f3f5;}.cls-27{fill:#99b3c1;}.cls-28{fill:#d1d3d3;}.cls-29{fill:#2c3e66;}.cls-30{fill:#e9edf6;}.cls-31{fill:#59caaf;}.cls-32{fill:#56bfa3;}.cls-33{fill:#d3d6dd;}.cls-34{fill:#b0b7c1;}.cls-35{fill:#ffcc71;}.cls-36,.cls-38{fill:#6b7aa0;}.cls-37,.cls-46{fill:#2e8fd8;}.cls-37,.cls-38{opacity:0.2;}.cls-39{fill:#9e86a8;}.cls-41{fill:#59ad81;}.cls-42{opacity:0.15;}.cls-43{fill:#4aa372;}.cls-44{fill:#494059;}.cls-45{fill:#2691b2;}.cls-47{fill:#1e83c1;}</style></defs><title>Login signup</title><g id="Layer_2" data-name="Layer 2"><g id="Layer_1-2" data-name="Layer 1"><path class="cls-1" d="M1127.57,298.83c-8.4-17.37-13.57-28.08-26-36.85-56.22-39.7-152.5,37.59-184,3.85C904,251.35,909,224.18,911.12,212.2c6.48-35.88,30.08-40.82,36.45-77,1.18-6.68,5.56-33.84-9.53-59.15-17.8-29.87-51.16-37.77-55.34-38.69-38.38-8.47-49.29,17.25-125.13,28.5-28.4,4.21-47.93,3.73-66,.67-21.28-3.61-36.07-10-48.24-15.22-57-24.25-88.81-39.76-115.42-44.7-28-5.2-70.78-12.66-121,2-22.29,6.51-89.6,26.18-117,88.75-3,6.85-21,49.68-6.72,95.47C294.68,229.6,316,233,320.83,267.45c3.8,27.23-5,57.62-23.53,78-5.67,6.24-12.54,11.87-63.87,33.62-60.95,25.82-70,25.82-79.34,38.32-18,24.16-9.63,58.07-1.34,91.44,6.06,24.41,21,84.44,78.66,125.06,34.7,24.42,70.09,31.42,91.44,33.62l623.77-1.6a177.91,177.91,0,0,0,68-25.06c25.34-16,43.82-37,63.14-69.05C1099.53,535.6,1178.6,404.43,1127.57,298.83Z"/><rect class="cls-2" x="302.74" y="29" width="100" height="81.12" rx="4" ry="4"/><rect class="cls-2" x="302.74" y="135" width="100" height="81.12" rx="4" ry="4"/><path class="cls-3" d="M820.92,320.1h0a27.5,27.5,0,0,1,26.58,6.56l17.58,16.8L877.78,351l-14.26,15.14-15.58-7.51Z"/><path class="cls-4" d="M1034.06,314.44h0a22.45,22.45,0,0,1,20.46,28.83h0a75.27,75.27,0,0,1-19.35,32.16l-62.91,61.89a20,20,0,0,1-26.63,1.28L855,365.13l15.25-21L950,394.81l66.36-73A22.45,22.45,0,0,1,1034.06,314.44Z"/><path class="cls-5" d="M968.55,440.18a20,20,0,0,0,3.71-2.86L1034,376.61l-11.65-58.13a4.06,4.06,0,0,0-.41-1.13,22.43,22.43,0,0,0-5.52,4.42L962.55,381Z"/><polygon class="cls-6" points="475 88 463.61 88 460.88 424 475 424 475 88"/><ellipse class="cls-1" cx="614.9" cy="735.79" rx="614.9" ry="19.42"/><path class="cls-7" d="M970,369.44l6.63,65.4a2,2,0,0,0,3.44,1.24l62.72-61.46-12.45-62.15a4,4,0,0,0-6.84-2L971,366.3A4,4,0,0,0,970,369.44Z"/><path class="cls-8" d="M1035.74,306.57,983.59,355a164.14,164.14,0,0,0-2,36.93c.78,12.91,1.62,26.84,2.44,40.55l61.66-60.42Z"/><path class="cls-3" d="M237.64,488.27,166.79,531l117,19.17,54.61-27.93,68,136.1,19.27-5.61L376.19,495.86a45.53,45.53,0,0,0-55.37-30.22Z"/><path class="cls-9" d="M415.31,619.74h0a19.79,19.79,0,0,1-23.23-10.15L331.45,488.25l-54.61,27.93-67.22-11L166.79,531l117,19.17,54.61-27.93,68,136.1,19.27-5.61Z"/><path class="cls-9" d="M370.47,545.21a39.72,39.72,0,0,0-5.37-29.76l-.35-.53a9.61,9.61,0,0,0-13.1-2.7q-26.35,16.75-54.19,31l41-21h0l26,52.1Z"/><polygon class="cls-3" points="226.08 304.88 218.66 334.02 188.94 316.82 193.86 289.77 226.08 304.88"/><polygon class="cls-9" points="193.94 316.82 198.47 291.93 193.86 289.77 188.94 316.82 218.66 334.02 219.3 331.5 193.94 316.82"/><polygon class="cls-9" points="208.81 296.78 226.08 304.88 223.28 315.89 198.77 295.67 208.81 296.78"/><path class="cls-10" d="M420.65,623.9l3.86,13.66L450.18,636a8.22,8.22,0,0,1,6.69,2.8h0a8.22,8.22,0,0,1-3.13,13l-37.32,15a8,8,0,0,1-9.79-3.22l-17.89-29Z"/><path class="cls-11" d="M456.74,643.82l-37.32,15a8,8,0,0,1-9.79-3.22l-14.31-23.2-6.58,2.2,17.89,29a8,8,0,0,0,9.79,3.22l37.32-15a8.21,8.21,0,0,0,5-9.16A8.23,8.23,0,0,1,456.74,643.82Z"/><path class="cls-12" d="M196.05,550.18h0a21.88,21.88,0,0,0,4-21.4l-6.34-18.27-1.27-11.69-15.67,5.31.28,13.75Z"/><path class="cls-3" d="M192.48,498.82,186.11,417l21.51-64.72a16.18,16.18,0,0,0-2.52-15h0a16.18,16.18,0,0,0-23.71-2.11h0a44.4,44.4,0,0,0-13.63,24l-12.94,63.32,22,81.68Z"/><path class="cls-3" d="M242.37,495.21l-43-10v70.54l126.21,8,1.21,122.63,23.34,6.36,12.62-147a40,40,0,0,0-31.94-42.63l-59.37-12Z"/><path class="cls-9" d="M333.66,664.93l-1-105.18-126.21-8V486.84l-7-1.63v70.54l126.21,8,1.21,122.63,23.34,6.36.5-5.77h0A23.08,23.08,0,0,1,333.66,664.93Z"/><path class="cls-10" d="M353.17,691.74l-2.39,10.48,24.13,8a8.12,8.12,0,0,1,5.2,5.32h0A8.12,8.12,0,0,1,372,726.06l-39.59-1.48a8,8,0,0,1-7.7-7.76l-.93-31.44Z"/><path class="cls-11" d="M378,721.06l-39.59-1.48a8,8,0,0,1-7.7-7.76l-.74-25.1-6.19-1.34.93,31.44a8,8,0,0,0,7.7,7.76L372,726.06a8.09,8.09,0,0,0,7.85-5.15A8.19,8.19,0,0,1,378,721.06Z"/><path class="cls-12" d="M202.2,274V257.81a8.69,8.69,0,0,0-2.85-6.43h0a8.69,8.69,0,0,0-11.76.06L185.93,253a12.88,12.88,0,0,0-4,7.64h0A12.88,12.88,0,0,0,186,271.94h0a42.87,42.87,0,0,1,6.75,7.83l2.67,4a14.87,14.87,0,0,1,1.85,3.88h0l2.39,4.91Z"/><path class="cls-3" d="M237.64,488.27,166.79,531l117,19.17,13.61-7a669.31,669.31,0,0,0,78.74-47.36h0a45.53,45.53,0,0,0-55.37-30.22Z"/><path class="cls-13" d="M241.57,490.12c0-.88,1.09-39.8,1.72-62.36a151.45,151.45,0,0,1,4.11-31.07h0a57,57,0,0,0-12.56-50.88l-14.86-17-30.39-15.07h0A65.89,65.89,0,0,0,169,358l-7,126.79Z"/><polygon class="cls-9" points="351.64 512.22 333.9 533.89 357.13 521.53 362.4 517.89 359.15 513.18 351.64 512.22"/><path class="cls-14" d="M162,484.82l79.7,2.35,76.95-20.94,3.44-.91,2.29-.49,2.46-.39,2-.22,3.59-.18h4.77l3.3,12.69a130.23,130.23,0,0,1,2.78,51.9h0A63.85,63.85,0,0,1,334.91,552l-.62,1a63.85,63.85,0,0,0-8.74,38.9h0l-9.61-5.08a259.34,259.34,0,0,0-103.48-29.42l-14.24-1A40,40,0,0,1,161,515.19Z"/><polygon class="cls-15" points="231.71 487.17 232.68 486.9 162.01 484.82 162 485.11 231.71 487.17"/><path class="cls-16" d="M340.48,476.73,337.18,464H332.4l-3.59.18-1.55.17,3.21,12.34a130.23,130.23,0,0,1,2.78,51.9A63.85,63.85,0,0,1,324.91,552l-.62,1a63.85,63.85,0,0,0-9,33.48l.67.35,9.61,5.08a63.85,63.85,0,0,1,8.74-38.9l.62-1a63.85,63.85,0,0,0,8.35-23.38A130.23,130.23,0,0,0,340.48,476.73Z"/><polygon class="cls-17" points="123.01 737.89 107.2 737.89 149.22 599.64 173.16 599.64 123.01 737.89"/><polygon class="cls-17" points="328.67 737.89 344.48 737.89 280.78 599.64 256.83 599.64 328.67 737.89"/><polygon class="cls-18" points="280.78 599.64 256.83 599.64 277.55 639.51 299.15 639.51 280.78 599.64"/><polygon class="cls-18" points="137.1 639.51 158.7 639.51 173.16 599.64 149.22 599.64 137.1 639.51"/><path class="cls-19" d="M105.54,386.5l27.13-6.12a14.53,14.53,0,0,1,17.66,12.82l14.12,151.6-51.53-.46L94.33,402.56A14.53,14.53,0,0,1,105.54,386.5Z"/><path class="cls-3" d="M247.76,242.36l-3.07,22.17,5.78,8.9a3.3,3.3,0,0,1-2.23,5l-3,.5a3.3,3.3,0,0,0-2.73,2.81l-2.6,19a9.16,9.16,0,0,1-12.06,7.43L198.5,298.14,192.72,296s-10.8-43.26-10.29-44.12,18.42-24.73,19.1-23.88S247.76,242.36,247.76,242.36Z"/><path class="cls-9" d="M250.47,273.43l-5.78-8.9,3.07-22.17S202.22,228.88,201.53,228c-.12-.15-.76.46-1.74,1.55,11.44,3.74,42,12.77,42,12.77l-3.07,22.17,5.78,8.9a3.3,3.3,0,0,1-2.23,5l-3,.5a3.3,3.3,0,0,0-2.73,2.81l-2.6,19a9.15,9.15,0,0,1-6.08,7.42h0a9.16,9.16,0,0,0,12.06-7.43l2.6-19a3.3,3.3,0,0,1,2.73-2.81l3-.5A3.3,3.3,0,0,0,250.47,273.43Z"/><path class="cls-20" d="M248,259.58h0a28,28,0,0,0,2.62-36.22h0a28.22,28.22,0,0,0-7.06-6.75l-5.94-4a63.25,63.25,0,0,0-39.16-10.55l-.37,0a42.69,42.69,0,0,0-19.72,6.24L176,209.79A40.28,40.28,0,0,0,158.13,234l-.18.7a41.76,41.76,0,0,0,3.79,30.52l.2.36A55.69,55.69,0,0,0,175.58,282c7.53,6.15,17.14,14,17.14,14l5.85-6.59-6-19.34a4.31,4.31,0,0,1,1.33-4.56h0a4.31,4.31,0,0,1,6.4.94l2.79,4.31.19,6.7a28.85,28.85,0,0,0,6.31,17.22l1.23,1.54-.21-.89a28.85,28.85,0,0,1,2.49-20h0l-.76,6a41.12,41.12,0,0,0,.42,13h0a41.12,41.12,0,0,0,7.56,17l1.88,2.48-1.85-5.8a48.63,48.63,0,0,1-1.55-23.36h0a132,132,0,0,1,4.33-17.35h0a30.18,30.18,0,0,1,9.34-13.85h0a30.18,30.18,0,0,1,6.09-4l2.86-1.4h0a22,22,0,0,1-6.31,7.64l-3.69,2.82.37-.06a25,25,0,0,0,15.33-9.15h0l-.62,2.3A32.7,32.7,0,0,1,241.56,262h0l.85,0A8.17,8.17,0,0,0,248,259.58Z"/><path class="cls-21" d="M185.58,282a55.69,55.69,0,0,1-13.64-16.41l-.2-.36a41.76,41.76,0,0,1-3.79-30.52l.18-.7A40.28,40.28,0,0,1,186,209.79l2.34-1.44a42.67,42.67,0,0,1,19.08-6.18,63.16,63.16,0,0,0-9-.08l-.37,0a42.69,42.69,0,0,0-19.72,6.24L176,209.79A40.28,40.28,0,0,0,158.13,234l-.18.7a41.76,41.76,0,0,0,3.79,30.52l.2.36A55.69,55.69,0,0,0,175.58,282c7.53,6.15,17.14,14,17.14,14l4.21-4.74Z"/><path class="cls-21" d="M244,257.94a32.68,32.68,0,0,1-2.48,4.09l.85,0a8.17,8.17,0,0,0,5.59-2.43h0a27.94,27.94,0,0,0,4.24-5.57A25,25,0,0,1,244,257.94Z"/><path class="cls-8" d="M1057.48,340.71h0a22.45,22.45,0,0,0-38.13-21.5L982.93,359.3a164.18,164.18,0,0,0-1.29,32.64c.66,11,1.37,22.75,2.08,34.47l54.42-53.54A75.27,75.27,0,0,0,1057.48,340.71Z"/><path class="cls-22" d="M822.62,695.18l-4,8.56-8.93.73A80,80,0,0,0,775,715.64h0a5.6,5.6,0,0,0-2.56,3.49h0a5.6,5.6,0,0,0,5.66,6.92l51.66-2a8,8,0,0,0,7.41-5.88l7.45-27.27Z"/><path class="cls-23" d="M896.28,533.76l-30.11,8.68a24,24,0,0,0-16.73,17.66L817.62,697.85h27.5l42-100.5,9.17-1Z"/><path class="cls-24" d="M869.64,549.56l-5.17,102,22.64-54.19,9.17-1V533.76l-24.49,7.06A23.92,23.92,0,0,0,869.64,549.56Z"/><path class="cls-22" d="M873.41,705.17v8.56l-6.94.62a81.15,81.15,0,0,0-34.65,11.29h0a5.61,5.61,0,0,0-2.56,3.49h0a5.61,5.61,0,0,0,5.66,6.93l52.82-1.92a8,8,0,0,0,7.71-8V700.92Z"/><path class="cls-11" d="M889.44,702.08v24.06a8,8,0,0,1-7.71,8l-48.36,1.76a5.61,5.61,0,0,0,1.54.16l52.82-1.92a8,8,0,0,0,7.71-8V700.92Z"/><path class="cls-23" d="M869.62,707.85h27.5l25-130.5,133.37-10.15a42,42,0,0,0,39.13-41.9V503.85l-100,6.67-97,16.59a24,24,0,0,0-19.92,22.44Z"/><path class="cls-11" d="M838.32,692.15l-7.12,26a8,8,0,0,1-7.41,5.88l-47.23,1.8a5.6,5.6,0,0,0,1.57.17l51.66-2a8,8,0,0,0,7.41-5.88l7.45-27.27Z"/><path class="cls-24" d="M1086.62,504.39V525.3a42,42,0,0,1-39.13,41.9l-120.77,9.2a16.52,16.52,0,0,0-15,13.37L889.12,707.85h8l25-130.5,133.37-10.15a42,42,0,0,0,39.13-41.9V503.85Z"/><polygon class="cls-3" points="1056.96 318.02 1018.25 318.02 1018.25 252.37 1061.11 248.32 1060.3 254.77 1059.46 281.36 1056.96 318.02"/><polygon class="cls-9" points="1018.25 254.59 1018.25 278.8 1048.37 270.48 1056.96 254.59 1018.25 254.59"/><path class="cls-3" d="M998.54,181.65v29l-9.26,23.65a4.79,4.79,0,0,0,4.46,6.54h0a4.79,4.79,0,0,1,4.79,4.79v12a14,14,0,0,0,14,14h1.57l45.34-1.28.85-88.71Z"/><polygon class="cls-9" points="1054.03 248.99 1053.3 254.77 1052.46 281.36 1049.96 318.02 1056.96 318.02 1059.46 281.36 1060.3 254.77 1061.11 248.32 1054.03 248.99"/><path class="cls-14" d="M1071.63,162.87a24.35,24.35,0,0,0-6.63-.28l-39.65,3.26a14.89,14.89,0,0,1-11.2-3.79l-.2-.18a14.66,14.66,0,0,0-22.65,3.95l-1.69,3.11a14.94,14.94,0,0,0,.11,14.46L998.54,199l31.23-.74a8.13,8.13,0,0,1,8.18,9.64l-1.81,9.52a3.09,3.09,0,0,0,1.76,3.39h0a3.05,3.05,0,0,0,4-1.41c1-2.08,2.38-3.37,3.91-3.37,3.11,0,5.63,5.29,5.63,11.81,0,4.18-1,7.84-2.6,9.93h0l11.46,16.93,4.66-5a82.76,82.76,0,0,0,19.67-36l5.66-22.19A23.34,23.34,0,0,0,1071.63,162.87Z"/><path class="cls-16" d="M1071.63,162.87a24.36,24.36,0,0,0-6.63-.28l-39.65,3.26a14.89,14.89,0,0,1-11.2-3.79l-.2-.18a14.66,14.66,0,0,0-20,.46,14.57,14.57,0,0,1,12,3.54l.2.18a14.89,14.89,0,0,0,11.2,3.79l39.65-3.26a24.36,24.36,0,0,1,6.63.28,23.34,23.34,0,0,1,18.66,28.72l-5.66,22.19a82.76,82.76,0,0,1-18.15,34.31l1.82,2.68,4.66-5a82.76,82.76,0,0,0,19.67-36l5.66-22.19A23.34,23.34,0,0,0,1071.63,162.87Z"/><path class="cls-3" d="M908.63,528.52h0a27.5,27.5,0,0,1,15.07-22.85l21.71-10.95,11.37-9.45,9.5,18.5L954,515.95Z"/><polygon class="cls-17" points="1133.09 737.89 1148.9 737.89 1106.89 599.64 1082.94 599.64 1133.09 737.89"/><polygon class="cls-17" points="927.43 737.89 911.62 737.89 975.32 599.64 999.27 599.64 927.43 737.89"/><polygon class="cls-18" points="975.32 599.64 999.27 599.64 978.55 639.51 956.95 639.51 975.32 599.64"/><polygon class="cls-18" points="1119.01 639.51 1097.41 639.51 1082.94 599.64 1106.89 599.64 1119.01 639.51"/><path class="cls-7" d="M994.12,520c0-1.65-4.23-72.2-7.45-125.53A164.21,164.21,0,0,1,1017.79,288h0l41.67-6.67h0A82.29,82.29,0,0,1,1085.14,337l9,176.36Z"/><path class="cls-8" d="M992.16,486,1061,445.43a19,19,0,0,0,9.35-17l-2.74-78.64a31.67,31.67,0,0,0-13-24.48h0a25.56,25.56,0,0,0-38.73,11h0a25.56,25.56,0,0,0-1.72,12.66l10.89,75.45-28.18,21.28-6.88,5.2S991.52,475.2,992.16,486Z"/><path class="cls-8" d="M1031.06,411.71l2.06,19.65-44.07,31c1.71,15,3.15,27.78,4.05,36l75.8-46.78a16,16,0,0,0,7.59-14.12l-1.78-56.09C1061.59,389.71,1048.53,400.58,1031.06,411.71Z"/><path class="cls-4" d="M1022,339.25h0a25.56,25.56,0,0,1,38.73-11h0a31.67,31.67,0,0,1,13,24.48l2.74,78.64a19,19,0,0,1-9.35,17l-103.57,61L948.79,488l80.33-60.67-8.89-75.45A25.56,25.56,0,0,1,1022,339.25Z"/><path class="cls-25" d="M1067.66,349.76a31.67,31.67,0,0,0-13-24.48,25.56,25.56,0,0,0-38.73,11h0a25.56,25.56,0,0,0-1.72,12.66l6.45,54.74,49.11,7.42Z"/><path class="cls-26" d="M1073.66,352.76a31.67,31.67,0,0,0-13-24.48h0c-15.94-11.63-39.83-1.82-40.8,20.7l6.55,55.54,49.29,7.45Z"/><path class="cls-8" d="M1057.09,324.07h0a29,29,0,0,0-43.86,12.43h0a29,29,0,0,0-2,14.34l7,59.16,55.81,8.44-2.34-66.64A35.87,35.87,0,0,0,1057.09,324.07Z"/><path class="cls-5" d="M1076.4,431.4l-2.74-78.64c0-.74-.09-1.47-.16-2.2,0-.21,0-.41-.07-.62q-.1-.84-.25-1.67c0-.18-.06-.36-.1-.54a31.64,31.64,0,0,0-1.16-4.29l-.14-.38q-.34-.94-.74-1.86l-.09-.22a31.67,31.67,0,0,0-2.18-4.07l-.1-.16q-.62-1-1.3-1.88h0a31.64,31.64,0,0,0-6.67-6.6h0a25.69,25.69,0,0,0-5.71-3.14,31.75,31.75,0,0,1,2.76,2.77,29.55,29.55,0,0,0-31.09,3.88,25.56,25.56,0,0,0-4.75,7.63,26.63,26.63,0,0,0-1.6,13l7.93,67.27L1056.4,424c9.91,1.5,12,15,3,19.3l-.34.16L958.73,502.5l4.75,6.92,103.57-61A19,19,0,0,0,1076.4,431.4Z"/><path class="cls-19" d="M1150.56,386.5l-27.13-6.12a14.53,14.53,0,0,0-17.66,12.82l-14.12,151.6,51.53-.46,18.59-141.79A14.53,14.53,0,0,0,1150.56,386.5Z"/><path class="cls-27" d="M1150.56,386.5l-5.1-1.15a14.52,14.52,0,0,1,5.31,13.21l-6.94,52.92a10,10,0,0,1-7.92,8.5l-37.06,7.53-7.09,76.15-.11,1.15h0l51.53-.46h0l18.59-141.79A14.53,14.53,0,0,0,1150.56,386.5Z"/><path class="cls-8" d="M1094.12,513.36l-9-176.36a82.29,82.29,0,0,0-25.68-55.64h0l-3.44.55A82.27,82.27,0,0,1,1081.14,337L1087,452.22a27.29,27.29,0,0,1-21.82,28.13L992.7,495.07c.81,13.64,1.34,23,1.42,24.69h0v.12c0,.06,0,.12,0,.15Z"/><polygon class="cls-7" points="1021.89 281.04 1021.92 287.37 1017.79 288.03 1059.46 281.36 1059.76 272.42 1021.89 281.04"/><polygon class="cls-28" points="1018.46 287.92 1017.79 288.03 1018.46 287.92 1018.46 287.92"/><polygon class="cls-8" points="1056.29 273.21 1056 281.91 1059.46 281.36 1059.76 272.42 1056.29 273.21"/><rect class="cls-29" x="302.74" y="130.09" width="100" height="81.12" rx="4" ry="4"/><rect class="cls-7" x="306.57" y="133.92" width="92.35" height="73.47"/><path class="cls-30" d="M388.92,133.92v51.47a16,16,0,0,1-16,16H306.57v6h92.35V133.92Z"/><rect class="cls-31" x="312.09" y="139.37" width="81.63" height="5.1"/><rect class="cls-32" x="388.92" y="139.37" width="4.81" height="5.1"/><rect class="cls-33" x="361.32" y="150.85" width="32.4" height="2.55"/><rect class="cls-33" x="361.32" y="156.98" width="32.4" height="2.55"/><rect class="cls-33" x="361.32" y="163.1" width="32.4" height="2.55"/><rect class="cls-33" x="361.32" y="169.22" width="32.4" height="2.55"/><rect class="cls-33" x="361.32" y="175.34" width="32.4" height="2.55"/><rect class="cls-33" x="361.32" y="181.47" width="32.4" height="2.55"/><rect class="cls-34" x="388.92" y="169.22" width="4.81" height="2.55"/><rect class="cls-34" x="388.92" y="150.85" width="4.81" height="2.55"/><rect class="cls-34" x="388.92" y="163.1" width="4.81" height="2.55"/><rect class="cls-34" x="388.92" y="156.98" width="4.81" height="2.55"/><rect class="cls-34" x="388.92" y="175.34" width="4.81" height="2.55"/><rect class="cls-34" x="388.92" y="181.47" width="4.81" height="2.55"/><rect class="cls-31" x="376.63" y="196.26" width="17.09" height="3.57"/><path class="cls-32" d="M379.76,199.83h14v-3.57h-9.09A16,16,0,0,1,379.76,199.83Z"/><path class="cls-35" d="M333.78,153.53a21.71,21.71,0,0,0-8.51,1.64.74.74,0,0,0,.59,1.36,20.37,20.37,0,0,1,22.38,4.59l-12.05,12.05H319a1.35,1.35,0,0,0-1.35,1.35v4.57a1.35,1.35,0,0,0,1.35,1.35h9.93L319.4,190a20.5,20.5,0,0,1-4.5-22.65.73.73,0,1,0-1.32-.59,21.78,21.78,0,0,0,2,20.85,21.83,21.83,0,1,0,18.24-34Zm-10.42,4.37a.73.73,0,0,0-.5.73,2.26,2.26,0,0,1-2.32,2.18h-3.73a.73.73,0,0,0-.23,0l-.09,0h0l-.09,0a2.16,2.16,0,0,0-1.64,2.09,2.19,2.19,0,0,0,2.18,2.18h8.46a.74.74,0,0,0,.23,0h.09a.73.73,0,0,1,0,1.46h-4.32a.73.73,0,0,0-.23,0l-.14,0a3.63,3.63,0,0,0-3.32,3.55.73.73,0,0,0,.68.77h0a.73.73,0,0,0,.73-.73s0,0,0,0a2.18,2.18,0,0,1,2-2.14l.14,0a3.45,3.45,0,0,0-.68,2.09.73.73,0,0,0,.68.77h0a.73.73,0,0,0,.73-.73s0,0,0,0a2.18,2.18,0,0,1,2.27-2.14h1.55l.14,0a2.17,2.17,0,0,0,1.86-2.14,2.19,2.19,0,0,0-2.14-2.18h-5.87a.73.73,0,1,1,0-1.46h0a.74.74,0,0,0,.23,0h.45a3.73,3.73,0,0,0,3.78-3.64.73.73,0,0,0-1-.73Zm25.83,4.32a20.36,20.36,0,0,1-28.7,28.7L331,180.45h18.8a1.35,1.35,0,0,0,1.35-1.35v-4.57a1.35,1.35,0,0,0-1.35-1.35H338.23Zm-32.38,0h.14a.74.74,0,0,0,.23,0h.59a2,2,0,0,0-.14.73,2.25,2.25,0,0,0,.14.73h-.86a.73.73,0,0,1-.09-1.46Zm2.27,12.37h1.23V179h-1.23Zm2.68,0h13L330.37,179h-8.6Zm15,0h12.87V179H332.41Z"/><rect class="cls-35" x="341.27" y="174.1" width="1.45" height="5.53"/><rect class="cls-7" x="475" y="88" width="280" height="343"/><polygon class="cls-36" points="716.31 312.48 716.31 272.58 708.56 272.58 708.56 262.58 700.56 262.58 700.56 242.58 692.06 242.58 692.06 222.58 689.06 222.58 689.06 242.58 680.56 242.58 680.56 262.58 672.56 262.58 672.56 272.58 664.81 272.58 664.81 366.38 630.81 366.38 630.81 332.75 608.31 332.75 608.31 295.75 611.65 295.75 611.65 287.75 608.31 287.75 525 287.75 521.65 287.75 521.65 295.75 525 295.75 525 352.38 493.31 352.38 493.31 431 576.62 431 576.62 431 608.31 431 608.31 427.92 630.81 427.92 664.81 427.92 664.81 431 700.56 431 700.56 431 754.86 431 754.86 312.48 716.31 312.48"/><rect class="cls-37" x="475" y="88" width="280" height="343"/><polygon class="cls-6" points="447.88 462 437.88 438 790.38 438 447.88 462"/><rect class="cls-38" x="474.13" y="197" width="280" height="6"/><rect class="cls-38" x="474.13" y="188" width="280" height="6"/><rect class="cls-38" x="474.13" y="178" width="280" height="6"/><rect class="cls-38" x="474.13" y="168" width="280" height="6"/><rect class="cls-38" x="474.13" y="158" width="280" height="6"/><rect class="cls-38" x="474.13" y="148" width="280" height="6"/><rect class="cls-38" x="474.13" y="138" width="280" height="6"/><rect class="cls-38" x="474.13" y="128" width="280" height="6"/><rect class="cls-38" x="474.13" y="118" width="280" height="6"/><rect class="cls-38" x="474.13" y="108" width="280" height="6"/><rect class="cls-38" x="474.13" y="98" width="280" height="6"/><rect class="cls-36" x="474.13" y="201" width="280" height="2"/><rect class="cls-36" x="474.13" y="192" width="280" height="2"/><rect class="cls-36" x="474.13" y="182" width="280" height="2"/><rect class="cls-36" x="474.13" y="172" width="280" height="2"/><rect class="cls-36" x="474.13" y="162" width="280" height="2"/><rect class="cls-36" x="474.13" y="152" width="280" height="2"/><rect class="cls-36" x="474.13" y="142" width="280" height="2"/><rect class="cls-36" x="474.13" y="132" width="280" height="2"/><rect class="cls-36" x="474.13" y="122" width="280" height="2"/><rect class="cls-36" x="474.13" y="112" width="280" height="2"/><rect class="cls-36" x="474.13" y="102" width="280" height="2"/><rect class="cls-36" x="522" y="88" width="6" height="124.25"/><rect class="cls-36" x="702" y="88" width="6" height="124.25"/><path class="cls-33" d="M502.86,271.31V88h-6v183.3a4,4,0,0,0-3.55,4v21a4,4,0,0,0,4,4h5a4,4,0,0,0,4-4v-21A4,4,0,0,0,502.86,271.31Z"/><rect class="cls-39" x="454.13" y="83" width="320" height="10"/><rect class="cls-39" x="469.86" y="88" width="10" height="343"/><rect class="cls-39" x="749.86" y="88" width="10" height="343"/><circle class="cls-40" cx="864.65" cy="77" r="50"/><rect class="cls-23" x="437.88" y="424" width="352.5" height="14"/><circle class="cls-33" cx="869.65" cy="74" r="50"/><circle class="cls-7" cx="869.65" cy="74" r="42.5"/><path class="cls-30" d="M869.65,31.5a42.89,42.89,0,0,0-5,.3,42.49,42.49,0,0,1,0,84.39,42.5,42.5,0,1,0,5-84.7Z"/><rect class="cls-36" x="864.65" y="70.5" width="34.69" height="7" rx="3.5" ry="3.5"/><rect class="cls-36" x="849.81" y="55.66" width="39.69" height="7" rx="3.5" ry="3.5" transform="translate(810.5 928.81) rotate(-90)"/><rect class="cls-4" x="839.31" y="82.16" width="39.69" height="4" rx="2" ry="2" transform="translate(192.13 632.16) rotate(-45)"/><circle class="cls-14" cx="869.65" cy="74" r="7.5"/><path class="cls-19" d="M1151.87,622.28H941.75a18,18,0,0,1-18-18V527.79a18,18,0,0,1,14.42-17.64l210.12-42.69a18,18,0,0,1,21.58,17.64V604.28A18,18,0,0,1,1151.87,622.28Z"/><path class="cls-27" d="M1148.29,467.47l-.1,0a17.91,17.91,0,0,1,1.69,7.62v57.18a80,80,0,0,1-80,80H925.64a18,18,0,0,0,16.11,10h210.12a18,18,0,0,0,18-18V485.12A18,18,0,0,0,1148.29,467.47Z"/><path class="cls-27" d="M105.55,386.59l5.1-1.15a14.52,14.52,0,0,0-5.31,13.21l6.94,52.92a10,10,0,0,0,7.92,8.5l37.06,7.53,7.09,76.15.11,1.15h0l-51.53-.46h0L94.34,402.65A14.53,14.53,0,0,1,105.55,386.59Z"/><path class="cls-21" d="M220.38,308a48.61,48.61,0,0,1-2.28-15.38,28.84,28.84,0,0,1-4.78-15.11l-.06-2.33-.11.18-.76,6a41.13,41.13,0,0,0,.42,13h0a41.12,41.12,0,0,0,7.56,17l1.88,2.48Z"/><path class="cls-41" d="M241.64,487.16c.05-1.92.13-4.69.22-8l-.15,0-54.8-1.62a18,18,0,0,1-17.44-19L175,358a65.89,65.89,0,0,1,18.55-42.27l-4-2A65.89,65.89,0,0,0,169,358l-6.59,118.81-.44,8h0Z"/><path class="cls-19" d="M104.23,622.28H314.36a18,18,0,0,0,18-18V527.79a18,18,0,0,0-14.42-17.64L107.82,467.47a18,18,0,0,0-21.58,17.64V604.28A18,18,0,0,0,104.23,622.28Z"/><path class="cls-27" d="M107.82,467.56l.1,0a17.91,17.91,0,0,0-1.69,7.62v57.18a80,80,0,0,0,80,80H330.46a18,18,0,0,1-16.11,10H104.23a18,18,0,0,1-18-18V485.21A18,18,0,0,1,107.82,467.56Z"/><polygon class="cls-42" points="749.86 154.38 475 429.25 475 431 484.55 431 749.86 165.69 749.86 154.38"/><polygon class="cls-42" points="749.86 181.83 500.69 431 533.31 431 749.86 214.45 749.86 181.83"/><polygon class="cls-42" points="749.86 249.96 568.82 431 580.13 431 749.86 261.28 749.86 249.96"/><polygon class="cls-42" points="749.86 277.41 596.27 431 628.89 431 749.86 310.03 749.86 277.41"/><rect class="cls-19" x="489.33" y="597.09" width="256.84" height="25.47" rx="8" ry="8"/><path class="cls-27" d="M509.33,614.57v-9.47a8,8,0,0,1,8-8h-20a8,8,0,0,0-8,8v9.47a8,8,0,0,0,8,8h20A8,8,0,0,1,509.33,614.57Z"/><rect class="cls-19" x="531.37" y="597.09" width="172.77" height="140.8"/><polygon class="cls-27" points="704.14 635.88 531.37 695.88 531.37 622.57 704.14 622.57 704.14 635.88"/><rect class="cls-39" x="437.88" y="424" width="352.5" height="14"/><path class="cls-41" d="M619.84,556.72c-.2-1-1.46-.84-2.63-2.76a10.35,10.35,0,0,1-1.22-6.71c.73-5.34,5-8.81,1.24-15.94a12.09,12.09,0,0,0-3.63-4.35c-6.39-4.58-13-3.26-16.82-7.27-4.67-4.91,1.88-11.49-2.48-19s-13-4.8-16.65-12.34c-2.94-6,1.42-10.29-2.17-15.17-2.71-3.68-8.76-6.13-13.57-3.82-5.23,2.51-7,9.64-5.23,14.13,2,5,7.22,4.42,9.87,9.81,3.46,7.06-3.59,12.06-.61,19.77,2.88,7.45,10.66,5.85,12.37,12.76,1.31,5.28-2.24,10.21-2.19,19a14,14,0,0,0,1.08,5.56c3.17,7.4,8.55,6.28,13.15,9.09a10.35,10.35,0,0,1,4.44,5.17,9.86,9.86,0,0,1,.49,3.79c0,.27,0,.3.08.35C596.73,571.12,620.74,561.15,619.84,556.72Z"/><path class="cls-41" d="M612.1,561.57c.18-.86,1.32-.75,2.37-2.49a9.31,9.31,0,0,0,1.09-6c-.65-4.8-4.48-7.92-1.11-14.33a10.87,10.87,0,0,1,3.26-3.91c5.74-4.12,11.69-2.93,15.12-6.54,4.2-4.41-1.69-10.33,2.23-17.1s11.68-4.32,15-11.09c2.64-5.44-1.28-9.25,1.95-13.64,2.43-3.31,7.88-5.51,12.21-3.44,4.71,2.25,6.28,8.67,4.7,12.7-1.76,4.48-6.5,4-8.87,8.82-3.11,6.35,3.22,10.85.55,17.78-2.59,6.7-9.58,5.26-11.12,11.47-1.18,4.75,2,9.18,2,17.07a12.56,12.56,0,0,1-1,5c-2.85,6.65-7.69,5.65-11.82,8.17a9.31,9.31,0,0,0-4,4.65,8.87,8.87,0,0,0-.44,3.41c0,.24,0,.27-.07.31C632.88,574.51,611.29,565.55,612.1,561.57Z"/><path class="cls-43" d="M650,500.08c-3.29,6.77-11.08,4.38-15,11.09s2,12.68-2.23,17.1c-3.43,3.6-9.38,2.42-15.12,6.54a10.87,10.87,0,0,0-3.26,3.91c-3.37,6.41.46,9.53,1.11,14.33a9.31,9.31,0,0,1-1.09,6c-1.05,1.73-2.19,1.63-2.37,2.49-.81,4,20.78,12.95,22,10.82,0,0,.08-.07.07-.31a8.87,8.87,0,0,1,.44-3.41,9.31,9.31,0,0,1,4-4.65c4.14-2.52,9-1.52,11.82-8.17a12.55,12.55,0,0,0,1-5c0-6.6-2.18-10.78-2.22-14.75a19.13,19.13,0,0,1-5.59-6.34A12.91,12.91,0,0,1,642,525a13.56,13.56,0,0,1,2.34-8.62c3.86-5.9,10.85-7.62,10.44-18.15a14.68,14.68,0,0,0-3.82-9.9C649.77,492,652.29,495.44,650,500.08Z"/><path class="cls-43" d="M619.84,556.72c-.2-1-1.46-.84-2.63-2.76a10.35,10.35,0,0,1-1.22-6.71c.73-5.34,5-8.81,1.24-15.94a12.09,12.09,0,0,0-3.63-4.34c-6.39-4.58-13-3.26-16.82-7.27-4.67-4.91,1.88-11.49-2.48-19-3.86-6.67-11.19-5.26-15.31-10.25a15.46,15.46,0,0,0-2.22,7.8c-.42,10.53,6.57,12.25,10.44,18.15a13.56,13.56,0,0,1,2.34,8.62,12.92,12.92,0,0,1-1.56,4.75c-2.47,4.64-6.24,6.71-7.87,8a13.57,13.57,0,0,0-4,6.12c0,.3,0,.6,0,.91a14,14,0,0,0,1.08,5.56c3.17,7.4,8.55,6.28,13.15,9.09a10.35,10.35,0,0,1,4.44,5.17,9.86,9.86,0,0,1,.49,3.79c0,.27,0,.3.08.35C596.73,571.12,620.74,561.15,619.84,556.72Z"/><path class="cls-13" d="M641.47,537.78c-1.63-1.31-5.41-3.38-7.87-8A12.92,12.92,0,0,1,632,525a13.56,13.56,0,0,1,2.34-8.62c3.86-5.9,10.85-7.62,10.44-18.15-.62-15.59-16.84-13.07-17.64-25.25-.57-8.57,7.24-10,7.3-19.77.07-11.81-11.31-14.51-11-25.86.3-9.34,8.12-10.89,7.91-19.77-.2-8.37-7.41-18.43-15.61-19.68h-.06c-8.2,1.25-15.41,11.32-15.61,19.68-.21,8.88,7.61,10.43,7.91,19.77.36,11.35-11,14-11,25.86.06,9.77,7.87,11.2,7.3,19.77-.81,12.17-17,9.66-17.64,25.25-.42,10.53,6.57,12.25,10.44,18.15a13.56,13.56,0,0,1,2.34,8.62,12.92,12.92,0,0,1-1.56,4.75c-2.47,4.64-6.24,6.71-7.87,8-6.29,5.06-7.88,20.78-.3,31.94,7.13,10.49,20.38,11.5,26,11.56h.06c5.57-.06,18.83-1.07,26-11.56C649.35,558.56,647.76,542.84,641.47,537.78Z"/><path class="cls-41" d="M641.47,537.78l-.48-.37-.19-.14-.18-.13a24.35,24.35,0,0,1-5.31-4.77h0a17.32,17.32,0,0,1-1.72-2.63A12.91,12.91,0,0,1,632,525a13.56,13.56,0,0,1,2.34-8.62c3.86-5.9,10.85-7.62,10.44-18.15-.62-15.59-16.83-13.07-17.64-25.25-.57-8.57,7.24-10,7.3-19.77.07-11.81-11.31-14.51-11-25.85.3-9.34,8.12-10.89,7.91-19.77-.2-8.37-7.41-18.43-15.61-19.68h-.06a13.83,13.83,0,0,0-5,1.87c5.94,3.55,10.48,11.2,10.64,17.81.21,8.88-7.61,10.43-7.91,19.77-.36,11.35,11,14,11,25.85-.06,9.77-7.87,11.2-7.3,19.77.81,12.17,17,9.66,17.64,25.25.42,10.53-6.57,12.25-10.44,18.15A13.56,13.56,0,0,0,622,525a12.91,12.91,0,0,0,1.56,4.75q.21.39.44.77c4.1,6.59,1.72,15.35-5.46,18.27a33.69,33.69,0,0,1-12.76,2.48h-.06c-4.28,0-13.06-.67-20.14-5.68a30.68,30.68,0,0,0,4.19,24.12c5.47,8.05,14.54,10.51,21,11.25h0a48.68,48.68,0,0,0,4.94.31h.06c5.57-.06,18.83-1.07,26-11.56C649.35,558.56,647.76,542.84,641.47,537.78Z"/><path class="cls-44" d="M643.1,597.29H588.41a10,10,0,0,1-9.94-8.87l-3-26.26H656l-3,26.26A10,10,0,0,1,643.1,597.29Z"/><polygon class="cls-14" points="656.03 562.15 575.48 562.15 577.37 578.71 655.88 563.44 656.03 562.15"/><rect class="cls-44" x="570.75" y="555.44" width="90" height="8" rx="3" ry="3"/><path class="cls-27" d="M312.72,513.18,288,510.89a12.07,12.07,0,0,1-10.56-9h0l32.26,7.44Z"/><path class="cls-3" d="M312.72,513.18h0a21.88,21.88,0,0,0-11-18.8L285,484.75l-8.63-8L268,491l9.24,10.2Z"/><path class="cls-9" d="M282.23,498.24,273,488l5.45-9.33-2.11-2L268,491l9.24,10.2,35.49,11.94a21.85,21.85,0,0,0-.6-4.89Z"/><path class="cls-25" d="M388.92,27.83V79.3a16,16,0,0,1-16,16H306.57v6h92.35V27.83Z"/><rect class="cls-45" x="388.92" y="33.28" width="4.81" height="5.1"/><rect class="cls-28" x="388.92" y="63.13" width="4.81" height="2.55"/><rect class="cls-28" x="388.92" y="44.76" width="4.81" height="2.55"/><rect class="cls-28" x="388.92" y="57.01" width="4.81" height="2.55"/><rect class="cls-28" x="388.92" y="50.88" width="4.81" height="2.55"/><rect class="cls-28" x="388.92" y="69.25" width="4.81" height="2.55"/><rect class="cls-28" x="388.92" y="75.37" width="4.81" height="2.55"/><path class="cls-45" d="M379.76,93.74h14V90.17h-9.09A16,16,0,0,1,379.76,93.74Z"/><path class="cls-7" d="M1062.67,322.81h0A29.49,29.49,0,0,0,1018,335.47h0a29.49,29.49,0,0,0-2,14.61l7.18,60.87,56.86,8.59-2.38-68.49A36.54,36.54,0,0,0,1062.67,322.81Z"/><path class="cls-8" d="M1077.65,351.05a36.54,36.54,0,0,0-15-28.24h0c-.39-.29-.79-.55-1.19-.82a36.53,36.53,0,0,1,6.17,19.06l1.87,53.63a12.34,12.34,0,0,1-14.18,12.64l-33.17-5,1,8.64,56.86,8.59Z"/><rect class="cls-29" x="302.74" y="24" width="100" height="81.12" rx="4" ry="4"/><rect class="cls-7" x="306.57" y="27.83" width="92.35" height="73.47"/><path class="cls-4" d="M317.52,94h-.1c-1.88-.09-2.88-2.67-3.6-5.17a27.72,27.72,0,0,1-1-9.63c.31-4.22.59-8.21,2.91-12.85,2.43-4.87,7.81-11.5,11.61-10.24a4.64,4.64,0,0,1,2.58,2.48,7.32,7.32,0,0,1,.33,2.5c0,.74,0,1.49,0,2.23a1,1,0,1,1-2-.08c0-.69,0-1.38,0-2.08a6.41,6.41,0,0,0-.19-1.81,2.6,2.6,0,0,0-1.33-1.31c-1.93-.64-6.54,4-9.14,9.21-2.14,4.28-2.41,8.07-2.7,12.08a25.66,25.66,0,0,0,.94,8.91c.89,3.07,1.53,3.6,1.71,3.69.11-.08.31-.27.5-.44s.6-.56,1.05-.94a24,24,0,0,1,3.53-2.38c.68-.41,1.25-.7,1.85-1,.76-.4,1.63-.85,3-1.66.79-.47,1.28-.79,1.45-1.27a2.55,2.55,0,0,0-.07-1.35l0-.16c0-.06-.29-1.61-.57-4.41a15.17,15.17,0,0,1,0-2.15c0-.57.06-1.21.07-1.93a1,1,0,0,1,2,0c0,.76,0,1.42-.08,2a14.21,14.21,0,0,0,0,1.84c.27,2.7.54,4.22.55,4.24l0,.15a4.33,4.33,0,0,1,0,2.38,4.57,4.57,0,0,1-2.34,2.38c-1.4.83-2.29,1.3-3.07,1.71-.6.32-1.12.59-1.76,1a22.14,22.14,0,0,0-3.26,2.19c-.41.34-.72.63-1,.86A2.68,2.68,0,0,1,317.52,94Z"/><path class="cls-4" d="M347.49,94a2.67,2.67,0,0,1-1.85-1c-.25-.23-.56-.52-1-.86a22.16,22.16,0,0,0-3.26-2.19c-.64-.38-1.16-.65-1.76-1-.78-.41-1.67-.88-3.07-1.71a4.57,4.57,0,0,1-2.34-2.38,4.33,4.33,0,0,1,0-2.38l0-.16s.28-1.54.55-4.23a14.24,14.24,0,0,0,0-1.85c0-.59-.06-1.25-.08-2a1,1,0,0,1,2,0c0,.72,0,1.36.07,1.93a15.21,15.21,0,0,1,0,2.15c-.27,2.79-.56,4.34-.57,4.41l0,.16a2.55,2.55,0,0,0-.07,1.35c.16.49.65.81,1.45,1.27,1.35.8,2.22,1.26,3,1.66.6.32,1.17.61,1.85,1A24,24,0,0,1,346,90.57c.45.38.79.69,1.05.94s.39.36.5.44c.17-.08.81-.6,1.71-3.69a25.65,25.65,0,0,0,.94-8.91c-.29-4-.56-7.81-2.7-12.08-2.6-5.2-7.21-9.85-9.14-9.21A2.59,2.59,0,0,0,337,59.36a6.42,6.42,0,0,0-.19,1.81c0,.69,0,1.39,0,2.08a1,1,0,1,1-2,.08c0-.74,0-1.49,0-2.23a7.33,7.33,0,0,1,.33-2.5,4.64,4.64,0,0,1,2.58-2.48c3.8-1.26,9.18,5.36,11.61,10.24,2.32,4.64,2.61,8.63,2.91,12.85a27.7,27.7,0,0,1-1,9.63c-.73,2.5-1.73,5.08-3.6,5.17Z"/><path class="cls-4" d="M325.43,79.12a1,1,0,0,1-1-.81,6,6,0,0,1,0-2.59,5.2,5.2,0,0,1,.47-1.26c.09-.19.19-.39.29-.65a4.32,4.32,0,0,0,.52-2.26c-.09-.23-.46-.38-1.34-.69-.52-.19-1.17-.42-1.92-.77a16.54,16.54,0,0,1-3.62-2.3,1,1,0,0,1,1.31-1.57,14.49,14.49,0,0,0,3.17,2c.66.31,1.24.51,1.75.7,1.14.41,2.13.76,2.56,1.89s-.06,2.56-.53,3.74c-.14.34-.26.6-.36.8a3.22,3.22,0,0,0-.31.81,4,4,0,0,0,0,1.72,1,1,0,0,1-.79,1.21Z"/><path class="cls-4" d="M318.38,77a1,1,0,0,1-.79-1.67,8.57,8.57,0,0,1,3.34-2.55,9.87,9.87,0,0,1,1.56-.47,7,7,0,0,0,1.79-.62A7.13,7.13,0,0,0,326,70.45a1,1,0,0,1,1.42,1.47,9.17,9.17,0,0,1-2.17,1.56,9.05,9.05,0,0,1-2.25.79,8.09,8.09,0,0,0-1.26.38,6.56,6.56,0,0,0-2.54,2A1,1,0,0,1,318.38,77Z"/><path class="cls-4" d="M339.31,79.12l-.21,0a1,1,0,0,1-.79-1.21,4,4,0,0,0,0-1.72,3.22,3.22,0,0,0-.31-.81c-.1-.21-.23-.46-.36-.8-.47-1.18-1-2.52-.53-3.74s1.42-1.48,2.56-1.89c.51-.18,1.09-.39,1.75-.7a14.49,14.49,0,0,0,3.17-2,1,1,0,0,1,1.31,1.57,16.54,16.54,0,0,1-3.62,2.3c-.75.35-1.4.58-1.92.77-.88.32-1.25.47-1.34.69a4.31,4.31,0,0,0,.52,2.26c.11.27.2.46.3.65a5.2,5.2,0,0,1,.47,1.26,6,6,0,0,1,0,2.59A1,1,0,0,1,339.31,79.12Z"/><path class="cls-4" d="M346.35,77a1,1,0,0,1-.79-.37,6.56,6.56,0,0,0-2.54-2,8.09,8.09,0,0,0-1.26-.38,9,9,0,0,1-2.25-.79,9.17,9.17,0,0,1-2.17-1.56,1,1,0,0,1,1.42-1.47,7.13,7.13,0,0,0,1.68,1.21,7,7,0,0,0,1.79.62,9.87,9.87,0,0,1,1.56.47,8.57,8.57,0,0,1,3.34,2.55,1,1,0,0,1-.79,1.67Z"/><path class="cls-4" d="M339.1,69.81h0a2,2,0,0,1-1.59-.53l-3.85-3.58V45a1.27,1.27,0,0,0-1.27-1.27h0A1.27,1.27,0,0,0,331.08,45V65.7l-3.51,3.54a2.25,2.25,0,0,1-1.81.66l-1.41-.13,1.83.49c-.25.23.26.46.24.77s-.55.76-.3,1c.09.09.34-.45.44-.38S325.8,75,326,75s1.89-2.93,1.89-2.93L332.37,68l4.05,3.76a4.39,4.39,0,0,1,.7.84l1.08,1.68a10.47,10.47,0,0,1-.23-2.57c.05-.24.71.2.71.2a1.67,1.67,0,0,1-.51-.77,1.5,1.5,0,0,1,.3-.73C338.52,70.3,339.1,69.81,339.1,69.81Z"/><rect class="cls-46" x="312.09" y="33.28" width="81.63" height="5.1"/><rect class="cls-33" x="361.32" y="44.76" width="32.4" height="2.55"/><rect class="cls-33" x="361.32" y="50.88" width="32.4" height="2.55"/><rect class="cls-33" x="361.32" y="57.01" width="32.4" height="2.55"/><rect class="cls-33" x="361.32" y="63.13" width="32.4" height="2.55"/><rect class="cls-33" x="361.32" y="69.25" width="32.4" height="2.55"/><rect class="cls-33" x="361.32" y="75.37" width="32.4" height="2.55"/><rect class="cls-46" x="376.63" y="90.17" width="17.09" height="3.57"/><polygon class="cls-24" points="874.96 602.52 835.12 697.85 845.12 697.85 873.58 629.75 874.96 602.52"/><path class="cls-3" d="M282.52,482.45l-54.74-54.79-7.07-67.83a16.18,16.18,0,0,0-8.46-12.59h0a16.18,16.18,0,0,0-22.47,7.85h0a44.4,44.4,0,0,0-2.55,27.45l14.3,63,68.9,48.19Z"/><path class="cls-9" d="M206.53,442.56l-14.3-63a44.4,44.4,0,0,1,2.55-27.45h0a16.09,16.09,0,0,1,4.15-5.7,16.09,16.09,0,0,0-9.15,8.7h0a44.4,44.4,0,0,0-2.55,27.45l14.3,63,68.9,48.19,4-3.72Z"/><path class="cls-30" d="M389.08,27.83V79.3a16,16,0,0,1-16,16H306.73v6h92.35V27.83Z"/><rect class="cls-34" x="389.08" y="63.13" width="4.81" height="2.55"/><rect class="cls-34" x="389.08" y="44.76" width="4.81" height="2.55"/><rect class="cls-34" x="389.08" y="57.01" width="4.81" height="2.55"/><rect class="cls-34" x="389.08" y="50.88" width="4.81" height="2.55"/><rect class="cls-34" x="389.08" y="69.25" width="4.81" height="2.55"/><rect class="cls-34" x="389.08" y="75.37" width="4.81" height="2.55"/><path class="cls-47" d="M379.93,93.74h14V90.17h-9.09A16,16,0,0,1,379.93,93.74Z"/><rect class="cls-47" x="388.92" y="33.28" width="4.81" height="5.1"/></g></g></svg>