<?xml version="1.0" encoding="utf-8"?>
<!-- Generator: Adobe Illustrator 22.1.0, SVG Export Plug-In . SVG Version: 6.00 Build 0)  -->
<svg version="1.1" xmlns="http://www.w3.org/2000/svg" xmlns:xlink="http://www.w3.org/1999/xlink" x="0px" y="0px"
	 viewBox="0 0 764 897" style="enable-background:new 0 0 764 897;" xml:space="preserve">
<style type="text/css">
	.st0{display:none;}
	.st1{display:inline;}
	.st2{fill:#502000;}
	.st3{fill:#FFCA9F;}
	.st4{fill:#7C3B11;}
	.st5{fill:#FBD2D0;}
	.st6{fill:#F27584;}
	.st7{fill:#F5949B;}
	.st8{fill:#344B5E;}
	.st9{fill:#3D566A;}
	.st10{fill:#B5581E;}
	.st11{fill:#FFDFAA;}
	.st12{fill:#B23C53;}
	.st13{fill:#F89A64;}
	.st14{fill:#425D73;}
	.st15{fill:#F7A9AC;}
	.st16{fill:#596B80;}
	.st17{fill:#9CA1AF;}
	.st18{fill:#55697D;}
	.st19{fill:#9D694A;}
	.st20{fill:none;}
	.st21{fill:#F9A877;}
	.st22{display:inline;fill:#D1D1D1;}
	.st23{display:inline;fill:#BABABA;}
	.st24{display:inline;fill:#FFCA9F;}
	.st25{display:inline;fill:#BC7950;}
	.st26{display:inline;fill:#F9A877;}
	.st27{display:inline;fill:#CF8558;}
	.st28{display:inline;fill:#324851;}
	.st29{display:inline;fill:#F9A98D;}
	.st30{display:inline;fill:#AB331A;}
	.st31{display:inline;fill:#464461;}
	.st32{display:inline;fill:#FBD2D0;}
	.st33{display:inline;fill:#403E59;}
	.st34{display:inline;fill:#6D677F;}
	.st35{display:inline;fill:#F7A9AC;}
	.st36{display:inline;fill:#D24862;}
	.st37{display:inline;fill:#B23C53;}
	.st38{fill:#EEC599;}
	.st39{fill:#4A3B40;}
	.st40{fill:#A0642F;}
	.st41{fill:#3CB6D3;}
	.st42{fill:#EAD5B8;}
	.st43{fill:#BE894A;}
	.st44{fill:#A47D4D;}
	.st45{fill:#E5E5E5;}
	.st46{fill:#FCC996;}
	.st47{opacity:0.51;fill:#BE894A;}
	.st48{fill:#C3CFD2;}
	.st49{fill:#FFFFFF;}
	.st50{fill:#B6B3AD;}
	.st51{fill:#349980;}
	.st52{fill:#604B3B;}
	.st53{fill:#E2BF95;}
	.st54{fill:url(#SVGID_1_);}
	.st55{fill:url(#SVGID_2_);}
	.st56{opacity:0.67;}
	.st57{fill:url(#SVGID_3_);}
	.st58{fill:url(#SVGID_4_);}
	.st59{fill:#DEDEDE;}
	.st60{fill:#C6995E;}
	.st61{fill:#C89B75;}
	.st62{fill:#D7A67D;}
	.st63{opacity:0.17;}
	.st64{fill:url(#SVGID_5_);}
	.st65{fill:url(#SVGID_6_);}
	.st66{fill:#EBA481;}
	.st67{fill:url(#SVGID_7_);}
	.st68{fill:url(#SVGID_8_);}
	.st69{fill:#EAEBEA;}
	.st70{fill:#59422B;}
	.st71{fill:#192629;}
	.st72{fill:#7C523C;}
	.st73{opacity:0.54;}
	.st74{fill:#F0B98B;}
	.st75{opacity:0.41;fill:url(#SVGID_9_);}
</style>
<g id="Layer_1" class="st0">
	<g id="Layer_1_1_" class="st1">
		<g id="_Group_">
			<path class="st2" d="M483.4,741.8c2.5,3.3,1.5,6.2-6.7,7.3c-15.1,2.5-30.8-0.6-45.2-5c-11.9-4.1-17.4-5.7-16.8-15h0.5
				c6.6,7.8,24.5,11.2,34.2,13.7C458.7,745.5,473.7,747.3,483.4,741.8z"/>
			<path class="st3" d="M478.1,491.8c1.6,3.2,4.2,8.9,1.2,12.2l-1.1,0.2c0.3,1.5,0.5,3.1,0.5,4.7c-0.2,4.6-2.7,4.6-5,0.7
				c-2.2-3.5-2.3-7.8-4.4-11.5c2.4,9.5,3.4,18.3,0.8,18.4c-4,2.3-6.3-17.8-9.3-24.9h-0.2c1,9.6,3.1,16.6,0.3,25.3
				c-1.2,0.1-3.1,3.9-4,1.6h0.1c-0.4-10.4-3.1-24.8-7.6-33.7l-0.2,0.1c2.5,6-4.8,28-13.5,16.3l1.3-0.1c3-5,5.8-18.2,5.6-25.4
				c8.4-0.8,16.9-1,25.3-0.7c0,0.7,0,1.3,0,2h0.1c1.8,1.3,2.7,3.9,3.9,5.7C473.9,485.7,476.3,488.4,478.1,491.8z"/>
			<path class="st4" d="M461.6,728c5.4,2.3,17.9,8.6,21.8,13.8c-9.6,5.5-24.7,3.7-34,1.1c-9.7-2.5-27.6-5.9-34.2-13.7h-0.5
				c0-0.2,0-0.3,0-0.5c5.5-0.2,13.5-2.4,21-5.4c1.4-0.5,2.8-1.1,4.1-1.7c0,0.3,0,0.7-0.1,1C446.4,721.8,455.3,725.7,461.6,728z"/>
			<path class="st5" d="M460.7,464.5c3.2-0.4,6-0.7,8.1-0.8c0.1,4.1-0.8,7.2-0.9,11.2c-8.4-0.3-16.9-0.1-25.3,0.7
				c-0.4,0-0.8,0.1-1.3,0.1c0.4-3.3,0.6-6.6,0.7-10C446.9,465.2,454.8,465.2,460.7,464.5z"/>
			<path class="st6" d="M387.3,285.2c1.1-2.1,2.2-4.3,3.2-6.5c0.8,0.9,1.6,1.9,2.3,2.9h0.1"/>
			<path class="st6" d="M468.8,463.7c-2.1,0.1-4.9,0.4-8.1,0.8v-3.9"/>
			<path class="st7" d="M460.8,460.7v3.9c-5.9,0.7-13.9,0.7-18.7,1.2"/>
			<path class="st7" d="M377.6,289.8l0.4-0.3c1.3,1.5,2.7,2.9,4,4h0.4c1.7-2.5,3.4-5.3,5-8.2"/>
			<path class="st7" d="M406.3,450.1h-24.5"/>
			<path class="st8" d="M430.4,501.9c9.6,75.2,15.5,148.1,9.3,219.8c-1.3,0.6-2.7,1.2-4.1,1.7l-0.4-0.9c-2.5-11.8-0.6-122-6.3-163.7
				c-2.3-17.6-9.5-77.3-15.7-98.7h12.1h0.2C427.6,474.2,428.6,487.5,430.4,501.9z"/>
			<path class="st9" d="M435.3,722.4l0.4,0.9c-7.4,3-15.5,5.2-21,5.4c0.2-2.1,0.6-4.3,1.1-6.3h0.2c-0.1-50.1-2.7-105.2-10.9-153.3
				c-1-4.3-15.8-74.3-32.7-68l0.4-38.2h9.1V460h31.4c6.2,21.5,13.4,81.1,15.7,98.7C434.6,600.4,432.8,710.5,435.3,722.4z"/>
			<path class="st10" d="M413.3,460h-31.4v-10h42.3c0.5,3.3,1,6.6,1.4,9.9h-0.2L413.3,460z"/>
			<path class="st6" d="M424.1,450h-17.8"/>
			<path class="st5" d="M387.3,285.2c-1.6,2.9-3.3,5.7-5,8.2h-0.4c-1.3-1.2-2.6-2.5-4-4c-4.2-4.8-6.3-10.9-7.9-16.3l-1-0.1v-1h0.1
				c0.9,0,1.8-0.1,2.7-0.1c2.4-0.3,4.8-0.8,7.1-1.5c0.3,0,0.6,0.1,0.9,0.2c4.7,1,6.9,3.9,10.6,8.2
				C389.5,280.9,388.4,283.1,387.3,285.2z"/>
			<polyline class="st11" points="381.9,450 381.9,460 381.9,462.9 372.8,462.9 			"/>
			<path class="st12" d="M359.6,288.8c3.3-5,8.6-10.8,9.3-15.9l1,0.1c1.8,5.5,3.8,11.6,8,16.4l-0.4,0.3"/>
			<path class="st13" d="M379.8,270.1l-0.8,0.3c-2.3,0.7-4.7,1.1-7.1,1.4"/>
			<path class="st4" d="M352.9,728.2c7.2,1.2,14.4,1.7,21.7,1.6c0.6,1.8,0.9,3.8,1,5.7c0,0.4-0.1,0.9-0.1,1.3
				c-5,1-10.3,3.2-15.2,4.3c-6.6,1.2-13.1,3.4-20.1,4.4c-7.9,1.2-25.9,5.6-32.9-1.2c1.4-2.5,3.3-4.6,5.6-6.2
				c6.3-5,24.5-10.6,33.3-11.2l0.1-0.2C348.4,727.3,350.6,727.8,352.9,728.2z"/>
			<path class="st14" d="M374.6,729.8c-7.3,0.1-14.5-0.4-21.7-1.6c-2.9-15.5-16.5-113.4-20.1-141.1c-1.7-12.5-5-57.6-6.3-69.2
				c-1.9-19.5,0.3-38.4,2.5-57.9h30.3v2.9h13.5l-0.4,38.2c-0.6,0.2-1.1,0.5-1.7,0.9l0.1,0.2c-22.9,15.6-13.3,166.9-0.2,217.9
				C372.3,723.2,373.6,726.4,374.6,729.8z"/>
			<path class="st2" d="M375.5,736.8c-0.8,6.9-3.7,7.8-10.2,9.5c-14.7,3.7-29.7,6.1-44.9,7.2c-10,0.5-16-3.3-13.1-9.3
				c7,6.8,25,2.4,32.9,1.2c6.9-0.9,13.5-3.1,20.1-4.4C365.2,740,370.5,737.8,375.5,736.8z"/>
			<polyline class="st11" points="372.8,462.9 359.3,462.9 359.3,460 359.3,450 			"/>
			<path class="st15" d="M341.4,281.4l0.3,0.3c1.2-1.4,2.4-2.7,3.8-3.8c1.3,6.8,5.4,12.1,10.5,16.8c1.2-1.8,2.5-3.7,3.9-5.8"/>
			<path class="st15" d="M297.9,474.6c0,0.7-0.6,1.4-1.3,1.3c-6.2-0.4-13.4-0.8-17.8-0.8c-0.7,0-1.2-0.5-1.2-1.2"/>
			<path class="st15" d="M359.3,450h-40.1"/>
			<path class="st13" d="M371.9,271.8c-0.9,0.1-1.8,0.1-2.7,0.1h-0.1c-2.4,0-4.7-0.5-6.8-1.6"/>
			<path class="st5" d="M369.1,272v1c-0.7,5.1-6,10.9-9.3,15.9c-1.4,2.1-2.8,4.1-3.9,5.8c-5.1-4.7-9.2-10-10.5-16.8
				c4.3-3.7,11.4-6.3,16.9-7.5C364.4,271.5,366.8,272,369.1,272z"/>
			<path class="st10" d="M329,460h-9.9c0-3.3,0-6.7,0-10h40.1v10H329z"/>
			<path class="st16" d="M352.9,728.2c-2.3-0.4-4.5-0.9-6.6-1.7c-1-0.3-1.9-0.9-2.6-1.6l2.1-0.4C328.1,672,320.3,588,318.5,504.2
				c0-0.3,0-0.6,0-0.9c-0.3-15,0.5-28.8,0.6-43.4h9.9c-2.2,19.6-4.4,38.5-2.5,57.9c1.3,11.6,4.6,56.8,6.3,69.2
				C336.4,614.8,350,712.7,352.9,728.2z"/>
			<path class="st7" d="M304.9,468.5c-1.1-0.1-3.1,3.7-4.9,6c-0.7,0.9-2.1,0.4-2.2-0.7"/>
			<path class="st3" d="M312.6,503.3l0.6,1c-7.7,10.2-16-10.3-14-16.3H299c-3.8,9.3-5.4,20.8-5.1,31.2h0.1c-0.8,2.4-2.7,1.8-3.9,1.7
				c-3.4-8.5-2.1-15.7-1.8-25.3h-0.2c-2.5,7.2-3.1,27.4-7.2,25.5c-2.6,0.1-2.4-8.7-0.8-18.4c-1.9,3.7-1.7,8-3.6,11.7
				c-2,4.1-4.5,4.2-5-0.3c-0.1-1.6,0-3.1,0.1-4.7l-1.1-0.1c-3.3-3-1-8.9,0.3-12.2c1.5-3.5,3.7-6.4,5.5-9.6c1.1-1.8,1.8-4.5,3.5-5.9
				h0.1c0-0.7-0.1-1.4-0.1-2c8.4-0.9,16.8-1.3,25.3-1.1C305.5,485.6,309.2,498.6,312.6,503.3z"/>
			<path class="st5" d="M297.9,476c2,0.1,5.4-7.6,7-7.5c0.4,3.4,0.9,6.7,1.5,10c-0.4,0-0.8,0-1.2-0.1c-8.4-0.1-16.9,0.2-25.3,1.1
				c-0.3-3.1-1.4-1.4-2-2.6c-0.4-0.8,0.2-1.7,1.1-1.7C283.8,475.1,291.5,475.7,297.9,476z"/>
		</g>
		<path class="st6" d="M447,470.7c0.9,0,1.5-0.7,1.5-1.5c0-0.9-0.7-1.6-1.5-1.6s-1.5,0.7-1.5,1.6C445.5,470,446.1,470.7,447,470.7z"
			/>
		<path class="st6" d="M300.6,475.3c0.8,0,1.4-0.6,1.4-1.4s-0.6-1.4-1.4-1.4s-1.4,0.6-1.4,1.4C299.2,474.6,299.8,475.3,300.6,475.3z
			"/>
		<path class="st17" d="M321.5,484.3c4.8-5,9.7-10.1,15.2-14.3c1.3-1,0-3.1-1.3-2.1c-5.7,4.4-10.7,9.6-15.7,14.7
			C318.6,483.7,320.4,485.5,321.5,484.3z"/>
		<path class="st17" d="M406.2,466.7c6,3.3,11.3,7.9,16.7,12c1.3,1,2.5-1.2,1.3-2.1c-5.5-4.1-10.7-8.7-16.7-12
			C406,463.7,404.8,465.9,406.2,466.7L406.2,466.7z"/>
		<path class="st17" d="M367.9,463.4c1.2,13.3,0.3,25.6,1.2,38.8c0,0.3,0.3,0.6,0.6,0.6c0.2,0,0.4-0.1,0.5-0.3
			c2.1-2.9,4.7-6.2,7.9-7.9c0.2-0.1,0.3-0.3,0.3-0.5c-0.3-10.5,0.4-20-0.4-30.4c-0.1-0.8-1.3-0.8-1.3,0c0.6,8.4-0.1,15.8,0.1,24.1
			c0.1,1.6,0.8,5.6-0.4,6.2c-2.8,1.5-5,4.7-6.9,7.1c-0.8,1,0.6,0.9,0.5-0.1c-0.1-1.5-0.2-3.1-0.3-4.7c-0.2-4.1-0.4-8.1-0.6-12.2
			c-0.4-7.3,0.4-13.5-0.3-20.8C369.1,462.6,367.8,462.6,367.9,463.4L367.9,463.4z"/>
		<path class="st18" d="M345.9,460.9c0,3.2,5,3.2,5,0"/>
		<path class="st18" d="M330.2,450v11.4c0,3.2,5,3.2,5,0V450"/>
		<path class="st18" d="M408.8,460.6c0,3.2,5,3.2,5,0"/>
		<path class="st18" d="M393.1,449.7V461c0,3.2,5,3.2,5,0v-11.3"/>
		<path class="st19" d="M445.3,730.5c1.2-2.7,4.3-4.5,7.1-5.2c1.6-0.4,0.9-2.8-0.7-2.4c-3.4,0.8-7.1,3.1-8.6,6.3
			C442.4,730.7,444.6,731.9,445.3,730.5L445.3,730.5z"/>
		<path class="st19" d="M452.5,734.1c1.6-3,5.2-4.8,8.4-5.7c0.7-0.2,1-0.9,0.9-1.5c-0.2-0.7-0.9-1-1.5-0.9c-3.8,1-8,3.2-9.8,6.8
			C449.6,734.2,451.8,735.5,452.5,734.1z"/>
		<path class="st19" d="M459.7,736.5c2.3-2.4,5.5-3,8.2-4.8c1.3-0.9,0.1-3-1.3-2.1c-2.9,1.9-6.3,2.6-8.7,5.2
			C456.8,735.9,458.6,737.7,459.7,736.5z"/>
		<path class="st19" d="M321,734.2c3.1,0.9,4.6,3.9,7.2,5.5c0.6,0.3,1.4,0.1,1.7-0.5c0.3-0.6,0.1-1.3-0.4-1.6
			c-1.2-0.9-2.3-1.8-3.3-2.9c-1.3-1.3-2.8-2.2-4.5-2.8c-0.7-0.2-1.4,0.2-1.5,0.9C320,733.3,320.4,734,321,734.2L321,734.2z"/>
		<path class="st19" d="M326.4,731.2c3.4,0.9,6.1,3.2,8.2,5.9c1,1.3,2.8-0.5,1.8-1.8c-2.3-3.1-5.6-5.4-9.3-6.5
			c-0.7-0.1-1.3,0.3-1.5,1C325.5,730.4,325.8,731,326.4,731.2z"/>
		<path class="st19" d="M332.8,728.8c2.7,1.5,6.3,2.3,7.4,5.5c0.6,1.5,3,0.8,2.4-0.7c-1.5-4-5.1-5.1-8.6-7c-0.6-0.3-1.4,0-1.7,0.6
			C332.2,727.7,332.3,728.4,332.8,728.8L332.8,728.8z"/>
		<path class="st20" d="M2158.5,223.7"/>
		<path class="st20" d="M-500.3,223.7"/>
		<path class="st3" d="M364.8,269.6"/>
		<path class="st3" d="M362.1,267.5"/>
		<path class="st21" d="M362.2,267.5"/>
		<path class="st21" d="M364.8,269.5"/>
	</g>
	<g id="Layer_2_1_" class="st1">
		<path class="st21" d="M379.8,264.2c-2.9,1.6-5.9,2.5-9,2.5c-2.5,0-5-0.6-7.6-1.8c-1-0.5-2-1.1-3-1.8c4,1.7,8.6,0.4,13.1-1.4"/>
		<path class="st3" d="M373.2,261.7c-4.5,1.8-9.1,3.1-13.1,1.4"/>
		<path class="st13" d="M370.3,275.8c0.7-2.6,1.7-6.7,0.4-9.2c3.1,0,6.1-0.9,9-2.5c0,3.3-2.2,6.7-2.1,10.1"/>
		<path class="st13" d="M361.5,274.4c0-3.1,2-6.3,1.6-9.6c2.6,1.2,5.1,1.8,7.6,1.8c1.3,2.5,0.3,6.5-0.4,9.2"/>
	</g>
	<path class="st22" d="M418.7,169.7c-7.4,2.3-15.9,1.9-24.1,1.1c-13-0.7-34.1-1.4-44.3-9.7c0.8,2.4,2,4.5,2.4,7
		c-5.3,0.3-15-0.9-19.1-4.3c1.8,4.4,4.8,8.6,8.2,11.1c0.2-0.4,0.4-0.8,0.6-1.2c4.9,3.1,14.2,4.5,20.7,4.2c-2.6-0.9-4.5-2.5-5.1-4.6
		c14.6,4.7,31.6,8.4,47.1,6.5c3.1-0.4,6.2-1,9.2-1.9c5.9-1.8,11.5-4.7,16.3-9C426.8,169.3,422.6,169.4,418.7,169.7z"/>
	<path class="st23" d="M331.1,195.3c0.6-2.2,1.3-4.3,2-6.1c0.7-2.4,1.9-4.5,3.3-6.5c0.3-0.5,0.7-1,1.1-1.5c1.6-2.1,3.2-4.2,4.4-6.5
		c-3.4-2.5-6.4-6.7-8.2-11.1c-1-2.5-1.7-5.1-1.7-7.4c-0.3,0.2-0.6,0.4-0.9,0.6c-8.1,6.6-8.9,19.5-9.7,28.5c-0.1,1.2-0.1,2.4-0.2,3.6
		C323.4,191.8,327.5,194.3,331.1,195.3z"/>
	<path class="st23" d="M352.7,168c-0.4-2.4-1.6-4.5-2.4-7c10.2,8.3,31.3,9.1,44.3,9.7c8.1,0.8,16.7,1.2,24.1-1.1
		c-0.2,0-0.4,0-0.6,0.1c5.7-2.1,5.7-9,7.7-13.6c-3.9,6-15.6,2.3-25.1-1.2c-5.4-3.7-12.3-6.2-19.5-7.5h-23.8c-0.5,0.1-1,0.2-1.5,0.3
		c-7.3,2-17.7,4-23.9,8.4c0,2.4,0.7,4.9,1.7,7.4C337.7,167.1,347.5,168.3,352.7,168z"/>
	<path class="st23" d="M405.2,182.5c0,5.1-0.5,10.6-1.3,16.2c2.9-0.8,6.5-1.6,9.4-1.9l0.3,0h0c1-5.7,1.5-12.6,0.7-19.2
		c-2.9,0.9-6,1.5-9.2,1.9C405.2,180.6,405.2,181.6,405.2,182.5z"/>
	<path class="st22" d="M403.4,197.8c-1.1,9.2-3,18.3-5,25c-1,3.6-2.1,6.6-3.1,8.5l-1.3-2.1c-14.3-9.3-33.1-6.4-43.7,2.8
		c-0.5,0.4-0.9,0.8-1.3,1.2c-2.8-4.3-6.8-7.9-10.1-12.2c-3-12-5.9-25.4-3.3-37.5c-1.4,2.1-2.6,4.2-3.2,6.6c-0.7,1.9-1.3,4-1.9,6.2
		c-3.6-1-7.7-3.4-10.1-6.2c-0.1,5.3,0,10.5,1.9,15.8c1-1.6,2.9-2.8,6-3.2c0.2,0.6,0.3,1.1,0.4,1.7c0.3,1.3,0.5,2.6,0.7,3.9
		c0.4,3.2,0.6,6.4,0.6,9.7c0.1,1.9,0.2,3.9,0.3,5.8c0,0.6,0.1,1.2,0.1,1.8c0.1,1.7,0.2,3.5,0.2,5.3c4,9,13,15.4,24.5,18.1
		c13,3.1,39.4,1,52.2-8.6c2.1-5.8,1.1-12.1,0.7-18.4c0-0.9-0.1-1.8-0.1-2.7c0-1.3,0-2.7,0.1-4.2c0.2-2.7,0.5-5.6,0.7-8.5
		c0.2-2.5,0.4-4.9,0.4-7.1c1.1,0.3,2,0.7,2.9,1.2c0.4-1.5,0.7-3.2,0.9-5l-0.3,0C409.8,196.1,406.3,196.9,403.4,197.8z"/>
	<path class="st24" d="M409.1,207.7c3.8,0.2,4.7,8-1,8.5c-0.1,1.5-0.2,2.9-0.2,4.2c0,0.9,0,1.8,0,2.7c9.4-3.3,11.8-16.4,4.6-21.2
		c-0.8-0.5-1.8-1-2.9-1.3C409.6,202.7,409.4,205.2,409.1,207.7z"/>
	<path class="st25" d="M409.1,207.7c-0.3,2.9-0.7,5.8-1,8.5C413.8,215.6,412.9,207.9,409.1,207.7z"/>
	<path class="st26" d="M336.4,182.7c-2.9,12.1-0.4,25.5,2.3,37.6c3.2,4.3,7,8,9.8,12.4c0.4-0.4,0.9-0.8,1.3-1.1
		c-7.5-8.6-7.2-21.4-6.9-31.6c0.3-5.5-0.9-14.1,6.7-15.4c7.6-1.3,15.2,1,22.9-1.5c-1.8,0-3.3-0.8-4.9-1.6c3.4,0,6.7,1.8,10.1,2.4
		c4.3,1,8.8,1.3,13.4,1c4.8-0.2,9.3-1.1,14-2.3c0-1,0-2,0-2.9c-15.4,1.9-32.5-1.8-47.1-6.5c0.6,2.1,2.5,3.6,5.1,4.6
		c-6.5,0.4-15.9-1-20.7-4.2c-0.2,0.4-0.4,0.8-0.6,1.2c-1.2,2.3-2.8,4.4-4.4,6.5C337.1,181.7,336.8,182.2,336.4,182.7z"/>
	<path class="st24" d="M377.7,183.8c-3.4-0.5-6.7-2.4-10.1-2.4c1.5,0.8,3.1,1.6,4.9,1.6c-7.6,2.6-15.2,0.2-22.9,1.5
		c-7.6,1.3-6.4,9.9-6.7,15.4c-0.3,10.2-0.6,23,6.9,31.6c10.9-8.8,29.8-11.4,43.8-1.7l1.2,2.1c1-1.8,2.2-4.8,3.3-8.4
		c2.1-6.7,4.3-15.8,5.6-24.9c0.8-5.5,1.3-11.1,1.3-16.2c-4.7,1.2-9.3,2.1-14,2.3C386.6,185.1,382,184.8,377.7,183.8z"/>
	<path class="st23" d="M376.6,258.1c10.9-1.3,21-5,26.4-10.8c1.8-1.9,3-3.9,3.8-6c-13.1,9.3-39.5,10.8-52.4,7.4
		c-11.4-3-20.3-9.6-24.1-18.7c-0.1,6.2-0.3,12.9,4,17.9c4.9,5.6,13.7,8.9,23.5,10.2l4.4,9.4l17.6,2.6"/>
	<path class="st24" d="M329.7,207.4c-0.1-1.3-0.3-2.6-0.6-3.9c-0.1-0.6-0.2-1.2-0.4-1.7c-3.2,0.3-5,1.5-6.1,3
		c-1.8,2.6-1.5,6.2-1.1,8.8c1,4.4,3.3,7.2,6.9,8.7c0.6,0.2,1.2,0.5,1.8,0.6c-0.1-1.9-0.1-3.8-0.1-5.8
		C323,214.3,326.7,206.4,329.7,207.4z"/>
	<path class="st25" d="M330.1,217.1c0-3.3,0-6.5-0.4-9.7C326.7,206.4,323,214.3,330.1,217.1z"/>
	<path class="st27" d="M375.2,191.4c-1.4,3.7-2,8.2,0.2,11.8c0.9,1.5,3.5,2.4,5,3.2c5.6,3.1,1.3,9.1-2.1,10.9c-1.8,1-4.3,0.6-6.3,1
		c-0.1,0-0.2,0.2,0,0.2c6.4,2.4,12-2,12.9-7.3c0.4-2.6-1.1-4.5-3.3-6.1c-2.4-1.7-4.3-2.4-5-5.2c-0.7-2.8-1.3-5.8-1.1-8.7
		C375.4,191.4,375.3,191.4,375.2,191.4L375.2,191.4z"/>
	<path class="st27" d="M368.9,216.5c1.3,0.4,2.2-0.1,3.2-0.8c0.5-0.3,0.4-1-0.3-1c-1.4,0.1-2.8,0.2-3.1,1.6
		C368.8,216.4,368.9,216.5,368.9,216.5L368.9,216.5z"/>
	<path class="st28" d="M362.8,200.5c0,2.3-2.2,4.2-4.9,4.2c-2.7,0-4.9-1.9-4.9-4.2c0-2.3,2.2-4.2,4.9-4.2
		C360.6,196.3,362.8,198.2,362.8,200.5z"/>
	<path class="st28" d="M395.1,200.5c0,2.3-2.2,4.2-4.9,4.2c-2.7,0-4.9-1.9-4.9-4.2c0-2.3,2.2-4.2,4.9-4.2
		C392.9,196.3,395.1,198.2,395.1,200.5z"/>
	<path class="st29" d="M346.7,209.6c0.2,1.6,1.4,2,3.1,2.7c2.3,1,3.7,2.2,6.4,2.4c3,0.2,3.8-3.4,1.5-4.6c-2.6-1.3-5.7-1.9-8.7-2.2
		c-0.8-0.1-1.5,0.4-1.9,0.9C346.9,209.1,346.7,209.4,346.7,209.6L346.7,209.6z"/>
	<path class="st29" d="M390.7,213.3c2.1,0.5,3.9,0.1,6-0.3c5.3-1,3-8.3-2.2-7c-2,0.5-3.7,1.1-5.3,2.4
		C387.4,210,388.3,212.7,390.7,213.3L390.7,213.3z"/>
	<path class="st23" d="M350.6,188.4c3-1.3,5.7-0.9,8.8-1.5c1.8-0.3,4.1-1.8,2.2-3.5c-3.2-2.7-14,0.4-11.7,4.8
		C350,188.4,350.3,188.4,350.6,188.4L350.6,188.4z"/>
	<path class="st23" d="M397,187.1c-0.6-1.9-1.1-2.7-3.2-3.9c-1.8-1-4.4-1.4-6.3-0.5c-1.3,0.6-1.2,1.9-0.4,2.8c1,1.1,2.4,1.2,4,1.5
		c1.4,0.3,3.8,0.1,5,0.7C396.5,187.9,397.1,187.5,397,187.1L397,187.1z"/>
	<path class="st30" d="M360.3,232.9c7.8,4.3,17,3.1,24.8-0.7c1.4-0.7,0.1-2.5-1.2-1.8c-7,3.5-15.2,4.6-22.3,0.7
		C360.2,230.4,358.9,232.2,360.3,232.9L360.3,232.9z"/>
</g>
<g id="Layer_3" class="st0">
</g>
<g id="Layer_2" class="st0">
	<path class="st31" d="M374.2,477.2c-1.2-1.7-1.6-3.9-0.8-6.5l0.1,0c-1.1-23.7-1.4-56.5-3.5-100.4c0-0.5-0.1-1-0.1-1.6l-0.6,0
		c-0.5-1.2-1.3-2.4-1.8-3.3c-8.2-14.7-17.5-33.9-16.8-51.1c0.2-3.8,1.2-8.8-0.6-12.5c-1.8-4.1-5-4-7.5-6.8c-3.1-3.6-4.5-2.1-4.9-7.9
		c-1.3,1.5-2.5,3.1-3.7,4.5c-10.1,11.8-19.7,13.9-25.5,28.7c-11.7,28.2-20.4,57.5-24.2,87.8c-2.1,17.1-8.3,48.7-6.8,65.6l1.7-5.3
		c11.8,5.3,16.3-1.5,25.7-0.1l0.3,9.9c1.6-3.2,4.3-30.5,4.7-34.3c0.7-6.4-1.1-51.5,16.1-100.5c1.5,17.8-10.6,59.4-3.4,74
		c4.9,10-13.2,39-1.5,47.9c3.3-3.3,12.4-38.2,16-40.8c3,10.8-3.5,14.8-12,17.9c-0.7,8.1-2.6,15-4,22.9c-0.7,4.8-1.6,12.6-2.8,17.5
		l4.8,1.6c9.7,3.3,36.5,3.2,44.5-2.8C369.7,480.4,372,478.9,374.2,477.2z"/>
	<path class="st32" d="M368.1,263.9l0,0.9c0,0.1,0.1,0.3,0.1,0.4c1.6,5.2,5.1,10.9,8.8,15.8c2.1,2.7,4.2,5.2,6.1,7.3l0.4,0.1
		c1.3-7.3,2.5-14.4,3.5-20.9c-3.1-2.5-6.6-4.6-10.4-5.6C374,263.3,371.1,263.8,368.1,263.9C368.1,263.9,368.1,263.9,368.1,263.9z"/>
	<path class="st33" d="M373.4,470.7c-0.8,2.6-0.5,4.8,0.8,6.5c7.2,10.1,44.1,6.2,52.1,4.2c-0.7-14.1,0-27.4-0.9-41.7
		c-4-1.4-9.7-2.7-12.7-5.3c-4.6-4-2.3-5.8-3-12c4.4,3.1,10,5.2,15,7.9c-0.7-8.2-1.6-16.3-2.9-24.4c-3.3-22.3-2.3-49.1-7.1-71
		c7.4,17.8,15,40,20.5,66c5.3,24.9,6.4,46.2,7,64.9c8.6-1,18.1-1.1,26.7-2.1c-3.3-27.1-7.6-49.5-11.2-65.8c0,0-9.3-53-29.4-89
		c-7.2-12.8-15.5-16.6-25-27.4c-0.9-1-2.2-2.3-3.8-3.7c-0.1,6.2-0.3,6.5-2.4,10.5c-1.8,3-5,2.8-6.4,6.2c-1.7,4.7,0.4,7.9,1.8,12
		c5.2,17.7-9.1,41.9-18.2,56.6c-1.4,2-3.5,4.5-4.2,7.2c0.9,19.4,1.8,38.8,2.6,58.3C373.2,443,372.8,456.3,373.4,470.7z"/>
	<path class="st34" d="M322.7,417.7c-0.2,3.8,2.9,21.2,2.5,25c8.5-3.1,14.9-7,12-17.9C333.6,427.3,326,414.4,322.7,417.7z"/>
	<path class="st34" d="M359,307.5c-2.3-10.2-4.6-11.7-6.5-20.5c-1.3-6.1-2.4-11.4-3.1-15.4c-0.1-0.6-0.2-1.2-0.3-1.7
		c-2,6.4-6.9,12.1-11.3,17.4c0.3,5.8,1.7,4.2,4.9,7.9c2.5,2.8,5.7,2.7,7.5,6.8c1.8,3.7,0.8,8.7,0.6,12.5
		c-0.7,17.2,8.5,36.4,16.8,51.1c0.4,0.8,1.3,2,1.8,3.3l0.6,0c-0.3-5.9-0.6-11.9-0.9-18.1C367.1,342.9,363,325.4,359,307.5z"/>
	<path class="st32" d="M357.2,284.5c5.9-4.4,9-12.4,10.9-19.3l0.1,0c0-0.1-0.1-0.3-0.1-0.4l0-0.9c-4.7,0.2-9.3-0.3-12.6,1.1
		c-1.9,0.9-4.1,4.8-6,6.6l0,0c0.7,4,1.8,9.3,3.1,15.4l0.1,0C354.3,286.4,355.8,285.6,357.2,284.5z"/>
	<path class="st35" d="M352.5,287L352.5,287c1.8,8.8,4.1,10.3,6.4,20.5c1.1-5.1,3-10.2,4.2-15l0.4-0.4c-0.7-6.1-4.8-1.8-6.4-7.5
		C355.8,285.6,354.3,286.4,352.5,287z"/>
	<path class="st36" d="M369,350.6c0.1,0.3,0.2,0.7,0.2,1c2.4-10.4,5-23,7.6-36.1c-2-7.7-4.4-15.1-6.1-22.5l-0.5-1.2
		c-2.4,0.1-4.3,0.2-6.7,0.3l-0.4,0.4c-1.2,4.8-3.1,9.9-4.2,15C363,325.4,367.1,342.9,369,350.6z"/>
	<path class="st37" d="M357.2,284.5c1.6,5.7,5.7,1.4,6.4,7.5c2.4-0.1,4.3-0.2,6.7-0.3c3-5.2,6.3-4.2,6.8-10.7
		c-3.7-4.9-7.2-10.6-8.8-15.8l-0.1,0C366.2,272.1,363.1,280.1,357.2,284.5z"/>
	<path class="st34" d="M376.8,315.5c-2.6,13.2-5.2,25.8-7.6,36.1c-0.1-0.3-0.2-0.6-0.2-1c0.3,6.2,0.6,12.3,0.9,18.1
		c0,0.5,0.1,1,0.1,1.6c0.8-2.7,2.8-5.2,4.2-7.2c9.2-14.7,23.5-38.8,18.2-56.6c-1.4-4.1-3.5-7.4-1.8-12c1.4-3.4,4.6-3.2,6.4-6.2
		c2.1-3.9,2.3-4.3,2.4-10.5c-4.2-3.9-10-8.8-12.3-11.3c-0.1,0.3-0.1,0.7-0.1,1c-1,6.5-2.2,13.6-3.5,20.9
		C381.5,300.1,379.2,303.5,376.8,315.5z"/>
	<path class="st35" d="M370.3,291.7l0.5,1.2c1.7,7.5,4.1,14.8,6.1,22.5c2.3-11.9,4.7-15.3,6.7-27l-0.4-0.1c-1.9-2.1-4-4.6-6.1-7.3
		C376.6,287.5,373.3,286.5,370.3,291.7z"/>
	<path class="st34" d="M409.6,422.5c0.7,6.2-1.6,8,3,12c3.1,2.5,8.7,3.9,12.7,5.3c-0.2-3.1-0.4-6.3-0.7-9.4
		C419.7,427.7,414,425.6,409.6,422.5z"/>
	
		<ellipse transform="matrix(0.9988 -4.911523e-02 4.911523e-02 0.9988 -19.3428 18.2775)" class="st34" cx="362.2" cy="402.7" rx="4.8" ry="5"/>
	
		<ellipse transform="matrix(0.9988 -4.911523e-02 4.911523e-02 0.9988 -20.9316 18.3682)" class="st34" cx="363.3" cy="435.1" rx="4.8" ry="5"/>
</g>
<g id="Layer_4">
	<g>
		<polygon class="st38" points="396.1,255.7 340.9,255.7 343.3,226.5 394,226.5 		"/>
		<polygon class="st39" points="438.9,490.9 430.6,741.6 377.3,741.6 368.3,533.3 359.7,741.6 306,741.6 300.1,488.2 308,446.3 
			431.6,446.3 		"/>
		<polygon class="st38" points="429.2,260.1 434.5,342.2 425.8,446.3 313.5,446.3 302.9,342.2 306.4,260.9 343.5,252.4 398.1,252.7 
					"/>
		<rect x="353" y="448.4" class="st40" width="30.1" height="10.6"/>
		<polygon class="st40" points="347,459 314.5,459 315.4,448.4 347,448.4 		"/>
		<polygon class="st40" points="424,459 389.5,459 389.5,448.4 423.2,448.4 		"/>
		<polygon class="st41" points="441.9,365.6 441.8,365.5 441.9,365.6 		"/>
		<polygon class="st42" points="332.5,741.6 332.9,526 328,741.6 		"/>
		<polygon class="st42" points="405.7,741.6 398.1,526 410.2,741.6 		"/>
		<path class="st43" d="M356.4,752.1h-47c0-13,10.5-23.5,23.5-23.5C345.9,728.6,356.4,739.2,356.4,752.1z"/>
		<rect x="309.4" y="752.1" class="st44" width="47" height="7.1"/>
		<path class="st43" d="M427.6,752.1h-47c0-13,10.5-23.5,23.5-23.5C417.1,728.6,427.6,739.2,427.6,752.1z"/>
		<rect x="380.6" y="752.1" class="st44" width="47" height="7.1"/>
		<polygon class="st45" points="427,259.8 434.5,342.2 434.3,346.2 433.6,355.4 432.8,365 432.2,374.2 431.4,383.8 430.8,393 
			430.1,402.7 429.8,406.1 429.4,411.9 428.7,421.5 428,430.7 427.3,440.3 427.3,440.5 426.1,446.3 311.6,446.3 311.1,440.3 
			311,438.5 310.3,430.7 309.6,421.5 308.7,411.9 308,402.7 307.6,398.8 307.2,393 306.4,383.8 305.6,374.2 304.8,365 304,355.4 
			303.2,346.2 302.9,342.2 309.8,257.5 354.5,251.6 368.7,268.9 382.9,251.6 		"/>
		<rect x="454.2" y="452.6" class="st46" width="25.8" height="15.7"/>
		<path class="st47" d="M345.3,271.8v-0.9C345.6,271.2,345.5,271.5,345.3,271.8z"/>
		<path class="st48" d="M373.3,268.6v177.7h-9.2V268.6c1.5,0.2,3,0.3,4.6,0.3C370.3,268.9,371.8,268.9,373.3,268.6z"/>
		<polygon class="st49" points="368.7,268.9 368.7,269 367.2,270.9 364.2,274.7 360,280 354.5,287.1 350.1,280 344.4,270.9 
			332.7,252 333.1,251.7 339.5,241.1 354.5,251.7 		"/>
		<polygon class="st49" points="404.7,252 393.1,270.9 387.4,280 383,287.1 377.5,280 373.3,274.7 370.3,270.9 368.8,269 
			368.7,268.9 382.9,251.7 396.5,240.7 404.3,251.7 		"/>
		<path class="st47" d="M345.3,271.8v-0.9C345.6,271.2,345.5,271.5,345.3,271.8z"/>
		<path class="st49" d="M371.1,290.8c0,1.3-1.1,2.4-2.4,2.4c-1.3,0-2.4-1.1-2.4-2.4c0-1.3,1-2.4,2.4-2.4
			C370,288.4,371.1,289.5,371.1,290.8z"/>
		<path class="st49" d="M371.1,315.5c0,1.3-1.1,2.4-2.4,2.4c-1.3,0-2.4-1.1-2.4-2.4s1-2.4,2.4-2.4
			C370,313.1,371.1,314.2,371.1,315.5z"/>
		<path class="st49" d="M371.1,340.2c0,1.3-1.1,2.4-2.4,2.4c-1.3,0-2.4-1-2.4-2.4c0-1.3,1-2.4,2.4-2.4
			C370,337.8,371.1,338.9,371.1,340.2z"/>
		<path class="st49" d="M371.1,364.9c0,1.3-1.1,2.4-2.4,2.4c-1.3,0-2.4-1.1-2.4-2.4c0-1.3,1-2.4,2.4-2.4
			C370,362.5,371.1,363.6,371.1,364.9z"/>
		<path class="st49" d="M371.1,389.5c0,1.3-1.1,2.4-2.4,2.4c-1.3,0-2.4-1.1-2.4-2.4c0-1.3,1-2.4,2.4-2.4
			C370,387.2,371.1,388.2,371.1,389.5z"/>
		<path class="st49" d="M371.1,414.2c0,1.3-1.1,2.4-2.4,2.4c-1.3,0-2.4-1.1-2.4-2.4c0-1.3,1-2.4,2.4-2.4
			C370,411.9,371.1,412.9,371.1,414.2z"/>
		<polygon class="st50" points="354.5,287.1 368.7,278.1 383,287.1 368.8,269 		"/>
		
			<rect x="277.9" y="444.3" transform="matrix(0.9813 -0.1927 0.1927 0.9813 -81.6881 64.5314)" class="st46" width="25.8" height="15.7"/>
		<path class="st46" d="M483.8,491.9c0,9-7.3,16.2-16.2,16.2l0,0c-9,0-16.2-7.3-16.2-16.2v-16.7c0-9,7.3-16.2,16.2-16.2l0,0
			c9,0,16.2,7.3,16.2,16.2V491.9z"/>
		<path class="st46" d="M452.5,486.1c-1.6,2.2-4.7,2.8-6.9,1.2l0,0c-2.2-1.6-2.8-4.7-1.2-6.9l8.9-12.6c1.6-2.2,4.7-2.8,6.9-1.2l0,0
			c2.2,1.6,2.8,4.7,1.2,6.9L452.5,486.1z"/>
		<path class="st51" d="M332.7,248.8l35.7,104.9l0.3,109.7h-65.8l1.3-17.2c0,0-5.8-27.1-5.4-36.3c0.4-9.2,1.3-29,1.5-34.4
			c0.2-5.4,0.4-26.2,0.4-26.2l-3.3,17.9l8.5,81.8l-30.5,3.6c0,0-25.9-72.8-24.2-87c1.7-14.2,13.5-78.6,32-93.8
			C301.8,256.6,319,249.7,332.7,248.8z"/>
		<path class="st51" d="M404.1,248.8l-35.7,104.9l-0.3,109.7h65.8l-1.3-17.2c0,0,5.8-27.1,5.4-36.3c-0.4-9.2-1.3-29-1.4-34.4
			c-0.2-5.4-0.8-28.2-0.8-28.2l3.7,19.8l12,89l31-2.1c0,0,4.8-74.3,3.1-88.6c-1.7-14.2-12.8-78.6-31.4-93.8
			C435.6,256.6,417.8,249.7,404.1,248.8z"/>
		<g>
			<rect x="280.5" y="486.4" class="st43" width="11.5" height="267.5"/>
			<path class="st52" d="M315.7,480.2c0-3.4-2.8-6.2-6.2-6.2h-37.3c-3.4,0-6.2,2.8-6.2,6.2l0,0c0,3.4,2.8,6.2,6.2,6.2h37.3
				C312.9,486.4,315.7,483.7,315.7,480.2L315.7,480.2z"/>
		</g>
		<path class="st46" d="M281.2,486.1c1.7,8.8,10.3,14.5,19.1,12.8l0,0c8.8-1.7,14.5-10.3,12.8-19.1l-3.2-16.4
			c-1.7-8.8-10.3-14.5-19.1-12.8l0,0c-8.8,1.7-14.5,10.3-12.8,19.1L281.2,486.1z"/>
		<path class="st46" d="M310.9,474.3c2,1.9,5.1,1.8,7-0.2l0,0c1.9-2,1.8-5.1-0.2-7l-11.2-10.6c-2-1.9-5.1-1.8-7,0.2l0,0
			c-1.9,2-1.8,5.1,0.2,7L310.9,474.3z"/>
		<g>
			<path class="st53" d="M342.3,208.1c0.5,5.4-3.5,10.1-8.9,10.5l0,0c-5.4,0.5-10.1-3.5-10.6-8.9l-1-11.6
				c-0.5-5.4,3.5-10.1,8.9-10.5l0,0c5.4-0.5,10.1,3.5,10.6,8.9L342.3,208.1z"/>
			<path class="st53" d="M393.6,209c-0.4,5.4,3.6,10,9,10.4l0,0c5.4,0.4,10-3.6,10.4-9l0.8-11.6c0.4-5.4-3.6-10-9-10.4l0,0
				c-5.4-0.4-10,3.6-10.4,9L393.6,209z"/>
			<path class="st46" d="M408.1,179v21.7c0,10.7-1.2,44.8-25.4,55.4c-4.6,1.9-9.6,2.9-14.8,2.9c-5.2,0-10.2-1-14.8-2.9
				c-24.2-10.7-25.4-44.8-25.4-55.4V179c0-22.2,18-40.2,40.2-40.2C390.1,138.8,408.1,156.8,408.1,179z"/>
			<path class="st45" d="M404,195.1c0.1,1,0.3,1.9,0.5,2.7C404.3,197,404.1,196.1,404,195.1z"/>
			<g>
				<linearGradient id="SVGID_1_" gradientUnits="userSpaceOnUse" x1="342.3238" y1="184.6357" x2="390.7162" y2="184.6357">
					<stop  offset="0" style="stop-color:#F4E1DA"/>
					<stop  offset="0.4698" style="stop-color:#F5E3DC"/>
					<stop  offset="0.7007" style="stop-color:#F7E9E4"/>
					<stop  offset="0.8791" style="stop-color:#FBF4F1"/>
					<stop  offset="1" style="stop-color:#FFFFFF"/>
				</linearGradient>
				<path class="st54" d="M342.8,184.2c7.6,1.1,14.7,2.6,22.3,2.8c8.5,0.2,15.8-1.9,24.1-3.4c1.2-0.2,2.4-1.6,0.4-1.3
					c-6.8,1.2-13.5,3.2-20.4,3.3c-8.5,0.2-16.4-1.6-24.7-2.8C343.8,182.7,341.3,184,342.8,184.2L342.8,184.2z"/>
			</g>
			<g>
				<linearGradient id="SVGID_2_" gradientUnits="userSpaceOnUse" x1="355.3362" y1="178.8151" x2="383.0821" y2="178.8151">
					<stop  offset="0" style="stop-color:#F4E1DA"/>
					<stop  offset="0.4698" style="stop-color:#F5E3DC"/>
					<stop  offset="0.7007" style="stop-color:#F7E9E4"/>
					<stop  offset="0.8791" style="stop-color:#FBF4F1"/>
					<stop  offset="1" style="stop-color:#FFFFFF"/>
				</linearGradient>
				<path class="st55" d="M356,179.2c8.6,1.7,17.4,1.1,26-0.2c1.8-0.3,1.2-1.7-0.5-1.5c-7.9,1.3-16,1.8-23.9,0.3
					C356.3,177.5,354.3,178.8,356,179.2L356,179.2z"/>
			</g>
			<g class="st56">
				<linearGradient id="SVGID_3_" gradientUnits="userSpaceOnUse" x1="384.4743" y1="234.3208" x2="384.4743" y2="222.9651">
					<stop  offset="0" style="stop-color:#FFFFFF"/>
					<stop  offset="0.1209" style="stop-color:#FBF4F1"/>
					<stop  offset="0.2993" style="stop-color:#F7E9E4"/>
					<stop  offset="0.5302" style="stop-color:#F5E3DC"/>
					<stop  offset="1" style="stop-color:#F4E1DA"/>
				</linearGradient>
				<path class="st57" d="M378.3,224.8c2,4.1,6,6,8.9,9.1c1.2,1.3,4.9-0.9,3.5-2.4c-2.9-3.1-8.5-3.6-10.5-7.6
					C379.4,222.3,377.3,222.9,378.3,224.8L378.3,224.8z"/>
			</g>
			<g class="st56">
				<linearGradient id="SVGID_4_" gradientUnits="userSpaceOnUse" x1="352.8873" y1="235.5473" x2="352.8873" y2="222.6374">
					<stop  offset="0" style="stop-color:#FFFFFF"/>
					<stop  offset="0.1209" style="stop-color:#FBF4F1"/>
					<stop  offset="0.2993" style="stop-color:#F7E9E4"/>
					<stop  offset="0.5302" style="stop-color:#F5E3DC"/>
					<stop  offset="1" style="stop-color:#F4E1DA"/>
				</linearGradient>
				<path class="st58" d="M356.9,224.4c-1.3,4.4-8.5,5.2-10.5,9.3c-1,2,3.9,2.5,4.6,1c2.2-4.4,6.9-6,8.5-11
					C360,221.9,357.4,222.7,356.9,224.4L356.9,224.4z"/>
			</g>
			<path class="st59" d="M342.3,160.6c-0.2,1.1,0.7,1.6,0.6,2.9c-0.2,1.1-1.4,2.3-1.8,3.6c0.5,0.2,1.1,0.9,1.4,1.1
				c-1.1,1.4-3.6,1.4-5,2.9c-0.7,0.7-1,1.6-1.2,2.4c-4.3,4.8-4.3,11.2-5,19.4c-0.4,5-1.2,8-2.2,9.8l-1.4,1.1c0-1.1,0-2.1,0-2.9
				v-21.7c0-10.7,4.2-20.4,11.1-27.6c1.5-0.6,3-0.6,3.3,0.9c0.4,1.3-1.4,3.6-1.4,5C344.7,156.8,342.7,158.3,342.3,160.6z"/>
			<path class="st59" d="M408.1,179.1v21.7c0,0.9,0,1.8-0.1,2.9l-1.4-1c-0.9-1.8-1.8-4.9-2.2-9.9c-0.9-10.6-0.8-18.3-10.1-23.2
				c-0.9-0.5-1.8-0.8-2.7-1.1c-1.4-1.6-3-3.3,0.4-3.4c-0.7-0.7-2.7-3.4-1.1-4.5c0.7-0.5,3,0.7,3.9,0.9c-0.5-2.2-2-3.4-1.6-5
				c0.2-0.9,1.6,0,1.6-1.4c0-0.9-1.8-2.2-2-2.9c3-1.3,3.9,1.3,6.3,1.8C404.8,160.9,408.1,169.6,408.1,179.1z"/>
			<g>
				<path class="st60" d="M398.8,190.2c0.2,0.8,0.6,1.6,0.9,2.3c0.3,0.6,1,1.1,1.6,0.7c0.6-0.5,0.6-1.4,0.3-2
					c-0.2-0.5-0.5-1-0.6-1.5c-0.1-0.6-0.8-1.4-1.5-1.2C398.7,188.6,398.6,189.5,398.8,190.2L398.8,190.2z"/>
			</g>
			<g>
				<path class="st61" d="M335.6,188.2c0,0.1-0.1,0.3-0.2,0.4c-0.2,0.3-0.7,1.3,0,1.4c0.7,0.1,1.3-0.6,1.6-1.1
					c0.2-0.3,0.4-0.7,0.6-1c0.2-0.4,0.3-1.2-0.4-1.1C336.5,186.9,335.9,187.6,335.6,188.2L335.6,188.2z"/>
			</g>
			<g>
				<path class="st62" d="M337.9,181.7c0.5-0.7,0.7-3.4-0.4-1.8C337,180.6,336.8,183.3,337.9,181.7L337.9,181.7z"/>
			</g>
			<g>
				<path class="st62" d="M348.2,149.2c0.5-0.7,0.7-3.4-0.4-1.8C347.3,148.1,347.1,150.8,348.2,149.2L348.2,149.2z"/>
			</g>
			<g>
				<path class="st61" d="M398.1,183.7c0.1,0.2,0.2,0.4,0.3,0.6c0.2,0.6,1,1.1,1.5,0.7c0.6-0.5,0.5-1.4,0.2-2
					c-0.1-0.2-0.2-0.4-0.3-0.6c-0.2-0.6-1-1.1-1.5-0.7C397.7,182.2,397.8,183.1,398.1,183.7L398.1,183.7z"/>
			</g>
			<g>
				<path class="st61" d="M344.3,154.5c0.1,0.2,0.2,0.4,0.3,0.6c0.2,0.6,1,1.1,1.5,0.7c0.6-0.5,0.5-1.4,0.2-2
					c-0.1-0.2-0.2-0.4-0.3-0.6c-0.2-0.6-1-1.1-1.5-0.7C343.9,153,344,153.9,344.3,154.5L344.3,154.5z"/>
			</g>
			<g>
				<path class="st60" d="M394.7,176.5c0-1.7-2.3-2.2-2.3-0.2C392.4,178,394.7,178.5,394.7,176.5L394.7,176.5z"/>
			</g>
			<g>
				<path class="st60" d="M391.2,155.7c0-1.7-2.3-2.2-2.3-0.2C388.9,157.2,391.2,157.7,391.2,155.7L391.2,155.7z"/>
			</g>
			<g class="st63">
				<linearGradient id="SVGID_5_" gradientUnits="userSpaceOnUse" x1="355.5381" y1="218.7459" x2="355.5381" y2="210.433">
					<stop  offset="0" style="stop-color:#FFFFFF"/>
					<stop  offset="0.1209" style="stop-color:#FBF4F1"/>
					<stop  offset="0.2993" style="stop-color:#F7E9E4"/>
					<stop  offset="0.5302" style="stop-color:#F5E3DC"/>
					<stop  offset="1" style="stop-color:#F4E1DA"/>
				</linearGradient>
				<path class="st64" d="M359.2,211.7c-1.9,2.1-6,3.1-8.8,3.7c-0.9,0.2-2.7,1.1-2.4,2.3c0.3,1.3,2.3,1,3.3,0.8
					c4.1-0.8,8.3-3.2,11.1-6.3C364.7,209.7,360.6,210.1,359.2,211.7L359.2,211.7z"/>
			</g>
			<g class="st63">
				<linearGradient id="SVGID_6_" gradientUnits="userSpaceOnUse" x1="381.8444" y1="219.0009" x2="381.8444" y2="210.688">
					<stop  offset="0" style="stop-color:#FFFFFF"/>
					<stop  offset="0.1209" style="stop-color:#FBF4F1"/>
					<stop  offset="0.2993" style="stop-color:#F7E9E4"/>
					<stop  offset="0.5302" style="stop-color:#F5E3DC"/>
					<stop  offset="1" style="stop-color:#F4E1DA"/>
				</linearGradient>
				<path class="st65" d="M378.1,212c1.9,2.1,6,3.1,8.8,3.7c0.9,0.2,2.7,1.1,2.4,2.3c-0.3,1.3-2.3,1-3.3,0.8
					c-4.1-0.8-8.3-3.2-11.1-6.3C372.7,209.9,376.8,210.4,378.1,212L378.1,212z"/>
			</g>
			<g>
				<path class="st59" d="M402.8,224.6c-2.7,0.2-5.7,2.6-7.2,5.4c-2.5,2.9-5.9,7-9.5,8c-4.6,1.2-5.8-5.8-9.5-8
					c-2.7-1.5-7.3-2-10.2-2c-4-0.1-6.5,1.4-9.2,3.6c-2.2,1.7-3.9,8-8,8.1c-3.7,1.2-6.3-4.6-8.8-6.6c-2.4-1.9-7.1-8.6-9.4-5.5
					c-0.5,5.6,1.3,9.7,3.8,14.8c2.2,4.9,1.7,8.6,7.1,10.3c3.2,1,3.2,0.5,5.1,3.7c2.7,3.9,2.9,3.2,7.6,3.9c5.6,1,5.5,9.5,8.7,13.9
					c1-2,3.3-7.1,5.5-6.1c1.7,0.5,4.2,6.6,4.9,8.6c0.5-2,3.2-8.1,4.6-9.5c1.2-1,3.9-0.5,6.4-2c2.9-2,3.9-3.4,5.1-6.4
					c1-2.2,2.2-6.3,4.9-4.4c3.4-5.4,5.9-11.5,8.1-17.1C404,233.6,408.6,223.3,402.8,224.6z M367.9,245.1c-6,0-11,8.1-11-5.6
					c0-3.5,4.9-4,11-4c6.1,0,11,0.5,11,4C378.8,251.7,373.9,245.1,367.9,245.1z"/>
			</g>
			<g>
				<path class="st66" d="M361.6,240.9c3,1.2,3,1.9,6.4,1.9c2,0,4.8-1.7,7.6-2.9c2.3-1,0.6-2.8-1.1-1.4c-1,0.8-5.5,0.5-6.6,0.6
					c-2.2,0.1-4.4,0.5-6.7-0.6C360.2,238,357.8,238.2,361.6,240.9L361.6,240.9z"/>
			</g>
			<linearGradient id="SVGID_7_" gradientUnits="userSpaceOnUse" x1="351.5169" y1="213.533" x2="351.5169" y2="193.3529">
				<stop  offset="0" style="stop-color:#FFFFFF"/>
				<stop  offset="0.1209" style="stop-color:#FBF4F1"/>
				<stop  offset="0.2993" style="stop-color:#F7E9E4"/>
				<stop  offset="0.5302" style="stop-color:#F5E3DC"/>
				<stop  offset="1" style="stop-color:#F4E1DA"/>
			</linearGradient>
			<path class="st67" d="M361.6,203.4c0-5.6-4.5-10.1-10.1-10.1c-5.6,0-10.1,4.5-10.1,10.1c0,5.6,4.5,10.1,10.1,10.1
				C357.1,213.5,361.6,209,361.6,203.4z"/>
			<linearGradient id="SVGID_8_" gradientUnits="userSpaceOnUse" x1="386.612" y1="213.533" x2="386.612" y2="193.3529">
				<stop  offset="0" style="stop-color:#FFFFFF"/>
				<stop  offset="0.1209" style="stop-color:#FBF4F1"/>
				<stop  offset="0.2993" style="stop-color:#F7E9E4"/>
				<stop  offset="0.5302" style="stop-color:#F5E3DC"/>
				<stop  offset="1" style="stop-color:#F4E1DA"/>
			</linearGradient>
			<path class="st68" d="M396.7,203.4c0-5.6-4.5-10.1-10.1-10.1c-5.6,0-10.1,4.5-10.1,10.1c0,5.6,4.5,10.1,10.1,10.1
				C392.2,213.5,396.7,209,396.7,203.4z"/>
			<g>
				<path class="st69" d="M394.2,203.2c-0.8,1.1-2,2.1-3.5,2.7c-1,0.4-2.1,0.7-3.3,0.8c-0.2,0-0.5,0-0.7,0c-3.2,0-6-1.4-7.5-3.5
					c1.5-2.1,4.3-3.5,7.5-3.5c0.2,0,0.4,0,0.6,0h0c0.2,0,0.4,0,0.6,0.1c1,0.1,2,0.4,2.9,0.8h0l0,0
					C392.3,201.2,393.4,202.1,394.2,203.2z"/>
				<path class="st70" d="M390.9,203.2c0,1.1-0.5,2.1-1.2,2.8c-0.7,0.2-1.5,0.4-2.3,0.4c-0.2,0-0.5,0-0.7,0h-0.3
					c-0.5,0-1.1-0.1-1.6-0.2c-0.9-0.7-1.6-1.8-1.6-3.1c0-1.3,0.6-2.4,1.6-3.1c0.5-0.1,1-0.1,1.6-0.2c0.1,0,0.2,0,0.3,0h0
					c0.2,0,0.4,0,0.6,0c0.2,0,0.4,0,0.6,0c0.5,0,1,0.1,1.5,0.3h0c0.1,0,0.2,0.1,0.2,0.1h0v0C390.5,201.1,390.9,202.1,390.9,203.2z"
					/>
				<path class="st71" d="M388.9,203.2c0,1-0.8,1.8-1.8,1.8c-1,0-1.8-0.8-1.8-1.8c0-1,0.8-1.8,1.8-1.8
					C388.1,201.4,388.9,202.2,388.9,203.2z"/>
				<path class="st49" d="M387,202c0,0.7-0.6,1.2-1.2,1.2c-0.7,0-1.2-0.6-1.2-1.2c0-0.7,0.6-1.2,1.2-1.2
					C386.4,200.7,387,201.3,387,202z"/>
				<path class="st72" d="M394.1,203.2c-0.8-0.6-1.9-1.1-3.3-1.4h0c-0.9-0.2-1.8-0.4-2.9-0.4c-0.2,0-0.4,0-0.6,0h0
					c-0.2,0-0.4,0-0.6,0c-3.2,0-6,0.7-7.5,1.8c1.5-2.1,4.3-3.4,7.5-3.4c0.2,0,0.4,0,0.6,0h0c0.2,0,0.4,0,0.6,0.1
					c1.1,0.1,2,0.4,2.9,0.8h0C392.2,201.2,393.4,202.1,394.1,203.2z"/>
			</g>
			<g>
				<path class="st69" d="M359,203.2c-0.8,1.1-2,2.1-3.5,2.7c-1,0.4-2.1,0.7-3.3,0.8c-0.2,0-0.5,0-0.7,0c-3.2,0-6-1.4-7.5-3.5
					c1.5-2.1,4.3-3.5,7.5-3.5c0.2,0,0.4,0,0.6,0h0c0.2,0,0.4,0,0.6,0.1c1,0.1,2,0.4,2.9,0.8h0l0,0
					C357.1,201.2,358.2,202.1,359,203.2z"/>
				<path class="st70" d="M355.8,203.2c0,1.1-0.5,2.1-1.2,2.8c-0.7,0.2-1.5,0.4-2.3,0.4c-0.2,0-0.5,0-0.7,0h-0.3
					c-0.5,0-1.1-0.1-1.6-0.2c-0.9-0.7-1.6-1.8-1.6-3.1c0-1.3,0.6-2.4,1.6-3.1c0.5-0.1,1-0.1,1.6-0.2c0.1,0,0.2,0,0.3,0h0
					c0.2,0,0.4,0,0.6,0c0.2,0,0.4,0,0.6,0c0.5,0,1,0.1,1.5,0.3h0c0.1,0,0.2,0.1,0.2,0.1h0v0C355.3,201.1,355.8,202.1,355.8,203.2z"
					/>
				<path class="st71" d="M353.7,203.2c0,1-0.8,1.8-1.8,1.8c-1,0-1.8-0.8-1.8-1.8c0-1,0.8-1.8,1.8-1.8
					C352.9,201.4,353.7,202.2,353.7,203.2z"/>
				<path class="st49" d="M351.8,202c0,0.7-0.6,1.2-1.2,1.2c-0.7,0-1.2-0.6-1.2-1.2c0-0.7,0.6-1.2,1.2-1.2
					C351.2,200.7,351.8,201.3,351.8,202z"/>
				<path class="st72" d="M359,203.2c-0.8-0.6-1.9-1.1-3.3-1.4h0c-0.9-0.2-1.8-0.4-2.9-0.4c-0.2,0-0.4,0-0.6,0h0c-0.2,0-0.4,0-0.6,0
					c-3.2,0-6,0.7-7.5,1.8c1.5-2.1,4.3-3.4,7.5-3.4c0.2,0,0.4,0,0.6,0h0c0.2,0,0.4,0,0.6,0.1c1.1,0.1,2,0.4,2.9,0.8h0
					C357,201.2,358.2,202.1,359,203.2z"/>
			</g>
			<g>
				<path class="st59" d="M379.5,199c4.1-2.1,10.4-2,14.2-0.1c2.5,1.3,6.4-0.8,2.9-2.6c-5.5-2.9-14.2-4-20-1.1
					C372.9,197.1,376.8,200.3,379.5,199L379.5,199z"/>
			</g>
			<g>
				<path class="st59" d="M358.9,199c-4.1-2.1-10.4-2-14.2-0.1c-2.5,1.3-6.4-0.8-2.9-2.6c5.5-2.9,14.2-4,20-1.1
					C365.5,197.1,361.6,200.3,358.9,199L358.9,199z"/>
			</g>
			<g class="st73">
				<path class="st74" d="M361.7,215.7c-0.3,2.3-1.5,5.8,0.8,7.3c1.9,1.2,4,3,6.3,3c3.5,0,5.3-1.8,7.5-3.2c2-1.3,0.8-5,0.4-7.2
					c-0.2-1-2-0.6-1.8,0.5c0.2,0.9,0.3,1.7,0.1,2.6c-0.4,2.2-4.3,2.9-5.7,3c-1.6,0-3.8-1-5-2c-1.3-1.1-0.8-2.5-0.6-3.9
					C363.7,214.5,361.8,214.6,361.7,215.7L361.7,215.7z"/>
			</g>
			<linearGradient id="SVGID_9_" gradientUnits="userSpaceOnUse" x1="369.2119" y1="221.0336" x2="369.2119" y2="197.7437">
				<stop  offset="0" style="stop-color:#FEE7D3"/>
				<stop  offset="1" style="stop-color:#FDBD90"/>
			</linearGradient>
			<path class="st75" d="M373,217.6c0,1.9-1.7,3.4-3.8,3.4l0,0c-2.1,0-3.8-1.5-3.8-3.4l1.2-17.3c0-1.9,0.5-2.5,2.6-2.5l0,0
				c2.1,0,2.6,0.6,2.6,2.5L373,217.6z"/>
		</g>
	</g>
</g>
</svg>
