<?xml version="1.0" encoding="utf-8"?>
<!-- Generator: Adobe Illustrator 22.1.0, SVG Export Plug-In . SVG Version: 6.00 Build 0)  -->
<svg version="1.1" xmlns="http://www.w3.org/2000/svg" xmlns:xlink="http://www.w3.org/1999/xlink" x="0px" y="0px"
	 viewBox="0 0 764 897" style="enable-background:new 0 0 764 897;" xml:space="preserve">
<style type="text/css">
	.st0{fill:#502000;}
	.st1{fill:#FFCA9F;}
	.st2{fill:#7C3B11;}
	.st3{fill:#FBD2D0;}
	.st4{fill:#F27584;}
	.st5{fill:#F5949B;}
	.st6{fill:#344B5E;}
	.st7{fill:#3D566A;}
	.st8{fill:#B5581E;}
	.st9{fill:#FFDFAA;}
	.st10{fill:#B23C53;}
	.st11{fill:#F89A64;}
	.st12{fill:#425D73;}
	.st13{fill:#F7A9AC;}
	.st14{fill:#596B80;}
	.st15{fill:#9CA1AF;}
	.st16{fill:#55697D;}
	.st17{fill:#9D694A;}
	.st18{fill:none;}
	.st19{fill:#F9A877;}
	.st20{fill:#F37632;}
	.st21{fill:#DC4120;}
	.st22{fill:#F05823;}
	.st23{fill:#F26922;}
	.st24{fill:#BC7950;}
	.st25{fill:#CF8558;}
	.st26{fill:#324851;}
	.st27{fill:#F9A98D;}
	.st28{fill:#DB4326;}
	.st29{fill:#AB331A;}
	.st30{fill:#464461;}
	.st31{fill:#403E59;}
	.st32{fill:#6D677F;}
	.st33{fill:#D24862;}
</style>
<g id="Layer_1">
	<g id="Layer_1_1_">
		<g id="_Group_">
			<path class="st0" d="M483.4,741.8c2.5,3.3,1.5,6.2-6.7,7.3c-15.1,2.5-30.8-0.6-45.2-5c-11.9-4.1-17.4-5.7-16.8-15h0.5
				c6.6,7.8,24.5,11.2,34.2,13.7C458.7,745.5,473.7,747.3,483.4,741.8z"/>
			<path class="st1" d="M478.1,491.8c1.6,3.2,4.2,8.9,1.2,12.2l-1.1,0.2c0.3,1.5,0.5,3.1,0.5,4.7c-0.2,4.6-2.7,4.6-5,0.7
				c-2.2-3.5-2.3-7.8-4.4-11.5c2.4,9.5,3.4,18.3,0.8,18.4c-4,2.3-6.3-17.8-9.3-24.9h-0.2c1,9.6,3.1,16.6,0.3,25.3
				c-1.2,0.1-3.1,3.9-4,1.6h0.1c-0.4-10.4-3.1-24.8-7.6-33.7l-0.2,0.1c2.5,6-4.8,28-13.5,16.3l1.3-0.1c3-5,5.8-18.2,5.6-25.4
				c8.4-0.8,16.9-1,25.3-0.7c0,0.7,0,1.3,0,2h0.1c1.8,1.3,2.7,3.9,3.9,5.7C473.9,485.7,476.3,488.4,478.1,491.8z"/>
			<path class="st2" d="M461.6,728c5.4,2.3,17.9,8.6,21.8,13.8c-9.6,5.5-24.7,3.7-34,1.1c-9.7-2.5-27.6-5.9-34.2-13.7h-0.5
				c0-0.2,0-0.3,0-0.5c5.5-0.2,13.5-2.4,21-5.4c1.4-0.5,2.8-1.1,4.1-1.7c0,0.3,0,0.7-0.1,1C446.4,721.8,455.3,725.7,461.6,728z"/>
			<path class="st3" d="M460.7,464.5c3.2-0.4,6-0.7,8.1-0.8c0.1,4.1-0.8,7.2-0.9,11.2c-8.4-0.3-16.9-0.1-25.3,0.7
				c-0.4,0-0.8,0.1-1.3,0.1c0.4-3.3,0.6-6.6,0.7-10C446.9,465.2,454.8,465.2,460.7,464.5z"/>
			<path class="st4" d="M387.3,285.2c1.1-2.1,2.2-4.3,3.2-6.5c0.8,0.9,1.6,1.9,2.3,2.9h0.1"/>
			<path class="st4" d="M468.8,463.7c-2.1,0.1-4.9,0.4-8.1,0.8v-3.9"/>
			<path class="st5" d="M460.8,460.7v3.9c-5.9,0.7-13.9,0.7-18.7,1.2"/>
			<path class="st5" d="M377.6,289.8l0.4-0.3c1.3,1.5,2.7,2.9,4,4h0.4c1.7-2.5,3.4-5.3,5-8.2"/>
			<path class="st5" d="M406.3,450.1h-24.5"/>
			<path class="st6" d="M430.4,501.9c9.6,75.2,15.5,148.1,9.3,219.8c-1.3,0.6-2.7,1.2-4.1,1.7l-0.4-0.9c-2.5-11.8-0.6-122-6.3-163.7
				c-2.3-17.6-9.5-77.3-15.7-98.7h12.1h0.2C427.6,474.2,428.6,487.5,430.4,501.9z"/>
			<path class="st7" d="M435.3,722.4l0.4,0.9c-7.4,3-15.5,5.2-21,5.4c0.2-2.1,0.6-4.3,1.1-6.3h0.2c-0.1-50.1-2.7-105.2-10.9-153.3
				c-1-4.3-15.8-74.3-32.7-68l0.4-38.2h9.1V460h31.4c6.2,21.5,13.4,81.1,15.7,98.7C434.6,600.4,432.8,710.5,435.3,722.4z"/>
			<path class="st8" d="M413.3,460h-31.4v-10h42.3c0.5,3.3,1,6.6,1.4,9.9h-0.2L413.3,460z"/>
			<path class="st4" d="M424.1,450h-17.8"/>
			<path class="st3" d="M387.3,285.2c-1.6,2.9-3.3,5.7-5,8.2h-0.4c-1.3-1.2-2.6-2.5-4-4c-4.2-4.8-6.3-10.9-7.9-16.3l-1-0.1v-1h0.1
				c0.9,0,1.8-0.1,2.7-0.1c2.4-0.3,4.8-0.8,7.1-1.5c0.3,0,0.6,0.1,0.9,0.2c4.7,1,6.9,3.9,10.6,8.2
				C389.5,280.9,388.4,283.1,387.3,285.2z"/>
			<polyline class="st9" points="381.9,450 381.9,460 381.9,462.9 372.8,462.9 			"/>
			<path class="st10" d="M359.6,288.8c3.3-5,8.6-10.8,9.3-15.9l1,0.1c1.8,5.5,3.8,11.6,8,16.4l-0.4,0.3"/>
			<path class="st11" d="M379.8,270.1l-0.8,0.3c-2.3,0.7-4.7,1.1-7.1,1.4"/>
			<path class="st2" d="M352.9,728.2c7.2,1.2,14.4,1.7,21.7,1.6c0.6,1.8,0.9,3.8,1,5.7c0,0.4-0.1,0.9-0.1,1.3
				c-5,1-10.3,3.2-15.2,4.3c-6.6,1.2-13.1,3.4-20.1,4.4c-7.9,1.2-25.9,5.6-32.9-1.2c1.4-2.5,3.3-4.6,5.6-6.2
				c6.3-5,24.5-10.6,33.3-11.2l0.1-0.2C348.4,727.3,350.6,727.8,352.9,728.2z"/>
			<path class="st12" d="M374.6,729.8c-7.3,0.1-14.5-0.4-21.7-1.6c-2.9-15.5-16.5-113.4-20.1-141.1c-1.7-12.5-5-57.6-6.3-69.2
				c-1.9-19.5,0.3-38.4,2.5-57.9h30.3v2.9h13.5l-0.4,38.2c-0.6,0.2-1.1,0.5-1.7,0.9l0.1,0.2c-22.9,15.6-13.3,166.9-0.2,217.9
				C372.3,723.2,373.6,726.4,374.6,729.8z"/>
			<path class="st0" d="M375.5,736.8c-0.8,6.9-3.7,7.8-10.2,9.5c-14.7,3.7-29.7,6.1-44.9,7.2c-10,0.5-16-3.3-13.1-9.3
				c7,6.8,25,2.4,32.9,1.2c6.9-0.9,13.5-3.1,20.1-4.4C365.2,740,370.5,737.8,375.5,736.8z"/>
			<polyline class="st9" points="372.8,462.9 359.3,462.9 359.3,460 359.3,450 			"/>
			<path class="st13" d="M341.4,281.4l0.3,0.3c1.2-1.4,2.4-2.7,3.8-3.8c1.3,6.8,5.4,12.1,10.5,16.8c1.2-1.8,2.5-3.7,3.9-5.8"/>
			<path class="st13" d="M297.9,474.6c0,0.7-0.6,1.4-1.3,1.3c-6.2-0.4-13.4-0.8-17.8-0.8c-0.7,0-1.2-0.5-1.2-1.2"/>
			<path class="st13" d="M359.3,450h-40.1"/>
			<path class="st11" d="M371.9,271.8c-0.9,0.1-1.8,0.1-2.7,0.1h-0.1c-2.4,0-4.7-0.5-6.8-1.6"/>
			<path class="st3" d="M369.1,272v1c-0.7,5.1-6,10.9-9.3,15.9c-1.4,2.1-2.8,4.1-3.9,5.8c-5.1-4.7-9.2-10-10.5-16.8
				c4.3-3.7,11.4-6.3,16.9-7.5C364.4,271.5,366.8,272,369.1,272z"/>
			<path class="st8" d="M329,460h-9.9c0-3.3,0-6.7,0-10h40.1v10H329z"/>
			<path class="st14" d="M352.9,728.2c-2.3-0.4-4.5-0.9-6.6-1.7c-1-0.3-1.9-0.9-2.6-1.6l2.1-0.4C328.1,672,320.3,588,318.5,504.2
				c0-0.3,0-0.6,0-0.9c-0.3-15,0.5-28.8,0.6-43.4h9.9c-2.2,19.6-4.4,38.5-2.5,57.9c1.3,11.6,4.6,56.8,6.3,69.2
				C336.4,614.8,350,712.7,352.9,728.2z"/>
			<path class="st5" d="M304.9,468.5c-1.1-0.1-3.1,3.7-4.9,6c-0.7,0.9-2.1,0.4-2.2-0.7"/>
			<path class="st1" d="M312.6,503.3l0.6,1c-7.7,10.2-16-10.3-14-16.3H299c-3.8,9.3-5.4,20.8-5.1,31.2h0.1c-0.8,2.4-2.7,1.8-3.9,1.7
				c-3.4-8.5-2.1-15.7-1.8-25.3h-0.2c-2.5,7.2-3.1,27.4-7.2,25.5c-2.6,0.1-2.4-8.7-0.8-18.4c-1.9,3.7-1.7,8-3.6,11.7
				c-2,4.1-4.5,4.2-5-0.3c-0.1-1.6,0-3.1,0.1-4.7l-1.1-0.1c-3.3-3-1-8.9,0.3-12.2c1.5-3.5,3.7-6.4,5.5-9.6c1.1-1.8,1.8-4.5,3.5-5.9
				h0.1c0-0.7-0.1-1.4-0.1-2c8.4-0.9,16.8-1.3,25.3-1.1C305.5,485.6,309.2,498.6,312.6,503.3z"/>
			<path class="st3" d="M297.9,476c2,0.1,5.4-7.6,7-7.5c0.4,3.4,0.9,6.7,1.5,10c-0.4,0-0.8,0-1.2-0.1c-8.4-0.1-16.9,0.2-25.3,1.1
				c-0.3-3.1-1.4-1.4-2-2.6c-0.4-0.8,0.2-1.7,1.1-1.7C283.8,475.1,291.5,475.7,297.9,476z"/>
		</g>
		<path class="st4" d="M447,470.7c0.9,0,1.5-0.7,1.5-1.5c0-0.9-0.7-1.6-1.5-1.6s-1.5,0.7-1.5,1.6C445.5,470,446.1,470.7,447,470.7z"
			/>
		<path class="st4" d="M300.6,475.3c0.8,0,1.4-0.6,1.4-1.4s-0.6-1.4-1.4-1.4s-1.4,0.6-1.4,1.4C299.2,474.6,299.8,475.3,300.6,475.3z
			"/>
		<path class="st15" d="M321.5,484.3c4.8-5,9.7-10.1,15.2-14.3c1.3-1,0-3.1-1.3-2.1c-5.7,4.4-10.7,9.6-15.7,14.7
			C318.6,483.7,320.4,485.5,321.5,484.3z"/>
		<path class="st15" d="M406.2,466.7c6,3.3,11.3,7.9,16.7,12c1.3,1,2.5-1.2,1.3-2.1c-5.5-4.1-10.7-8.7-16.7-12
			C406,463.7,404.8,465.9,406.2,466.7L406.2,466.7z"/>
		<path class="st15" d="M367.9,463.4c1.2,13.3,0.3,25.6,1.2,38.8c0,0.3,0.3,0.6,0.6,0.6c0.2,0,0.4-0.1,0.5-0.3
			c2.1-2.9,4.7-6.2,7.9-7.9c0.2-0.1,0.3-0.3,0.3-0.5c-0.3-10.5,0.4-20-0.4-30.4c-0.1-0.8-1.3-0.8-1.3,0c0.6,8.4-0.1,15.8,0.1,24.1
			c0.1,1.6,0.8,5.6-0.4,6.2c-2.8,1.5-5,4.7-6.9,7.1c-0.8,1,0.6,0.9,0.5-0.1c-0.1-1.5-0.2-3.1-0.3-4.7c-0.2-4.1-0.4-8.1-0.6-12.2
			c-0.4-7.3,0.4-13.5-0.3-20.8C369.1,462.6,367.8,462.6,367.9,463.4L367.9,463.4z"/>
		<path class="st16" d="M345.9,460.9c0,3.2,5,3.2,5,0"/>
		<path class="st16" d="M330.2,450v11.4c0,3.2,5,3.2,5,0V450"/>
		<path class="st16" d="M408.8,460.6c0,3.2,5,3.2,5,0"/>
		<path class="st16" d="M393.1,449.7V461c0,3.2,5,3.2,5,0v-11.3"/>
		<path class="st17" d="M445.3,730.5c1.2-2.7,4.3-4.5,7.1-5.2c1.6-0.4,0.9-2.8-0.7-2.4c-3.4,0.8-7.1,3.1-8.6,6.3
			C442.4,730.7,444.6,731.9,445.3,730.5L445.3,730.5z"/>
		<path class="st17" d="M452.5,734.1c1.6-3,5.2-4.8,8.4-5.7c0.7-0.2,1-0.9,0.9-1.5c-0.2-0.7-0.9-1-1.5-0.9c-3.8,1-8,3.2-9.8,6.8
			C449.6,734.2,451.8,735.5,452.5,734.1z"/>
		<path class="st17" d="M459.7,736.5c2.3-2.4,5.5-3,8.2-4.8c1.3-0.9,0.1-3-1.3-2.1c-2.9,1.9-6.3,2.6-8.7,5.2
			C456.8,735.9,458.6,737.7,459.7,736.5z"/>
		<path class="st17" d="M321,734.2c3.1,0.9,4.6,3.9,7.2,5.5c0.6,0.3,1.4,0.1,1.7-0.5c0.3-0.6,0.1-1.3-0.4-1.6
			c-1.2-0.9-2.3-1.8-3.3-2.9c-1.3-1.3-2.8-2.2-4.5-2.8c-0.7-0.2-1.4,0.2-1.5,0.9C320,733.3,320.4,734,321,734.2L321,734.2z"/>
		<path class="st17" d="M326.4,731.2c3.4,0.9,6.1,3.2,8.2,5.9c1,1.3,2.8-0.5,1.8-1.8c-2.3-3.1-5.6-5.4-9.3-6.5
			c-0.7-0.1-1.3,0.3-1.5,1C325.5,730.4,325.8,731,326.4,731.2z"/>
		<path class="st17" d="M332.8,728.8c2.7,1.5,6.3,2.3,7.4,5.5c0.6,1.5,3,0.8,2.4-0.7c-1.5-4-5.1-5.1-8.6-7c-0.6-0.3-1.4,0-1.7,0.6
			C332.2,727.7,332.3,728.4,332.8,728.8L332.8,728.8z"/>
		<path class="st18" d="M2158.5,223.7"/>
		<path class="st18" d="M-500.3,223.7"/>
		<path class="st1" d="M364.8,269.6"/>
		<path class="st1" d="M362.1,267.5"/>
		<path class="st19" d="M362.2,267.5"/>
		<path class="st19" d="M364.8,269.5"/>
	</g>
	<g id="Layer_2_1_">
		<path class="st19" d="M379.8,264.2c-2.9,1.6-5.9,2.5-9,2.5c-2.5,0-5-0.6-7.6-1.8c-1-0.5-2-1.1-3-1.8c4,1.7,8.6,0.4,13.1-1.4"/>
		<path class="st1" d="M373.2,261.7c-4.5,1.8-9.1,3.1-13.1,1.4"/>
		<path class="st11" d="M370.3,275.8c0.7-2.6,1.7-6.7,0.4-9.2c3.1,0,6.1-0.9,9-2.5c0,3.3-2.2,6.7-2.1,10.1"/>
		<path class="st11" d="M361.5,274.4c0-3.1,2-6.3,1.6-9.6c2.6,1.2,5.1,1.8,7.6,1.8c1.3,2.5,0.3,6.5-0.4,9.2"/>
	</g>
	<path class="st20" d="M418.7,169.7c-7.4,2.3-15.9,1.9-24.1,1.1c-13-0.7-34.1-1.4-44.3-9.7c0.8,2.4,2,4.5,2.4,7
		c-5.3,0.3-15-0.9-19.1-4.3c1.8,4.4,4.8,8.6,8.2,11.1c0.2-0.4,0.4-0.8,0.6-1.2c4.9,3.1,14.2,4.5,20.7,4.2c-2.6-0.9-4.5-2.5-5.1-4.6
		c14.6,4.7,31.6,8.4,47.1,6.5c3.1-0.4,6.2-1,9.2-1.9c5.9-1.8,11.5-4.7,16.3-9C426.8,169.3,422.6,169.4,418.7,169.7z"/>
	<path class="st21" d="M331.1,195.3c0.6-2.2,1.3-4.3,2-6.1c0.7-2.4,1.9-4.5,3.3-6.5c0.3-0.5,0.7-1,1.1-1.5c1.6-2.1,3.2-4.2,4.4-6.5
		c-3.4-2.5-6.4-6.7-8.2-11.1c-1-2.5-1.7-5.1-1.7-7.4c-0.3,0.2-0.6,0.4-0.9,0.6c-8.1,6.6-8.9,19.5-9.7,28.5c-0.1,1.2-0.1,2.4-0.2,3.6
		C323.4,191.8,327.5,194.3,331.1,195.3z"/>
	<path class="st22" d="M352.7,168c-0.4-2.4-1.6-4.5-2.4-7c10.2,8.3,31.3,9.1,44.3,9.7c8.1,0.8,16.7,1.2,24.1-1.1
		c-0.2,0-0.4,0-0.6,0.1c5.7-2.1,5.7-9,7.7-13.6c-3.9,6-15.6,2.3-25.1-1.2c-5.4-3.7-12.3-6.2-19.5-7.5h-23.8c-0.5,0.1-1,0.2-1.5,0.3
		c-7.3,2-17.7,4-23.9,8.4c0,2.4,0.7,4.9,1.7,7.4C337.7,167.1,347.5,168.3,352.7,168z"/>
	<path class="st21" d="M405.2,182.5c0,5.1-0.5,10.6-1.3,16.2c2.9-0.8,6.5-1.6,9.4-1.9l0.3,0h0c1-5.7,1.5-12.6,0.7-19.2
		c-2.9,0.9-6,1.5-9.2,1.9C405.2,180.6,405.2,181.6,405.2,182.5z"/>
	<path class="st23" d="M403.9,198.7c-1.3,9.1-3.5,18.2-5.6,24.9c-1.1,3.6-2.3,6.5-3.3,8.4l-1.2-2.1c-14-9.7-32.9-7.2-43.8,1.7
		c-0.5,0.4-0.9,0.7-1.3,1.1c-2.7-4.4-6.6-8.1-9.8-12.4c-2.7-12.1-5.2-25.5-2.3-37.6c-1.4,2-2.7,4.1-3.3,6.5c-0.7,1.8-1.4,4-2,6.1
		c-3.6-1.1-7.7-3.6-9.9-6.4c-0.3,5.3-0.2,10.5,1.5,15.9c1.1-1.5,2.9-2.7,6.1-3c0.1,0.6,0.3,1.1,0.4,1.7c0.3,1.3,0.5,2.6,0.6,3.9
		c0.3,3.2,0.4,6.4,0.4,9.7c0.1,1.9,0.1,3.9,0.1,5.8c0,0.6,0,1.2,0,1.8c0.1,1.7,0.1,3.5,0,5.3c3.8,9.1,12.6,15.7,24.1,18.7
		c12.9,3.4,39.3,2,52.4-7.4c2.2-5.7,1.4-12.1,1.2-18.4c0-0.9,0-1.8,0-2.7c0-1.3,0.1-2.7,0.2-4.2c0.2-2.7,0.6-5.6,1-8.5
		c0.3-2.5,0.5-4.9,0.6-7.1c1.1,0.3,2,0.7,2.9,1.3c0.4-1.5,0.8-3.2,1.1-4.9l-0.3,0C410.3,197.1,406.8,197.9,403.9,198.7z"/>
	<path class="st1" d="M409.1,207.7c3.8,0.2,4.7,8-1,8.5c-0.1,1.5-0.2,2.9-0.2,4.2c0,0.9,0,1.8,0,2.7c9.4-3.3,11.8-16.4,4.6-21.2
		c-0.8-0.5-1.8-1-2.9-1.3C409.6,202.7,409.4,205.2,409.1,207.7z"/>
	<path class="st24" d="M409.1,207.7c-0.3,2.9-0.7,5.8-1,8.5C413.8,215.6,412.9,207.9,409.1,207.7z"/>
	<path class="st19" d="M336.4,182.7c-2.9,12.1-0.4,25.5,2.3,37.6c3.2,4.3,7,8,9.8,12.4c0.4-0.4,0.9-0.8,1.3-1.1
		c-7.5-8.6-7.2-21.4-6.9-31.6c0.3-5.5-0.9-14.1,6.7-15.4c7.6-1.3,15.2,1,22.9-1.5c-1.8,0-3.3-0.8-4.9-1.6c3.4,0,6.7,1.8,10.1,2.4
		c4.3,1,8.8,1.3,13.4,1c4.8-0.2,9.3-1.1,14-2.3c0-1,0-2,0-2.9c-15.4,1.9-32.5-1.8-47.1-6.5c0.6,2.1,2.5,3.6,5.1,4.6
		c-6.5,0.4-15.9-1-20.7-4.2c-0.2,0.4-0.4,0.8-0.6,1.2c-1.2,2.3-2.8,4.4-4.4,6.5C337.1,181.7,336.8,182.2,336.4,182.7z"/>
	<path class="st1" d="M377.7,183.8c-3.4-0.5-6.7-2.4-10.1-2.4c1.5,0.8,3.1,1.6,4.9,1.6c-7.6,2.6-15.2,0.2-22.9,1.5
		c-7.6,1.3-6.4,9.9-6.7,15.4c-0.3,10.2-0.6,23,6.9,31.6c10.9-8.8,29.8-11.4,43.8-1.7l1.2,2.1c1-1.8,2.2-4.8,3.3-8.4
		c2.1-6.7,4.3-15.8,5.6-24.9c0.8-5.5,1.3-11.1,1.3-16.2c-4.7,1.2-9.3,2.1-14,2.3C386.6,185.1,382,184.8,377.7,183.8z"/>
	<path class="st21" d="M376.6,258.1c10.9-1.3,21-5,26.4-10.8c1.8-1.9,3-3.9,3.8-6c-13.1,9.3-39.5,10.8-52.4,7.4
		c-11.4-3-20.3-9.6-24.1-18.7c-0.1,6.2-0.3,12.9,4,17.9c4.9,5.6,13.7,8.9,23.5,10.2l4.4,9.4l17.6,2.6"/>
	<path class="st1" d="M329.7,207.4c-0.1-1.3-0.3-2.6-0.6-3.9c-0.1-0.6-0.2-1.2-0.4-1.7c-3.2,0.3-5,1.5-6.1,3
		c-1.8,2.6-1.5,6.2-1.1,8.8c1,4.4,3.3,7.2,6.9,8.7c0.6,0.2,1.2,0.5,1.8,0.6c-0.1-1.9-0.1-3.8-0.1-5.8
		C323,214.3,326.7,206.4,329.7,207.4z"/>
	<path class="st24" d="M330.1,217.1c0-3.3,0-6.5-0.4-9.7C326.7,206.4,323,214.3,330.1,217.1z"/>
	<path class="st25" d="M375.2,191.4c-1.4,3.7-2,8.2,0.2,11.8c0.9,1.5,3.5,2.4,5,3.2c5.6,3.1,1.3,9.1-2.1,10.9c-1.8,1-4.3,0.6-6.3,1
		c-0.1,0-0.2,0.2,0,0.2c6.4,2.4,12-2,12.9-7.3c0.4-2.6-1.1-4.5-3.3-6.1c-2.4-1.7-4.3-2.4-5-5.2c-0.7-2.8-1.3-5.8-1.1-8.7
		C375.4,191.4,375.3,191.4,375.2,191.4L375.2,191.4z"/>
	<path class="st25" d="M368.9,216.5c1.3,0.4,2.2-0.1,3.2-0.8c0.5-0.3,0.4-1-0.3-1c-1.4,0.1-2.8,0.2-3.1,1.6
		C368.8,216.4,368.9,216.5,368.9,216.5L368.9,216.5z"/>
	<path class="st26" d="M362.8,200.5c0,2.3-2.2,4.2-4.9,4.2c-2.7,0-4.9-1.9-4.9-4.2c0-2.3,2.2-4.2,4.9-4.2
		C360.6,196.3,362.8,198.2,362.8,200.5z"/>
	<path class="st26" d="M395.1,200.5c0,2.3-2.2,4.2-4.9,4.2c-2.7,0-4.9-1.9-4.9-4.2c0-2.3,2.2-4.2,4.9-4.2
		C392.9,196.3,395.1,198.2,395.1,200.5z"/>
	<path class="st27" d="M346.7,209.6c0.2,1.6,1.4,2,3.1,2.7c2.3,1,3.7,2.2,6.4,2.4c3,0.2,3.8-3.4,1.5-4.6c-2.6-1.3-5.7-1.9-8.7-2.2
		c-0.8-0.1-1.5,0.4-1.9,0.9C346.9,209.1,346.7,209.4,346.7,209.6L346.7,209.6z"/>
	<path class="st27" d="M390.7,213.3c2.1,0.5,3.9,0.1,6-0.3c5.3-1,3-8.3-2.2-7c-2,0.5-3.7,1.1-5.3,2.4
		C387.4,210,388.3,212.7,390.7,213.3L390.7,213.3z"/>
	<path class="st28" d="M350.6,188.4c3-1.3,5.7-0.9,8.8-1.5c1.8-0.3,4.1-1.8,2.2-3.5c-3.2-2.7-14,0.4-11.7,4.8
		C350,188.4,350.3,188.4,350.6,188.4L350.6,188.4z"/>
	<path class="st28" d="M397,187.1c-0.6-1.9-1.1-2.7-3.2-3.9c-1.8-1-4.4-1.4-6.3-0.5c-1.3,0.6-1.2,1.9-0.4,2.8c1,1.1,2.4,1.2,4,1.5
		c1.4,0.3,3.8,0.1,5,0.7C396.5,187.9,397.1,187.5,397,187.1L397,187.1z"/>
	<path class="st29" d="M360.3,232.9c7.8,4.3,17,3.1,24.8-0.7c1.4-0.7,0.1-2.5-1.2-1.8c-7,3.5-15.2,4.6-22.3,0.7
		C360.2,230.4,358.9,232.2,360.3,232.9L360.3,232.9z"/>
</g>
<g id="Layer_3">
</g>
<g id="Layer_2">
	<path class="st30" d="M374.2,477.2c-1.2-1.7-1.6-3.9-0.8-6.5l0.1,0c-1.1-23.7-1.4-56.5-3.5-100.4c0-0.5-0.1-1-0.1-1.6l-0.6,0
		c-0.5-1.2-1.3-2.4-1.8-3.3c-8.2-14.7-17.5-33.9-16.8-51.1c0.2-3.8,1.2-8.8-0.6-12.5c-1.8-4.1-5-4-7.5-6.8c-3.1-3.6-4.5-2.1-4.9-7.9
		c-1.3,1.5-2.5,3.1-3.7,4.5c-10.1,11.8-19.7,13.9-25.5,28.7c-11.7,28.2-20.4,57.5-24.2,87.8c-2.1,17.1-8.3,48.7-6.8,65.6l1.7-5.3
		c11.8,5.3,16.3-1.5,25.7-0.1l0.3,9.9c1.6-3.2,4.3-30.5,4.7-34.3c0.7-6.4-1.1-51.5,16.1-100.5c1.5,17.8-10.6,59.4-3.4,74
		c4.9,10-13.2,39-1.5,47.9c3.3-3.3,12.4-38.2,16-40.8c3,10.8-3.5,14.8-12,17.9c-0.7,8.1-2.6,15-4,22.9c-0.7,4.8-1.6,12.6-2.8,17.5
		l4.8,1.6c9.7,3.3,36.5,3.2,44.5-2.8C369.7,480.4,372,478.9,374.2,477.2z"/>
	<path class="st3" d="M368.1,263.9l0,0.9c0,0.1,0.1,0.3,0.1,0.4c1.6,5.2,5.1,10.9,8.8,15.8c2.1,2.7,4.2,5.2,6.1,7.3l0.4,0.1
		c1.3-7.3,2.5-14.4,3.5-20.9c-3.1-2.5-6.6-4.6-10.4-5.6C374,263.3,371.1,263.8,368.1,263.9C368.1,263.9,368.1,263.9,368.1,263.9z"/>
	<path class="st31" d="M373.4,470.7c-0.8,2.6-0.5,4.8,0.8,6.5c7.2,10.1,44.1,6.2,52.1,4.2c-0.7-14.1,0-27.4-0.9-41.7
		c-4-1.4-9.7-2.7-12.7-5.3c-4.6-4-2.3-5.8-3-12c4.4,3.1,10,5.2,15,7.9c-0.7-8.2-1.6-16.3-2.9-24.4c-3.3-22.3-2.3-49.1-7.1-71
		c7.4,17.8,15,40,20.5,66c5.3,24.9,6.4,46.2,7,64.9c8.6-1,18.1-1.1,26.7-2.1c-3.3-27.1-7.6-49.5-11.2-65.8c0,0-9.3-53-29.4-89
		c-7.2-12.8-15.5-16.6-25-27.4c-0.9-1-2.2-2.3-3.8-3.7c-0.1,6.2-0.3,6.5-2.4,10.5c-1.8,3-5,2.8-6.4,6.2c-1.7,4.7,0.4,7.9,1.8,12
		c5.2,17.7-9.1,41.9-18.2,56.6c-1.4,2-3.5,4.5-4.2,7.2c0.9,19.4,1.8,38.8,2.6,58.3C373.2,443,372.8,456.3,373.4,470.7z"/>
	<path class="st32" d="M322.7,417.7c-0.2,3.8,2.9,21.2,2.5,25c8.5-3.1,14.9-7,12-17.9C333.6,427.3,326,414.4,322.7,417.7z"/>
	<path class="st32" d="M359,307.5c-2.3-10.2-4.6-11.7-6.5-20.5c-1.3-6.1-2.4-11.4-3.1-15.4c-0.1-0.6-0.2-1.2-0.3-1.7
		c-2,6.4-6.9,12.1-11.3,17.4c0.3,5.8,1.7,4.2,4.9,7.9c2.5,2.8,5.7,2.7,7.5,6.8c1.8,3.7,0.8,8.7,0.6,12.5
		c-0.7,17.2,8.5,36.4,16.8,51.1c0.4,0.8,1.3,2,1.8,3.3l0.6,0c-0.3-5.9-0.6-11.9-0.9-18.1C367.1,342.9,363,325.4,359,307.5z"/>
	<path class="st3" d="M357.2,284.5c5.9-4.4,9-12.4,10.9-19.3l0.1,0c0-0.1-0.1-0.3-0.1-0.4l0-0.9c-4.7,0.2-9.3-0.3-12.6,1.1
		c-1.9,0.9-4.1,4.8-6,6.6l0,0c0.7,4,1.8,9.3,3.1,15.4l0.1,0C354.3,286.4,355.8,285.6,357.2,284.5z"/>
	<path class="st13" d="M352.5,287L352.5,287c1.8,8.8,4.1,10.3,6.4,20.5c1.1-5.1,3-10.2,4.2-15l0.4-0.4c-0.7-6.1-4.8-1.8-6.4-7.5
		C355.8,285.6,354.3,286.4,352.5,287z"/>
	<path class="st33" d="M369,350.6c0.1,0.3,0.2,0.7,0.2,1c2.4-10.4,5-23,7.6-36.1c-2-7.7-4.4-15.1-6.1-22.5l-0.5-1.2
		c-2.4,0.1-4.3,0.2-6.7,0.3l-0.4,0.4c-1.2,4.8-3.1,9.9-4.2,15C363,325.4,367.1,342.9,369,350.6z"/>
	<path class="st10" d="M357.2,284.5c1.6,5.7,5.7,1.4,6.4,7.5c2.4-0.1,4.3-0.2,6.7-0.3c3-5.2,6.3-4.2,6.8-10.7
		c-3.7-4.9-7.2-10.6-8.8-15.8l-0.1,0C366.2,272.1,363.1,280.1,357.2,284.5z"/>
	<path class="st32" d="M376.8,315.5c-2.6,13.2-5.2,25.8-7.6,36.1c-0.1-0.3-0.2-0.6-0.2-1c0.3,6.2,0.6,12.3,0.9,18.1
		c0,0.5,0.1,1,0.1,1.6c0.8-2.7,2.8-5.2,4.2-7.2c9.2-14.7,23.5-38.8,18.2-56.6c-1.4-4.1-3.5-7.4-1.8-12c1.4-3.4,4.6-3.2,6.4-6.2
		c2.1-3.9,2.3-4.3,2.4-10.5c-4.2-3.9-10-8.8-12.3-11.3c-0.1,0.3-0.1,0.7-0.1,1c-1,6.5-2.2,13.6-3.5,20.9
		C381.5,300.1,379.2,303.5,376.8,315.5z"/>
	<path class="st13" d="M370.3,291.7l0.5,1.2c1.7,7.5,4.1,14.8,6.1,22.5c2.3-11.9,4.7-15.3,6.7-27l-0.4-0.1c-1.9-2.1-4-4.6-6.1-7.3
		C376.6,287.5,373.3,286.5,370.3,291.7z"/>
	<path class="st32" d="M409.6,422.5c0.7,6.2-1.6,8,3,12c3.1,2.5,8.7,3.9,12.7,5.3c-0.2-3.1-0.4-6.3-0.7-9.4
		C419.7,427.7,414,425.6,409.6,422.5z"/>
	
		<ellipse transform="matrix(0.9988 -4.911523e-02 4.911523e-02 0.9988 -19.3428 18.2775)" class="st32" cx="362.2" cy="402.7" rx="4.8" ry="5"/>
	
		<ellipse transform="matrix(0.9988 -4.911523e-02 4.911523e-02 0.9988 -20.9316 18.3682)" class="st32" cx="363.3" cy="435.1" rx="4.8" ry="5"/>
</g>
</svg>
