<?xml version="1.0" encoding="UTF-8"?>
<svg width="100px" height="100px" viewBox="0 0 100 100" version="1.1" xmlns="http://www.w3.org/2000/svg" xmlns:xlink="http://www.w3.org/1999/xlink">
    <!-- Generator: Sketch 49 (51002) - http://www.bohemiancoding.com/sketch -->
    <title>Medicine_icon</title>
    <desc>Created with Sketch.</desc>
    <defs>
        <circle id="path-1" cx="50" cy="50" r="50"></circle>
    </defs>
    <g id="Page-1" stroke="none" stroke-width="1" fill="none" fill-rule="evenodd">
        <g id="Solution_page_v1" transform="translate(-349.000000, -1254.000000)">
            <g id="Group" transform="translate(319.000000, 1224.000000)">
                <g id="Card_1">
                    <g id="Medicine_icon" transform="translate(30.000000, 30.000000)">
                        <mask id="mask-2" fill="white">
                            <use xlink:href="#path-1"></use>
                        </mask>
                        <use id="Mask" fill="#EAEAEA" xlink:href="#path-1"></use>
                        <g mask="url(#mask-2)" id="16">
                            <g transform="translate(13.750000, 27.500000)">
                                <g>
                                    <path d="M89.9409449,0 L49.6653543,0 C47.6771654,0 46.0629921,1.61417323 46.0629921,3.6023622 L46.0629921,63.3070866 C46.0629921,65.2952756 47.6771654,66.9094488 49.6653543,66.9094488 L89.9606299,66.9094488 C91.9488189,66.9094488 93.5629921,65.2952756 93.5629921,63.3070866 L93.5629921,3.6023622 C93.5629921,1.61417323 91.9291339,0 89.9409449,0 Z" id="Shape" fill="#EFF3F5" fill-rule="nonzero"></path>
                                    <path d="M71.1417323,20.1181102 C69.4291339,21.8307087 69.4291339,24.6062992 71.1417323,26.2992126 C72.8543307,28.011811 75.6299213,28.011811 77.3228346,26.2992126 L81.5748031,22.0472441 L75.3937008,15.8661417 L71.1417323,20.1181102 Z" id="Shape" fill="#788D9A" fill-rule="nonzero"></path>
                                    <path d="M79.6259843,11.6141732 L75.3740157,15.8661417 L81.5551181,22.0472441 L85.8070866,17.7952756 C87.519685,16.0826772 87.519685,13.3070866 85.8070866,11.6141732 C84.0944882,9.92125984 81.3385827,9.9015748 79.6259843,11.6141732 Z" id="Shape" fill="#788D9A" fill-rule="nonzero"></path>
                                    <path d="M71.1417323,18.8976378 C69.4291339,20.6102362 69.4291339,23.3858268 71.1417323,25.0787402 C72.8543307,26.7913386 75.6299213,26.7913386 77.3228346,25.0787402 L81.5748031,20.8267717 L75.3937008,14.6456693 L71.1417323,18.8976378 Z" id="Shape" fill="#379FC8" fill-rule="nonzero"></path>
                                    <path d="M79.6259843,10.4133858 L75.3740157,14.6653543 L81.5551181,20.8464567 L85.8070866,16.5944882 C87.519685,14.8818898 87.519685,12.1062992 85.8070866,10.4133858 C84.0944882,8.72047244 81.3385827,8.7007874 79.6259843,10.4133858 Z" id="Shape" fill="#DBDFE0" fill-rule="nonzero"></path>
                                    <path d="M51.5551181,20.1181102 C49.8425197,21.8307087 49.8425197,24.6062992 51.5551181,26.2992126 C53.2677165,28.011811 56.0433071,28.011811 57.7362205,26.2992126 L61.988189,22.0472441 L55.8070866,15.8661417 L51.5551181,20.1181102 Z" id="Shape" fill="#788D9A" fill-rule="nonzero"></path>
                                    <path d="M60.0590551,11.6141732 L55.8070866,15.8661417 L61.988189,22.0472441 L66.2401575,17.7952756 C67.9527559,16.0826772 67.9527559,13.3070866 66.2401575,11.6141732 C64.5275591,9.92125984 61.7519685,9.9015748 60.0590551,11.6141732 Z" id="Shape" fill="#788D9A" fill-rule="nonzero"></path>
                                    <path d="M51.5551181,18.8976378 C49.8425197,20.6102362 49.8425197,23.3858268 51.5551181,25.0787402 C53.2677165,26.7913386 56.0433071,26.7913386 57.7362205,25.0787402 L61.988189,20.8267717 L55.8070866,14.6456693 L51.5551181,18.8976378 Z" id="Shape" fill="#379FC8" fill-rule="nonzero"></path>
                                    <path d="M60.0590551,10.4133858 L55.8070866,14.6653543 L61.988189,20.8464567 L66.2401575,16.5944882 C67.9527559,14.8818898 67.9527559,12.1062992 66.2401575,10.4133858 C64.5275591,8.72047244 61.7519685,8.7007874 60.0590551,10.4133858 Z" id="Shape" fill="#DBDFE0" fill-rule="nonzero"></path>
                                    <g id="Group" transform="translate(69.685039, 28.346457)" fill-rule="nonzero">
                                        <path d="M1.45669291,10.984252 C-0.255905512,12.6968504 -0.255905512,15.4724409 1.45669291,17.1653543 C3.16929134,18.8779528 5.94488189,18.8779528 7.63779528,17.1653543 L11.8897638,12.9133858 L5.70866142,6.73228346 L1.45669291,10.984252 Z" id="Shape" fill="#788D9A"></path>
                                        <path d="M9.94094488,2.5 L5.68897638,6.7519685 L11.8700787,12.9330709 L16.1220472,8.68110236 C17.8346457,6.96850394 17.8346457,4.19291339 16.1220472,2.5 C14.4291339,0.787401575 11.6535433,0.787401575 9.94094488,2.5 Z" id="Shape" fill="#788D9A"></path>
                                        <g id="Shape">
                                            <path d="M1.45669291,9.78346457 C-0.255905512,11.496063 -0.255905512,14.2716535 1.45669291,15.9645669 C3.16929134,17.6771654 5.94488189,17.6771654 7.63779528,15.9645669 L11.8897638,11.7125984 L5.70866142,5.53149606 L1.45669291,9.78346457 Z" fill="#379FC8"></path>
                                            <path d="M9.94094488,1.2992126 L5.68897638,5.5511811 L11.8700787,11.7322835 L16.1220472,7.48031496 C17.8346457,5.76771654 17.8346457,2.99212598 16.1220472,1.2992126 C14.4291339,-0.413385827 11.6535433,-0.413385827 9.94094488,1.2992126 Z" fill="#DBDFE0"></path>
                                        </g>
                                    </g>
                                    <g id="Group" transform="translate(50.196850, 28.346457)" fill-rule="nonzero">
                                        <path d="M1.35826772,10.984252 C-0.354330709,12.6968504 -0.354330709,15.4724409 1.35826772,17.1653543 C3.07086614,18.8779528 5.84645669,18.8779528 7.53937008,17.1653543 L11.7913386,12.9133858 L5.61023622,6.73228346 L1.35826772,10.984252 Z" id="Shape" fill="#788D9A"></path>
                                        <path d="M9.86220472,2.5 L5.61023622,6.7519685 L11.7913386,12.9330709 L16.0433071,8.68110236 C17.7559055,6.96850394 17.7559055,4.19291339 16.0433071,2.5 C14.3307087,0.787401575 11.5551181,0.787401575 9.86220472,2.5 Z" id="Shape" fill="#788D9A"></path>
                                        <g id="Shape">
                                            <path d="M1.35826772,9.78346457 C-0.354330709,11.496063 -0.354330709,14.2716535 1.35826772,15.9645669 C3.07086614,17.6771654 5.84645669,17.6771654 7.53937008,15.9645669 L11.7913386,11.7125984 L5.61023622,5.53149606 L1.35826772,9.78346457 Z" fill="#379FC8"></path>
                                            <path d="M9.86220472,1.2992126 L5.61023622,5.5511811 L11.7913386,11.7322835 L16.0433071,7.48031496 C17.7559055,5.76771654 17.7559055,2.99212598 16.0433071,1.2992126 C14.3307087,-0.413385827 11.5551181,-0.413385827 9.86220472,1.2992126 Z" fill="#DBDFE0"></path>
                                        </g>
                                    </g>
                                    <path d="M50.3346457,0 L10.0590551,0 C8.07086614,0 6.43700787,1.61417323 6.43700787,3.6023622 L6.43700787,63.3070866 C6.43700787,65.2952756 8.0511811,66.9094488 10.0393701,66.9094488 L50.3346457,66.9094488 C52.3228346,66.9094488 53.9370079,65.2952756 53.9370079,63.3070866 L53.9370079,3.6023622 C53.9566929,1.61417323 52.3425197,0 50.3346457,0 Z" id="Shape" fill="#5AC8AE" fill-rule="nonzero"></path>
                                    <g id="Group" transform="translate(11.220472, 5.905512)" fill-rule="nonzero">
                                        <circle id="Oval" fill="#52AFA8" cx="8.36614173" cy="9.96062992" r="8.36614173"></circle>
                                        <circle id="Oval" fill="#EFF3F5" cx="8.36614173" cy="8.38582677" r="8.36614173"></circle>
                                        <circle id="Oval" fill="#52AFA8" cx="29.5866142" cy="9.96062992" r="8.36614173"></circle>
                                        <circle id="Oval" fill="#EFF3F5" cx="29.5866142" cy="8.38582677" r="8.36614173"></circle>
                                    </g>
                                    <g id="Group" transform="translate(11.220472, 27.952756)" fill-rule="nonzero">
                                        <circle id="Oval" fill="#52AFA8" cx="8.36614173" cy="9.96062992" r="8.36614173"></circle>
                                        <circle id="Oval" fill="#EFF3F5" cx="8.36614173" cy="8.38582677" r="8.36614173"></circle>
                                        <circle id="Oval" fill="#52AFA8" cx="29.5866142" cy="9.96062992" r="8.36614173"></circle>
                                        <circle id="Oval" fill="#EFF3F5" cx="29.5866142" cy="8.38582677" r="8.36614173"></circle>
                                    </g>
                                    <polygon id="Shape" fill="#DBDFE0" fill-rule="nonzero" points="0 39.4488189 100 39.4488189 100 100 0 100"></polygon>
                                    <polygon id="Shape" fill="#EAEAEA" fill-rule="nonzero" points="0 39.4488189 100 39.4488189 100 42.4409449 0 42.4409449"></polygon>
                                    <polygon id="Shape" fill="#F1786B" fill-rule="nonzero" points="69.1141732 63.3267717 56.3976378 63.3267717 56.3976378 50.6102362 43.6023622 50.6102362 43.6023622 63.3267717 30.8858268 63.3267717 30.8858268 76.1023622 43.6023622 76.1023622 43.6023622 88.8385827 56.3976378 88.8385827 56.3976378 76.1023622 69.1141732 76.1023622"></polygon>
                                </g>
                            </g>
                        </g>
                    </g>
                </g>
            </g>
        </g>
    </g>
</svg>