<svg xmlns="http://www.w3.org/2000/svg" xmlns:xlink="http://www.w3.org/1999/xlink" width="20" height="20" viewBox="0 0 20 20"><defs><path id="annwa" d="M637.22 434.72l-2.38 2.37-6-6 2.38-2.37a4.06 4.06 0 0 1 3-1.25c1.12 0 2.12.37 3 1.25a4.3 4.3 0 0 1 0 6zm-6.5 6.5a4.3 4.3 0 0 1-6 0 4.3 4.3 0 0 1 0-6l2.37-2.38 6 6zm8.25-14.25a6.71 6.71 0 0 0-9.5 0l-6.5 6.5a6.71 6.71 0 1 0 9.5 9.5l6.5-6.5a6.71 6.71 0 0 0 0-9.5z"/></defs><g><g transform="translate(-621 -425)"><g><use fill="#5f5f62" xlink:href="#annwa"/></g></g></g></svg>