<svg xmlns="http://www.w3.org/2000/svg" xmlns:xlink="http://www.w3.org/1999/xlink" width="136" height="100" viewBox="0 0 136 100"><defs><path id="f4yha" d="M161 845a50 50 0 1 1 100 0 50 50 0 0 1-100 0z"/><path id="f4yhc" d="M165.5 835c-1.12 0-2.14-.7-2.42-1.74l-5-18.4c-.34-1.23.47-2.48 1.81-2.79 1.34-.31 2.7.44 3.03 1.67l5 18.4c.34 1.24-.47 2.48-1.81 2.8-.2.04-.41.06-.61.06z"/><path id="f4yhd" d="M213.5 886a23.53 23.53 0 0 1-23.5-23.5 23.53 23.53 0 0 1 23.5-23.5 23.53 23.53 0 0 1 23.5 23.5 23.53 23.53 0 0 1-23.5 23.5zm0-42.3a18.82 18.82 0 0 0-18.8 18.8c0 10.37 8.43 18.8 18.8 18.8 10.37 0 18.8-8.43 18.8-18.8 0-10.37-8.43-18.8-18.8-18.8z"/><path id="f4yhe" d="M148.5 886a23.53 23.53 0 0 1-23.5-23.5 23.53 23.53 0 0 1 23.5-23.5 23.53 23.53 0 0 1 23.5 23.5 23.53 23.53 0 0 1-23.5 23.5zm0-42.3a18.82 18.82 0 0 0-18.8 18.8c0 10.37 8.43 18.8 18.8 18.8 10.37 0 18.8-8.43 18.8-18.8 0-10.37-8.43-18.8-18.8-18.8z"/><path id="f4yhf" d="M169.67 816h-16.34c-1.29 0-2.33-.9-2.33-2s1.04-2 2.33-2h16.34c1.29 0 2.33.9 2.33 2s-1.04 2-2.33 2z"/><path id="f4yhg" d="M213.62 866a2.37 2.37 0 0 1-2.28-1.7L197.09 815a2.35 2.35 0 0 1 1.63-2.91 2.38 2.38 0 0 1 2.94 1.61l14.25 49.3a2.35 2.35 0 0 1-2.29 3z"/><path id="f4yhh" d="M176.16 865h-27.84c-.82 0-1.57-.43-2-1.15a2.38 2.38 0 0 1-.04-2.32l16.24-30.58a2.32 2.32 0 0 1 1.75-1.22l37.12-4.7c.93-.14 1.82.32 2.29 1.13.47.81.42 1.83-.13 2.59l-25.52 35.29c-.44.6-1.13.96-1.87.96zm-23.96-4.7h22.78l21.65-29.93-30.6 3.87z"/><path id="f4yhi" d="M215.67 816h-16.34c-1.29 0-2.33-.9-2.33-2s1.04-2 2.33-2h16.34c1.29 0 2.33.9 2.33 2s-1.04 2-2.33 2z"/><clipPath id="f4yhb"><use xlink:href="#f4yha"/></clipPath></defs><g><g transform="translate(-125 -795)"><g><use fill="#f2f2ef" xlink:href="#f4yha"/></g><g clip-path="url(#f4yhb)"><g><use fill="#b3b3b3" xlink:href="#f4yhc"/></g><g><use fill="#444" xlink:href="#f4yhd"/></g><g><use fill="#444" xlink:href="#f4yhe"/></g><g><use fill="#444" xlink:href="#f4yhf"/></g><g><use fill="#e75b72" xlink:href="#f4yhg"/></g><g><use fill="#e75b72" xlink:href="#f4yhh"/></g><g><use fill="#b3b3b3" xlink:href="#f4yhi"/></g></g></g></g></svg>