<?xml version="1.0" encoding="UTF-8"?>
<svg width="100px" height="100px" viewBox="0 0 100 100" version="1.1" xmlns="http://www.w3.org/2000/svg" xmlns:xlink="http://www.w3.org/1999/xlink">
    <!-- Generator: Sketch 47.1 (45422) - http://www.bohemiancoding.com/sketch -->
    <title>Page 1</title>
    <desc>Created with Sketch.</desc>
    <defs>
        <circle id="path-1" cx="50" cy="50" r="50"></circle>
    </defs>
    <g id="Page-1" stroke="none" stroke-width="1" fill="none" fill-rule="evenodd">
        <g id="Person-info" transform="translate(-160.000000, -756.000000)">
            <g id="Page-1" transform="translate(160.000000, 756.000000)">
                <mask id="mask-2" fill="white">
                    <use xlink:href="#path-1"></use>
                </mask>
                <use id="Mask" fill="#F2F2EF" xlink:href="#path-1"></use>
                <g mask="url(#mask-2)">
                    <g transform="translate(20.000000, 22.000000)">
                        <path d="M55.7621538,1.00092308 L3.57907692,1.00092308 C1.60215385,1.00092308 0.000615384615,2.60246154 0.000615384615,4.57784615 L0.000615384615,95.8824615 C0.000615384615,97.8593846 1.60215385,99.4609231 3.57907692,99.4609231 L55.7621538,99.4609231 C57.7390769,99.4609231 59.3406154,97.8593846 59.3406154,95.8824615 L59.3406154,4.57784615 C59.3406154,2.60246154 57.7390769,1.00092308 55.7621538,1.00092308" id="Fill-1" fill="#FFFFFF"></path>
                        <g id="Group-5" stroke-width="1" fill="none">
                            <path d="M55.7621538,0.999384615 L3.57907692,0.999384615 C1.60215385,0.999384615 0.000615384615,2.60246154 0.000615384615,4.57784615 L0.000615384615,6.36861538 C0.000615384615,4.39169231 1.60215385,2.79015385 3.57907692,2.79015385 L55.7621538,2.79015385 C57.7390769,2.79015385 59.3406154,4.39169231 59.3406154,6.36861538 L59.3406154,4.57784615 C59.3406154,2.60246154 57.7390769,0.999384615 55.7621538,0.999384615" id="Fill-3" fill="#E5E5E0"></path>
                        </g>
                        <path d="M16.5733846,13.3221538 C16.5733846,10.8021538 14.5318462,8.76061538 12.0118462,8.76061538 C9.49338462,8.76061538 7.45030769,10.8021538 7.45030769,13.3221538 L7.45030769,20.5713846 L16.5733846,20.5713846 L16.5733846,13.3221538 Z" id="Fill-6" fill="#F2F2EF"></path>
                        <path d="M12.0121538,8.76076923 C9.49369231,8.76076923 7.45061538,10.8023077 7.45061538,13.3223077 L7.45061538,14.9376923 C7.45061538,12.4192308 9.49369231,10.3776923 12.0121538,10.3776923 C14.5321538,10.3776923 16.5736923,12.4192308 16.5736923,14.9376923 L16.5736923,13.3223077 C16.5736923,10.8023077 14.5321538,8.76076923 12.0121538,8.76076923" id="Fill-8" fill="#FFFFFF"></path>
                        <path d="M7.45076923,20.5712308 L7.45076923,27.822 C7.45076923,30.342 9.49384615,32.3835385 12.0123077,32.3835385 C14.5323077,32.3835385 16.5738462,30.342 16.5738462,27.822 L16.5738462,20.5712308 L7.45076923,20.5712308 Z" id="Fill-10" fill="#E39A61"></path>
                        <path d="M34.2312308,13.3221538 C34.2312308,10.8021538 32.1896923,8.76061538 29.6696923,8.76061538 C27.1512308,8.76061538 25.1096923,10.8021538 25.1096923,13.3221538 L25.1096923,20.5713846 L34.2312308,20.5713846 L34.2312308,13.3221538 Z" id="Fill-12" fill="#F2F2EF"></path>
                        <path d="M29.6698462,8.76076923 C27.1513846,8.76076923 25.1098462,10.8023077 25.1098462,13.3223077 L25.1098462,14.9376923 C25.1098462,12.4192308 27.1513846,10.3776923 29.6698462,10.3776923 C32.1898462,10.3776923 34.2313846,12.4192308 34.2313846,14.9376923 L34.2313846,13.3223077 C34.2313846,10.8023077 32.1898462,8.76076923 29.6698462,8.76076923" id="Fill-14" fill="#FFFFFF"></path>
                        <path d="M25.1101538,20.5712308 L25.1101538,27.822 C25.1101538,30.342 27.1516923,32.3835385 29.6701538,32.3835385 C32.1901538,32.3835385 34.2316923,30.342 34.2316923,27.822 L34.2316923,20.5712308 L25.1101538,20.5712308 Z" id="Fill-16" fill="#E39A61"></path>
                        <path d="M51.8904615,13.3221538 C51.8904615,10.8021538 49.8473846,8.76061538 47.3289231,8.76061538 C44.8089231,8.76061538 42.7673846,10.8021538 42.7673846,13.3221538 L42.7673846,20.5713846 L51.8904615,20.5713846 L51.8904615,13.3221538 Z" id="Fill-18" fill="#F2F2EF"></path>
                        <path d="M47.3290769,8.76076923 C44.8090769,8.76076923 42.7675385,10.8023077 42.7675385,13.3223077 L42.7675385,14.9376923 C42.7675385,12.4192308 44.8090769,10.3776923 47.3290769,10.3776923 C49.8475385,10.3776923 51.8906154,12.4192308 51.8906154,14.9376923 L51.8906154,13.3223077 C51.8906154,10.8023077 49.8475385,8.76076923 47.3290769,8.76076923" id="Fill-20" fill="#FFFFFF"></path>
                        <path d="M42.7678462,20.5712308 L42.7678462,27.822 C42.7678462,30.342 44.8093846,32.3835385 47.3293846,32.3835385 C49.8478462,32.3835385 51.8909231,30.342 51.8909231,27.822 L51.8909231,20.5712308 L42.7678462,20.5712308 Z" id="Fill-22" fill="#E39A61"></path>
                        <path d="M16.5733846,42.9810769 C16.5733846,40.4610769 14.5318462,38.4195385 12.0118462,38.4195385 C9.49338462,38.4195385 7.45030769,40.4610769 7.45030769,42.9810769 L7.45030769,50.2318462 L16.5733846,50.2318462 L16.5733846,42.9810769 Z" id="Fill-24" fill="#F2F2EF"></path>
                        <path d="M12.0121538,38.4196923 C9.49369231,38.4196923 7.45061538,40.4612308 7.45061538,42.9812308 L7.45061538,44.5981538 C7.45061538,42.0781538 9.49369231,40.0366154 12.0121538,40.0366154 C14.5321538,40.0366154 16.5736923,42.0781538 16.5736923,44.5981538 L16.5736923,42.9812308 C16.5736923,40.4612308 14.5321538,38.4196923 12.0121538,38.4196923" id="Fill-26" fill="#FFFFFF"></path>
                        <path d="M7.45076923,50.2316923 L7.45076923,57.4809231 C7.45076923,60.0009231 9.49384615,62.0424615 12.0123077,62.0424615 C14.5323077,62.0424615 16.5738462,60.0009231 16.5738462,57.4809231 L16.5738462,50.2316923 L7.45076923,50.2316923 Z" id="Fill-28" fill="#E39A61"></path>
                        <path d="M34.2312308,42.9810769 C34.2312308,40.4610769 32.1896923,38.4195385 29.6696923,38.4195385 C27.1512308,38.4195385 25.1096923,40.4610769 25.1096923,42.9810769 L25.1096923,50.2318462 L34.2312308,50.2318462 L34.2312308,42.9810769 Z" id="Fill-30" fill="#F2F2EF"></path>
                        <path d="M29.6698462,38.4196923 C27.1513846,38.4196923 25.1098462,40.4612308 25.1098462,42.9812308 L25.1098462,44.5981538 C25.1098462,42.0781538 27.1513846,40.0366154 29.6698462,40.0366154 C32.1898462,40.0366154 34.2313846,42.0781538 34.2313846,44.5981538 L34.2313846,42.9812308 C34.2313846,40.4612308 32.1898462,38.4196923 29.6698462,38.4196923" id="Fill-32" fill="#FFFFFF"></path>
                        <path d="M25.1101538,50.2316923 L25.1101538,57.4809231 C25.1101538,60.0009231 27.1516923,62.0424615 29.6701538,62.0424615 C32.1901538,62.0424615 34.2316923,60.0009231 34.2316923,57.4809231 L34.2316923,50.2316923 L25.1101538,50.2316923 Z" id="Fill-34" fill="#E39A61"></path>
                        <path d="M51.8904615,42.9810769 C51.8904615,40.4610769 49.8473846,38.4195385 47.3289231,38.4195385 C44.8089231,38.4195385 42.7673846,40.4610769 42.7673846,42.9810769 L42.7673846,50.2318462 L51.8904615,50.2318462 L51.8904615,42.9810769 Z" id="Fill-36" fill="#F2F2EF"></path>
                        <path d="M47.3290769,38.4196923 C44.8090769,38.4196923 42.7675385,40.4612308 42.7675385,42.9812308 L42.7675385,44.5981538 C42.7675385,42.0781538 44.8090769,40.0366154 47.3290769,40.0366154 C49.8475385,40.0366154 51.8906154,42.0781538 51.8906154,44.5981538 L51.8906154,42.9812308 C51.8906154,40.4612308 49.8475385,38.4196923 47.3290769,38.4196923" id="Fill-38" fill="#FFFFFF"></path>
                        <path d="M42.7678462,50.2316923 L42.7678462,57.4809231 C42.7678462,60.0009231 44.8093846,62.0424615 47.3293846,62.0424615 C49.8478462,62.0424615 51.8909231,60.0009231 51.8909231,57.4809231 L51.8909231,50.2316923 L42.7678462,50.2316923 Z" id="Fill-40" fill="#E39A61"></path>
                        <path d="M16.5733846,72.64 C16.5733846,70.12 14.5318462,68.0784615 12.0118462,68.0784615 C9.49338462,68.0784615 7.45030769,70.12 7.45030769,72.64 L7.45030769,79.8907692 L16.5733846,79.8907692 L16.5733846,72.64 Z" id="Fill-42" fill="#EFF3F5"></path>
                        <path d="M12.0121538,68.0787692 C9.49369231,68.0787692 7.45061538,70.1203077 7.45061538,72.6403077 L7.45061538,74.2572308 C7.45061538,71.7372308 9.49369231,69.6956923 12.0121538,69.6956923 C14.5321538,69.6956923 16.5736923,71.7372308 16.5736923,74.2572308 L16.5736923,72.6403077 C16.5736923,70.1203077 14.5321538,68.0787692 12.0121538,68.0787692" id="Fill-44" fill="#FFFFFF"></path>
                        <path d="M34.2312308,72.64 C34.2312308,70.12 32.1896923,68.0784615 29.6696923,68.0784615 C27.1512308,68.0784615 25.1096923,70.12 25.1096923,72.64 L25.1096923,79.8907692 L34.2312308,79.8907692 L34.2312308,72.64 Z" id="Fill-48" fill="#EFF3F5"></path>
                        <path d="M29.6698462,68.0787692 C27.1513846,68.0787692 25.1098462,70.1203077 25.1098462,72.6403077 L25.1098462,74.2572308 C25.1098462,71.7372308 27.1513846,69.6956923 29.6698462,69.6956923 C32.1898462,69.6956923 34.2313846,71.7372308 34.2313846,74.2572308 L34.2313846,72.6403077 C34.2313846,70.1203077 32.1898462,68.0787692 29.6698462,68.0787692" id="Fill-50" fill="#FFFFFF"></path>
                        <path d="M51.8904615,72.64 C51.8904615,70.12 49.8473846,68.0784615 47.3289231,68.0784615 C44.8089231,68.0784615 42.7673846,70.12 42.7673846,72.64 L42.7673846,79.8907692 L51.8904615,79.8907692 L51.8904615,72.64 Z" id="Fill-54" fill="#EFF3F5"></path>
                        <path d="M47.3290769,68.0787692 C44.8090769,68.0787692 42.7675385,70.1203077 42.7675385,72.6403077 L42.7675385,74.2572308 C42.7675385,71.7372308 44.8090769,69.6956923 47.3290769,69.6956923 C49.8475385,69.6956923 51.8906154,71.7372308 51.8906154,74.2572308 L51.8906154,72.6403077 C51.8906154,70.1203077 49.8475385,68.0787692 47.3290769,68.0787692" id="Fill-56" fill="#FFFFFF"></path>
                    </g>
                </g>
            </g>
        </g>
    </g>
</svg>