<?xml version="1.0" encoding="UTF-8"?>
<svg width="295px" height="234px" viewBox="0 0 295 234" version="1.1" xmlns="http://www.w3.org/2000/svg" xmlns:xlink="http://www.w3.org/1999/xlink">
    <!-- Generator: Sketch 49 (51002) - http://www.bohemiancoding.com/sketch -->
    <title>Group 7</title>
    <desc>Created with Sketch.</desc>
    <defs></defs>
    <g id="Jumbo_wealth_v1_dk" stroke="none" stroke-width="1" fill="none" fill-rule="evenodd">
        <g id="Prescription-empty-state" transform="translate(-546.000000, -411.000000)" fill-rule="nonzero">
            <g id="Group-4" transform="translate(466.000000, 411.000000)">
                <g id="Group-3" transform="translate(78.000000, 0.000000)">
                    <g id="Group-2">
                        <g id="Group-7">
                            <g id="Group" transform="translate(79.517788, 139.734782) scale(-1, 1) rotate(24.000000) translate(-79.517788, -139.734782) translate(24.017788, 70.234782)">
                                <path d="M78.9576355,-2.66453526e-14 L6.58891626,-2.66453526e-14 C2.95270936,-2.66453526e-14 -1.42108547e-14,2.95270936 -1.42108547e-14,6.58891626 L-1.42108547e-14,132.270443 C-1.42108547e-14,135.90665 2.95270936,138.85936 6.58891626,138.85936 L104.219704,138.85936 C107.855911,138.85936 110.808621,135.90665 110.808621,132.270443 L110.808621,31.8783251 L78.9576355,-2.66453526e-14 Z" id="Shape" fill="#E6E6E6" transform="translate(55.404310, 69.429680) scale(1, -1) translate(-55.404310, -69.429680) "></path>
                                <path d="M79,107 L79,132.262069 C79,135.898276 81.9527094,138.850985 85.5889163,138.850985 L110.850985,138.850985 L79,107 Z" id="Shape" fill="#B0B0B0" transform="translate(94.925493, 122.925493) scale(1, -1) translate(-94.925493, -122.925493) "></path>
                            </g>
                            <g id="Group-5" transform="translate(81.000000, 14.000000)">
                                <path d="M113.812808,0 L9.49753695,0 C4.25615764,0 0,4.25615764 0,9.49753695 L0,190.660099 C0,195.901478 4.25615764,200.157635 9.49753695,200.157635 L150.226601,200.157635 C155.46798,200.157635 159.724138,195.901478 159.724138,190.660099 L159.724138,45.9507389 L113.812808,0 Z" id="Shape" fill="#EBEBEB" transform="translate(79.862069, 100.078818) scale(1, -1) translate(-79.862069, -100.078818) "></path>
                                <path d="M113.613445,154 L113.613445,190.413793 C113.613445,195.655172 117.869603,199.91133 123.110982,199.91133 L159.524775,199.91133 L113.613445,154 Z" id="Shape" fill="#B0B0B0" transform="translate(136.569110, 176.955665) scale(1, -1) translate(-136.569110, -176.955665) "></path>
                            </g>
                            <g id="Group-Copy" transform="translate(219.465564, 150.185107) scale(-1, -1) rotate(24.000000) translate(-219.465564, -150.185107) translate(163.965564, 80.185107)">
                                <path d="M79.09309,0.932633569 L6.72437083,0.932633569 C3.08816394,0.932633569 0.135454576,3.88534293 0.135454576,7.52154983 L0.135454576,133.203077 C0.135454576,136.839284 3.08816394,139.791993 6.72437083,139.791993 L104.355159,139.791993 C107.991366,139.791993 110.944075,136.839284 110.944075,133.203077 L110.944075,32.8109587 L79.09309,0.932633569 Z" id="Shape" fill="#E6E6E6" transform="translate(55.539765, 70.362313) scale(1, -1) translate(-55.539765, -70.362313) "></path>
                                <path d="M79.1354546,107.932634 L79.1354546,133.194703 C79.1354546,136.830909 82.0881639,139.783619 85.7243708,139.783619 L110.98644,139.783619 L79.1354546,107.932634 Z" id="Shape" fill="#B0B0B0" transform="translate(95.060947, 123.858126) scale(1, -1) translate(-95.060947, -123.858126) "></path>
                            </g>
                            <g id="Group-6" transform="translate(131.000000, 0.000000)">
                                <path d="M52.2432432,6.7027027 L38.5675676,6.7027027 C37.5675676,2.83783784 34.0810811,0 29.8918919,0 C25.7027027,0 22.2162162,2.83783784 21.1891892,6.7027027 L7.51351351,6.7027027 C3.35135135,6.7027027 0,10.0540541 0,14.2162162 L0,23.1081081 L59.7567568,23.1081081 L59.7567568,14.2162162 C59.7567568,10.0540541 56.4054054,6.7027027 52.2432432,6.7027027 Z" id="Shape" fill="#969694"></path>
                                <path d="M52.2432432,6.7027027 L38.5675676,6.7027027 C37.5675676,2.83783784 34.0810811,0 29.8918919,0 C25.7027027,0 22.2162162,2.83783784 21.1891892,6.7027027 L7.51351351,6.7027027 C3.35135135,6.7027027 0,10.0540541 0,14.2162162 L0,16.6756757 C0,12.5135135 3.35135135,9.16216216 7.51351351,9.16216216 L21.1891892,9.16216216 C22.2162162,5.2972973 25.7027027,2.45945946 29.8918919,2.45945946 C34.0810811,2.45945946 37.5675676,5.2972973 38.5945946,9.16216216 L52.2702703,9.16216216 C56.4324324,9.16216216 59.7837838,12.5135135 59.7837838,16.6756757 L59.7837838,14.2162162 C59.7567568,10.0540541 56.4054054,6.7027027 52.2432432,6.7027027 Z" id="Shape" fill="#91918F"></path>
                            </g>
                            <g id="12" transform="translate(107.000000, 60.000000)" fill="#DBDFE0">
                                <polygon id="Shape" points="0.122807018 0.122807018 69.8526316 0.122807018 69.8526316 5.64912281 0.122807018 5.64912281"></polygon>
                                <polygon id="Shape" points="0.122807018 16.4561404 69.8526316 16.4561404 69.8526316 21.9824561 0.122807018 21.9824561"></polygon>
                                <polygon id="Shape" points="0.122807018 32.7894737 50.277193 32.7894737 50.277193 38.3157895 0.122807018 38.3157895"></polygon>
                            </g>
                        </g>
                    </g>
                </g>
            </g>
        </g>
    </g>
</svg>