<?xml version="1.0" encoding="UTF-8"?>
<svg width="60px" height="60px" viewBox="0 0 60 60" version="1.1" xmlns="http://www.w3.org/2000/svg" xmlns:xlink="http://www.w3.org/1999/xlink">
    <!-- Generator: Sketch 47.1 (45422) - http://www.bohemiancoding.com/sketch -->
    <title>Group 7</title>
    <desc>Created with Sketch.</desc>
    <defs>
        <circle id="path-1" cx="30" cy="30" r="30"></circle>
    </defs>
    <g id="Page-1" stroke="none" stroke-width="1" fill="none" fill-rule="evenodd">
        <g id="Person-info" transform="translate(-186.000000, -1078.000000)">
            <g id="Group-7" transform="translate(186.000000, 1078.000000)">
                <g id="Page-1">
                    <mask id="mask-2" fill="white">
                        <use xlink:href="#path-1"></use>
                    </mask>
                    <use id="Mask" fill="#F2F2EF" xlink:href="#path-1"></use>
                </g>
                <g id="prosciutto" transform="translate(15.000000, 15.000000)" fill-rule="nonzero">
                    <path d="M6.02560435,30 C5.19064565,30 4.35568043,29.6821957 3.72006522,29.0465804 C3.21883696,28.5453522 2.90102609,27.8931783 2.80612826,27.1938717 C2.10682174,27.0989739 1.45464783,26.7811696 0.953419565,26.2799348 C-0.31781087,25.0087043 -0.31781087,22.9394543 0.953419565,21.6682239 C1.56929348,21.05235 2.38769348,20.7135261 3.2589587,20.7128935 C3.90858261,20.7128935 4.52891739,20.9014109 5.05753043,21.2529717 L8.29164783,18.0188543 C8.54385652,17.7666457 8.95146522,17.7628239 9.20749565,18.0124826 L12.014263,20.7396391 C12.1390957,20.8612826 12.2104239,21.0275152 12.2116957,21.2026565 C12.2129674,21.3771652 12.1441826,21.544663 12.0206283,21.6682239 L8.74638261,24.9431022 C9.58325217,26.2079609 9.44505,27.9332935 8.33176957,29.0465739 C7.69616087,29.6821957 6.86120217,30 6.02560435,30 Z" id="Shape" fill="#EAD8C5"></path>
                    <path d="M26.2385348,4.62826957 C23.2566261,1.64763261 19.4454848,-0.578934783 17.9322326,0.933678261 L12.3983087,6.4682413 C10.8831457,7.98339783 10.3844674,9.96157826 9.9023413,11.8754283 C9.44823913,13.6778217 9.01897826,15.380863 7.78659783,16.6132435 C7.7859587,16.6132435 7.7859587,16.6138826 7.7859587,16.6138826 L7.78531304,16.6145217 C7.78468043,16.6151609 7.78468043,16.6151609 7.78404783,16.6157935 C7.78404783,16.6157935 7.78404783,16.6157935 7.7834087,16.6157935 C7.53183913,16.8711848 7.53311087,17.2819761 7.7865913,17.535463 L12.3983022,22.1465348 C12.5256783,22.2739109 12.6925435,22.3376022 12.8594087,22.3376022 C13.0262739,22.3376022 13.1931391,22.2739109 13.3205152,22.1465348 C14.5528957,20.9141543 16.2552978,20.4855261 18.0576913,20.0314304 C19.9715413,19.5493043 21.9503543,19.0506196 23.4655109,17.535463 L29.0000739,12.0015391 C30.4439087,10.5570652 29.4115174,7.80061304 26.2385348,4.62826957 Z" id="Shape" fill="#E86C60"></path>
                </g>
            </g>
        </g>
    </g>
</svg>