<?xml version="1.0" encoding="iso-8859-1"?>
<!-- Generator: Adobe Illustrator 19.0.0, SVG Export Plug-In . SVG Version: 6.00 Build 0)  -->
<svg version="1.1" id="Capa_1" xmlns="http://www.w3.org/2000/svg" xmlns:xlink="http://www.w3.org/1999/xlink" x="0px" y="0px"
	 viewBox="0 0 512 512" style="enable-background:new 0 0 512 512;" xml:space="preserve">
<circle style="fill:#4EBD9E;" cx="256" cy="259.938" r="252.062"/>
<path style="fill:#FCBD5E;" d="M414.326,70.892H97.674c-13.391,0-23.631,10.24-23.631,23.631v385.969
	c0,13.391,10.24,23.631,23.631,23.631h317.44c13.391,0,23.631-10.24,23.631-23.631V94.523
	C437.957,81.132,427.717,70.892,414.326,70.892z"/>
<path style="fill:#183651;" d="M414.326,512H97.674c-17.329,0-31.508-14.178-31.508-31.508V94.523
	c0-17.329,14.178-31.508,31.508-31.508h317.44c17.329,0,31.508,14.178,31.508,31.508v385.969
	C445.834,497.822,431.655,512,414.326,512z M97.674,78.769c-8.665,0-15.754,7.089-15.754,15.754v385.969
	c0,8.665,7.089,15.754,15.754,15.754h317.44c8.665,0,15.754-7.089,15.754-15.754V94.523c0-8.665-7.089-15.754-15.754-15.754H97.674z
	"/>
<g>
	<rect x="105.551" y="102.4" style="fill:#FFFFFF;" width="301.686" height="370.215"/>
	<rect x="167.778" y="39.385" style="fill:#FFFFFF;" width="176.443" height="63.015"/>
</g>
<path style="fill:#183651;" d="M344.222,110.277H167.778c-4.726,0-7.877-3.151-7.877-7.877V39.385c0-4.726,3.151-7.877,7.877-7.877
	h176.443c4.726,0,7.877,3.151,7.877,7.877V102.4C352.098,107.126,348.16,110.277,344.222,110.277z M175.655,94.523h160.689V47.262
	H175.655V94.523z"/>
<circle style="fill:#FFFFFF;" cx="256" cy="39.385" r="31.508"/>
<path style="fill:#183651;" d="M256,78.769c-22.055,0-39.385-17.329-39.385-39.385S233.945,0,256,0s39.385,17.329,39.385,39.385
	S278.055,78.769,256,78.769z M256,15.754c-13.391,0-23.631,10.24-23.631,23.631S242.609,63.015,256,63.015
	s23.631-10.24,23.631-23.631S269.391,15.754,256,15.754z"/>
<path style="fill:#FFFFFF;" d="M343.434,336.345l-63.803-91.372v-78.769h0.788c5.514,0,10.24-4.726,10.24-10.24
	c0-5.514-4.726-10.24-10.24-10.24h-49.625c-5.514,0-10.24,4.726-10.24,10.24c0,5.514,4.726,10.24,10.24,10.24h0.788v79.557
	l-63.803,91.372c-5.514,8.665,0,19.692,10.24,19.692h154.388C343.434,356.037,348.948,345.009,343.434,336.345z"/>
<path style="fill:#183651;" d="M333.194,363.914H178.806c-7.877,0-14.178-3.938-18.117-11.028
	c-3.151-6.302-3.151-14.966,1.575-20.48l62.228-89.009v-70.105c-6.302-2.363-11.028-9.452-11.028-16.542
	c0-10.24,7.877-18.117,18.117-18.117h49.625c10.24,0,18.117,7.877,18.117,18.117c0,7.877-4.726,14.178-11.028,16.542v70.105
	l62.228,89.009c4.726,6.302,4.726,14.178,1.575,21.268C347.372,359.975,341.071,363.914,333.194,363.914z M231.582,153.6
	c-1.575,0-2.363,0.788-2.363,2.363c0,1.575,0.788,2.363,2.363,2.363h0.788c4.726,0,7.877,3.151,7.877,7.877v79.557
	c0,1.575-0.788,3.151-1.575,4.726l-63.803,91.372c-1.575,2.363-0.788,3.938,0,4.726c0,0.788,1.575,2.363,3.938,2.363h154.388
	c2.363,0,3.938-1.575,3.938-2.363c0-0.788,0.788-2.363,0-4.726l-63.803-91.372c-0.788-1.575-1.575-3.151-1.575-4.726v-79.557
	c0-4.726,3.151-7.877,7.877-7.877h0.788c1.575,0,2.363-0.788,2.363-2.363c0-1.575-0.788-2.363-2.363-2.363L231.582,153.6
	L231.582,153.6z"/>
<g>
	<polygon style="fill:#2AA0DA;" points="241.034,276.48 203.225,330.831 308.775,330.831 270.966,276.48 	"/>
	<circle style="fill:#2AA0DA;" cx="256" cy="179.594" r="7.089"/>
	<circle style="fill:#2AA0DA;" cx="256" cy="211.889" r="7.089"/>
	<circle style="fill:#2AA0DA;" cx="256" cy="244.185" r="7.089"/>
</g>
<g>
	<path style="fill:#183651;" d="M345.797,403.298H166.203c-4.726,0-7.877-3.151-7.877-7.877s3.151-7.877,7.877-7.877h179.594
		c4.726,0,7.877,3.151,7.877,7.877S349.735,403.298,345.797,403.298z"/>
	<path style="fill:#183651;" d="M323.742,442.683H188.258c-4.726,0-7.877-3.151-7.877-7.877s3.151-7.877,7.877-7.877h135.483
		c4.726,0,7.877,3.151,7.877,7.877S328.468,442.683,323.742,442.683z"/>
	<rect x="149.662" y="144.148" style="fill:#183651;" width="15.754" height="15.754"/>
	<rect x="149.662" y="197.711" style="fill:#183651;" width="15.754" height="15.754"/>
	<rect x="149.662" y="250.486" style="fill:#183651;" width="15.754" height="15.754"/>
	<rect x="346.585" y="144.148" style="fill:#183651;" width="15.754" height="15.754"/>
	<rect x="346.585" y="197.711" style="fill:#183651;" width="15.754" height="15.754"/>
	<rect x="346.585" y="250.486" style="fill:#183651;" width="15.754" height="15.754"/>
</g>
<g>
</g>
<g>
</g>
<g>
</g>
<g>
</g>
<g>
</g>
<g>
</g>
<g>
</g>
<g>
</g>
<g>
</g>
<g>
</g>
<g>
</g>
<g>
</g>
<g>
</g>
<g>
</g>
<g>
</g>
</svg>
