<svg xmlns="http://www.w3.org/2000/svg" xmlns:xlink="http://www.w3.org/1999/xlink" width="100" height="104" viewBox="0 0 100 104"><defs><path id="m4t9a" d="M981 845a50 50 0 1 1 100 0 50 50 0 0 1-100 0z"/><path id="m4t9c" d="M1025 823.5a9.5 9.5 0 1 1 19 0 9.5 9.5 0 0 1-19 0z"/><path id="m4t9d" d="M1025.2 846.7l1.8-9.7-17.32 8.8c-.8.4-1.43 1.1-1.76 1.94l-3.74 9.5c-.53 1.42.15 3 1.54 3.56a2.72 2.72 0 0 0 3.54-1.5l3.5-8.85z"/><path id="m4t9e" d="M1044.5 871.4l-14.3-10.4-3.2 10.55 11.5 6.36v14.47c0 2 1.69 3.62 3.75 3.62a3.68 3.68 0 0 0 3.75-3.62v-18.1c0-1.13-.56-2.2-1.5-2.89z"/><path id="m4t9f" d="M1058.8 847.28a2.79 2.79 0 0 0-3.63-1.55l-8.87 3.48-9.98-10.66a7.4 7.4 0 0 0-12.92 3.96s-9.4 51.72-9.4 52.84a3.71 3.71 0 0 0 7.3.98l15.22-46.74 7.16 4.88c1.02.7 2.33.84 3.48.38l10.09-3.95a2.78 2.78 0 0 0 1.55-3.62z"/><clipPath id="m4t9b"><use xlink:href="#m4t9a"/></clipPath></defs><g><g transform="translate(-981 -795)"><g><use fill="#f2f2ef" xlink:href="#m4t9a"/></g><g clip-path="url(#m4t9b)"><g><use fill="#fad984" xlink:href="#m4t9c"/></g><g><use fill="#f5bd6f" xlink:href="#m4t9d"/></g><g><use fill="#f5bd6f" xlink:href="#m4t9e"/></g><g><use fill="#fad984" xlink:href="#m4t9f"/></g></g></g></g></svg>