<svg xmlns="http://www.w3.org/2000/svg" xmlns:xlink="http://www.w3.org/1999/xlink" width="100" height="115" viewBox="0 0 100 115"><defs><path id="v8a0a" d="M571 1035a50 50 0 1 1 100 0 50 50 0 0 1-100 0z"/><path id="v8a0b" d="M644.1 1066.73l-21.73-11.85a3.96 3.96 0 0 0-5.84 3.47V1086a3.95 3.95 0 0 0 6.27 3.2l21.73-15.8a3.95 3.95 0 0 0-.43-6.67z"/><path id="v8a0c" d="M608.63 1018.85a11.85 11.85 0 1 1 23.7 0 11.85 11.85 0 0 1-23.7 0z"/><path id="v8a0d" d="M658 1034.65h-75.05a3.95 3.95 0 0 0 0 7.9h28.04l5.56 53.74a3.95 3.95 0 0 0 7.86 0l5.55-53.74H658a3.95 3.95 0 0 0 0-7.9z"/></defs><g><g transform="translate(-571 -985)"><use fill="#f2f2ef" xlink:href="#v8a0a"/></g><g transform="translate(-571 -985)"><use fill="#f6bd70" xlink:href="#v8a0b"/></g><g transform="translate(-571 -985)"><use fill="#fbd984" xlink:href="#v8a0c"/></g><g transform="translate(-571 -985)"><use fill="#fbd984" xlink:href="#v8a0d"/></g></g></svg>