<svg xmlns="http://www.w3.org/2000/svg" xmlns:xlink="http://www.w3.org/1999/xlink" width="100" height="100" viewBox="0 0 100 100"><defs><path id="4fpxa" d="M571 845a50 50 0 1 1 100 0 50 50 0 0 1-100 0z"/><path id="4fpxc" d="M588.4 855a3.3 3.3 0 0 1-2.4-1.05 3.75 3.75 0 0 1 0-5.1l10.2-10.8a3.3 3.3 0 0 1 2.4-1.05h17a3.5 3.5 0 0 1 3.4 3.6 3.5 3.5 0 0 1-3.4 3.6H600l-9.2 9.75a3.3 3.3 0 0 1-2.4 1.05z"/><path id="4fpxd" d="M615.67 879h-23.34a3.33 3.33 0 0 1-2.66-5.33l10-13.34a3.33 3.33 0 0 1 5.02-.36l13.33 13.34a3.33 3.33 0 0 1-2.35 5.69z"/><path id="4fpxe" d="M619 827a10 10 0 1 1 20 0 10 10 0 0 1-20 0z"/><path id="4fpxf" d="M646 838.01a3.35 3.35 0 0 0-4.8 0l-9.62 9.82s-9.33-8.53-9.9-9.01a7.6 7.6 0 0 0-10.83 1l-31.2 45.7c-2.38 3.5 2.33 7.45 5.23 4.38l37.79-40.03c.11-.14.18-.29.28-.43l6.55 5.73a3.34 3.34 0 0 0 4.63-.16l11.88-12.1a3.5 3.5 0 0 0 0-4.9z"/><clipPath id="4fpxb"><use xlink:href="#4fpxa"/></clipPath></defs><g><g transform="translate(-571 -795)"><g><use fill="#f2f2ef" xlink:href="#4fpxa"/></g><g clip-path="url(#4fpxb)"><g><use fill="#f5bd6f" xlink:href="#4fpxc"/></g><g><use fill="#f5bd6f" xlink:href="#4fpxd"/></g><g><use fill="#fad984" xlink:href="#4fpxe"/></g><g><use fill="#fad984" xlink:href="#4fpxf"/></g></g></g></g></svg>