<?xml version="1.0" encoding="UTF-8"?>
<svg width="100px" height="100px" viewBox="0 0 100 100" version="1.1" xmlns="http://www.w3.org/2000/svg" xmlns:xlink="http://www.w3.org/1999/xlink">
    <!-- Generator: Sketch 49 (51002) - http://www.bohemiancoding.com/sketch -->
    <title>Page 1</title>
    <desc>Created with Sketch.</desc>
    <defs>
        <circle id="path-1" cx="50" cy="50" r="50"></circle>
    </defs>
    <g id="Page-1" stroke="none" stroke-width="1" fill="none" fill-rule="evenodd">
        <g id="Activity-Tracker" transform="translate(-571.000000, -795.000000)">
            <g id="Group" transform="translate(530.000000, 766.000000)">
                <g id="Page-1" transform="translate(41.000000, 29.000000)">
                    <mask id="mask-2" fill="white">
                        <use xlink:href="#path-1"></use>
                    </mask>
                    <use id="Mask" fill="#F2F2EF" xlink:href="#path-1"></use>
                    <g id="user-run" mask="url(#mask-2)" fill-rule="nonzero">
                        <g transform="translate(8.000000, 22.000000)">
                            <path d="M9.39999617,38 C8.53007207,38 7.65931496,37.648442 6.99609387,36.945308 C5.66796871,35.539058 5.66796871,33.260924 6.99609387,31.854692 L17.1960951,21.054692 C17.8335952,20.379692 18.6985383,20 19.5999974,20 L36.5999996,20 C38.4776328,20 40,21.611918 40,23.6 C40,25.588082 38.4776328,27.2 36.5999996,27.2 L21.0086346,27.2 L11.8038985,36.945308 C11.1406604,37.648442 10.2699203,38 9.39999617,38 Z" id="Shape" fill="#F6BD70"></path>
                            <path d="M36.666668,62 L13.3333654,62 C12.0711671,62 10.9163686,61.2870136 10.3516027,60.1572837 C9.78763678,59.0275704 9.90890329,57.6764585 10.6665356,56.6655624 L20.6665224,43.3303018 C21.246755,42.5570734 22.1329872,42.0736035 23.0973526,42.0052436 C24.0698513,41.9531528 25.00735,42.2901181 25.6901158,42.9738003 L39.0234316,56.3090609 C39.9772136,57.2629821 40.2620299,58.6954724 39.7460806,59.9424026 C39.2301313,61.1877159 38.0151329,62 36.666668,62 Z" id="Shape" fill="#F6BD70"></path>
                            <circle id="Oval" fill="#FBD984" cx="50" cy="10" r="10"></circle>
                            <path d="M67.0061649,21.013673 C65.6827138,19.662625 63.5327141,19.662625 62.2092629,21.013673 L52.5798227,30.8307291 C52.5798227,30.8307291 43.2515501,22.2994902 42.6849528,21.8178686 C39.4222819,19.0447313 34.5694579,19.4948097 31.8495704,22.8233423 L0.652457189,68.5223128 C-1.73471448,72.019093 2.98299457,75.9662629 5.88075682,72.8966473 L43.6701927,32.8662504 C43.779611,32.7324166 43.851782,32.5814797 43.9510573,32.4425617 L50.5010442,38.1668893 C51.1420853,38.7394223 51.9387986,39.0231381 52.7338666,39.0231381 C53.6051255,39.0231381 54.4730769,38.6836857 55.1331488,38.0098478 L67.0061649,25.904458 C68.3312784,24.55341 68.3312784,22.364721 67.0061649,21.013673 Z" id="Shape" fill="#FBD984"></path>
                        </g>
                    </g>
                </g>
            </g>
        </g>
    </g>
</svg>