<svg xmlns="http://www.w3.org/2000/svg" xmlns:xlink="http://www.w3.org/1999/xlink" width="50" height="51" viewBox="0 0 50 51"><defs><path id="7078a" d="M189.88 378.3a24.94 24.94 0 1 1-49.88 0 24.94 24.94 0 0 1 49.88 0"/><path id="7078b" d="M180.99 387.56a3.13 3.13 0 0 1-6.27 0c0-1.73 3.13-7.64 3.13-7.64s3.14 5.91 3.14 7.64"/><path id="7078c" d="M177.7 373.16s.05 3.48-3.05 3.48c-3.1 0-3.03-3.45-3.03-3.45"/><path id="7078d" d="M157.25 373.16s.04 3.48-3.06 3.48-3.03-3.45-3.03-3.45"/><path id="7078e" d="M156.39 388.77s1.7-5.95 8.08-5.95 8 5.9 8 5.9"/></defs><g><g transform="translate(-140 -353)"><g><use fill="#fbd984" xlink:href="#7078a"/></g><g><use fill="#2ea7be" xlink:href="#7078b"/></g><g><use fill="#fff" fill-opacity="0" stroke="#f6bd70" stroke-linecap="round" stroke-miterlimit="50" stroke-width="3" xlink:href="#7078c"/></g><g><use fill="#fff" fill-opacity="0" stroke="#f6bd70" stroke-linecap="round" stroke-miterlimit="50" stroke-width="3" xlink:href="#7078d"/></g><g><use fill="#fff" fill-opacity="0" stroke="#f6bd70" stroke-linecap="round" stroke-miterlimit="50" stroke-width="3" xlink:href="#7078e"/></g></g></g></svg>