<?xml version="1.0" encoding="UTF-8"?>
<svg width="100px" height="100px" viewBox="0 0 100 100" version="1.1" xmlns="http://www.w3.org/2000/svg" xmlns:xlink="http://www.w3.org/1999/xlink">
    <!-- Generator: Sketch 47.1 (45422) - http://www.bohemiancoding.com/sketch -->
    <title>Page 1</title>
    <desc>Created with Sketch.</desc>
    <defs>
        <circle id="path-1" cx="50" cy="50" r="50"></circle>
        <polygon id="path-3" points="1.01643954e-19 0.0515 1.01643954e-19 42.5 40.59675 42.5 40.59675 0.0515"></polygon>
        <polygon id="path-5" points="16.847375 42.5 0.339875 42.5 0.339875 0.0515 16.847375 0.0515 16.847375 42.5"></polygon>
        <polygon id="path-7" points="41.25 0.0515 41.25 42.5 0.653 42.5 0.653 0.0515"></polygon>
        <polygon id="path-9" points="17.1605 42.5 0.653 42.5 0.653 0.0515 17.1605 0.0515 17.1605 42.5"></polygon>
        <polygon id="path-11" points="0.21575 0 37.76825 0 37.76825 37.552 0.21575 37.552"></polygon>
    </defs>
    <g id="Page-1" stroke="none" stroke-width="1" fill="none" fill-rule="evenodd">
        <g id="Person-info" transform="translate(-980.000000, -756.000000)">
            <g id="Page-1" transform="translate(980.000000, 756.000000)">
                <mask id="mask-2" fill="white">
                    <use xlink:href="#path-1"></use>
                </mask>
                <use id="Mask" fill="#F2F2EF" xlink:href="#path-1"></use>
                <g mask="url(#mask-2)">
                    <g transform="translate(10.000000, 20.000000)">
                        <polygon id="Fill-1" fill="#EFF3F5" points="29 80 50 80 50 45 29 45"></polygon>
                        <g id="Group-33" stroke-width="1" fill="none">
                            <path d="M49.681875,36.803125 C49.681875,41.940625 45.343125,46.104375 39.993125,46.104375 C34.640625,46.104375 30.303125,41.940625 30.303125,36.803125 C30.303125,31.666875 34.640625,27.503125 39.993125,27.503125 C45.343125,27.503125 49.681875,31.666875 49.681875,36.803125" id="Fill-2" fill="#FDC77C"></path>
                            <polygon id="Fill-4" fill="#F1786B" points="43.78225 48.93575 39.99225 46.1045 36.2035 48.93575 38.87975 51.7945 36.5685 66.35825 39.99225 78.042 43.41725 66.35825 41.106 51.7945"></polygon>
                            <path d="M30.73175,37.737 C30.73175,37.737 28.23175,49.237 35.043,55.16825 L39.993,46.1045 L30.73175,37.737 Z" id="Fill-6" fill="#FFFFFF"></path>
                            <path d="M49.2455,37.5515 C49.2455,37.5515 51.75425,49.23775 44.943,55.169 L39.993,46.10525 L49.2455,37.5515 Z" id="Fill-8" fill="#FFFFFF"></path>
                            <g id="Group-12" transform="translate(0.000000, 37.500000)">
                                <mask id="mask-4" fill="white">
                                    <use xlink:href="#path-3"></use>
                                </mask>
                                <g id="Clip-11"></g>
                                <path d="M30.75425,0.0515 L4.408,13.85025 L-0.00075,42.50025 L40.59675,42.50025 C40.59675,42.50025 29.703,7.7815 30.75425,0.0515" id="Fill-10" fill="#FFFFFF" mask="url(#mask-4)"></path>
                            </g>
                            <g id="Group-15" transform="translate(23.750000, 37.500000)">
                                <mask id="mask-6" fill="white">
                                    <use xlink:href="#path-5"></use>
                                </mask>
                                <g id="Clip-14"></g>
                                <path d="M7.003625,0.0515 L3.728625,1.76775 C2.162375,6.33525 0.631125,12.26525 0.339875,18.544 L5.536125,19.94025 L0.339875,25.82775 L12.541125,42.50025 L16.847375,42.50025 C16.847375,42.50025 5.952375,7.7815 7.003625,0.0515" id="Fill-13" fill="#DBDFE0" mask="url(#mask-6)"></path>
                            </g>
                            <g id="Group-18" transform="translate(38.750000, 37.500000)">
                                <mask id="mask-8" fill="white">
                                    <use xlink:href="#path-7"></use>
                                </mask>
                                <g id="Clip-17"></g>
                                <path d="M10.4955,0.0515 L36.8405,13.85025 L41.2505,42.50025 L0.653,42.50025 C0.653,42.50025 11.54675,7.7815 10.4955,0.0515" id="Fill-16" fill="#FFFFFF" mask="url(#mask-8)"></path>
                            </g>
                            <g id="Group-21" transform="translate(38.750000, 37.500000)">
                                <mask id="mask-10" fill="white">
                                    <use xlink:href="#path-9"></use>
                                </mask>
                                <g id="Clip-20"></g>
                                <path d="M10.4955,0.0515 L13.77175,1.76775 C15.33675,6.33525 16.86925,12.26525 17.1605,18.544 L11.96425,19.94025 L17.1605,25.82775 L4.95925,42.50025 L0.653,42.50025 C0.653,42.50025 11.54675,7.7815 10.4955,0.0515" id="Fill-19" fill="#DBDFE0" mask="url(#mask-10)"></path>
                            </g>
                            <g id="Group-24" transform="translate(21.000000, 0.000000)">
                                <mask id="mask-12" fill="white">
                                    <use xlink:href="#path-11"></use>
                                </mask>
                                <g id="Clip-23"></g>
                                <path d="M37.76825,18.77575 C37.76825,29.14575 29.362,37.552 18.992,37.552 C8.62325,37.552 0.21575,29.14575 0.21575,18.77575 C0.21575,8.40575 8.62325,-0.0005 18.992,-0.0005 C29.362,-0.0005 37.76825,8.40575 37.76825,18.77575" id="Fill-22" fill="#445C6C" mask="url(#mask-12)"></path>
                            </g>
                            <path d="M44.13075,14.1555 C39.7595,19.16425 31.247,19.67175 27.37075,19.623 L27.37075,29.45175 C27.37075,36.42175 33.022,42.073 39.992,42.073 C46.96325,42.073 52.61325,36.42175 52.61325,29.45175 L52.61325,20.29175 C48.1445,19.093 44.13075,14.1555 44.13075,14.1555" id="Fill-25" fill="#FBD984"></path>
                            <polygon id="Fill-27" fill="#41B3E2" points="59.088625 19.919625 20.896125 19.919625 20.997375 15.320875 58.987375 15.320875"></polygon>
                            <path d="M44.738,21.59325 C44.738,25.6995 41.408,29.0295 37.30175,29.0295 C33.19425,29.0295 29.86425,25.6995 29.86425,21.59325 C29.86425,17.48575 33.19425,14.15575 37.30175,14.15575 C41.408,14.15575 44.738,17.48575 44.738,21.59325" id="Fill-29" fill="#EFF3F5"></path>
                            <path d="M38.975125,21.59325 C38.975125,22.517 38.225125,23.267 37.301375,23.267 C36.376375,23.267 35.627625,22.517 35.627625,21.59325 C35.627625,20.66825 36.376375,19.91825 37.301375,19.91825 C38.225125,19.91825 38.975125,20.66825 38.975125,21.59325" id="Fill-31" fill="#788D9A"></path>
                        </g>
                    </g>
                </g>
            </g>
        </g>
    </g>
</svg>