<svg xmlns="http://www.w3.org/2000/svg" xmlns:xlink="http://www.w3.org/1999/xlink" width="24" height="24" viewBox="0 0 24 24"><defs><path id="99ela" d="M851 711a12 12 0 1 1 24 0 12 12 0 0 1-24 0z"/><path id="99elb" d="M857 711.3a1.3 1.3 0 1 1 2.6 0 1.3 1.3 0 0 1-2.6 0z"/><path id="99elc" d="M862.2 711.3a1.3 1.3 0 1 1 2.6 0 1.3 1.3 0 0 1-2.6 0z"/><path id="99eld" d="M867.4 711.3a1.3 1.3 0 1 1 2.6 0 1.3 1.3 0 0 1-2.6 0z"/></defs><g><g transform="translate(-851 -699)"><g><use fill="#e85a72" fill-opacity=".1" xlink:href="#99ela"/></g><g><use fill="#e75b72" xlink:href="#99elb"/></g><g><use fill="#e75b72" xlink:href="#99elc"/></g><g><use fill="#e75b72" xlink:href="#99eld"/></g></g></g></svg>