<?xml version="1.0" encoding="UTF-8"?>
<svg width="100px" height="100px" viewBox="0 0 100 100" version="1.1" xmlns="http://www.w3.org/2000/svg" xmlns:xlink="http://www.w3.org/1999/xlink">
    <!-- Generator: Sketch 49 (51002) - http://www.bohemiancoding.com/sketch -->
    <title>Page 1</title>
    <desc>Created with Sketch.</desc>
    <defs>
        <circle id="path-1" cx="50" cy="50" r="50"></circle>
    </defs>
    <g id="Page-1" stroke="none" stroke-width="1" fill="none" fill-rule="evenodd">
        <g id="Activity-Tracker" transform="translate(-981.000000, -795.000000)">
            <g id="Group" transform="translate(940.000000, 766.000000)">
                <g id="Page-1" transform="translate(41.000000, 29.000000)">
                    <mask id="mask-2" fill="white">
                        <use xlink:href="#path-1"></use>
                    </mask>
                    <use id="Mask" fill="#F2F2EF" xlink:href="#path-1"></use>
                    <g id="walk" mask="url(#mask-2)" fill-rule="nonzero">
                        <g transform="translate(23.000000, 19.000000)">
                            <circle id="Oval" fill="#FBD984" cx="30.5" cy="9.5" r="9.5"></circle>
                            <path d="M21.200558,32.6971985 L23,23 L5.68471834,31.7937558 C4.88039854,32.2005409 4.25225176,32.8924832 3.92005701,33.7376387 L0.180219769,43.2478542 C-0.352216104,44.6597838 0.334389191,46.2425318 1.7222203,46.8024411 C3.11005141,47.3623505 4.68532813,46.6921407 5.26002806,45.2972622 L8.76006173,36.4479668 L21.200558,32.6971985 Z" id="Shape" fill="#F6BD70"></path>
                            <path d="M40.5018727,57.3928867 L26.1985019,47 L23,57.5521092 L34.5093633,63.9065343 L34.5093633,78.3813069 C34.5093633,80.3798559 36.1861994,82 38.2546816,82 C40.3231639,82 42,80.3798559 42,78.3813069 L42,60.2878412 C42,59.1488311 41.4449657,58.0762927 40.5018727,57.3928867 Z" id="Shape" fill="#F6BD70"></path>
                            <path d="M54.8002912,33.2821173 C54.5255789,32.5969063 53.9890243,32.0485848 53.3087078,31.7578229 C52.6283912,31.4670609 51.8600639,31.457686 51.1728125,31.7317613 L42.3031622,35.2052264 L32.3229454,24.551165 C30.4086362,22.340375 27.3642431,21.4670247 24.564021,22.3253488 C21.7637989,23.183673 19.7375056,25.6112903 19.3998203,28.5123618 C19.3998203,28.5123618 10,80.2323127 10,81.3450084 C10.0269452,83.1805603 11.3967634,84.7203164 13.2216026,84.9662791 C15.0464419,85.2122419 16.7772346,84.0904046 17.2921622,82.3278896 L32.5182712,35.5946699 L39.6764957,40.4719861 C40.7002954,41.169646 42.0054819,41.3129046 43.1570149,40.8540116 L53.245126,36.8965239 C54.675436,36.3262211 55.3715673,34.7083213 54.8002912,33.2821173 Z" id="Shape" fill="#FBD984"></path>
                        </g>
                    </g>
                </g>
            </g>
        </g>
    </g>
</svg>