<svg xmlns="http://www.w3.org/2000/svg" xmlns:xlink="http://www.w3.org/1999/xlink" width="100" height="109.9" viewBox="0 0 100 109.9"><defs><path id="qxc3a" d="M570 806a50 50 0 1 1 100 0 50 50 0 0 1-100 0z"/><path id="qxc3c" d="M616.8 790.2s-.14-2.82 3.19-1.38c3.33 1.45 3.62 3.01 3.62 6.07 0 3.06 1.07 5.58 2.17 6.8 1.08 1.23 1.22 4.27 0 6.52 0 0 .79-2.96-.21-4.63 0 0 .2 3.62-.5 4.63 0 0 .64-3.19-.79-4.63 0 0 .79 1.73.07 3.33-.73 1.59 1.15 4.4 1.5 6.22a4.36 4.36 0 0 1-.78 3.25s1.01-2.67-.29-4.63c0 0 .79 2.23-.29 3.18 0 0 .29-.87-1.01-1.07-1.3-.21-1.61.1-2.06-.44-.47-.56-2.7-.58-2.7-.58l-1.89-13.01-.03-9.64z"/><path id="qxc3d" d="M618.97 803.64s.1 6.97 1.53 8.7c1.43 1.71.89 1.05.89 1.05s1.27.53 2.86.13c1.6-.4 3.48-.69 6.23.76 2.75 1.43 6.14 2.73 8.02 2.44 1.89-.29 6.37.05 6.37.05v-1.41s-1.5-3.25-2.09-7.16c-.58-3.91-3.04-5.5-3.04-5.5s-1.48-.8-1.91-1.68c0 0-1.96-3.05-2.88-5.27-.92-2.22-1-2.53-.53-2.53 0 0 .05-.66.53-.39 0 0 .38-1.22 1.88.49 1.48 1.7 2.78 3.44 2.78 3.31 0-.13-1.09-3.7-.43-3.83.66-.13.82.26 1.48 2.1a10.2 10.2 0 0 0 2.75 3.84c.61.53 2.14 2.35 2.04 3.44-.08 1.1.05 1.7 1.3 4.18 1.28 2.48 3.06 9.1 3.27 10.86.23 1.74 1.18 2.83.82 3.93-.35 1.1-2.96 2.04-4.84 2.4-1.88.35-9.52.52-11.07 0-1.54-.54-6.6-1.13-7.6-.54-.99.61-4.8 4.56-5.94 5.18-1.14.63-5.38 0-5.38 0l-14.04-4.78-2.22-1.97s-.56-1.3 0-4.12c.56-2.8 1.32-6.55 1.05-8.45-.28-1.9-1.97-12.06-.36-16.8 1.61-4.75.94-5.86 2.06-6.56 1.13-.69 9.81-2 18.53-.96 0 0 2.75.18 4.67 1.17 1.91 1 4.31 2.1 4.71 2.2.4.09 1.13 1.3 2.88 2.47 1.74 1.17 2.58 1.48 2.78 1.7.23.23.36 1.74-.25 1.7-.61-.04-.49.72-1 .54-.51-.2-2.57-1.46-3.44-2.53 0 0 .35 1.61-.39 1.39 0 0 .44 1.3-2.65-.74-3.1-2.05-4.23-1.48-4.54-3.5-.3-2-11.98 1.05-13.51 1.44-1.53.38-2.93.3-3.27 1.17-.35.87-.13 2.88.13 4.14.26 1.27-.35 4.28-.35 4.28s1.3 3.31 1.3 4.61c0 1.3 1.48 4.25 1.48 4.25l.56.27.76.02z"/><path id="qxc3e" d="M645.89 834.2c-.28-.18-1.61-1.57-1.61-1.57s-4.3-1.09-4.1-2.57a9.2 9.2 0 0 1 2.84-5.26s.89-3.23.52-4.86c-.37-1.62-.18-3.06-.18-3.06s-1.03-1.8 0-2.2c0 0 .36-.9 1.48 0 1.13.9 1.18 1.08 1.48 2.6.3 1.53 2.3 5.36 2.66 6.96.35 1.59 1.32 6.96 1.32 6.96z"/><path id="qxc3f" d="M615.25 864.77s-6.46-1.1-10.37-.62c-3.91.46-15.35.35-18.02-1.3-2.69-1.63-2.86-1.86-2.8-4.43.06-2.58 1.69-4.49 6.06-5.2 4.38-.7 15.35-2.22 18.81-1.78l12.45 5.43-4.12 2.51-.37 3z"/><path id="qxc3g" d="M616.5 858.74s-.93.02-1.22 0c-.3-.01-.87.49-1.52 0a3.23 3.23 0 0 0-2.22-.66c-.64.12-4.3-.29-5.48-.93-1.18-.64-5.37-2.04-7.47-1.58-2.09.47-5.48.47-5.48.47s-1.51.02-2.27 1.17c0 0 1.34.58 3.5.58 2.18 0 5.07-.64 6.9 0 1.8.65 5.19 1.64 5.94 1.47.76-.18 2.22.01 2.22.01l-1.8 1.9 3.16-1.8-1.8 2.45s2.4-2.27 2.4-2.11c0 .16-1.2 3.26-1.2 3.26l2.41-3.74-.75 3.74s1.75-2.73 1.93-3.04c.17-.29-.07 3.38-.07 3.38l2.82-4.57z"/><path id="qxc3h" d="M609.55 808.85s-4.9 5.61-4.9 6.58c0 0-4.88 4.1-5.6 6.95-.73 2.85.62 5.79.62 5.79s-.45 7.56 2.77 12.73c3.21 5.16 3.3 6.5 3.3 6.5s2.76 6.14 8.54-.71c5.77-6.86 4.8-7.39 4.8-7.39l-1.33-1.69s.53-.8 0-2.4c0 0-.27-1.06.63-1.86.88-.8 1.96-3.07 2.32-3.94.35-.87.7-1.22.7-1.22s-.8-.63-.98-1.61a11.2 11.2 0 0 0-1.86-4.36c-1.16-1.6-.8-4.46 2.84-8.82l-.88-1.06s-2.5 2.77-2.94 4.54c-.46 1.77-2.5 3.65-4.36 4.28-1.87.62-9.25 1.69-8.02-4.19 0 0 1.16-3.3 4.28-6.4l.66-1.43z"/><path id="qxc3i" d="M603.75 817.3s-5.03 3.54-3.8 8.22c0 0 1.78-3.72 4.25-4.12-.01.02-1.36-2.23-.45-4.1z"/><path id="qxc3j" d="M616.66 820.84s.35 2.35.88 3.07c.53.72-6.8 1.26-5.3 6.03 0 0-2.3-2.35-.8-6.03 1.5-3.68 5.22-3.07 5.22-3.07z"/><path id="qxc3k" d="M619.07 839.3s1.66 1.49 3.04 1.49c1.38 0 3.43-.26 5.8 1.52 2.39 1.79 3.74 4.83 6.46 6.02 2.72 1.2 11.45 4.92 12.72 6.28l.94.75s-2.63-2.88-2.46-7.38c.17-4.5-.34-13.74-1.28-15.35 0 0 4.5-1.79 6.02-1.45 0 0 .76 5.76 1.87 8.4 1.1 2.62 3.47 11.53 4.32 13.22.86 1.7 2.8 6.62 0 10.09-2.8 3.47-13.73 1.11-15.42.6 0 0-10.27-2.05-13.15-4-2.88-1.94-9.15-.59-11.02-1.86-1.86-1.27-10.63-7.53-11.16-10.25l13.32-8.07z"/><path id="qxc3l" d="M616.32 859.24s1.51-.71 2.62-1.8c1.11-1.12 2.58-1.58 3.56 0 1 1.57 1.1 2.97 3.67 3.26 2.55.29 3.2 0 4.2 1.11 0 0 2.9 1.5 2.62 2.98-.3 1.46-1.16 1.06-1.16 1.06s-.6-.4-1.11-.4c-.53 0-1.93-.3-1.93-.3s-8.4.1-10.09-.35c-1.69-.46-3.44 0-3.44 0s-1.8-1.72 1.06-5.56z"/><path id="qxc3m" d="M608.7 794.8s-1.02 2.55-.46 5.93a41.48 41.48 0 0 0 1.87 7.32c.3.64.37 1.6 2.72 1.27 2.34-.32 6.1-1.14 7.25-5.4 0 0 2.54-.95 2.03-3.2-.5-2.21-1.53-1.39-1.53-1.39s-1.83-6.74-5.47-7.45c-3.64-.7-6.42 2.93-6.42 2.93z"/><path id="qxc3n" d="M608.29 793.99s-1.15 1.33 1.81 1.14c2.96-.2 4.14-.39 5.02.51.89.9 2.72.65 2.72.65l-1.27.51s1.6 1.34 2.16 1.27l-.58 1.14.58 1.39 1.85-1.26s2.38-1.6 1.53-4.82c-1.28-4.85-10.1-8.87-13.82-.53z"/><path id="qxc3o" d="M623.94 810.24s2.83 4.89 0 7.48c0 0 2.06-2.56-.62-6.71 0 0 1.48 3.84-.58 6.7 0 0 1.12-2.66-.33-5.77 0 0 .12 2.38-2.05 3.46-2.74 1.37-1.77 4.96-1.77 4.96s-1.21-3.37.88-4.96c2.1-1.6 2.66-2 1.75-5.63l2.72.47z"/><clipPath id="qxc3b"><use xlink:href="#qxc3a"/></clipPath></defs><g><g transform="translate(-570 -756)"><g><use fill="#f2f2ef" xlink:href="#qxc3a"/></g><g clip-path="url(#qxc3b)"><g><use fill="#c97f4c" xlink:href="#qxc3c"/></g><g><use fill="#fdc77c" xlink:href="#qxc3d"/></g><g><use fill="#fbd983" xlink:href="#qxc3e"/></g><g><use fill="#3b5360" xlink:href="#qxc3f"/></g><g><use fill="#4e6775" xlink:href="#qxc3g"/></g><g><use fill="#41b3e1" xlink:href="#qxc3h"/></g><g><use fill="#50c5ea" xlink:href="#qxc3i"/></g><g><use fill="#50c5ea" xlink:href="#qxc3j"/></g><g><use fill="#445c6c" xlink:href="#qxc3k"/></g><g><use fill="#fbd983" xlink:href="#qxc3l"/></g><g><use fill="#fbd983" xlink:href="#qxc3m"/></g><g><use fill="#e39a61" xlink:href="#qxc3n"/></g><g><use fill="#c97f4c" xlink:href="#qxc3o"/></g></g></g></g></svg>